<?xml version="1.0" encoding="UTF-8" standalone="no"?>
<!-- Created with Inkscape (http://www.inkscape.org/) -->
<svg
   xmlns:svg="http://www.w3.org/2000/svg"
   xmlns="http://www.w3.org/2000/svg"
   version="1.0"
   width="763.79602"
   height="724.87299"
   viewBox="0 0 763.796 724.873"
   id="Layer_1"
   xml:space="preserve"><defs
   id="defs120" />
<g
   id="g3">
	<path
   d="M 273.279,680.121 C 278.418,712.975 324.671,730.906 348.957,691.809 L 273.279,680.121 L 273.279,680.121 z "
   style="fill:#ffff00;fill-rule:evenodd"
   id="path5" />
	<path
   d="M 279.008,685.376 C 280.798,690.553 283.805,695.157 287.572,698.929 C 292.502,703.875 298.765,707.38 305.523,708.865 C 312.205,710.386 319.38,709.931 326.23,706.963 C 331.599,704.638 336.797,700.757 341.401,695.007 L 279.008,685.376 L 279.008,685.376 z M 281.5,705.055 C 275.068,698.661 270.498,690.285 269.014,680.768 L 268.103,674.944 L 273.928,675.859 L 349.627,687.509 L 356.079,688.533 L 352.633,694.095 C 346.144,704.524 338.127,711.26 329.639,714.915 C 321.054,718.649 312.035,719.18 303.621,717.277 C 295.282,715.413 287.555,711.11 281.5,705.055 L 281.5,705.055 z "
   id="path7" />
	<path
   d="M 335.083,688.233 C 336.396,686.251 339.06,685.682 341.059,686.974 C 343.058,688.27 343.63,690.971 342.318,692.95 C 335.711,703.078 327.318,706.239 321.606,706.314 C 319.553,706.314 317.688,705.933 316.22,705.248 C 314.033,704.257 312.586,702.584 312.205,700.527 C 311.804,698.319 312.586,696.148 314.832,694.434 C 316.734,692.992 319.436,693.33 320.883,695.237 C 321.435,695.961 321.723,696.797 321.761,697.633 C 325.261,697.52 330.496,695.237 335.083,688.233 L 335.083,688.233 z "
   id="path9" />
	<path
   d="M 490.521,680.121 C 485.378,712.975 439.125,730.906 414.838,691.809 L 490.521,680.121 L 490.521,680.121 z "
   style="fill:#ffff00;fill-rule:evenodd"
   id="path11" />
	<path
   d="M 494.766,680.768 C 493.281,690.286 488.71,698.662 482.296,705.055 C 476.245,711.11 468.514,715.412 460.158,717.278 C 451.745,719.18 442.725,718.65 434.14,714.916 C 425.668,711.261 417.656,704.524 411.162,694.096 L 407.699,688.534 L 414.173,687.51 L 489.851,675.86 L 495.676,674.945 L 494.766,680.768 L 494.766,680.768 z M 476.203,698.929 C 479.991,695.158 482.981,690.553 484.771,685.376 L 422.374,695.006 C 427.003,700.756 432.18,704.637 437.565,706.962 C 444.398,709.931 451.594,710.386 458.272,708.864 C 465.03,707.38 471.294,703.875 476.203,698.929 L 476.203,698.929 z "
   id="path13" />
	<path
   d="M 421.462,692.95 C 420.166,690.971 420.718,688.27 422.717,686.974 C 424.715,685.682 427.4,686.25 428.696,688.233 C 433.283,695.237 438.518,697.52 442.039,697.633 C 442.077,696.796 442.361,695.96 442.913,695.237 C 444.36,693.33 447.061,692.992 448.969,694.434 C 451.214,696.148 451.992,698.319 451.573,700.527 C 451.193,702.584 449.767,704.256 447.559,705.248 C 446.112,705.934 444.246,706.314 442.173,706.314 C 436.479,706.239 428.086,703.078 421.462,692.95 L 421.462,692.95 z "
   id="path15" />
	<path
   d="M 343.609,692.648 C 353.715,724.357 402.16,734.941 420.186,692.607 L 343.609,692.648 L 343.609,692.648 z "
   style="fill:#ffff00;fill-rule:evenodd"
   id="path17" />
	<path
   d="M 350.082,696.985 C 352.654,701.823 356.325,705.896 360.628,709.053 C 366.244,713.167 372.96,715.639 379.872,716.136 C 386.742,716.592 393.768,715.07 400.048,711.11 C 404.999,707.949 409.527,703.307 413.22,696.947 L 350.082,696.985 L 350.082,696.985 z M 355.526,716.057 C 348.217,710.692 342.413,703.115 339.482,693.941 L 337.692,688.345 L 343.609,688.345 L 420.186,688.27 L 426.713,688.27 L 424.162,694.284 C 419.349,705.591 412.458,713.469 404.634,718.383 C 396.697,723.408 387.866,725.349 379.298,724.777 C 370.752,724.207 362.456,721.121 355.526,716.057 L 355.526,716.057 z "
   id="path19" />
	<path
   d="M 405.932,691.202 C 406.918,689.032 409.469,688.078 411.64,689.069 C 413.81,690.018 414.78,692.607 413.81,694.739 C 408.805,705.741 401.019,710.195 395.386,711.11 C 393.312,711.453 391.405,711.378 389.904,710.918 C 387.579,710.274 385.907,708.827 385.2,706.846 C 384.46,704.755 384.899,702.467 386.877,700.452 C 388.517,698.699 391.255,698.662 392.97,700.297 C 393.614,700.945 394.036,701.706 394.203,702.547 C 397.647,701.898 402.486,698.812 405.932,691.202 L 405.932,691.202 z "
   id="path21" />
	<path
   d="M 69.536,332.505 C 105.435,332.505 134.727,361.799 134.727,397.725 C 134.727,433.624 105.435,462.9 69.536,462.9 C 33.616,462.9 4.32,433.625 4.32,397.725 C 4.319,361.799 33.616,332.505 69.536,332.505 L 69.536,332.505 z "
   style="fill:#ffff00;fill-rule:evenodd"
   id="path23" />
	<path
   d="M 69.536,328.184 L 69.536,328.184 C 88.683,328.184 106.062,335.989 118.661,348.58 C 131.243,361.173 139.046,378.541 139.046,397.689 L 139.046,397.726 L 139.046,397.726 C 139.046,416.878 131.243,434.236 118.645,446.834 C 106.062,459.438 88.683,467.24 69.553,467.24 L 69.536,467.24 L 69.515,467.24 C 50.368,467.24 32.989,459.437 20.386,446.834 C 7.807,434.235 0,416.877 0,397.725 L 0,397.725 L 0,397.688 C 0,378.561 7.807,361.172 20.406,348.579 C 32.988,335.988 50.367,328.183 69.514,328.183 L 69.536,328.183 L 69.536,328.184 z M 69.536,336.835 L 69.536,336.835 L 69.515,336.835 C 52.747,336.835 37.538,343.678 26.516,354.698 C 15.493,365.727 8.644,380.935 8.644,397.687 L 8.644,397.724 L 8.644,397.724 C 8.661,414.476 15.493,429.705 26.516,440.706 C 37.538,451.746 52.764,458.6 69.515,458.6 L 69.536,458.6 L 69.553,458.6 C 86.304,458.6 101.512,451.746 112.531,440.745 C 123.575,429.706 130.408,414.476 130.408,397.724 L 130.408,397.724 L 130.408,397.687 C 130.408,380.935 123.575,365.727 112.531,354.708 C 101.512,343.678 86.304,336.835 69.536,336.835 L 69.536,336.835 z "
   id="path25" />
	<path
   d="M 69.477,343.563 L 69.477,343.563 C 84.438,343.573 97.971,349.655 107.793,359.457 C 117.578,369.261 123.629,382.805 123.649,397.725 L 123.649,397.725 L 123.649,397.725 C 123.649,412.65 117.578,426.164 107.754,435.987 C 97.97,445.768 84.438,451.823 69.476,451.823 L 69.476,451.823 L 69.455,451.823 C 54.573,451.823 41.037,445.768 31.235,435.95 C 21.413,426.165 15.324,412.65 15.324,397.763 L 15.324,397.725 L 15.324,397.725 C 15.324,382.805 21.412,369.253 31.235,359.439 C 41.037,349.637 54.572,343.574 69.455,343.564 L 69.477,343.564 L 69.477,343.563 z M 69.477,351.931 L 69.477,351.931 L 69.456,351.931 C 56.857,351.931 45.416,357.06 37.12,365.349 C 28.819,373.631 23.68,385.088 23.68,397.725 L 23.68,397.725 L 23.68,397.763 C 23.68,410.367 28.819,421.786 37.12,430.049 C 45.399,438.345 56.857,443.446 69.456,443.446 L 69.477,443.446 L 69.477,443.446 C 82.155,443.446 93.592,438.344 101.872,430.049 C 110.172,421.786 115.273,410.366 115.273,397.725 L 115.273,397.725 L 115.273,397.725 C 115.273,385.088 110.151,373.619 101.872,365.339 C 93.592,357.06 82.155,351.931 69.477,351.931 L 69.477,351.931 z "
   style="fill:#ff0000"
   id="path27" />
	<path
   d="M 40.448,356.403 L 40.469,356.422 L 40.561,356.507 C 41.155,357.059 42.029,357.801 43.112,358.726 C 44.216,359.648 45.265,360.505 46.236,361.266 C 51.434,365.349 57.848,369.792 62.092,371.59 C 65.479,370.859 71.363,368.383 76.594,366.175 C 79.851,364.806 82.858,363.522 85.162,362.732 C 86.417,360.581 86.76,358.603 87.14,356.403 C 87.35,355.184 87.579,353.909 87.902,352.588 L 96.315,354.587 C 96.009,355.795 95.838,356.852 95.667,357.859 C 95.04,361.476 94.488,364.657 91.461,368.881 L 89.103,370.537 C 87.216,371.052 83.734,372.515 79.949,374.125 C 73.664,376.751 66.548,379.778 62.244,380.33 L 62.206,380.33 L 62.147,380.33 L 60.19,380.121 C 55.03,378.31 47.072,372.917 40.904,368.054 C 39.553,367.017 38.433,366.101 37.538,365.35 C 36.643,364.589 35.69,363.75 34.72,362.867 L 37.099,360.268 L 40.448,356.403 L 40.448,356.403 z "
   style="fill:#ff0000"
   id="path29" />
	<path
   d="M 25.395,381.814 C 31.751,391.219 38.546,396.926 45.588,400.314 C 52.63,403.705 60.094,404.809 67.725,404.884 L 67.65,413.523 C 58.873,413.448 50.233,412.156 41.858,408.121 C 33.504,404.124 25.546,397.463 18.236,386.648 L 25.395,381.814 L 25.395,381.814 z "
   style="fill:#ff0000"
   id="path31" />
	<path
   d="M 66.717,376.085 C 71.781,391.599 74.445,403.588 74.026,414.781 C 73.608,426.201 70.028,436.554 62.568,448.586 L 55.238,444.057 C 61.845,433.399 65.023,424.337 65.383,414.477 C 65.747,404.391 63.234,393.272 58.492,378.77 L 66.717,376.085 L 66.717,376.085 z "
   style="fill:#ff0000"
   id="path33" />
	<path
   d="M 91.041,362.866 C 99.455,371.478 104.766,382.099 106.71,395.024 C 108.575,407.624 107.203,422.397 102.311,439.642 L 93.995,437.317 C 98.544,421.293 99.857,407.703 98.142,396.279 C 96.507,385.239 91.974,376.177 84.857,368.881 L 91.041,362.866 L 91.041,362.866 z "
   style="fill:#ff0000"
   id="path35" />
	<path
   d="M 116.737,378.064 L 116.72,378.085 L 116.72,378.064 C 116.302,378.616 115.749,379.263 115.122,379.987 C 114.512,380.674 113.885,381.359 113.274,381.986 C 109.941,385.431 105.851,388.856 102.481,390.683 L 98.371,383.148 C 100.938,381.739 104.25,378.92 107.052,376.01 C 107.642,375.4 108.173,374.826 108.628,374.304 C 109.047,373.819 109.507,373.276 109.979,372.657 L 110.038,372.591 L 110.038,372.582 L 114.073,375.877 L 116.779,378.01 C 116.758,378.01 116.758,378.047 116.737,378.047 L 116.737,378.064 L 116.737,378.064 z "
   style="fill:#ff0000"
   id="path37" />
	<path
   d="M 694.265,332.505 C 730.18,332.505 759.477,361.799 759.477,397.725 C 759.477,433.624 730.18,462.9 694.265,462.9 C 658.345,462.9 629.053,433.625 629.053,397.725 C 629.053,361.799 658.345,332.505 694.265,332.505 L 694.265,332.505 z "
   style="fill:#ffff00;fill-rule:evenodd"
   id="path39" />
	<path
   d="M 694.265,328.184 L 694.265,328.184 C 713.412,328.184 730.812,335.989 743.39,348.58 C 755.972,361.173 763.796,378.541 763.796,397.689 L 763.796,397.726 L 763.796,397.726 C 763.796,416.878 755.993,434.236 743.39,446.834 C 730.791,459.438 713.412,467.24 694.282,467.24 L 694.265,467.24 L 694.265,467.24 C 675.113,467.24 657.718,459.437 645.135,446.834 C 632.553,434.235 624.729,416.878 624.729,397.726 L 624.729,397.726 L 624.729,397.689 C 624.729,378.562 632.553,361.173 645.135,348.58 C 657.739,335.989 675.096,328.184 694.243,328.184 L 694.265,328.184 L 694.265,328.184 z M 694.265,336.835 L 694.265,336.835 L 694.244,336.835 C 677.497,336.835 662.284,343.678 651.245,354.698 C 640.226,365.727 633.393,380.935 633.393,397.687 L 633.393,397.724 L 633.393,397.724 C 633.393,414.476 640.226,429.705 651.245,440.706 C 662.267,451.746 677.497,458.6 694.266,458.6 L 694.266,458.6 L 694.283,458.6 C 711.034,458.6 726.243,451.746 737.282,440.745 C 748.304,429.706 755.137,414.476 755.137,397.724 L 755.137,397.724 L 755.137,397.687 C 755.137,380.935 748.304,365.727 737.282,354.708 C 726.241,343.678 711.032,336.835 694.265,336.835 L 694.265,336.835 z "
   id="path41" />
	<path
   d="M 694.318,343.563 L 694.318,343.563 C 709.205,343.573 722.741,349.645 732.543,359.449 C 742.365,369.253 748.453,382.805 748.475,397.725 L 748.475,397.725 L 748.475,397.725 C 748.454,412.65 742.366,426.164 732.543,435.987 C 722.741,445.768 709.205,451.823 694.34,451.823 L 694.319,451.823 L 694.302,451.823 C 679.362,451.823 665.825,445.768 656.024,435.95 C 646.223,426.165 640.151,412.65 640.13,397.763 L 640.13,397.725 L 640.13,397.725 C 640.151,382.785 646.201,369.241 656.003,359.439 L 656.024,359.439 C 665.826,349.637 679.362,343.574 694.302,343.564 L 694.318,343.564 L 694.318,343.563 z M 694.318,351.931 L 694.318,351.931 L 694.301,351.931 C 681.644,351.931 670.202,357.06 661.923,365.34 L 661.923,365.35 C 653.644,373.64 648.504,385.089 648.504,397.726 L 648.504,397.726 L 648.504,397.764 C 648.504,410.368 653.623,421.787 661.902,430.05 C 670.185,438.346 681.643,443.447 694.3,443.447 L 694.317,443.447 L 694.338,443.447 C 706.92,443.447 718.378,438.345 726.657,430.05 C 734.958,421.787 740.096,410.367 740.096,397.726 L 740.096,397.726 L 740.096,397.726 C 740.096,385.089 734.957,373.64 726.677,365.35 C 718.38,357.06 706.922,351.931 694.318,351.931 L 694.318,351.931 z "
   style="fill:#ff0000"
   id="path43" />
	<path
   d="M 665.14,356.403 L 665.14,356.422 L 665.219,356.47 C 665.997,357.175 666.875,357.926 667.808,358.716 L 667.825,358.708 C 669.138,359.801 670.225,360.696 670.949,361.267 C 676.163,365.35 682.556,369.793 686.881,371.591 C 690.155,370.867 695.846,368.48 701.023,366.31 L 701.023,366.293 C 704.373,364.884 707.53,363.55 709.951,362.722 C 711.131,360.639 711.473,358.727 711.833,356.613 C 712.063,355.338 712.31,354.006 712.69,352.522 L 721.066,354.652 C 720.76,355.871 720.551,357.012 720.363,358.098 C 719.732,361.61 719.18,364.722 716.328,368.845 L 713.89,370.555 C 711.966,371.07 708.312,372.604 704.352,374.269 L 704.352,374.26 C 698.146,376.865 691.222,379.78 687.032,380.331 L 687.015,380.331 L 686.956,380.331 L 685.032,380.139 C 679.76,378.312 671.86,372.926 665.655,368.055 C 664.074,366.826 662.97,365.943 662.267,365.37 L 662.267,365.35 C 661.222,364.466 660.269,363.638 659.449,362.893 L 661.507,360.6 L 665.14,356.403 L 665.14,356.403 z "
   style="fill:#ff0000"
   id="path45" />
	<path
   d="M 650.086,381.777 C 656.48,391.219 663.258,396.926 670.3,400.314 C 677.342,403.705 684.785,404.809 692.4,404.884 L 692.325,413.523 C 683.586,413.448 674.946,412.156 666.588,408.121 C 658.212,404.124 650.237,397.463 642.928,386.648 L 650.086,381.777 L 650.086,381.777 z "
   style="fill:#ff0000"
   id="path47" />
	<path
   d="M 691.521,376.102 C 696.489,391.599 699.157,403.588 698.738,414.782 C 698.337,426.202 694.778,436.594 687.389,448.587 L 680.026,444.058 C 686.59,433.4 689.731,424.3 690.095,414.478 C 690.454,404.392 687.983,393.273 683.3,378.729 L 691.521,376.102 L 691.521,376.102 z "
   style="fill:#ff0000"
   id="path49" />
	<path
   d="M 715.85,362.866 C 724.226,371.486 729.516,382.12 731.439,395.024 C 733.304,407.624 731.932,422.434 727.024,439.679 L 718.702,437.317 C 723.273,421.255 724.565,407.703 722.872,396.279 C 721.236,385.202 716.745,376.177 709.683,368.881 L 715.85,362.866 L 715.85,362.866 z "
   style="fill:#ff0000"
   id="path51" />
	<path
   d="M 741.471,378.064 L 741.471,378.085 L 741.471,378.064 C 741.011,378.653 740.48,379.301 739.89,379.987 C 739.28,380.674 738.653,381.359 738.041,381.986 C 734.713,385.431 730.561,388.856 727.211,390.683 L 723.084,383.148 C 725.651,381.739 729.022,378.92 731.819,376.01 C 732.409,375.408 732.923,374.839 733.4,374.304 C 733.818,373.802 734.273,373.267 734.692,372.715 L 734.767,372.59 L 734.788,372.581 L 738.539,375.646 L 741.562,377.966 C 741.524,377.987 741.507,378.008 741.47,378.045 L 741.47,378.064 L 741.471,378.064 z "
   style="fill:#ff0000"
   id="path53" />
	<path
   d="M 181.343,471.238 C 147.518,431.646 122.09,439.604 101.266,455.365 C 67.688,480.756 72.998,514.559 91.594,546.503 C 144.186,636.725 241.261,691.888 370.108,694.857 C 377.778,695.007 385.451,695.007 393.099,694.857 C 522.23,692.077 619.536,636.876 672.186,546.503 C 690.798,514.56 696.109,480.756 662.535,455.365 C 641.711,439.604 616.278,431.646 582.437,471.238 C 530.949,531.503 466.422,566.143 391.405,569.99 C 384.384,570.371 377.665,570.296 370.639,569.911 C 296.365,565.612 232.45,531.005 181.343,471.238 L 181.343,471.238 z "
   style="fill:#ffff00;fill-rule:evenodd"
   id="path55" />
	<path
   d="M 178.068,474.056 C 162.023,455.247 148.22,447.787 136.097,446.875 C 124.18,445.997 113.542,451.479 103.869,458.788 C 88.264,470.627 81.694,484.259 81.181,498.609 C 80.666,513.341 86.4,528.989 95.327,544.294 L 95.327,544.294 C 95.382,544.369 95.42,544.444 95.457,544.52 L 95.457,544.52 C 102.75,557.006 110.858,568.731 119.765,579.733 C 128.656,590.697 138.419,601.013 149.024,610.61 C 203.326,659.681 278.607,688.421 370.201,690.516 C 372.752,690.591 375.303,690.628 377.799,690.628 C 377.799,690.628 377.799,690.628 377.816,690.628 C 378.749,690.628 379.681,690.628 380.597,690.628 C 381.642,690.628 382.692,690.628 383.737,690.628 C 386.782,690.628 389.884,690.591 393.025,690.516 C 393.121,690.516 393.234,690.516 393.33,690.516 C 411.261,690.135 428.543,688.726 445.102,686.326 C 461.719,683.968 477.652,680.581 492.88,676.353 L 492.88,676.315 C 571.071,654.462 631.165,608.323 668.452,544.332 C 677.38,528.99 683.109,513.343 682.595,498.61 C 682.102,484.259 675.536,470.628 659.926,458.789 C 650.259,451.48 639.596,445.998 627.682,446.876 C 615.577,447.788 601.778,455.248 585.729,474.057 L 585.712,474.057 L 585.636,474.132 L 585.636,474.132 C 578.327,482.658 570.771,490.729 562.948,498.231 C 555.14,505.728 547.053,512.733 538.716,519.206 C 495.833,552.478 446.495,571.514 391.616,574.328 C 388.095,574.52 384.574,574.596 381.015,574.557 C 377.418,574.557 373.898,574.444 370.414,574.252 L 370.28,574.214 C 359.751,573.608 349.397,572.387 339.216,570.56 C 329.033,568.77 319.094,566.373 309.388,563.405 C 259.459,548.137 215.377,517.682 178.068,474.056 L 178.068,474.056 z M 136.746,438.232 C 151.001,439.298 166.837,447.637 184.634,468.42 C 220.859,510.829 263.57,540.335 311.879,555.104 C 321.301,557.999 330.914,560.319 340.699,562.071 C 350.463,563.823 360.494,564.965 370.752,565.575 L 370.869,565.575 C 374.39,565.763 377.76,565.919 381.034,565.919 C 384.325,565.919 387.695,565.839 391.179,565.689 C 444.264,562.946 491.985,544.559 533.441,512.39 C 541.511,506.11 549.356,499.335 556.966,491.989 C 564.581,484.679 571.949,476.873 579.067,468.539 L 579.088,468.539 L 579.163,468.422 L 579.163,468.422 C 596.943,447.64 612.796,439.301 627.034,438.234 C 641.502,437.13 653.988,443.487 665.124,451.9 C 683.092,465.528 690.665,481.443 691.259,498.344 C 691.827,514.828 685.606,532.035 675.917,548.632 C 637.483,614.647 575.643,662.153 495.222,684.654 L 495.2,684.654 C 479.573,689.033 463.261,692.458 446.321,694.895 C 429.323,697.329 411.698,698.776 393.5,699.156 C 393.403,699.194 393.291,699.194 393.194,699.194 C 390.075,699.236 386.914,699.273 383.735,699.311 C 382.69,699.311 381.64,699.311 380.595,699.311 C 379.641,699.311 378.692,699.311 377.759,699.273 L 377.738,699.273 C 375.129,699.273 372.561,699.236 370.031,699.156 C 276.247,697.028 199.042,667.485 143.214,617.005 C 132.384,607.258 122.336,596.599 113.065,585.179 C 103.816,573.759 95.44,561.654 87.976,548.863 L 87.976,548.863 C 87.959,548.825 87.921,548.75 87.884,548.671 L 87.863,548.633 C 78.195,532.036 71.969,514.829 72.542,498.345 C 73.132,481.444 80.688,465.529 98.677,451.901 C 109.813,443.485 122.278,437.128 136.746,438.232 L 136.746,438.232 z "
   id="path57" />
	<polygon
   points="171.976,479.462 168.99,476.034 166.151,473.028 163.412,470.326 160.766,467.85 158.177,465.643 155.685,463.699 153.284,461.951 150.98,460.466 148.756,459.169 146.623,458.103 144.587,457.192 142.626,456.468 140.739,455.895 138.934,455.44 137.181,455.172 135.487,454.984 133.832,454.905 132.196,454.946 130.578,455.059 128.96,455.285 127.342,455.627 125.724,456.05 124.089,456.582 122.433,457.192 120.756,457.916 119.079,458.713 117.406,459.587 115.692,460.579 113.961,461.645 112.246,462.787 110.515,464.003 108.838,465.262 106.195,467.353 103.833,469.411 101.7,471.467 99.76,473.521 98.029,475.578 96.486,477.631 95.135,479.726 93.918,481.784 92.869,483.836 91.974,485.932 91.213,488.027 90.586,490.122 90.092,492.292 89.712,494.458 89.461,496.666 89.311,498.916 89.289,501.199 89.386,503.557 89.615,505.958 89.938,508.391 90.377,510.867 90.929,513.379 91.614,515.93 92.393,518.519 93.287,521.145 94.299,523.813 95.403,526.514 96.599,529.215 97.916,531.958 99.305,534.698 100.789,537.441 102.349,540.179 107.203,548.212 112.305,556.019 117.615,563.592 123.193,570.977 128.998,578.135 135.049,585.102 141.333,591.838 147.84,598.349 154.598,604.667 161.563,610.76 168.781,616.623 176.204,622.255 183.873,627.663 191.755,632.801 199.863,637.752 208.201,642.432 216.744,646.889 225.521,651.113 234.508,655.073 243.698,658.765 253.12,662.232 262.754,665.426 272.594,668.358 282.642,671.026 292.903,673.421 303.37,675.554 314.05,677.381 324.918,678.979 335.999,680.238 347.264,681.266 358.726,681.948 370.451,682.408 371.78,682.408 373.189,682.446 374.599,682.483 376.008,682.483 377.396,682.483 378.806,682.521 380.215,682.521 381.624,682.521 383.013,682.521 384.422,682.521 385.831,682.521 387.219,682.483 388.628,682.483 390.037,682.446 391.442,682.446 392.776,682.408 404.522,681.986 416.018,681.304 427.324,680.313 438.423,679.016 449.307,677.457 460.008,675.629 470.495,673.497 480.773,671.101 490.859,668.433 500.72,665.501 510.371,662.344 519.813,658.877 529.025,655.186 538.049,651.226 546.821,647.002 555.406,642.548 563.744,637.866 571.874,632.915 579.772,627.738 587.441,622.335 594.885,616.699 602.119,610.835 609.103,604.748 615.859,598.424 622.392,591.918 628.688,585.14 634.744,578.173 640.548,571.014 646.143,563.629 651.475,556.019 656.576,548.212 661.447,540.179 662.99,537.441 664.475,534.698 665.863,531.958 667.176,529.215 668.376,526.514 669.501,523.813 670.488,521.145 671.383,518.519 672.165,515.93 672.851,513.379 673.402,510.867 673.858,508.391 674.181,505.958 674.394,503.557 674.485,501.199 674.469,498.916 674.335,496.666 674.067,494.458 673.687,492.25 673.193,490.122 672.566,488.027 671.801,485.932 670.906,483.836 669.86,481.784 668.66,479.726 667.293,477.631 665.75,475.578 664.02,473.521 662.074,471.467 659.946,469.411 657.584,467.353 654.937,465.262 653.264,464.003 651.533,462.787 649.818,461.645 648.104,460.579 646.394,459.587 644.696,458.713 643.023,457.916 641.347,457.192 639.69,456.582 638.072,456.05 636.438,455.627 634.819,455.285 633.222,455.059 631.604,454.946 629.964,454.905 628.309,454.984 626.598,455.172 624.846,455.44 623.035,455.895 621.153,456.468 619.209,457.192 617.156,458.103 615.023,459.169 612.815,460.466 610.495,461.951 608.095,463.699 605.603,465.643 603.03,467.85 600.367,470.326 597.624,473.028 594.81,476.034 591.799,479.462 586.873,485.095 581.75,490.728 576.536,496.21 571.263,501.504 565.877,506.681 560.433,511.666 554.893,516.503 549.276,521.224 543.585,525.753 537.802,530.093 531.956,534.279 526.019,538.352 520.001,542.199 513.913,545.929 507.745,549.433 501.502,552.821 495.184,556.019 488.785,559.026 482.316,561.882 475.785,564.545 469.183,567.059 462.5,569.342 455.742,571.512 448.927,573.453 442.039,575.205 435.073,576.802 428.064,578.211 420.985,579.428 413.83,580.457 406.634,581.297 399.362,581.979 392.091,582.439 390.627,582.514 389.234,582.551 387.846,582.626 386.458,582.665 385.086,582.665 383.698,582.702 382.326,582.702 380.955,582.702 379.566,582.665 378.195,582.665 376.845,582.626 375.456,582.589 374.085,582.551 372.696,582.476 371.325,582.401 369.861,582.322 362.665,581.828 355.468,581.142 348.33,580.231 341.251,579.165 334.226,577.943 327.297,576.497 320.405,574.899 313.573,573.11 306.815,571.131 300.138,568.961 293.514,566.64 286.966,564.165 280.492,561.459 274.099,558.608 267.76,555.597 261.495,552.402 255.311,549.053 249.201,545.511 243.168,541.819 237.209,537.971 231.325,533.936 225.521,529.75 219.793,525.41 214.155,520.919 208.582,516.273 203.1,511.439 197.692,506.451 192.361,501.349 187.109,496.059 181.953,490.653 176.868,485.058 171.976,479.462 "
   style="fill:#ff0000;fill-rule:evenodd"
   id="polygon59" />
	<path
   d="M 223.731,559.787 L 237.379,567.059 L 219.39,600.863 C 217.412,604.592 216.705,607.599 217.279,609.962 C 217.847,612.283 219.771,614.303 223.008,616.051 C 226.224,617.765 228.946,618.184 231.192,617.347 C 233.421,616.511 235.533,614.224 237.514,610.493 L 255.499,576.689 L 269.281,584.036 L 252.187,616.168 C 249.77,620.696 247.412,624.083 245.107,626.329 C 242.787,628.541 240.102,630.063 237.095,630.824 C 233.934,631.623 230.659,631.773 227.327,631.242 C 223.977,630.67 220.531,629.49 216.973,627.588 C 213.415,625.685 210.5,623.515 208.162,621.039 C 205.858,618.563 204.143,615.787 203.04,612.739 C 201.995,609.769 201.727,606.688 202.258,603.489 C 202.793,600.29 204.257,596.447 206.636,591.956 L 223.731,559.787 L 223.731,559.787 z M 267.187,649.403 L 282.015,589.899 L 298.498,594.009 L 304.858,616.355 C 305.904,620.01 306.857,623.589 307.71,627.131 C 308.567,630.669 309.35,634.098 310.052,637.523 C 310.968,632.994 311.863,628.729 312.72,624.769 C 313.594,620.809 314.413,617.346 315.154,614.34 L 318.943,599.111 L 333.636,602.765 L 318.809,662.269 L 302.383,658.192 L 295.722,635.165 C 294.919,632.422 294.104,629.415 293.209,626.065 C 292.33,622.715 291.419,619.098 290.466,615.213 C 289.801,619.173 289.115,622.828 288.412,626.215 C 287.706,629.565 287.041,632.575 286.392,635.126 L 281.917,653.095 L 267.187,649.403 L 267.187,649.403 z M 348.464,665.464 L 352.746,604.287 L 368.377,605.391 L 364.091,666.568 L 348.464,665.464 L 348.464,665.464 z M 405.969,666.304 L 402.54,617.538 L 385.027,618.755 L 384.154,606.344 L 434.864,602.803 L 435.738,615.213 L 418.209,616.43 L 421.634,665.201 L 405.969,666.304 L 405.969,666.304 z M 462.195,658.995 L 444.263,600.37 L 488.823,586.737 L 492.499,598.768 L 462.956,607.791 L 466.117,618.145 L 493.109,609.886 L 496.705,621.649 L 469.696,629.871 L 473.539,642.433 L 504.031,633.108 L 507.707,645.063 L 462.195,658.995 L 462.195,658.995 z M 539.931,615.063 L 547.411,610.911 C 551.639,608.591 554.072,605.584 554.666,602.005 C 555.256,598.388 554.072,593.935 551.125,588.603 C 548.135,583.238 544.978,579.851 541.607,578.442 C 538.257,577.071 534.448,577.564 530.204,579.889 L 522.744,584.036 L 539.931,615.063 L 539.931,615.063 z M 532.374,633.943 L 502.644,580.306 L 525.563,567.627 C 533.479,563.249 540.864,562.183 547.659,564.433 C 554.458,566.715 560.263,572.198 565.058,580.874 C 570.026,589.822 571.548,597.738 569.628,604.592 C 567.705,611.446 562.335,617.346 553.483,622.255 L 532.374,633.943 L 532.374,633.943 z "
   style="fill:#ffff00;fill-rule:evenodd"
   id="path61" />
	<path
   d="M 595.266,653.17 L 595.266,653.17 C 603.127,653.17 610.265,656.368 615.463,661.583 C 620.64,666.76 623.876,673.914 623.876,681.759 L 623.876,681.797 L 623.876,681.797 C 623.876,689.675 620.64,696.834 615.441,701.973 C 610.264,707.15 603.127,710.311 595.265,710.311 L 595.265,710.311 L 595.244,710.311 C 587.366,710.311 580.19,707.15 574.976,701.973 C 569.778,696.796 566.541,689.675 566.541,681.797 L 566.541,681.797 L 566.541,681.797 C 566.541,673.914 569.777,666.76 574.992,661.545 C 580.189,656.368 587.345,653.17 595.243,653.17 L 595.266,653.17 L 595.266,653.17 z M 595.266,659.639 L 595.266,659.639 L 595.245,659.639 C 589.119,659.681 583.579,662.152 579.544,666.15 C 575.529,670.147 573.033,675.668 573.033,681.797 L 573.033,681.797 L 573.033,681.797 C 573.033,687.89 575.529,693.409 579.544,697.406 C 583.563,701.362 589.119,703.838 595.245,703.838 L 595.266,703.838 L 595.266,703.838 C 601.359,703.838 606.878,701.362 610.892,697.406 C 614.89,693.409 617.382,687.889 617.382,681.797 L 617.382,681.797 L 617.382,681.759 C 617.382,675.667 614.89,670.147 610.892,666.15 C 606.878,662.152 601.337,659.681 595.266,659.639 L 595.266,659.639 z "
   id="path63" />
	<path
   d="M 590.983,679.322 L 596.407,679.322 C 597.875,679.322 598.941,679.054 599.623,678.523 C 600.329,677.992 600.672,677.114 600.672,675.935 C 600.672,674.906 600.329,674.145 599.66,673.614 C 598.995,673.117 597.967,672.853 596.599,672.853 L 590.983,672.853 L 590.983,679.322 L 590.983,679.322 z M 583.749,695.58 L 583.749,667.179 L 597.34,667.179 C 600.957,667.179 603.604,667.789 605.314,669.081 C 607.029,670.378 607.865,672.394 607.865,675.061 C 607.865,676.658 607.506,678.03 606.782,679.171 C 606.038,680.313 604.934,681.266 603.395,682.026 C 604.632,682.52 605.523,683.168 606.038,683.966 C 606.553,684.803 606.841,686.249 606.916,688.307 C 606.954,688.875 606.991,689.636 607.029,690.627 C 607.125,692.91 607.522,694.244 608.229,694.625 L 608.229,695.578 L 600.597,695.578 C 600.212,694.587 600.003,693.216 599.95,691.464 C 599.912,689.716 599.853,688.611 599.795,688.151 C 599.683,687.047 599.302,686.249 598.675,685.717 C 598.047,685.22 597.094,684.956 595.839,684.956 L 590.985,684.956 L 590.985,695.577 L 583.749,695.577 L 583.749,695.58 z "
   style="fill-rule:evenodd"
   id="path65" />
	<polygon
   points="521.716,195.876 242.063,195.876 242.063,502.148 381.888,593.135 521.716,502.148 521.716,195.876 "
   style="fill:#ff0000;fill-rule:evenodd"
   id="polygon67" />
	<path
   d="M 517.396,200.206 L 246.4,200.206 L 246.4,499.828 L 381.887,587.996 L 517.395,499.828 L 517.395,200.206 L 517.396,200.206 z M 242.063,191.546 L 521.715,191.546 L 526.038,191.546 L 526.038,195.876 L 526.038,502.148 L 526.038,504.473 L 524.057,505.765 L 384.25,596.752 L 381.888,598.312 L 379.55,596.752 L 239.722,505.765 L 237.741,504.473 L 237.741,502.148 L 237.741,195.876 L 237.741,191.546 L 242.063,191.546 L 242.063,191.546 z "
   id="path69" />
	<path
   d="M 270.841,283.083 L 504.165,283.083 L 504.165,277.381 L 460.882,277.381 L 460.882,261.543 C 455.609,261.744 450.453,261.934 445.406,262.106 L 445.293,253.693 L 460.063,253.693 L 460.063,222 L 444.875,219.278 L 444.816,214.576 L 439.961,214.576 L 439.907,219.278 L 424.715,222 L 424.715,253.692 L 439.488,253.692 L 439.372,262.191 L 436.231,262.191 L 436.231,262.4 C 425.438,262.724 415.143,262.971 405.375,263.134 L 405.375,262.191 L 402.219,262.191 L 402.106,253.692 L 416.876,253.692 L 416.876,222 L 401.685,219.278 L 401.63,214.576 L 396.775,214.576 L 396.716,219.278 L 381.527,222 L 381.527,253.692 L 396.297,253.692 L 396.185,262.191 L 393.024,262.191 L 393.024,263.295 C 381.796,263.399 371.326,263.38 361.674,263.228 L 361.674,262.191 L 358.517,262.191 L 358.42,253.692 L 373.19,253.692 L 373.19,222 L 357.982,219.278 L 357.923,214.576 L 353.089,214.576 L 353.034,219.278 L 337.826,222 L 337.826,253.692 L 352.596,253.692 L 352.499,262.191 L 349.342,262.191 L 349.342,262.952 C 324.977,262.229 306.761,260.506 295.471,257.66 C 295.684,266.035 299.109,272.252 304.173,277.38 L 265.552,277.38 L 270.841,283.083 L 270.841,283.083 z M 334.568,222.097 L 322.387,256.11 C 315.822,255.748 310.699,254.435 306.987,252.171 L 334.568,222.097 L 334.568,222.097 z "
   style="fill:#ffff00;fill-rule:evenodd"
   id="path71" />
	<polygon
   points="499.996,298.053 263.778,298.053 263.778,484.523 381.888,558.951 499.996,484.523 499.996,298.053 "
   style="fill:#ffff00;fill-rule:evenodd"
   id="polygon73" />
	<path
   d="M 288.601,380.254 C 304.21,359.857 316.011,362.418 327.243,368.262 C 322.539,373.355 317.63,377.892 311.462,378.616 C 320.712,384.976 324.195,391.257 323.986,397.65 C 323.283,420.151 323.986,442.686 323.986,465.187 C 322.502,471.886 323.38,479.346 350.673,480.412 C 350.673,484.029 350.673,489.319 350.673,492.936 C 348.846,497.468 346.696,503.332 346.316,508.203 C 345.764,515.283 345.593,521.032 347.951,527.768 C 349.704,532.832 354.119,536.487 357.205,540.865 C 359.371,553.201 352.614,558.416 355.566,566.448 C 357.318,571.245 364.129,574.327 369.177,573.528 C 376.98,572.273 382.822,565.495 389.316,561.004 C 394.627,557.312 395.12,552.285 391.503,546.841 C 387.869,541.589 383.224,536.905 380.614,531.043 C 379.284,528.074 378.406,524.076 380.062,521.263 C 382.328,517.453 387.333,516.161 390.951,513.648 C 392.419,510.562 393.33,507.1 390.42,501.125 C 386.422,494.384 381.547,488.141 378.427,480.986 C 376.048,475.466 379,473.029 382.784,476.608 C 396.111,489.207 408.806,502.53 420.89,516.349 C 427.899,524.345 431.512,524.001 431.248,513.648 C 431.131,509.726 428.734,506.109 428.525,502.191 C 428.182,496.023 428.751,489.818 429.608,483.687 C 430.026,480.68 431.339,477.862 432.331,474.968 C 433.891,470.402 432.197,465.948 426.335,465.719 C 422.32,465.569 419.694,466.174 419.255,463.018 C 418.778,459.401 418.628,455.67 419.255,452.091 C 420.627,444.514 419.749,444.97 412.192,449.385 C 408.006,451.823 405.091,449.348 404.56,446.112 C 403.799,441.395 407.814,435.415 412.727,429.248 C 422.529,433.969 432.331,438.689 442.132,443.411 C 442.324,443.335 442.512,443.223 442.726,443.142 L 441.907,526.134 L 453.803,526.134 L 452.924,439.07 C 453.857,438.689 454.811,438.346 455.742,437.966 C 460.464,430.352 460.823,423.423 456.825,417.259 C 461.927,413.642 463.185,408.729 463.909,403.669 C 460.083,397.158 456.257,393.085 452.452,390.455 L 452.28,374.26 L 464.365,374.26 L 469.353,374.26 L 473.254,374.26 L 472.891,339.283 L 477.879,333.972 L 468.801,318.145 L 459.739,333.972 L 464.727,339.283 L 464.518,359.012 L 452.124,359.012 L 451.936,339.283 L 456.92,333.972 L 447.842,318.145 L 438.78,333.972 L 443.748,339.283 L 443.56,359.012 L 431.165,359.012 L 430.977,339.283 L 435.945,333.972 L 426.883,318.145 L 417.825,333.972 L 422.793,339.283 L 422.45,374.26 L 427.434,374.26 L 431.319,374.26 L 443.404,374.26 L 443.291,386.345 C 442.358,386.081 441.426,385.889 440.493,385.697 C 427.815,383.681 420.585,390.841 411.637,394.951 C 409.145,396.093 406.364,392.438 407.831,389.507 C 408.705,387.755 411.732,388.516 413.275,387.337 C 415.805,385.358 417.632,382.615 419.802,380.257 C 413.291,375.478 406.802,370.711 400.291,365.944 C 402.06,365.969 403.85,365.99 405.622,366.019 C 406.228,356.843 406.839,347.679 407.429,338.513 C 411.197,332.509 414.948,326.493 418.699,320.478 C 414.262,320.66 409.868,320.851 405.43,321.03 C 402.595,315.872 399.74,310.703 396.905,305.546 C 392.297,309.495 388.111,314.294 385.464,322.126 C 381.83,321.574 378.193,321.03 374.559,320.478 C 371.724,315.625 368.868,310.77 366.033,305.907 C 361.387,310.467 358.322,315.558 358.038,321.574 C 351.661,320.88 346.446,322.153 342.963,326.314 C 352.041,336.059 359.732,348.431 364.946,365.477 C 365.899,365.487 366.832,365.496 367.781,365.514 C 362.7,371.816 356.838,377.59 352.84,384.595 C 350.917,387.986 351.339,392.477 352.84,396.056 C 355.755,402.906 360.321,408.656 361.007,421.067 C 359.008,424.529 357.01,427.996 355.011,431.421 C 348.843,438.505 344.448,437.664 343.039,428.72 C 341.533,419.127 339.651,409.534 339.781,399.863 C 339.84,394.8 341.478,389.739 343.591,385.132 C 345.36,381.247 350.043,378.926 351.205,374.803 C 352.192,371.274 351.431,367.075 349.566,363.919 C 347.036,359.605 340.257,358.321 338.676,353.573 L 329.427,325.801 C 328.703,328.714 327.98,331.615 327.239,334.517 C 322.176,331.977 317.091,329.436 312.01,326.894 C 306.737,334.147 301.485,341.409 296.211,348.67 C 292.042,348.49 287.873,348.308 283.688,348.128 C 282.601,349.754 281.518,351.392 280.43,353.029 C 283.156,362.094 285.878,371.172 288.601,380.254 L 288.601,380.254 z M 392.379,365.833 C 389.18,369.738 385.982,373.619 382.782,377.512 C 380.44,373.552 378.082,369.584 375.723,365.616 C 381.281,365.69 386.839,365.757 392.379,365.833 L 392.379,365.833 z M 443.01,414.059 L 443.065,408.652 C 441.183,400.924 429.8,402.676 420.359,405.834 C 430.428,418.512 441.086,422.28 443.01,414.059 L 443.01,414.059 z M 389.276,338.692 L 395.08,335.046 L 399.818,337.779 L 392.717,345.793 L 389.276,344.156 L 389.276,338.692 L 389.276,338.692 z M 368.757,336.873 L 373.475,335.227 L 377.472,343.431 L 373.646,347.437 L 368.565,342.697 L 368.757,336.873 L 368.757,336.873 z "
   style="fill:#ff0000;fill-rule:evenodd"
   id="path75" />
	<path
   d="M 640.623,172.33 C 639.443,144.635 651.876,122.546 669.25,138.164 C 681.987,151.81 694.741,165.468 707.474,179.116 C 692.304,163.64 688.574,209.98 690.058,225.017 C 672.926,212.35 656.367,195.437 640.623,172.33 L 640.623,172.33 z "
   style="fill:#ffff00;fill-rule:evenodd"
   id="path77" />
	<path
   d="M 636.304,172.52 C 635.811,161.1 637.558,150.478 640.966,142.695 C 643.04,137.974 645.783,134.204 649.058,131.777 C 652.75,129.047 657.015,127.991 661.695,129.076 C 665.065,129.846 668.569,131.75 672.128,134.947 L 672.412,135.234 L 710.632,176.175 L 704.41,182.142 C 704.372,182.115 704.351,182.077 704.313,182.057 L 704.313,182.057 L 704.276,182.011 C 703.285,181.012 702.506,180.487 701.896,180.345 C 701.591,180.269 701.135,180.658 700.604,181.373 C 699.367,183.019 698.279,185.751 697.368,189.09 C 694.282,200.34 693.579,216.852 694.341,224.619 L 695.294,234.27 L 687.487,228.483 C 678.714,222.002 670.108,214.445 661.695,205.566 C 653.302,196.695 645.06,186.502 637.065,174.769 L 636.363,173.732 L 636.304,172.52 L 636.304,172.52 z M 648.886,146.149 C 646.106,152.478 644.642,161.272 644.906,170.95 C 652.428,181.866 660.118,191.346 667.959,199.617 C 673.709,205.699 679.551,211.114 685.45,215.967 C 685.584,206.975 686.65,195.448 689.009,186.815 C 690.193,182.544 691.732,178.822 693.714,176.204 C 694.512,175.13 695.386,174.216 696.318,173.493 L 666.244,141.276 C 663.865,139.154 661.695,137.927 659.775,137.49 C 657.718,137.021 655.832,137.49 654.197,138.698 C 652.16,140.208 650.35,142.789 648.886,146.149 L 648.886,146.149 z "
   id="path79" />
	<path
   d="M 656.764,163.203 C 668.376,179.963 682.079,195.562 699.935,208.847 C 710.937,208.933 718.915,195.98 712.936,184.855 L 666.377,135.822 C 675.497,142.513 668.473,161.461 656.764,163.203 L 656.764,163.203 z "
   style="fill:#ffff00;fill-rule:evenodd"
   id="path81" />
	<path
   d="M 663.521,165.288 C 668.3,171.874 673.477,178.27 679.168,184.39 C 685.774,191.509 693.064,198.238 701.247,204.443 C 702.447,204.291 703.571,203.929 704.579,203.377 C 706.349,202.426 707.853,200.941 708.92,199.141 C 710.003,197.324 710.63,195.192 710.651,192.954 C 710.651,192.946 710.651,192.946 710.651,192.935 C 710.672,191.1 710.27,189.206 709.376,187.368 L 674.2,150.308 C 674.125,150.595 674.05,150.879 673.97,151.155 C 673.156,154.059 671.763,156.913 669.956,159.37 C 668.205,161.756 666.018,163.812 663.521,165.288 L 663.521,165.288 z M 672.851,190.271 C 665.596,182.466 659.144,174.216 653.205,165.65 L 649.267,159.948 L 656.137,158.93 C 658.801,158.531 661.2,156.714 663.007,154.267 C 664.191,152.639 665.123,150.744 665.654,148.823 C 666.189,146.977 666.36,145.112 666.109,143.446 C 665.98,142.513 665.691,141.637 665.256,140.895 L 663.257,138.791 L 668.927,132.339 C 670.224,133.272 671.269,134.376 672.126,135.594 L 716.074,181.884 L 716.475,182.304 L 716.743,182.808 C 718.55,186.168 719.332,189.641 719.311,192.982 L 719.311,193.001 C 719.273,196.789 718.207,200.425 716.363,203.536 C 714.498,206.668 711.83,209.275 708.673,210.979 C 706.027,212.396 703.058,213.195 699.897,213.176 L 698.508,213.157 L 697.366,212.31 C 688.192,205.487 680.102,198.092 672.851,190.271 L 672.851,190.271 z "
   id="path83" />
	<path
   d="M 123.152,172.33 C 124.351,144.635 111.903,122.546 94.546,138.164 C 81.792,151.81 69.059,165.468 56.305,179.116 C 71.475,163.64 75.206,209.98 73.742,225.017 C 90.854,212.35 107.412,195.437 123.152,172.33 L 123.152,172.33 z "
   style="fill:#ffff00;fill-rule:evenodd"
   id="path85" />
	<path
   d="M 118.87,170.95 C 119.138,161.272 117.69,152.478 114.91,146.149 C 113.426,142.789 111.636,140.209 109.583,138.697 C 107.943,137.489 106.078,137.02 104.025,137.489 C 102.101,137.926 99.952,139.145 97.573,141.257 L 67.458,173.5 C 68.39,174.215 69.269,175.129 70.088,176.203 C 72.045,178.821 73.588,182.542 74.767,186.814 C 77.147,195.447 78.196,206.974 78.33,215.966 C 84.23,211.113 90.072,205.698 95.839,199.616 C 103.683,191.356 111.352,181.866 118.87,170.95 L 118.87,170.95 z M 122.809,142.695 C 126.239,150.479 127.969,161.1 127.476,172.52 L 127.417,173.73 L 126.715,174.767 C 118.72,186.5 110.494,196.693 102.102,205.564 C 93.668,214.444 85.066,222 76.31,228.482 L 68.507,234.269 L 69.44,224.618 C 70.201,216.851 69.515,200.34 66.433,189.089 C 65.517,185.75 64.434,183.017 63.197,181.372 C 62.662,180.657 62.206,180.268 61.884,180.344 C 61.294,180.486 60.529,181 59.559,181.962 L 59.467,182.056 L 59.467,182.056 C 59.446,182.077 59.425,182.104 59.387,182.141 L 53.144,176.174 L 91.385,135.233 L 91.653,134.946 C 95.212,131.749 98.732,129.844 102.102,129.075 C 106.786,127.99 111.03,129.046 114.722,131.776 C 118.013,134.204 120.735,137.974 122.809,142.695 L 122.809,142.695 z "
   id="path87" />
	<path
   d="M 107.032,163.203 C 95.42,179.963 81.717,195.562 63.861,208.847 C 52.842,208.933 44.864,195.98 50.861,184.855 L 97.402,135.822 C 88.303,142.513 95.327,161.461 107.032,163.203 L 107.032,163.203 z "
   style="fill:#ffff00;fill-rule:evenodd"
   id="path89" />
	<path
   d="M 110.573,165.649 C 104.652,174.215 98.2,182.465 90.945,190.27 C 83.677,198.092 75.586,205.487 66.432,212.312 L 65.286,213.159 L 63.881,213.178 C 60.741,213.197 57.751,212.398 55.125,210.981 C 51.947,209.277 49.279,206.67 47.435,203.538 C 45.587,200.427 44.503,196.791 44.483,193.003 L 44.483,192.984 C 44.445,189.643 45.244,186.17 47.054,182.81 L 47.318,182.306 L 47.719,181.886 L 91.651,135.615 C 92.507,134.387 93.574,133.283 94.849,132.341 L 100.54,138.793 L 98.52,140.916 C 98.085,141.658 97.818,142.526 97.663,143.448 C 97.437,145.115 97.608,146.979 98.123,148.825 C 98.675,150.746 99.587,152.641 100.787,154.269 C 102.576,156.715 104.993,158.532 107.657,158.932 L 114.527,159.95 L 110.573,165.649 L 110.573,165.649 z M 84.627,184.389 C 90.302,178.269 95.479,171.873 100.254,165.287 C 97.762,163.811 95.591,161.756 93.822,159.368 C 92.011,156.911 90.644,154.057 89.824,151.153 C 89.728,150.877 89.653,150.593 89.595,150.317 L 54.403,187.376 C 53.508,189.214 53.128,191.106 53.128,192.933 C 53.128,192.944 53.128,192.944 53.128,192.952 C 53.145,195.189 53.772,197.322 54.859,199.139 C 55.925,200.939 57.426,202.424 59.199,203.375 C 60.228,203.927 61.348,204.289 62.528,204.441 C 70.715,198.237 78.003,191.508 84.627,184.389 L 84.627,184.389 z "
   id="path91" />
	<path
   d="M 411.355,39.328 C 423.803,21.424 442.683,7.274 467.238,14.021 C 484.942,18.884 497.467,36.434 495.58,60.474 C 465.126,46.922 437.754,41.783 411.355,39.328 L 411.355,39.328 z "
   style="fill:#ffff00;fill-rule:evenodd"
   id="path93" />
	<path
   d="M 407.813,36.871 L 407.813,36.863 L 407.813,36.842 C 409.624,34.264 411.581,31.713 413.713,29.238 C 415.866,26.735 418.111,24.404 420.416,22.32 C 432.939,11.005 449.005,4.531 468.383,9.853 L 468.383,9.853 L 468.42,9.872 L 468.458,9.891 C 471.234,10.652 473.882,11.691 476.374,12.985 C 478.925,14.298 481.287,15.868 483.474,17.648 C 494.63,26.785 501.368,42.023 499.904,60.818 L 499.427,66.909 L 493.811,64.417 C 478.908,57.772 464.687,53.185 450.962,49.951 C 437.163,46.704 423.937,44.83 410.953,43.622 L 403.627,42.936 L 407.813,36.871 L 407.813,36.871 z M 420.225,34.883 C 419.957,35.197 419.694,35.502 419.426,35.824 C 430.39,37.072 441.504,38.841 452.924,41.536 C 465.281,44.449 478.052,48.436 491.395,53.985 C 490.957,41.079 485.838,30.752 477.994,24.338 C 476.246,22.902 474.377,21.674 472.436,20.665 C 470.458,19.636 468.363,18.808 466.193,18.21 L 466.193,18.218 L 466.134,18.199 L 466.117,18.199 C 450.11,13.802 436.728,19.265 426.221,28.745 C 424.051,30.714 422.052,32.769 420.225,34.883 L 420.225,34.883 z "
   id="path95" />
	<path
   d="M 465.641,18.161 C 463.358,17.475 462.044,15.069 462.731,12.784 C 463.417,10.501 465.812,9.207 468.095,9.89 C 471.654,10.956 474.455,12.594 476.584,14.573 L 476.584,14.573 C 479.155,16.971 480.698,19.865 481.4,22.89 C 482.087,25.85 481.915,28.897 481.079,31.676 C 480.317,34.245 478.984,36.614 477.215,38.509 L 477.194,38.509 C 473.464,42.477 467.999,42.622 463.662,40.84 C 462.232,40.261 460.92,39.452 459.815,38.52 C 458.578,37.454 457.59,36.187 456.98,34.807 C 455.629,31.744 455.972,28.43 459.016,25.595 C 460.768,23.968 463.491,24.073 465.125,25.814 C 466.668,27.479 466.647,30.04 465.125,31.677 C 465.222,31.762 465.317,31.867 465.431,31.961 C 465.849,32.323 466.364,32.636 466.936,32.866 C 468.341,33.445 469.998,33.552 470.892,32.609 L 470.892,32.599 C 471.749,31.658 472.418,30.487 472.816,29.212 C 473.234,27.795 473.33,26.271 472.987,24.816 C 472.665,23.425 471.921,22.056 470.683,20.893 L 470.683,20.874 C 469.504,19.769 467.849,18.828 465.641,18.161 L 465.641,18.161 z "
   id="path97" />
	<path
   d="M 352.445,39.328 C 339.992,21.424 321.112,7.274 296.537,14.021 C 278.857,18.884 266.329,36.434 268.215,60.474 C 298.653,46.922 326.042,41.783 352.445,39.328 L 352.445,39.328 z "
   style="fill:#ffff00;fill-rule:evenodd"
   id="path99" />
	<path
   d="M 355.966,36.863 L 355.983,36.871 L 360.152,42.934 L 352.826,43.62 C 339.863,44.828 326.612,46.702 312.812,49.949 C 299.088,53.183 284.892,57.771 269.968,64.415 L 264.372,66.907 L 263.895,60.816 C 262.411,42.02 269.147,26.782 280.321,17.646 C 282.491,15.867 284.87,14.296 287.4,12.983 C 289.913,11.689 292.56,10.65 295.32,9.889 L 295.357,9.87 L 295.416,9.851 L 295.416,9.851 C 314.773,4.53 330.859,11.003 343.384,22.318 C 345.688,24.402 347.912,26.734 350.082,29.236 C 352.215,31.712 354.176,34.262 355.966,36.84 L 355.966,36.863 L 355.966,36.863 z M 344.354,35.824 C 344.086,35.502 343.819,35.197 343.555,34.883 C 341.744,32.769 339.745,30.714 337.559,28.745 C 327.072,19.265 313.669,13.802 297.663,18.199 L 297.663,18.199 L 297.588,18.218 L 297.588,18.21 C 295.435,18.808 293.344,19.636 291.361,20.665 C 289.4,21.675 287.535,22.902 285.783,24.338 C 277.942,30.753 272.824,41.079 272.402,53.985 C 285.745,48.436 298.499,44.449 310.851,41.536 C 322.274,38.841 333.41,37.072 344.354,35.824 L 344.354,35.824 z "
   id="path101" />
	<path
   d="M 295.684,9.89 C 297.967,9.206 300.384,10.5 301.049,12.784 C 301.735,15.069 300.443,17.476 298.155,18.161 C 295.947,18.828 294.292,19.769 293.112,20.873 L 293.112,20.892 C 291.875,22.055 291.113,23.424 290.808,24.815 C 290.465,26.27 290.561,27.794 290.979,29.211 C 291.36,30.486 292.029,31.657 292.903,32.598 L 292.903,32.608 C 293.798,33.551 295.433,33.444 296.842,32.865 C 297.414,32.635 297.929,32.322 298.347,31.96 C 298.46,31.866 298.556,31.761 298.653,31.665 C 297.147,30.028 297.127,27.469 298.67,25.813 C 300.288,24.071 303.031,23.967 304.763,25.594 C 307.827,28.429 308.15,31.743 306.799,34.806 C 306.189,36.186 305.201,37.453 303.964,38.519 C 302.876,39.451 301.547,40.26 300.138,40.839 C 295.797,42.621 290.315,42.476 286.602,38.508 L 286.585,38.508 C 284.812,36.614 283.461,34.245 282.7,31.675 C 281.864,28.896 281.709,25.85 282.394,22.889 C 283.081,19.864 284.623,16.97 287.191,14.572 L 287.212,14.572 C 289.324,12.593 292.121,10.956 295.684,9.89 L 295.684,9.89 z "
   id="path103" />
	<path
   d="M 355.451,38.575 C 358.345,29.259 362.381,19.722 374.331,8.357 C 380.671,2.352 383.66,3.684 388.683,8.357 C 397.138,16.191 404.046,25.709 408.329,37.815 C 390.702,38.071 373.077,38.329 355.451,38.575 L 355.451,38.575 z "
   style="fill:#ffff00;fill-rule:evenodd"
   id="path105" />
	<path
   d="M 351.341,37.311 C 352.863,32.352 354.707,27.336 357.735,22.073 C 360.78,16.8 365.024,11.261 371.363,5.236 C 375.532,1.278 378.865,-0.235 382.327,0.03 C 385.735,0.298 388.42,2.219 391.636,5.198 C 396.073,9.319 400.124,13.898 403.646,19.046 C 407.167,24.225 410.135,29.962 412.402,36.377 L 414.422,42.06 L 408.388,42.145 L 355.508,42.898 L 349.57,42.981 L 351.341,37.311 L 351.341,37.311 z M 365.253,26.403 C 363.71,29.058 362.531,31.628 361.54,34.16 L 401.972,33.578 C 400.37,30.114 398.543,26.907 396.506,23.919 C 393.387,19.321 389.749,15.23 385.751,11.519 C 383.924,9.833 382.594,8.748 381.679,8.682 C 380.783,8.615 379.471,9.435 377.322,11.49 C 371.705,16.829 367.938,21.738 365.253,26.403 L 365.253,26.403 z "
   id="path107" />
	<path
   d="M 368.355,8.186 C 370.107,6.56 372.846,6.656 374.486,8.397 C 376.104,10.138 376.025,12.879 374.277,14.506 C 374.16,14.61 374.105,14.677 374.068,14.706 L 374.047,14.715 C 373.855,14.934 373.688,15.162 373.532,15.42 C 373.323,15.763 373.152,16.125 373.039,16.486 C 372.353,18.542 372.713,20.854 373.817,22.158 C 373.988,22.348 373.666,21.864 373.742,21.834 C 373.913,21.748 374.068,21.654 374.219,21.539 C 373.571,20.14 373.688,18.426 374.674,17.104 C 376.105,15.199 378.806,14.811 380.708,16.247 C 383.489,18.331 383.924,21.167 382.916,23.956 C 382.439,25.212 381.603,26.432 380.558,27.458 C 379.625,28.382 378.447,29.191 377.188,29.733 C 373.914,31.161 370.108,31.038 367.311,27.801 C 364.321,24.347 363.217,18.608 364.852,13.753 C 365.195,12.764 365.634,11.813 366.165,10.918 C 366.721,10.013 367.402,9.157 368.185,8.377 L 368.222,8.348 C 368.586,7.996 367.783,8.729 368.355,8.186 L 368.355,8.186 z M 374.105,14.667 C 374.105,14.659 374.105,14.648 374.105,14.648 C 374.105,14.648 374.105,14.659 374.105,14.667 L 374.105,14.667 z M 374.239,14.525 C 374.256,14.506 374.256,14.496 374.256,14.496 L 374.239,14.525 L 374.239,14.525 z "
   id="path109" />
	<path
   d="M 50.823,240.226 C 137.637,183.808 166.344,86.96 279.292,49.483 C 337.998,29.991 430.883,30.334 489.032,50.863 C 598.196,89.396 627.317,184.569 712.956,240.226 C 712.956,283.93 696.719,325.948 662.058,338.949 C 631.659,350.35 598.004,318.896 577.222,291.124 C 540.369,241.919 505.976,205.278 467.334,183.722 C 415.942,155.084 353.072,154.048 300.937,181.305 C 260.451,202.47 224.836,240.025 186.579,291.124 C 165.771,318.896 132.118,350.35 101.743,338.949 C 67.077,325.948 50.823,283.93 50.823,240.226 L 50.823,240.226 z "
   style="fill:#ffff00;fill-rule:evenodd"
   id="path111" />
	<path
   d="M 48.481,236.609 C 83.296,213.978 108.8,184.54 134.287,155.143 C 172.093,111.525 209.857,67.974 277.941,45.371 C 278.342,45.237 277.598,45.486 279.104,45.001 L 279.104,44.99 C 287.479,42.268 296.575,39.926 306.15,37.975 C 315.726,36.024 325.715,34.483 335.961,33.34 C 388.382,27.478 448.357,31.923 490.462,46.788 C 555.637,69.791 592.526,112.391 629.45,155.047 C 654.957,184.494 680.465,213.968 715.314,236.609 L 717.275,237.895 L 717.275,240.227 L 717.275,240.246 C 717.275,258.177 714.59,275.869 709.092,291.544 C 707.741,295.429 706.197,299.159 704.521,302.709 C 695.673,321.391 682.121,336.028 663.558,342.986 L 663.541,342.994 C 658.762,344.784 653.966,345.622 649.152,345.679 C 644.431,345.717 639.652,344.974 634.893,343.605 C 611.559,336.848 589.171,314.282 573.775,293.714 C 555.463,269.275 537.78,247.965 519.908,230.11 C 502.148,212.38 484.18,198.056 465.221,187.493 L 464.899,187.311 C 457.912,183.437 450.677,180.079 443.255,177.233 C 435.832,174.387 428.276,172.073 420.641,170.304 C 381.355,161.186 339.439,166.049 302.933,185.14 C 283.079,195.525 264.387,209.952 245.943,228.064 C 227.364,246.327 209.036,268.312 190.06,293.675 L 190.06,293.683 L 190.039,293.694 L 190.002,293.732 C 187.012,297.73 183.775,301.775 180.372,305.725 C 176.926,309.712 173.271,313.643 169.445,317.394 C 149.152,337.254 124.066,351.932 100.235,342.985 L 100.214,342.985 C 94.983,341.013 90.166,338.464 85.767,335.4 L 85.75,335.4 C 81.351,332.326 77.315,328.736 73.682,324.701 C 55.275,304.345 46.502,272.691 46.502,240.227 L 46.502,237.895 L 48.481,236.609 L 48.481,236.609 z M 140.819,160.794 C 115.423,190.088 89.996,219.431 55.163,242.529 C 55.56,272.164 63.631,300.678 80.098,318.885 C 83.313,322.435 86.855,325.605 90.719,328.298 L 90.719,328.309 C 94.582,331.002 98.751,333.228 103.226,334.903 L 103.243,334.913 C 123.152,342.384 145.197,329.051 163.391,311.244 C 167.045,307.656 170.549,303.897 173.862,300.071 C 177.174,296.234 180.256,292.362 183.094,288.603 L 183.073,288.593 L 183.094,288.574 L 183.132,288.545 C 202.392,262.811 220.991,240.483 239.893,221.915 C 258.944,203.186 278.322,188.253 298.954,177.469 C 337.291,157.427 381.318,152.317 422.587,161.88 C 430.657,163.755 438.594,166.183 446.321,169.151 C 454.065,172.112 461.664,175.651 469.086,179.773 L 469.429,179.953 C 489.112,190.936 507.687,205.718 525.981,223.989 C 544.179,242.15 562.106,263.773 580.669,288.545 C 595.191,307.96 616.091,329.184 637.296,335.322 C 641.197,336.455 645.157,337.055 649.096,337.018 C 652.96,336.978 656.807,336.322 660.537,334.914 L 660.554,334.914 C 676.812,328.813 688.783,315.756 696.72,299.024 C 698.301,295.693 699.71,292.248 700.948,288.708 C 705.895,274.66 708.408,258.766 708.617,242.53 C 673.785,219.412 648.336,190.032 622.925,160.69 C 586.758,118.91 550.633,77.186 487.587,54.936 C 446.666,40.489 388.174,36.196 336.912,41.925 C 326.843,43.048 317.096,44.553 307.884,46.426 C 298.693,48.291 289.915,50.557 281.77,53.213 L 281.753,53.213 C 280.987,53.451 281.808,53.194 280.645,53.583 C 214.787,75.444 177.822,118.082 140.819,160.794 L 140.819,160.794 z "
   id="path113" />
	<polygon
   points="103.147,213.826 109.813,207.183 116.303,200.463 122.621,193.677 128.806,186.844 134.877,180 140.873,173.149 146.815,166.306 152.716,159.5 158.616,152.743 164.533,146.063 170.513,139.466 176.547,132.966 182.673,126.6 188.957,120.356 195.352,114.274 201.938,108.345 208.716,102.616 215.72,97.067 222.971,91.719 230.489,86.609 238.329,81.727 246.517,77.082 255.064,72.714 264.009,68.612 273.375,64.804 283.252,61.283 288.467,59.636 293.949,58.076 299.603,56.619 305.448,55.26 311.444,54.012 317.592,52.88 323.893,51.852 330.308,50.928 336.814,50.119 343.421,49.424 350.12,48.843 356.877,48.369 363.693,48.007 370.526,47.769 377.417,47.635 384.309,47.616 391.179,47.712 398.049,47.921 404.882,48.253 411.677,48.682 418.418,49.234 425.096,49.901 431.682,50.681 438.176,51.565 444.549,52.565 450.796,53.679 456.905,54.907 462.864,56.238 468.646,57.667 474.263,59.209 479.67,60.865 484.847,62.596 494.385,66.195 503.442,70.077 512.102,74.228 520.386,78.652 528.322,83.316 535.933,88.217 543.284,93.348 550.343,98.696 557.176,104.234 563.803,109.955 570.234,115.855 576.516,121.908 582.666,128.103 588.68,134.423 594.617,140.867 600.501,147.405 606.343,154.019 612.167,160.701 617.992,167.429 623.854,174.186 629.776,180.962 635.789,187.728 641.898,194.458 648.162,201.157 654.577,207.792 661.18,214.33 667.996,220.773 675.059,227.092 682.368,233.259 689.982,239.264 697.919,245.081 700.353,246.737 700.336,247.801 700.106,251.562 699.784,255.292 699.403,258.984 698.906,262.639 698.337,266.246 697.673,269.807 696.907,273.298 696.071,276.744 695.139,280.112 694.131,283.396 693.043,286.612 691.864,289.744 690.609,292.791 689.259,295.73 687.85,298.576 686.345,301.327 684.764,303.964 683.108,306.485 681.397,308.894 679.587,311.188 677.722,313.355 675.782,315.402 673.783,317.326 671.709,319.132 669.556,320.809 667.348,322.361 665.044,323.778 662.668,325.072 660.23,326.243 657.738,327.251 655.756,327.908 653.854,328.374 651.913,328.689 649.952,328.851 647.97,328.869 645.934,328.735 643.822,328.459 641.673,328.042 639.481,327.46 637.219,326.739 634.915,325.863 632.573,324.845 630.194,323.674 627.814,322.369 625.377,320.933 622.96,319.371 620.522,317.688 618.089,315.879 615.672,313.985 613.255,311.976 610.875,309.883 608.496,307.723 606.154,305.486 603.851,303.192 601.604,300.832 599.359,298.442 597.188,296.006 595.077,293.552 592.999,291.086 591,288.603 589.06,286.127 587.157,283.614 583.69,279.027 580.207,274.46 576.745,269.967 573.278,265.552 569.816,261.192 566.354,256.919 562.908,252.723 559.463,248.583 555.996,244.529 552.551,240.55 549.104,236.638 545.643,232.804 542.18,229.044 538.714,225.36 535.23,221.762 531.747,218.231 528.247,214.787 524.743,211.409 521.201,208.116 517.663,204.908 514.101,201.776 510.525,198.722 506.925,195.753 503.309,192.87 499.653,190.062 495.982,187.348 492.29,184.711 488.576,182.152 484.825,179.698 481.041,177.318 477.231,175.033 473.368,172.825 468.191,170.055 462.939,167.429 457.607,164.993 452.222,162.718 446.777,160.623 441.295,158.702 435.759,156.96 430.181,155.39 424.564,153.991 418.911,152.764 413.236,151.716 407.546,150.84 401.838,150.136 396.088,149.622 390.339,149.27 384.609,149.099 378.844,149.099 373.094,149.27 367.348,149.622 361.619,150.155 355.887,150.859 350.195,151.735 344.504,152.791 338.851,154.019 333.239,155.428 327.66,157.017 322.12,158.788 316.621,160.73 311.177,162.841 305.771,165.135 300.442,167.611 295.187,170.255 291.135,172.426 287.137,174.69 283.177,177.051 279.255,179.505 275.354,182.056 271.489,184.703 267.643,187.444 263.837,190.271 260.069,193.191 256.302,196.2 252.567,199.303 248.858,202.491 245.166,205.763 241.49,209.124 237.836,212.569 234.202,216.1 230.564,219.707 226.947,223.41 223.334,227.196 219.734,231.062 216.138,235.001 212.559,239.036 208.962,243.138 205.383,247.334 201.804,251.6 198.224,255.949 194.628,260.375 191.048,264.876 187.452,269.453 183.835,274.118 180.218,278.857 176.643,283.606 174.719,286.119 172.774,288.603 170.78,291.086 168.702,293.552 166.59,296.006 164.42,298.442 162.195,300.832 159.929,303.192 157.625,305.486 155.283,307.723 152.925,309.891 150.524,311.976 148.107,313.985 145.69,315.879 143.253,317.688 140.836,319.371 138.402,320.933 135.981,322.369 133.585,323.674 131.206,324.845 128.864,325.863 126.56,326.739 124.298,327.46 122.106,328.042 119.957,328.459 117.862,328.735 115.826,328.869 113.827,328.851 111.866,328.689 109.942,328.374 108.022,327.908 106.041,327.251 103.565,326.243 101.11,325.072 98.731,323.778 96.448,322.361 94.22,320.799 92.091,319.132 89.996,317.326 87.997,315.402 86.057,313.355 84.192,311.188 82.402,308.894 80.667,306.485 79.011,303.953 77.451,301.327 75.95,298.576 74.52,295.741 73.19,292.791 71.915,289.744 70.731,286.612 69.648,283.396 68.641,280.104 67.708,276.744 66.868,273.309 66.127,269.807 65.458,266.246 64.89,262.639 64.392,258.984 63.995,255.301 63.69,251.562 63.464,247.801 63.422,246.737 65.994,245.003 74.006,239.103 81.717,233.021 89.122,226.759 96.256,220.355 103.147,213.826 "
   style="fill:#ff0000;fill-rule:evenodd"
   id="polygon115" />
	<path
   d="M 146.28,286.194 L 101.834,247.554 L 115.445,231.89 L 142.17,244.842 C 144.528,245.984 146.795,247.117 148.965,248.267 C 151.135,249.411 153.209,250.563 155.208,251.731 C 153.724,249.772 152.201,247.696 150.642,245.488 C 149.079,243.272 147.443,240.874 145.712,238.285 L 130.102,215.023 L 143.692,199.388 L 188.138,238.036 L 179.115,248.411 L 159.416,231.279 C 158.027,230.081 156.103,228.348 153.666,226.102 C 151.232,223.856 148.414,221.239 145.273,218.251 L 172.073,256.529 L 162.251,267.815 L 120.773,246.42 C 124.85,249.713 128.463,252.692 131.7,255.348 C 134.92,257.995 137.412,260.098 139.18,261.64 L 155.379,275.715 L 146.28,286.194 L 146.28,286.194 z M 192.022,201.015 L 201.289,192.06 L 182.464,182.018 L 192.022,201.015 L 192.022,201.015 z M 166.097,176.166 L 177.935,164.717 L 233.801,192.64 L 222.172,203.89 L 212.065,198.625 L 197.923,212.284 L 203.004,222.399 L 191.755,233.25 L 166.097,176.166 L 166.097,176.166 z M 237.761,188.28 L 204.831,139.458 L 218.346,130.34 L 238.388,140.162 C 241.642,141.751 244.824,143.378 247.889,145.034 C 250.971,146.69 253.94,148.356 256.833,150.05 C 254.169,146.491 251.693,143.102 249.428,139.943 C 247.165,136.784 245.204,133.965 243.548,131.511 L 235.135,119.025 L 247.182,110.887 L 280.133,159.709 L 266.635,168.808 L 245.906,158.768 C 243.468,157.579 240.767,156.226 237.819,154.704 C 234.845,153.182 231.689,151.516 228.318,149.699 C 230.718,152.724 232.889,155.562 234.845,158.236 C 236.807,160.9 238.5,163.29 239.93,165.412 L 249.845,180.125 L 237.761,188.28 L 237.761,188.28 z M 330.308,114.569 C 332.018,121.498 331.487,127.618 328.745,132.928 C 325.984,138.239 321.264,142.246 314.602,144.939 C 306.607,148.166 299.126,148.155 292.122,144.929 C 285.118,141.695 279.903,135.822 276.458,127.314 C 272.899,118.472 272.536,110.401 275.375,103.129 C 278.248,95.849 283.843,90.52 292.197,87.15 C 298.804,84.476 304.934,84.028 310.529,85.818 C 316.125,87.608 320.448,91.394 323.471,97.19 L 310.358,102.492 C 308.643,100.132 306.628,98.658 304.307,98.066 C 301.982,97.458 299.376,97.752 296.446,98.934 C 292.54,100.504 290.069,103.302 289.04,107.308 C 288.012,111.316 288.585,115.997 290.755,121.364 C 292.925,126.704 295.664,130.426 299.014,132.5 C 302.347,134.584 305.981,134.842 309.882,133.261 C 313.022,131.986 315.23,130.198 316.488,127.904 C 317.763,125.611 318.048,122.907 317.345,119.815 L 330.308,114.569 L 330.308,114.569 z M 347.762,132.224 L 344.676,73.408 L 359.792,72.61 L 360.896,93.499 L 381.507,92.414 L 380.403,71.534 L 395.536,70.745 L 398.622,129.551 L 383.489,130.352 L 382.192,105.549 L 361.577,106.634 L 362.874,131.426 L 347.762,132.224 L 347.762,132.224 z M 410.176,132.291 L 424.41,75.141 L 467.848,85.972 L 464.916,97.686 L 436.117,90.511 L 433.604,100.599 L 459.911,107.156 L 457.055,118.605 L 430.748,112.048 L 427.704,124.25 L 457.435,131.672 L 454.524,143.351 L 410.176,132.291 L 410.176,132.291 z M 469.408,128.931 L 482.182,135.726 C 480.698,138.743 480.392,141.428 481.249,143.798 C 482.106,146.177 484.122,148.204 487.3,149.897 C 490.006,151.335 492.326,152.001 494.287,151.896 C 496.249,151.802 497.653,150.926 498.532,149.299 C 498.97,148.48 499.179,147.641 499.159,146.813 C 499.142,145.977 498.912,145.224 498.456,144.559 C 497.75,143.53 495.83,141.456 492.648,138.353 C 489.47,135.24 486.865,132.48 484.824,130.063 C 481.877,126.599 480.087,123.126 479.438,119.651 C 478.794,116.187 479.326,112.827 481.04,109.582 C 483.683,104.615 487.664,101.654 492.936,100.713 C 498.226,99.77 504.051,100.979 510.445,104.376 C 516.709,107.707 520.857,111.886 522.877,116.929 C 524.913,121.964 524.533,127.103 521.735,132.357 L 509.212,125.685 C 510.22,123.116 510.316,120.87 509.513,118.965 C 508.698,117.044 506.946,115.377 504.261,113.951 C 502.128,112.818 500.151,112.333 498.34,112.504 C 496.533,112.665 495.258,113.426 494.534,114.806 C 493.297,117.11 495.333,120.993 500.627,126.427 C 501.576,127.418 502.32,128.16 502.835,128.683 C 502.91,128.787 503.061,128.94 503.253,129.131 C 508.714,134.774 511.913,138.696 512.866,140.894 C 513.799,143.15 514.217,145.433 514.121,147.737 C 514.008,150.06 513.339,152.335 512.142,154.599 C 509.378,159.776 505.251,162.755 499.769,163.527 C 494.266,164.297 487.927,162.793 480.772,158.986 C 474.015,155.39 469.695,151.116 467.809,146.138 C 465.925,141.162 466.46,135.431 469.408,128.931 L 469.408,128.931 z M 519.775,183.722 L 549.314,147.242 L 536.2,136.621 L 543.719,127.333 L 581.655,158.053 L 574.136,167.353 L 561.023,156.74 L 531.5,193.21 L 519.775,183.722 L 519.775,183.722 z M 549.029,208.762 L 591.401,167.847 L 622.504,200.045 L 613.807,208.438 L 593.192,187.083 L 585.712,194.307 L 604.537,213.807 L 596.064,222 L 577.222,202.5 L 568.16,211.238 L 589.461,233.279 L 580.801,241.644 L 549.029,208.762 L 549.029,208.762 z M 621.818,239.494 L 628.726,248.345 C 630.574,250.732 632.402,252.152 634.17,252.581 C 635.922,253.018 637.771,252.485 639.69,250.971 C 641.405,249.639 642.241,248.106 642.224,246.375 C 642.186,244.633 641.308,242.635 639.556,240.389 L 632.38,231.223 L 621.818,239.494 L 621.818,239.494 z M 586.032,248.401 L 632.439,212.14 L 649.797,234.355 C 654.404,240.236 656.726,245.395 656.805,249.818 C 656.88,254.244 654.71,258.175 650.294,261.621 C 647.706,263.658 645,264.809 642.224,265.067 C 639.426,265.332 636.437,264.713 633.221,263.192 C 634.02,265.837 634.095,268.103 633.409,269.979 C 632.744,271.863 630.762,274.175 627.509,276.935 C 626.614,277.734 625.397,278.8 623.854,280.104 C 620.22,283.169 618.565,285.509 618.849,287.108 L 617.247,288.354 L 607.52,275.905 C 608.682,274.021 610.665,271.909 613.441,269.597 C 616.239,267.293 617.974,265.798 618.656,265.134 C 620.296,263.534 621.152,261.887 621.19,260.204 C 621.227,258.529 620.446,256.654 618.827,254.599 L 612.622,246.66 L 595.265,260.223 L 586.032,248.401 L 586.032,248.401 z "
   style="fill:#ffff00;fill-rule:evenodd"
   id="path117" />
</g>
</svg>