<?xml version="1.0" encoding="UTF-8"?><svg xml:space="preserve" width="700" height="300">
				<desc>Batting History</desc>
				<g style="stroke:#000000; stroke-width:0.5; font-family:Arial; font-size:7pt;">
					<rect x="1" y="1" width="698" height="298" style="fill:#dddddd;"/><g style="stroke:#888888; font-family:Arial; font-size:6pt;"><line x1="1" y1="285.7142857142857" x2="700" y2="285.7142857142857" style="stroke:#aaaaaa;"/><text x="5" y="283.7142857142857">-20</text></g><g style="stroke:#888888; font-family:Arial; font-size:6pt;"><line x1="1" y1="257.1428571428571" x2="700" y2="257.1428571428571" style="stroke:#aaaaaa;"/><text x="5" y="255.1428571428571">-10</text></g><g style="stroke:#888888; font-family:Arial; font-size:6pt;"><line x1="1" y1="228.57142857142856" x2="700" y2="228.57142857142856" style="stroke:#aaaaaa;"/><text x="5" y="226.57142857142856">0</text></g><g style="stroke:#888888; font-family:Arial; font-size:6pt;"><line x1="1" y1="199.99999999999997" x2="700" y2="199.99999999999997" style="stroke:#aaaaaa;"/><text x="5" y="197.99999999999997">10</text></g><g style="stroke:#888888; font-family:Arial; font-size:6pt;"><line x1="1" y1="171.42857142857142" x2="700" y2="171.42857142857142" style="stroke:#aaaaaa;"/><text x="5" y="169.42857142857142">20</text></g><g style="stroke:#888888; font-family:Arial; font-size:6pt;"><line x1="1" y1="142.85714285714283" x2="700" y2="142.85714285714283" style="stroke:#aaaaaa;"/><text x="5" y="140.85714285714283">30</text></g><g style="stroke:#888888; font-family:Arial; font-size:6pt;"><line x1="1" y1="114.28571428571426" x2="700" y2="114.28571428571426" style="stroke:#aaaaaa;"/><text x="5" y="112.28571428571426">40</text></g><g style="stroke:#888888; font-family:Arial; font-size:6pt;"><line x1="1" y1="85.7142857142857" x2="700" y2="85.7142857142857" style="stroke:#aaaaaa;"/><text x="5" y="83.7142857142857">50</text></g><g style="stroke:#888888; font-family:Arial; font-size:6pt;"><line x1="1" y1="57.14285714285711" x2="700" y2="57.14285714285711" style="stroke:#aaaaaa;"/><text x="5" y="55.14285714285711">60</text></g><g style="stroke:#888888; font-family:Arial; font-size:6pt;"><line x1="1" y1="28.571428571428555" x2="700" y2="28.571428571428555" style="stroke:#aaaaaa;"/><text x="5" y="26.571428571428555">70</text></g><g style="stroke:#888888; font-family:Arial; font-size:6pt;"><line x1="1" y1="-2.842170943040401E-14" x2="700" y2="-2.842170943040401E-14" style="stroke:#aaaaaa;"/><text x="5" y="-2.0000000000000284">80</text></g><text x="350" y="20" style="text-anchor:middle; font-size: 14pt;">Batting History - Neal (Jnr)</text>
					
					<rect x="81.77777777777777" y="191.42857142857142" height="37.14285714285714" width="69.77777777777777" style="fill:#aaaaff;"/><rect x="159.55555555555554" y="191.42857142857142" height="37.14285714285714" width="69.77777777777777" style="fill:#aaaaff;"/><rect x="237.33333333333331" y="202.85714285714283" height="25.714285714285722" width="69.77777777777777" style="fill:#aaaaff;"/><rect x="315.1111111111111" y="177.1428571428571" height="51.428571428571445" width="69.77777777777777" style="fill:#aaaaff;"/><rect x="392.88888888888886" y="180" height="48.571428571428555" width="69.77777777777777" style="fill:#aaaaff;"/><rect x="470.66666666666663" y="137.1428571428571" height="91.42857142857144" width="69.77777777777777" style="fill:#aaaaff;"/><rect x="548.4444444444443" y="160" height="68.57142857142856" width="69.77777777777777" style="fill:#aaaaff;"/><rect x="626.2222222222222" y="140" height="88.57142857142856" width="69.77777777777777" style="fill:#aaaaff;"/><rect x="77.77777777777777" y="205.7142857142857" height="22.85714285714286" width="69.77777777777777" style="fill:#0000aa;"/><text x="77.77777777777777" y="202.7142857142857">8</text><rect x="155.55555555555554" y="208.57142857142856" height="20" width="69.77777777777777" style="fill:#0000aa;"/><text x="155.55555555555554" y="205.57142857142856">7</text><rect x="233.33333333333331" y="208.57142857142856" height="20" width="69.77777777777777" style="fill:#0000aa;"/><text x="233.33333333333331" y="205.57142857142856">7</text><rect x="311.1111111111111" y="194.28571428571428" height="34.28571428571428" width="69.77777777777777" style="fill:#0000aa;"/><text x="311.1111111111111" y="191.28571428571428">12</text><rect x="388.88888888888886" y="225.7142857142857" height="2.857142857142861" width="69.77777777777777" style="fill:#0000aa;"/><text x="388.88888888888886" y="222.7142857142857">1</text><rect x="466.66666666666663" y="188.57142857142856" height="40" width="69.77777777777777" style="fill:#0000aa;"/><text x="466.66666666666663" y="185.57142857142856">14</text><rect x="544.4444444444443" y="177.1428571428571" height="51.428571428571445" width="69.77777777777777" style="fill:#0000aa;"/><text x="544.4444444444443" y="174.1428571428571">18</text><rect x="622.2222222222222" y="191.42857142857142" height="37.14285714285714" width="69.77777777777777" style="fill:#0000aa;"/><text x="622.2222222222222" y="188.42857142857142">13</text>
					
					<path d="M112.66666666666666 191.42857142857142 L190.44444444444443 191.42857142857142 L268.2222222222222 195.2380952380952 L346 190.7142857142857 L423.7777777777777 188.57142857142856 L501.55555555555554 180 L579.3333333333333 177.1428571428571 L657.1111111111111 172.5 " style="fill:none; stroke:red; stroke-width:1"/><path d="M112.66666666666666 205.7142857142857 L190.44444444444443 207.1428571428571 L268.2222222222222 207.6190476190476 L346 204.28571428571428 L423.7777777777777 208.57142857142856 L501.55555555555554 205.2380952380952 L579.3333333333333 201.22448979591834 L657.1111111111111 199.99999999999997 " style="fill:none; stroke:red; stroke-width:1"/>
				</g>
			</svg>