<?xml version="1.0" encoding="UTF-8"?><svg xml:space="preserve" width="700" height="300">
				<desc>Batting History</desc>
				<g style="stroke:#000000; stroke-width:0.5; font-family:Arial; font-size:7pt;">
					<rect x="1" y="1" width="698" height="298" style="fill:#dddddd;"/><g style="stroke:#888888; font-family:Arial; font-size:6pt;"><line x1="1" y1="285.7142857142857" x2="700" y2="285.7142857142857" style="stroke:#aaaaaa;"/><text x="5" y="283.7142857142857">-20</text></g><g style="stroke:#888888; font-family:Arial; font-size:6pt;"><line x1="1" y1="257.1428571428571" x2="700" y2="257.1428571428571" style="stroke:#aaaaaa;"/><text x="5" y="255.1428571428571">-10</text></g><g style="stroke:#888888; font-family:Arial; font-size:6pt;"><line x1="1" y1="228.57142857142856" x2="700" y2="228.57142857142856" style="stroke:#aaaaaa;"/><text x="5" y="226.57142857142856">0</text></g><g style="stroke:#888888; font-family:Arial; font-size:6pt;"><line x1="1" y1="199.99999999999997" x2="700" y2="199.99999999999997" style="stroke:#aaaaaa;"/><text x="5" y="197.99999999999997">10</text></g><g style="stroke:#888888; font-family:Arial; font-size:6pt;"><line x1="1" y1="171.42857142857142" x2="700" y2="171.42857142857142" style="stroke:#aaaaaa;"/><text x="5" y="169.42857142857142">20</text></g><g style="stroke:#888888; font-family:Arial; font-size:6pt;"><line x1="1" y1="142.85714285714283" x2="700" y2="142.85714285714283" style="stroke:#aaaaaa;"/><text x="5" y="140.85714285714283">30</text></g><g style="stroke:#888888; font-family:Arial; font-size:6pt;"><line x1="1" y1="114.28571428571426" x2="700" y2="114.28571428571426" style="stroke:#aaaaaa;"/><text x="5" y="112.28571428571426">40</text></g><g style="stroke:#888888; font-family:Arial; font-size:6pt;"><line x1="1" y1="85.7142857142857" x2="700" y2="85.7142857142857" style="stroke:#aaaaaa;"/><text x="5" y="83.7142857142857">50</text></g><g style="stroke:#888888; font-family:Arial; font-size:6pt;"><line x1="1" y1="57.14285714285711" x2="700" y2="57.14285714285711" style="stroke:#aaaaaa;"/><text x="5" y="55.14285714285711">60</text></g><g style="stroke:#888888; font-family:Arial; font-size:6pt;"><line x1="1" y1="28.571428571428555" x2="700" y2="28.571428571428555" style="stroke:#aaaaaa;"/><text x="5" y="26.571428571428555">70</text></g><g style="stroke:#888888; font-family:Arial; font-size:6pt;"><line x1="1" y1="-2.842170943040401E-14" x2="700" y2="-2.842170943040401E-14" style="stroke:#aaaaaa;"/><text x="5" y="-2.0000000000000284">80</text></g><text x="350" y="20" style="text-anchor:middle; font-size: 14pt;">Batting History - Neil (Snr)</text>
					
					<rect x="15.11111111111111" y="197.1428571428571" height="31.428571428571445" width="3.1111111111111107" style="fill:#aaaaff;"/><rect x="26.22222222222222" y="219.99999999999997" height="8.571428571428584" width="3.1111111111111107" style="fill:#aaaaff;"/><rect x="37.33333333333333" y="205.7142857142857" height="22.85714285714286" width="3.1111111111111107" style="fill:#aaaaff;"/><rect x="48.44444444444444" y="191.42857142857142" height="37.14285714285714" width="3.1111111111111107" style="fill:#aaaaff;"/><rect x="59.55555555555556" y="205.7142857142857" height="22.85714285714286" width="3.1111111111111107" style="fill:#aaaaff;"/><rect x="70.66666666666666" y="111.42857142857142" height="117.14285714285714" width="3.1111111111111107" style="fill:#aaaaff;"/><rect x="81.77777777777777" y="171.42857142857142" height="57.14285714285714" width="3.1111111111111107" style="fill:#aaaaff;"/><rect x="92.88888888888889" y="97.14285714285711" height="131.42857142857144" width="3.1111111111111107" style="fill:#aaaaff;"/><rect x="104" y="142.85714285714283" height="85.71428571428572" width="3.1111111111111107" style="fill:#aaaaff;"/><rect x="115.11111111111111" y="214.28571428571428" height="14.285714285714278" width="3.1111111111111107" style="fill:#aaaaff;"/><rect x="126.22222222222221" y="119.99999999999999" height="108.57142857142857" width="3.1111111111111107" style="fill:#aaaaff;"/><rect x="137.33333333333331" y="134.28571428571428" height="94.28571428571428" width="3.1111111111111107" style="fill:#aaaaff;"/><rect x="148.44444444444443" y="219.99999999999997" height="8.571428571428584" width="3.1111111111111107" style="fill:#aaaaff;"/><rect x="159.55555555555554" y="154.28571428571428" height="74.28571428571428" width="3.1111111111111107" style="fill:#aaaaff;"/><rect x="170.66666666666666" y="162.85714285714283" height="65.71428571428572" width="3.1111111111111107" style="fill:#aaaaff;"/><rect x="181.77777777777777" y="119.99999999999999" height="108.57142857142857" width="3.1111111111111107" style="fill:#aaaaff;"/><rect x="192.88888888888889" y="157.1428571428571" height="71.42857142857144" width="3.1111111111111107" style="fill:#aaaaff;"/><rect x="204" y="174.28571428571428" height="54.28571428571428" width="3.1111111111111107" style="fill:#aaaaff;"/><rect x="215.11111111111111" y="148.57142857142856" height="80" width="3.1111111111111107" style="fill:#aaaaff;"/><rect x="226.22222222222223" y="191.42857142857142" height="37.14285714285714" width="3.1111111111111107" style="fill:#aaaaff;"/><rect x="237.33333333333331" y="119.99999999999999" height="108.57142857142857" width="3.1111111111111107" style="fill:#aaaaff;"/><rect x="248.44444444444443" y="162.85714285714283" height="65.71428571428572" width="3.1111111111111107" style="fill:#aaaaff;"/><rect x="259.55555555555554" y="128.57142857142856" height="100" width="3.1111111111111107" style="fill:#aaaaff;"/><rect x="270.66666666666663" y="79.99999999999997" height="148.57142857142858" width="3.1111111111111107" style="fill:#aaaaff;"/><rect x="281.77777777777777" y="197.1428571428571" height="31.428571428571445" width="3.1111111111111107" style="fill:#aaaaff;"/><rect x="292.88888888888886" y="168.57142857142856" height="60" width="3.1111111111111107" style="fill:#aaaaff;"/><rect x="304" y="157.1428571428571" height="71.42857142857144" width="3.1111111111111107" style="fill:#aaaaff;"/><rect x="315.1111111111111" y="185.7142857142857" height="42.85714285714286" width="3.1111111111111107" style="fill:#aaaaff;"/><rect x="326.22222222222223" y="131.42857142857142" height="97.14285714285714" width="3.1111111111111107" style="fill:#aaaaff;"/><rect x="337.3333333333333" y="214.28571428571428" height="14.285714285714278" width="3.1111111111111107" style="fill:#aaaaff;"/><rect x="348.44444444444446" y="228.57142857142856" height="17.14285714285714" width="3.1111111111111107" style="fill:#aaaaff;"/><rect x="359.55555555555554" y="228.57142857142856" height="97.14285714285711" width="3.1111111111111107" style="fill:#aaaaff;"/><rect x="370.66666666666663" y="228.57142857142856" height="11.428571428571416" width="3.1111111111111107" style="fill:#aaaaff;"/><rect x="381.77777777777777" y="74.28571428571428" height="154.28571428571428" width="3.1111111111111107" style="fill:#aaaaff;"/><rect x="392.88888888888886" y="142.85714285714283" height="85.71428571428572" width="3.1111111111111107" style="fill:#aaaaff;"/><rect x="404" y="185.7142857142857" height="42.85714285714286" width="3.1111111111111107" style="fill:#aaaaff;"/><rect x="415.1111111111111" y="148.57142857142856" height="80" width="3.1111111111111107" style="fill:#aaaaff;"/><rect x="426.22222222222223" y="165.7142857142857" height="62.85714285714286" width="3.1111111111111107" style="fill:#aaaaff;"/><rect x="437.3333333333333" y="114.28571428571426" height="114.28571428571429" width="3.1111111111111107" style="fill:#aaaaff;"/><rect x="448.44444444444446" y="137.1428571428571" height="91.42857142857144" width="3.1111111111111107" style="fill:#aaaaff;"/><rect x="459.55555555555554" y="219.99999999999997" height="8.571428571428584" width="3.1111111111111107" style="fill:#aaaaff;"/><rect x="470.66666666666663" y="134.28571428571428" height="94.28571428571428" width="3.1111111111111107" style="fill:#aaaaff;"/><rect x="481.77777777777777" y="180" height="48.571428571428555" width="3.1111111111111107" style="fill:#aaaaff;"/><rect x="492.88888888888886" y="151.42857142857142" height="77.14285714285714" width="3.1111111111111107" style="fill:#aaaaff;"/><rect x="504" y="228.57142857142856" height="34.28571428571428" width="3.1111111111111107" style="fill:#aaaaff;"/><rect x="515.1111111111111" y="79.99999999999997" height="148.57142857142858" width="3.1111111111111107" style="fill:#aaaaff;"/><rect x="526.2222222222222" y="162.85714285714283" height="65.71428571428572" width="3.1111111111111107" style="fill:#aaaaff;"/><rect x="537.3333333333333" y="205.7142857142857" height="22.85714285714286" width="3.1111111111111107" style="fill:#aaaaff;"/><rect x="548.4444444444445" y="228.57142857142856" height="11.428571428571416" width="3.1111111111111107" style="fill:#aaaaff;"/><rect x="559.5555555555555" y="91.42857142857142" height="137.14285714285714" width="3.1111111111111107" style="fill:#aaaaff;"/><rect x="570.6666666666666" y="137.1428571428571" height="91.42857142857144" width="3.1111111111111107" style="fill:#aaaaff;"/><rect x="581.7777777777777" y="228.57142857142856" height="17.14285714285714" width="3.1111111111111107" style="fill:#aaaaff;"/><rect x="592.8888888888889" y="185.7142857142857" height="42.85714285714286" width="3.1111111111111107" style="fill:#aaaaff;"/><rect x="604" y="97.14285714285711" height="131.42857142857144" width="3.1111111111111107" style="fill:#aaaaff;"/><rect x="615.1111111111111" y="211.42857142857142" height="17.14285714285714" width="3.1111111111111107" style="fill:#aaaaff;"/><rect x="626.2222222222222" y="199.99999999999997" height="28.571428571428584" width="3.1111111111111107" style="fill:#aaaaff;"/><rect x="637.3333333333333" y="177.1428571428571" height="51.428571428571445" width="3.1111111111111107" style="fill:#aaaaff;"/><rect x="648.4444444444445" y="168.57142857142856" height="60" width="3.1111111111111107" style="fill:#aaaaff;"/><rect x="659.5555555555555" y="137.1428571428571" height="91.42857142857144" width="3.1111111111111107" style="fill:#aaaaff;"/><rect x="670.6666666666666" y="165.7142857142857" height="62.85714285714286" width="3.1111111111111107" style="fill:#aaaaff;"/><rect x="681.7777777777777" y="180" height="48.571428571428555" width="3.1111111111111107" style="fill:#aaaaff;"/><rect x="692.8888888888889" y="162.85714285714283" height="65.71428571428572" width="3.1111111111111107" style="fill:#aaaaff;"/><rect x="11.11111111111111" y="202.85714285714283" height="25.714285714285722" width="3.1111111111111107" style="fill:#0000aa;"/><text x="11.11111111111111" y="199.85714285714283">9</text><rect x="22.22222222222222" y="222.85714285714283" height="5.714285714285722" width="3.1111111111111107" style="fill:#0000aa;"/><text x="22.22222222222222" y="219.85714285714283">2</text><rect x="33.33333333333333" y="222.85714285714283" height="5.714285714285722" width="3.1111111111111107" style="fill:#0000aa;"/><text x="33.33333333333333" y="219.85714285714283">2</text><rect x="44.44444444444444" y="217.14285714285714" height="11.428571428571416" width="3.1111111111111107" style="fill:#0000aa;"/><text x="44.44444444444444" y="214.14285714285714">4</text><rect x="55.55555555555556" y="214.28571428571428" height="14.285714285714278" width="3.1111111111111107" style="fill:#0000aa;"/><text x="55.55555555555556" y="211.28571428571428">5</text><rect x="66.66666666666666" y="160" height="68.57142857142856" width="3.1111111111111107" style="fill:#0000aa;"/><text x="66.66666666666666" y="157">24</text><rect x="77.77777777777777" y="199.99999999999997" height="28.571428571428584" width="3.1111111111111107" style="fill:#0000aa;"/><text x="77.77777777777777" y="196.99999999999997">10</text><rect x="88.88888888888889" y="160" height="68.57142857142856" width="3.1111111111111107" style="fill:#0000aa;"/><text x="88.88888888888889" y="157">24</text><rect x="100" y="188.57142857142856" height="40" width="3.1111111111111107" style="fill:#0000aa;"/><text x="100" y="185.57142857142856">14</text><rect x="111.11111111111111" y="185.7142857142857" height="42.85714285714286" width="3.1111111111111107" style="fill:#0000aa;"/><text x="111.11111111111111" y="182.7142857142857">15</text><rect x="122.22222222222221" y="168.57142857142856" height="60" width="3.1111111111111107" style="fill:#0000aa;"/><text x="122.22222222222221" y="165.57142857142856">21</text><rect x="133.33333333333331" y="214.28571428571428" height="14.285714285714278" width="3.1111111111111107" style="fill:#0000aa;"/><text x="133.33333333333331" y="211.28571428571428">5</text><rect x="144.44444444444443" y="228.57142857142856" height="11.428571428571416" width="3.1111111111111107" style="fill:#0000aa;"/><text x="144.44444444444443" y="225.57142857142856">-4</text><rect x="155.55555555555554" y="199.99999999999997" height="28.571428571428584" width="3.1111111111111107" style="fill:#0000aa;"/><text x="155.55555555555554" y="196.99999999999997">10</text><rect x="166.66666666666666" y="188.57142857142856" height="40" width="3.1111111111111107" style="fill:#0000aa;"/><text x="166.66666666666666" y="185.57142857142856">14</text><rect x="177.77777777777777" y="168.57142857142856" height="60" width="3.1111111111111107" style="fill:#0000aa;"/><text x="177.77777777777777" y="165.57142857142856">21</text><rect x="188.88888888888889" y="171.42857142857142" height="57.14285714285714" width="3.1111111111111107" style="fill:#0000aa;"/><text x="188.88888888888889" y="168.42857142857142">20</text><rect x="200" y="174.28571428571428" height="54.28571428571428" width="3.1111111111111107" style="fill:#0000aa;"/><text x="200" y="171.28571428571428">19</text><rect x="211.11111111111111" y="202.85714285714283" height="25.714285714285722" width="3.1111111111111107" style="fill:#0000aa;"/><text x="211.11111111111111" y="199.85714285714283">9</text><rect x="222.22222222222223" y="197.1428571428571" height="31.428571428571445" width="3.1111111111111107" style="fill:#0000aa;"/><text x="222.22222222222223" y="194.1428571428571">11</text><rect x="233.33333333333331" y="148.57142857142856" height="80" width="3.1111111111111107" style="fill:#0000aa;"/><text x="233.33333333333331" y="145.57142857142856">28</text><rect x="244.44444444444443" y="217.14285714285714" height="11.428571428571416" width="3.1111111111111107" style="fill:#0000aa;"/><text x="244.44444444444443" y="214.14285714285714">4</text><rect x="255.55555555555554" y="157.1428571428571" height="71.42857142857144" width="3.1111111111111107" style="fill:#0000aa;"/><text x="255.55555555555554" y="154.1428571428571">25</text><rect x="266.66666666666663" y="151.42857142857142" height="77.14285714285714" width="3.1111111111111107" style="fill:#0000aa;"/><text x="266.66666666666663" y="148.42857142857142">27</text><rect x="277.77777777777777" y="182.85714285714283" height="45.71428571428572" width="3.1111111111111107" style="fill:#0000aa;"/><text x="277.77777777777777" y="179.85714285714283">16</text><rect x="288.88888888888886" y="174.28571428571428" height="54.28571428571428" width="3.1111111111111107" style="fill:#0000aa;"/><text x="288.88888888888886" y="171.28571428571428">19</text><rect x="300" y="219.99999999999997" height="8.571428571428584" width="3.1111111111111107" style="fill:#0000aa;"/><text x="300" y="216.99999999999997">3</text><rect x="311.1111111111111" y="211.42857142857142" height="17.14285714285714" width="3.1111111111111107" style="fill:#0000aa;"/><text x="311.1111111111111" y="208.42857142857142">6</text><rect x="322.22222222222223" y="157.1428571428571" height="71.42857142857144" width="3.1111111111111107" style="fill:#0000aa;"/><text x="322.22222222222223" y="154.1428571428571">25</text><rect x="333.3333333333333" y="228.57142857142856" height="28.571428571428555" width="3.1111111111111107" style="fill:#0000aa;"/><text x="333.3333333333333" y="225.57142857142856">-10</text><rect x="344.44444444444446" y="217.14285714285714" height="11.428571428571416" width="3.1111111111111107" style="fill:#0000aa;"/><text x="344.44444444444446" y="214.14285714285714">4</text><rect x="355.55555555555554" y="228.57142857142856" height="51.428571428571445" width="3.1111111111111107" style="fill:#0000aa;"/><text x="355.55555555555554" y="225.57142857142856">-18</text><rect x="366.66666666666663" y="205.7142857142857" height="22.85714285714286" width="3.1111111111111107" style="fill:#0000aa;"/><text x="366.66666666666663" y="202.7142857142857">8</text><rect x="377.77777777777777" y="131.42857142857142" height="97.14285714285714" width="3.1111111111111107" style="fill:#0000aa;"/><text x="377.77777777777777" y="128.42857142857142">34</text><rect x="388.88888888888886" y="162.85714285714283" height="65.71428571428572" width="3.1111111111111107" style="fill:#0000aa;"/><text x="388.88888888888886" y="159.85714285714283">23</text><rect x="400" y="214.28571428571428" height="14.285714285714278" width="3.1111111111111107" style="fill:#0000aa;"/><text x="400" y="211.28571428571428">5</text><rect x="411.1111111111111" y="177.1428571428571" height="51.428571428571445" width="3.1111111111111107" style="fill:#0000aa;"/><text x="411.1111111111111" y="174.1428571428571">18</text><rect x="422.22222222222223" y="182.85714285714283" height="45.71428571428572" width="3.1111111111111107" style="fill:#0000aa;"/><text x="422.22222222222223" y="179.85714285714283">16</text><rect x="433.3333333333333" y="177.1428571428571" height="51.428571428571445" width="3.1111111111111107" style="fill:#0000aa;"/><text x="433.3333333333333" y="174.1428571428571">18</text><rect x="444.44444444444446" y="188.57142857142856" height="40" width="3.1111111111111107" style="fill:#0000aa;"/><text x="444.44444444444446" y="185.57142857142856">14</text><rect x="455.55555555555554" y="225.7142857142857" height="2.857142857142861" width="3.1111111111111107" style="fill:#0000aa;"/><text x="455.55555555555554" y="222.7142857142857">1</text><rect x="466.66666666666663" y="185.7142857142857" height="42.85714285714286" width="3.1111111111111107" style="fill:#0000aa;"/><text x="466.66666666666663" y="182.7142857142857">15</text><rect x="477.77777777777777" y="217.14285714285714" height="11.428571428571416" width="3.1111111111111107" style="fill:#0000aa;"/><text x="477.77777777777777" y="214.14285714285714">4</text><rect x="488.88888888888886" y="199.99999999999997" height="28.571428571428584" width="3.1111111111111107" style="fill:#0000aa;"/><text x="488.88888888888886" y="196.99999999999997">10</text><rect x="500" y="228.57142857142856" height="31.428571428571445" width="3.1111111111111107" style="fill:#0000aa;"/><text x="500" y="225.57142857142856">-11</text><rect x="511.1111111111111" y="157.1428571428571" height="71.42857142857144" width="3.1111111111111107" style="fill:#0000aa;"/><text x="511.1111111111111" y="154.1428571428571">25</text><rect x="522.2222222222222" y="205.7142857142857" height="22.85714285714286" width="3.1111111111111107" style="fill:#0000aa;"/><text x="522.2222222222222" y="202.7142857142857">8</text><rect x="533.3333333333333" y="199.99999999999997" height="28.571428571428584" width="3.1111111111111107" style="fill:#0000aa;"/><text x="533.3333333333333" y="196.99999999999997">10</text><rect x="544.4444444444445" y="228.57142857142856" height="2.857142857142861" width="3.1111111111111107" style="fill:#0000aa;"/><text x="544.4444444444445" y="225.57142857142856">-1</text><rect x="555.5555555555555" y="174.28571428571428" height="54.28571428571428" width="3.1111111111111107" style="fill:#0000aa;"/><text x="555.5555555555555" y="171.28571428571428">19</text><rect x="566.6666666666666" y="185.7142857142857" height="42.85714285714286" width="3.1111111111111107" style="fill:#0000aa;"/><text x="566.6666666666666" y="182.7142857142857">15</text><rect x="577.7777777777777" y="228.57142857142856" height="17.14285714285714" width="3.1111111111111107" style="fill:#0000aa;"/><text x="577.7777777777777" y="225.57142857142856">-6</text><rect x="588.8888888888889" y="205.7142857142857" height="22.85714285714286" width="3.1111111111111107" style="fill:#0000aa;"/><text x="588.8888888888889" y="202.7142857142857">8</text><rect x="600" y="160" height="68.57142857142856" width="3.1111111111111107" style="fill:#0000aa;"/><text x="600" y="157">24</text><rect x="611.1111111111111" y="228.57142857142856" height="17.14285714285714" width="3.1111111111111107" style="fill:#0000aa;"/><text x="611.1111111111111" y="225.57142857142856">-6</text><rect x="622.2222222222222" y="208.57142857142856" height="20" width="3.1111111111111107" style="fill:#0000aa;"/><text x="622.2222222222222" y="205.57142857142856">7</text><rect x="633.3333333333333" y="211.42857142857142" height="17.14285714285714" width="3.1111111111111107" style="fill:#0000aa;"/><text x="633.3333333333333" y="208.42857142857142">6</text><rect x="644.4444444444445" y="182.85714285714283" height="45.71428571428572" width="3.1111111111111107" style="fill:#0000aa;"/><text x="644.4444444444445" y="179.85714285714283">16</text><rect x="655.5555555555555" y="177.1428571428571" height="51.428571428571445" width="3.1111111111111107" style="fill:#0000aa;"/><text x="655.5555555555555" y="174.1428571428571">18</text><rect x="666.6666666666666" y="202.85714285714283" height="25.714285714285722" width="3.1111111111111107" style="fill:#0000aa;"/><text x="666.6666666666666" y="199.85714285714283">9</text><rect x="677.7777777777777" y="205.7142857142857" height="22.85714285714286" width="3.1111111111111107" style="fill:#0000aa;"/><text x="677.7777777777777" y="202.7142857142857">8</text><rect x="688.8888888888889" y="208.57142857142856" height="20" width="3.1111111111111107" style="fill:#0000aa;"/><text x="688.8888888888889" y="205.57142857142856">7</text>
					
					<path d="M12.666666666666666 197.1428571428571 L23.77777777777778 208.57142857142856 L34.888888888888886 207.6190476190476 L46 203.57142857142856 L57.111111111111114 204 L68.22222222222221 188.57142857142856 L79.33333333333333 186.1224489795918 L90.44444444444444 175 L101.55555555555556 171.42857142857142 L112.66666666666667 175.7142857142857 L123.77777777777777 170.64935064935062 L134.88888888888886 167.6190476190476 L145.99999999999997 171.64835164835162 L157.1111111111111 170.4081632653061 L168.2222222222222 169.90476190476187 L179.33333333333331 166.78571428571428 L190.44444444444443 166.21848739495795 L201.55555555555554 166.66666666666663 L212.66666666666666 165.7142857142857 L223.77777777777777 166.99999999999997 L234.88888888888886 164.76190476190476 L245.99999999999997 164.67532467532465 L257.1111111111111 163.1055900621118 L268.2222222222222 159.6428571428571 L279.3333333333333 161.1428571428571 L290.4444444444444 161.42857142857142 L301.55555555555554 161.26984126984127 L312.66666666666663 162.1428571428571 L323.77777777777777 161.08374384236453 L334.88888888888886 162.85714285714283 L346 165.52995391705068 L357.1111111111111 170.53571428571428 L368.2222222222222 172.64069264069263 L379.3333333333333 169.74789915966386 L390.4444444444444 168.97959183673467 L401.55555555555554 169.44444444444443 L412.66666666666663 168.88030888030886 L423.77777777777777 168.79699248120298 L434.88888888888886 167.3992673992674 L446 166.6428571428571 L457.1111111111111 167.94425087108013 L468.2222222222222 167.1428571428571 L479.3333333333333 167.44186046511626 L490.4444444444444 167.07792207792207 L501.55555555555554 169.2063492063492 L512.6666666666666 167.26708074534162 L523.7777777777777 167.17325227963525 L534.8888888888888 167.97619047619045 L546 169.44606413994168 L557.1111111111111 167.88571428571427 L568.2222222222222 167.2829131652661 L579.3333333333333 168.79120879120876 L590.4444444444445 169.11051212938003 L601.5555555555555 167.77777777777777 L612.6666666666666 168.57142857142856 L623.7777777777777 169.13265306122446 L634.8888888888888 169.27318295739346 L646 169.26108374384233 L657.1111111111111 168.71670702179176 L668.2222222222222 168.66666666666666 L679.3333333333333 168.85245901639342 L690.4444444444445 168.75576036866357 " style="fill:none; stroke:red; stroke-width:1"/><path d="M12.666666666666666 202.85714285714283 L23.77777777777778 212.85714285714283 L34.888888888888886 216.19047619047618 L46 216.42857142857142 L57.111111111111114 215.99999999999997 L68.22222222222221 206.66666666666666 L79.33333333333333 205.7142857142857 L90.44444444444444 199.99999999999997 L101.55555555555556 198.7301587301587 L112.66666666666667 197.42857142857142 L123.77777777777777 194.8051948051948 L134.88888888888886 196.42857142857142 L145.99999999999997 199.78021978021977 L157.1111111111111 199.79591836734693 L168.2222222222222 199.04761904761904 L179.33333333333331 197.1428571428571 L190.44444444444443 195.63025210084032 L201.55555555555554 194.44444444444443 L212.66666666666666 194.88721804511277 L223.77777777777777 195 L234.88888888888886 192.7891156462585 L245.99999999999997 193.89610389610388 L257.1111111111111 192.2981366459627 L268.2222222222222 190.59523809523807 L279.3333333333333 190.28571428571428 L290.4444444444444 189.67032967032966 L301.55555555555554 190.79365079365078 L312.66666666666663 191.53061224489795 L323.77777777777777 190.3448275862069 L334.88888888888886 192.57142857142856 L346 193.36405529953916 L357.1111111111111 196.07142857142856 L368.2222222222222 196.36363636363635 L379.3333333333333 194.45378151260502 L390.4444444444444 193.55102040816325 L401.55555555555554 194.1269841269841 L412.66666666666663 193.66795366795367 L423.77777777777777 193.38345864661653 L434.88888888888886 192.96703296703294 L446 192.85714285714283 L457.1111111111111 193.65853658536582 L468.2222222222222 193.46938775510202 L479.3333333333333 194.01993355481727 L490.4444444444444 194.15584415584414 L501.55555555555554 195.6190476190476 L512.6666666666666 194.78260869565216 L523.7777777777777 195.01519756838906 L534.8888888888888 195.1190476190476 L546 195.8600583090379 L557.1111111111111 195.42857142857142 L568.2222222222222 195.2380952380952 L579.3333333333333 196.20879120879118 L590.4444444444445 196.38814016172506 L601.5555555555555 195.7142857142857 L612.6666666666666 196.6233766233766 L623.7777777777777 196.83673469387753 L634.8888888888888 197.09273182957392 L646 196.84729064039408 L657.1111111111111 196.51331719128328 L668.2222222222222 196.6190476190476 L679.3333333333333 196.76814988290397 L690.4444444444445 196.9585253456221 " style="fill:none; stroke:red; stroke-width:1"/>
				</g>
			</svg>