<?xml version="1.0" encoding="UTF-8"?><svg xml:space="preserve" width="700" height="300">
				<desc>Batting History</desc>
				<g style="stroke:#000000; stroke-width:0.5; font-family:Arial; font-size:7pt;">
					<rect x="1" y="1" width="698" height="298" style="fill:#dddddd;"/><g style="stroke:#888888; font-family:Arial; font-size:6pt;"><line x1="1" y1="285.7142857142857" x2="700" y2="285.7142857142857" style="stroke:#aaaaaa;"/><text x="5" y="283.7142857142857">-20</text></g><g style="stroke:#888888; font-family:Arial; font-size:6pt;"><line x1="1" y1="257.1428571428571" x2="700" y2="257.1428571428571" style="stroke:#aaaaaa;"/><text x="5" y="255.1428571428571">-10</text></g><g style="stroke:#888888; font-family:Arial; font-size:6pt;"><line x1="1" y1="228.57142857142856" x2="700" y2="228.57142857142856" style="stroke:#aaaaaa;"/><text x="5" y="226.57142857142856">0</text></g><g style="stroke:#888888; font-family:Arial; font-size:6pt;"><line x1="1" y1="199.99999999999997" x2="700" y2="199.99999999999997" style="stroke:#aaaaaa;"/><text x="5" y="197.99999999999997">10</text></g><g style="stroke:#888888; font-family:Arial; font-size:6pt;"><line x1="1" y1="171.42857142857142" x2="700" y2="171.42857142857142" style="stroke:#aaaaaa;"/><text x="5" y="169.42857142857142">20</text></g><g style="stroke:#888888; font-family:Arial; font-size:6pt;"><line x1="1" y1="142.85714285714283" x2="700" y2="142.85714285714283" style="stroke:#aaaaaa;"/><text x="5" y="140.85714285714283">30</text></g><g style="stroke:#888888; font-family:Arial; font-size:6pt;"><line x1="1" y1="114.28571428571426" x2="700" y2="114.28571428571426" style="stroke:#aaaaaa;"/><text x="5" y="112.28571428571426">40</text></g><g style="stroke:#888888; font-family:Arial; font-size:6pt;"><line x1="1" y1="85.7142857142857" x2="700" y2="85.7142857142857" style="stroke:#aaaaaa;"/><text x="5" y="83.7142857142857">50</text></g><g style="stroke:#888888; font-family:Arial; font-size:6pt;"><line x1="1" y1="57.14285714285711" x2="700" y2="57.14285714285711" style="stroke:#aaaaaa;"/><text x="5" y="55.14285714285711">60</text></g><g style="stroke:#888888; font-family:Arial; font-size:6pt;"><line x1="1" y1="28.571428571428555" x2="700" y2="28.571428571428555" style="stroke:#aaaaaa;"/><text x="5" y="26.571428571428555">70</text></g><g style="stroke:#888888; font-family:Arial; font-size:6pt;"><line x1="1" y1="-2.842170943040401E-14" x2="700" y2="-2.842170943040401E-14" style="stroke:#aaaaaa;"/><text x="5" y="-2.0000000000000284">80</text></g><text x="350" y="20" style="text-anchor:middle; font-size: 14pt;">Batting History - Dr Nick</text>
					
					<rect x="26.580645161290324" y="197.1428571428571" height="31.428571428571445" width="14.580645161290324" style="fill:#aaaaff;"/><rect x="49.16129032258065" y="185.7142857142857" height="42.85714285714286" width="14.580645161290324" style="fill:#aaaaff;"/><rect x="71.74193548387098" y="142.85714285714283" height="85.71428571428572" width="14.580645161290324" style="fill:#aaaaff;"/><rect x="94.3225806451613" y="108.57142857142856" height="120" width="14.580645161290324" style="fill:#aaaaff;"/><rect x="116.90322580645162" y="194.28571428571428" height="34.28571428571428" width="14.580645161290324" style="fill:#aaaaff;"/><rect x="139.48387096774195" y="140" height="88.57142857142856" width="14.580645161290324" style="fill:#aaaaff;"/><rect x="162.06451612903226" y="191.42857142857142" height="37.14285714285714" width="14.580645161290324" style="fill:#aaaaff;"/><rect x="184.6451612903226" y="182.85714285714283" height="45.71428571428572" width="14.580645161290324" style="fill:#aaaaff;"/><rect x="207.22580645161293" y="180" height="48.571428571428555" width="14.580645161290324" style="fill:#aaaaff;"/><rect x="229.80645161290323" y="79.99999999999997" height="148.57142857142858" width="14.580645161290324" style="fill:#aaaaff;"/><rect x="252.38709677419357" y="165.7142857142857" height="62.85714285714286" width="14.580645161290324" style="fill:#aaaaff;"/><rect x="274.9677419354839" y="219.99999999999997" height="8.571428571428584" width="14.580645161290324" style="fill:#aaaaff;"/><rect x="297.5483870967742" y="134.28571428571428" height="94.28571428571428" width="14.580645161290324" style="fill:#aaaaff;"/><rect x="320.1290322580645" y="185.7142857142857" height="42.85714285714286" width="14.580645161290324" style="fill:#aaaaff;"/><rect x="342.7096774193549" y="140" height="88.57142857142856" width="14.580645161290324" style="fill:#aaaaff;"/><rect x="365.2903225806452" y="228.57142857142856" height="31.428571428571445" width="14.580645161290324" style="fill:#aaaaff;"/><rect x="387.8709677419355" y="185.7142857142857" height="42.85714285714286" width="14.580645161290324" style="fill:#aaaaff;"/><rect x="410.45161290322585" y="174.28571428571428" height="54.28571428571428" width="14.580645161290324" style="fill:#aaaaff;"/><rect x="433.03225806451616" y="194.28571428571428" height="34.28571428571428" width="14.580645161290324" style="fill:#aaaaff;"/><rect x="455.61290322580646" y="160" height="68.57142857142856" width="14.580645161290324" style="fill:#aaaaff;"/><rect x="478.1935483870968" y="199.99999999999997" height="28.571428571428584" width="14.580645161290324" style="fill:#aaaaff;"/><rect x="500.77419354838713" y="142.85714285714283" height="85.71428571428572" width="14.580645161290324" style="fill:#aaaaff;"/><rect x="523.3548387096774" y="180" height="48.571428571428555" width="14.580645161290324" style="fill:#aaaaff;"/><rect x="545.9354838709678" y="205.7142857142857" height="22.85714285714286" width="14.580645161290324" style="fill:#aaaaff;"/><rect x="568.516129032258" y="128.57142857142856" height="100" width="14.580645161290324" style="fill:#aaaaff;"/><rect x="591.0967741935484" y="142.85714285714283" height="85.71428571428572" width="14.580645161290324" style="fill:#aaaaff;"/><rect x="613.6774193548388" y="168.57142857142856" height="60" width="14.580645161290324" style="fill:#aaaaff;"/><rect x="636.258064516129" y="228.57142857142856" height="17.14285714285714" width="14.580645161290324" style="fill:#aaaaff;"/><rect x="658.8387096774194" y="174.28571428571428" height="54.28571428571428" width="14.580645161290324" style="fill:#aaaaff;"/><rect x="681.4193548387098" y="205.7142857142857" height="22.85714285714286" width="14.580645161290324" style="fill:#aaaaff;"/><rect x="22.580645161290324" y="222.85714285714283" height="5.714285714285722" width="14.580645161290324" style="fill:#0000aa;"/><text x="22.580645161290324" y="219.85714285714283">2</text><rect x="45.16129032258065" y="182.85714285714283" height="45.71428571428572" width="14.580645161290324" style="fill:#0000aa;"/><text x="45.16129032258065" y="179.85714285714283">16</text><rect x="67.74193548387098" y="197.1428571428571" height="31.428571428571445" width="14.580645161290324" style="fill:#0000aa;"/><text x="67.74193548387098" y="194.1428571428571">11</text><rect x="90.3225806451613" y="174.28571428571428" height="54.28571428571428" width="14.580645161290324" style="fill:#0000aa;"/><text x="90.3225806451613" y="171.28571428571428">19</text><rect x="112.90322580645162" y="208.57142857142856" height="20" width="14.580645161290324" style="fill:#0000aa;"/><text x="112.90322580645162" y="205.57142857142856">7</text><rect x="135.48387096774195" y="191.42857142857142" height="37.14285714285714" width="14.580645161290324" style="fill:#0000aa;"/><text x="135.48387096774195" y="188.42857142857142">13</text><rect x="158.06451612903226" y="214.28571428571428" height="14.285714285714278" width="14.580645161290324" style="fill:#0000aa;"/><text x="158.06451612903226" y="211.28571428571428">5</text><rect x="180.6451612903226" y="202.85714285714283" height="25.714285714285722" width="14.580645161290324" style="fill:#0000aa;"/><text x="180.6451612903226" y="199.85714285714283">9</text><rect x="203.22580645161293" y="208.57142857142856" height="20" width="14.580645161290324" style="fill:#0000aa;"/><text x="203.22580645161293" y="205.57142857142856">7</text><rect x="225.80645161290323" y="162.85714285714283" height="65.71428571428572" width="14.580645161290324" style="fill:#0000aa;"/><text x="225.80645161290323" y="159.85714285714283">23</text><rect x="248.38709677419357" y="188.57142857142856" height="40" width="14.580645161290324" style="fill:#0000aa;"/><text x="248.38709677419357" y="185.57142857142856">14</text><rect x="270.9677419354839" y="222.85714285714283" height="5.714285714285722" width="14.580645161290324" style="fill:#0000aa;"/><text x="270.9677419354839" y="219.85714285714283">2</text><rect x="293.5483870967742" y="177.1428571428571" height="51.428571428571445" width="14.580645161290324" style="fill:#0000aa;"/><text x="293.5483870967742" y="174.1428571428571">18</text><rect x="316.1290322580645" y="162.85714285714283" height="65.71428571428572" width="14.580645161290324" style="fill:#0000aa;"/><text x="316.1290322580645" y="159.85714285714283">23</text><rect x="338.7096774193549" y="140" height="88.57142857142856" width="14.580645161290324" style="fill:#0000aa;"/><text x="338.7096774193549" y="137">31</text><rect x="361.2903225806452" y="228.57142857142856" height="37.14285714285717" width="14.580645161290324" style="fill:#0000aa;"/><text x="361.2903225806452" y="225.57142857142856">-13</text><rect x="383.8709677419355" y="219.99999999999997" height="8.571428571428584" width="14.580645161290324" style="fill:#0000aa;"/><text x="383.8709677419355" y="216.99999999999997">3</text><rect x="406.45161290322585" y="185.7142857142857" height="42.85714285714286" width="14.580645161290324" style="fill:#0000aa;"/><text x="406.45161290322585" y="182.7142857142857">15</text><rect x="429.03225806451616" y="228.57142857142856" height="25.714285714285722" width="14.580645161290324" style="fill:#0000aa;"/><text x="429.03225806451616" y="225.57142857142856">-9</text><rect x="451.61290322580646" y="171.42857142857142" height="57.14285714285714" width="14.580645161290324" style="fill:#0000aa;"/><text x="451.61290322580646" y="168.42857142857142">20</text><rect x="474.1935483870968" y="197.1428571428571" height="31.428571428571445" width="14.580645161290324" style="fill:#0000aa;"/><text x="474.1935483870968" y="194.1428571428571">11</text><rect x="496.77419354838713" y="180" height="48.571428571428555" width="14.580645161290324" style="fill:#0000aa;"/><text x="496.77419354838713" y="177">17</text><rect x="519.3548387096774" y="211.42857142857142" height="17.14285714285714" width="14.580645161290324" style="fill:#0000aa;"/><text x="519.3548387096774" y="208.42857142857142">6</text><rect x="541.9354838709678" y="222.85714285714283" height="5.714285714285722" width="14.580645161290324" style="fill:#0000aa;"/><text x="541.9354838709678" y="219.85714285714283">2</text><rect x="564.516129032258" y="202.85714285714283" height="25.714285714285722" width="14.580645161290324" style="fill:#0000aa;"/><text x="564.516129032258" y="199.85714285714283">9</text><rect x="587.0967741935484" y="199.99999999999997" height="28.571428571428584" width="14.580645161290324" style="fill:#0000aa;"/><text x="587.0967741935484" y="196.99999999999997">10</text><rect x="609.6774193548388" y="228.57142857142856" height="0" width="14.580645161290324" style="fill:#0000aa;"/><text x="609.6774193548388" y="225.57142857142856">0</text><rect x="632.258064516129" y="228.57142857142856" height="42.85714285714289" width="14.580645161290324" style="fill:#0000aa;"/><text x="632.258064516129" y="225.57142857142856">-15</text><rect x="654.8387096774194" y="222.85714285714283" height="5.714285714285722" width="14.580645161290324" style="fill:#0000aa;"/><text x="654.8387096774194" y="219.85714285714283">2</text><rect x="677.4193548387098" y="191.42857142857142" height="37.14285714285714" width="14.580645161290324" style="fill:#0000aa;"/><text x="677.4193548387098" y="188.42857142857142">13</text>
					
					<path d="M29.870967741935488 197.1428571428571 L52.45161290322581 191.42857142857142 L75.03225806451614 175.2380952380952 L97.61290322580646 158.57142857142856 L120.19354838709678 165.7142857142857 L142.7741935483871 161.42857142857142 L165.3548387096774 165.7142857142857 L187.93548387096774 167.85714285714283 L210.51612903225808 169.2063492063492 L233.09677419354838 160.28571428571428 L255.67741935483872 160.77922077922076 L278.2580645161291 165.7142857142857 L300.8387096774194 163.29670329670327 L323.4193548387097 164.89795918367346 L346.00000000000006 163.2380952380952 L368.58064516129036 169.28571428571428 L391.16129032258067 170.2521008403361 L413.74193548387103 170.47619047619045 L436.32258064516134 171.72932330827066 L458.90322580645164 171.1428571428571 L481.483870967742 172.51700680272108 L504.0645161290323 171.16883116883116 L526.6451612903226 171.5527950310559 L549.2258064516129 172.97619047619045 L571.8064516129032 171.2 L594.3870967741935 170.1098901098901 L616.9677419354839 170.05291005291002 L639.5483870967741 172.75510204081633 L662.1290322580645 172.807881773399 L684.7096774193549 173.9047619047619 " style="fill:none; stroke:red; stroke-width:1"/><path d="M29.870967741935488 222.85714285714283 L52.45161290322581 202.85714285714283 L75.03225806451614 200.95238095238093 L97.61290322580646 194.28571428571428 L120.19354838709678 197.1428571428571 L142.7741935483871 196.19047619047618 L165.3548387096774 198.77551020408163 L187.93548387096774 199.28571428571428 L210.51612903225808 200.3174603174603 L233.09677419354838 196.57142857142856 L255.67741935483872 195.84415584415584 L278.2580645161291 198.09523809523807 L300.8387096774194 196.48351648351647 L323.4193548387097 194.0816326530612 L346.00000000000006 190.47619047619045 L368.58064516129036 195.17857142857142 L391.16129032258067 196.63865546218486 L413.74193548387103 196.03174603174602 L436.32258064516134 199.09774436090225 L458.90322580645164 197.7142857142857 L481.483870967742 197.68707482993196 L504.0645161290323 196.88311688311686 L526.6451612903226 197.51552795031054 L549.2258064516129 198.57142857142856 L571.8064516129032 198.74285714285713 L594.3870967741935 198.79120879120876 L616.9677419354839 199.89417989417987 L639.5483870967741 202.44897959183672 L662.1290322580645 203.1527093596059 L684.7096774193549 202.76190476190476 " style="fill:none; stroke:red; stroke-width:1"/>
				</g>
			</svg>