<?xml version="1.0" encoding="UTF-8"?><svg xml:space="preserve" width="700" height="300">
				<desc>Batting History</desc>
				<g style="stroke:#000000; stroke-width:0.5; font-family:Arial; font-size:7pt;">
					<rect x="1" y="1" width="698" height="298" style="fill:#dddddd;"/><g style="stroke:#888888; font-family:Arial; font-size:6pt;"><line x1="1" y1="285.7142857142857" x2="700" y2="285.7142857142857" style="stroke:#aaaaaa;"/><text x="5" y="283.7142857142857">-20</text></g><g style="stroke:#888888; font-family:Arial; font-size:6pt;"><line x1="1" y1="257.1428571428571" x2="700" y2="257.1428571428571" style="stroke:#aaaaaa;"/><text x="5" y="255.1428571428571">-10</text></g><g style="stroke:#888888; font-family:Arial; font-size:6pt;"><line x1="1" y1="228.57142857142856" x2="700" y2="228.57142857142856" style="stroke:#aaaaaa;"/><text x="5" y="226.57142857142856">0</text></g><g style="stroke:#888888; font-family:Arial; font-size:6pt;"><line x1="1" y1="199.99999999999997" x2="700" y2="199.99999999999997" style="stroke:#aaaaaa;"/><text x="5" y="197.99999999999997">10</text></g><g style="stroke:#888888; font-family:Arial; font-size:6pt;"><line x1="1" y1="171.42857142857142" x2="700" y2="171.42857142857142" style="stroke:#aaaaaa;"/><text x="5" y="169.42857142857142">20</text></g><g style="stroke:#888888; font-family:Arial; font-size:6pt;"><line x1="1" y1="142.85714285714283" x2="700" y2="142.85714285714283" style="stroke:#aaaaaa;"/><text x="5" y="140.85714285714283">30</text></g><g style="stroke:#888888; font-family:Arial; font-size:6pt;"><line x1="1" y1="114.28571428571426" x2="700" y2="114.28571428571426" style="stroke:#aaaaaa;"/><text x="5" y="112.28571428571426">40</text></g><g style="stroke:#888888; font-family:Arial; font-size:6pt;"><line x1="1" y1="85.7142857142857" x2="700" y2="85.7142857142857" style="stroke:#aaaaaa;"/><text x="5" y="83.7142857142857">50</text></g><g style="stroke:#888888; font-family:Arial; font-size:6pt;"><line x1="1" y1="57.14285714285711" x2="700" y2="57.14285714285711" style="stroke:#aaaaaa;"/><text x="5" y="55.14285714285711">60</text></g><g style="stroke:#888888; font-family:Arial; font-size:6pt;"><line x1="1" y1="28.571428571428555" x2="700" y2="28.571428571428555" style="stroke:#aaaaaa;"/><text x="5" y="26.571428571428555">70</text></g><g style="stroke:#888888; font-family:Arial; font-size:6pt;"><line x1="1" y1="-2.842170943040401E-14" x2="700" y2="-2.842170943040401E-14" style="stroke:#aaaaaa;"/><text x="5" y="-2.0000000000000284">80</text></g><text x="350" y="20" style="text-anchor:middle; font-size: 14pt;">Batting History - Baz</text>
					
					<rect x="39" y="211.42857142857142" height="17.14285714285714" width="27" style="fill:#aaaaff;"/><rect x="74" y="185.7142857142857" height="42.85714285714286" width="27" style="fill:#aaaaff;"/><rect x="109" y="119.99999999999999" height="108.57142857142857" width="27" style="fill:#aaaaff;"/><rect x="144" y="188.57142857142856" height="40" width="27" style="fill:#aaaaff;"/><rect x="179" y="222.85714285714283" height="5.714285714285722" width="27" style="fill:#aaaaff;"/><rect x="214" y="199.99999999999997" height="28.571428571428584" width="27" style="fill:#aaaaff;"/><rect x="249" y="168.57142857142856" height="60" width="27" style="fill:#aaaaff;"/><rect x="284" y="228.57142857142856" height="40" width="27" style="fill:#aaaaff;"/><rect x="319" y="228.57142857142856" height="5.714285714285722" width="27" style="fill:#aaaaff;"/><rect x="354" y="117.14285714285712" height="111.42857142857143" width="27" style="fill:#aaaaff;"/><rect x="389" y="148.57142857142856" height="80" width="27" style="fill:#aaaaff;"/><rect x="424" y="137.1428571428571" height="91.42857142857144" width="27" style="fill:#aaaaff;"/><rect x="459" y="157.1428571428571" height="71.42857142857144" width="27" style="fill:#aaaaff;"/><rect x="494" y="182.85714285714283" height="45.71428571428572" width="27" style="fill:#aaaaff;"/><rect x="529" y="165.7142857142857" height="62.85714285714286" width="27" style="fill:#aaaaff;"/><rect x="564" y="211.42857142857142" height="17.14285714285714" width="27" style="fill:#aaaaff;"/><rect x="599" y="134.28571428571428" height="94.28571428571428" width="27" style="fill:#aaaaff;"/><rect x="634" y="148.57142857142856" height="80" width="27" style="fill:#aaaaff;"/><rect x="669" y="165.7142857142857" height="62.85714285714286" width="27" style="fill:#aaaaff;"/><rect x="35" y="228.57142857142856" height="42.85714285714289" width="27" style="fill:#0000aa;"/><text x="35" y="225.57142857142856">-15</text><rect x="70" y="228.57142857142856" height="2.857142857142861" width="27" style="fill:#0000aa;"/><text x="70" y="225.57142857142856">-1</text><rect x="105" y="151.42857142857142" height="77.14285714285714" width="27" style="fill:#0000aa;"/><text x="105" y="148.42857142857142">27</text><rect x="140" y="185.7142857142857" height="42.85714285714286" width="27" style="fill:#0000aa;"/><text x="140" y="182.7142857142857">15</text><rect x="175" y="208.57142857142856" height="20" width="27" style="fill:#0000aa;"/><text x="175" y="205.57142857142856">7</text><rect x="210" y="228.57142857142856" height="0" width="27" style="fill:#0000aa;"/><text x="210" y="225.57142857142856">0</text><rect x="245" y="202.85714285714283" height="25.714285714285722" width="27" style="fill:#0000aa;"/><text x="245" y="199.85714285714283">9</text><rect x="280" y="199.99999999999997" height="28.571428571428584" width="27" style="fill:#0000aa;"/><text x="280" y="196.99999999999997">10</text><rect x="315" y="228.57142857142856" height="2.857142857142861" width="27" style="fill:#0000aa;"/><text x="315" y="225.57142857142856">-1</text><rect x="350" y="182.85714285714283" height="45.71428571428572" width="27" style="fill:#0000aa;"/><text x="350" y="179.85714285714283">16</text><rect x="385" y="182.85714285714283" height="45.71428571428572" width="27" style="fill:#0000aa;"/><text x="385" y="179.85714285714283">16</text><rect x="420" y="202.85714285714283" height="25.714285714285722" width="27" style="fill:#0000aa;"/><text x="420" y="199.85714285714283">9</text><rect x="455" y="182.85714285714283" height="45.71428571428572" width="27" style="fill:#0000aa;"/><text x="455" y="179.85714285714283">16</text><rect x="490" y="202.85714285714283" height="25.714285714285722" width="27" style="fill:#0000aa;"/><text x="490" y="199.85714285714283">9</text><rect x="525" y="168.57142857142856" height="60" width="27" style="fill:#0000aa;"/><text x="525" y="165.57142857142856">21</text><rect x="560" y="219.99999999999997" height="8.571428571428584" width="27" style="fill:#0000aa;"/><text x="560" y="216.99999999999997">3</text><rect x="595" y="180" height="48.571428571428555" width="27" style="fill:#0000aa;"/><text x="595" y="177">17</text><rect x="630" y="199.99999999999997" height="28.571428571428584" width="27" style="fill:#0000aa;"/><text x="630" y="196.99999999999997">10</text><rect x="665" y="211.42857142857142" height="17.14285714285714" width="27" style="fill:#0000aa;"/><text x="665" y="208.42857142857142">6</text>
					
					<path d="M48.5 211.42857142857142 L83.5 198.57142857142856 L118.5 172.38095238095235 L153.5 176.42857142857142 L188.5 185.7142857142857 L223.5 188.09523809523807 L258.5 185.30612244897958 L293.5 195.7142857142857 L328.5 199.99999999999997 L363.5 191.7142857142857 L398.5 187.79220779220776 L433.5 183.57142857142856 L468.5 181.53846153846152 L503.5 181.63265306122446 L538.5 180.57142857142856 L573.5 182.5 L608.5 179.66386554621846 L643.5 177.93650793650792 L678.5 177.29323308270676 " style="fill:none; stroke:red; stroke-width:1"/><path d="M48.5 271.42857142857144 L83.5 251.42857142857142 L118.5 218.09523809523807 L153.5 209.99999999999997 L188.5 209.7142857142857 L223.5 212.85714285714283 L258.5 211.42857142857142 L293.5 209.99999999999997 L328.5 212.38095238095235 L363.5 209.42857142857142 L398.5 207.012987012987 L433.5 206.66666666666666 L468.5 204.83516483516482 L503.5 204.6938775510204 L538.5 202.28571428571428 L573.5 203.3928571428571 L608.5 202.01680672268907 L643.5 201.9047619047619 L678.5 202.40601503759396 " style="fill:none; stroke:red; stroke-width:1"/>
				</g>
			</svg>