<?xml version="1.0" encoding="UTF-8"?><svg xml:space="preserve" width="700" height="300">
				<desc>Batting History</desc>
				<g style="stroke:#000000; stroke-width:0.5; font-family:Arial; font-size:7pt;">
					<rect x="1" y="1" width="698" height="298" style="fill:#dddddd;"/><g style="stroke:#888888; font-family:Arial; font-size:6pt;"><line x1="1" y1="285.7142857142857" x2="700" y2="285.7142857142857" style="stroke:#aaaaaa;"/><text x="5" y="283.7142857142857">-20</text></g><g style="stroke:#888888; font-family:Arial; font-size:6pt;"><line x1="1" y1="257.1428571428571" x2="700" y2="257.1428571428571" style="stroke:#aaaaaa;"/><text x="5" y="255.1428571428571">-10</text></g><g style="stroke:#888888; font-family:Arial; font-size:6pt;"><line x1="1" y1="228.57142857142856" x2="700" y2="228.57142857142856" style="stroke:#aaaaaa;"/><text x="5" y="226.57142857142856">0</text></g><g style="stroke:#888888; font-family:Arial; font-size:6pt;"><line x1="1" y1="199.99999999999997" x2="700" y2="199.99999999999997" style="stroke:#aaaaaa;"/><text x="5" y="197.99999999999997">10</text></g><g style="stroke:#888888; font-family:Arial; font-size:6pt;"><line x1="1" y1="171.42857142857142" x2="700" y2="171.42857142857142" style="stroke:#aaaaaa;"/><text x="5" y="169.42857142857142">20</text></g><g style="stroke:#888888; font-family:Arial; font-size:6pt;"><line x1="1" y1="142.85714285714283" x2="700" y2="142.85714285714283" style="stroke:#aaaaaa;"/><text x="5" y="140.85714285714283">30</text></g><g style="stroke:#888888; font-family:Arial; font-size:6pt;"><line x1="1" y1="114.28571428571426" x2="700" y2="114.28571428571426" style="stroke:#aaaaaa;"/><text x="5" y="112.28571428571426">40</text></g><g style="stroke:#888888; font-family:Arial; font-size:6pt;"><line x1="1" y1="85.7142857142857" x2="700" y2="85.7142857142857" style="stroke:#aaaaaa;"/><text x="5" y="83.7142857142857">50</text></g><g style="stroke:#888888; font-family:Arial; font-size:6pt;"><line x1="1" y1="57.14285714285711" x2="700" y2="57.14285714285711" style="stroke:#aaaaaa;"/><text x="5" y="55.14285714285711">60</text></g><g style="stroke:#888888; font-family:Arial; font-size:6pt;"><line x1="1" y1="28.571428571428555" x2="700" y2="28.571428571428555" style="stroke:#aaaaaa;"/><text x="5" y="26.571428571428555">70</text></g><g style="stroke:#888888; font-family:Arial; font-size:6pt;"><line x1="1" y1="-2.842170943040401E-14" x2="700" y2="-2.842170943040401E-14" style="stroke:#aaaaaa;"/><text x="5" y="-2.0000000000000284">80</text></g><text x="350" y="20" style="text-anchor:middle; font-size: 14pt;">Batting History - Kumaran</text>
					
					<rect x="50.666666666666664" y="74.28571428571428" height="154.28571428571428" width="38.666666666666664" style="fill:#aaaaff;"/><rect x="97.33333333333333" y="182.85714285714283" height="45.71428571428572" width="38.666666666666664" style="fill:#aaaaff;"/><rect x="144" y="140" height="88.57142857142856" width="38.666666666666664" style="fill:#aaaaff;"/><rect x="190.66666666666666" y="228.57142857142856" height="31.428571428571445" width="38.666666666666664" style="fill:#aaaaff;"/><rect x="237.33333333333331" y="182.85714285714283" height="45.71428571428572" width="38.666666666666664" style="fill:#aaaaff;"/><rect x="284" y="145.7142857142857" height="82.85714285714286" width="38.666666666666664" style="fill:#aaaaff;"/><rect x="330.66666666666663" y="162.85714285714283" height="65.71428571428572" width="38.666666666666664" style="fill:#aaaaff;"/><rect x="377.3333333333333" y="174.28571428571428" height="54.28571428571428" width="38.666666666666664" style="fill:#aaaaff;"/><rect x="424" y="137.1428571428571" height="91.42857142857144" width="38.666666666666664" style="fill:#aaaaff;"/><rect x="470.66666666666663" y="142.85714285714283" height="85.71428571428572" width="38.666666666666664" style="fill:#aaaaff;"/><rect x="517.3333333333333" y="168.57142857142856" height="60" width="38.666666666666664" style="fill:#aaaaff;"/><rect x="564" y="191.42857142857142" height="37.14285714285714" width="38.666666666666664" style="fill:#aaaaff;"/><rect x="610.6666666666666" y="182.85714285714283" height="45.71428571428572" width="38.666666666666664" style="fill:#aaaaff;"/><rect x="657.3333333333333" y="180" height="48.571428571428555" width="38.666666666666664" style="fill:#aaaaff;"/><rect x="46.666666666666664" y="162.85714285714283" height="65.71428571428572" width="38.666666666666664" style="fill:#0000aa;"/><text x="46.666666666666664" y="159.85714285714283">23</text><rect x="93.33333333333333" y="194.28571428571428" height="34.28571428571428" width="38.666666666666664" style="fill:#0000aa;"/><text x="93.33333333333333" y="191.28571428571428">12</text><rect x="140" y="228.57142857142856" height="0" width="38.666666666666664" style="fill:#0000aa;"/><text x="140" y="225.57142857142856">0</text><rect x="186.66666666666666" y="222.85714285714283" height="5.714285714285722" width="38.666666666666664" style="fill:#0000aa;"/><text x="186.66666666666666" y="219.85714285714283">2</text><rect x="233.33333333333331" y="219.99999999999997" height="8.571428571428584" width="38.666666666666664" style="fill:#0000aa;"/><text x="233.33333333333331" y="216.99999999999997">3</text><rect x="280" y="180" height="48.571428571428555" width="38.666666666666664" style="fill:#0000aa;"/><text x="280" y="177">17</text><rect x="326.66666666666663" y="168.57142857142856" height="60" width="38.666666666666664" style="fill:#0000aa;"/><text x="326.66666666666663" y="165.57142857142856">21</text><rect x="373.3333333333333" y="208.57142857142856" height="20" width="38.666666666666664" style="fill:#0000aa;"/><text x="373.3333333333333" y="205.57142857142856">7</text><rect x="420" y="180" height="48.571428571428555" width="38.666666666666664" style="fill:#0000aa;"/><text x="420" y="177">17</text><rect x="466.66666666666663" y="214.28571428571428" height="14.285714285714278" width="38.666666666666664" style="fill:#0000aa;"/><text x="466.66666666666663" y="211.28571428571428">5</text><rect x="513.3333333333333" y="168.57142857142856" height="60" width="38.666666666666664" style="fill:#0000aa;"/><text x="513.3333333333333" y="165.57142857142856">21</text><rect x="560" y="219.99999999999997" height="8.571428571428584" width="38.666666666666664" style="fill:#0000aa;"/><text x="560" y="216.99999999999997">3</text><rect x="606.6666666666666" y="197.1428571428571" height="31.428571428571445" width="38.666666666666664" style="fill:#0000aa;"/><text x="606.6666666666666" y="194.1428571428571">11</text><rect x="653.3333333333333" y="205.7142857142857" height="22.85714285714286" width="38.666666666666664" style="fill:#0000aa;"/><text x="653.3333333333333" y="202.7142857142857">8</text>
					
					<path d="M66 74.28571428571428 L112.66666666666666 128.57142857142856 L159.33333333333334 132.38095238095235 L206 164.28571428571428 L252.66666666666666 168 L299.3333333333333 164.28571428571428 L345.99999999999994 164.0816326530612 L392.66666666666663 165.35714285714283 L439.3333333333333 162.2222222222222 L485.99999999999994 160.28571428571428 L532.6666666666666 161.03896103896102 L579.3333333333334 163.57142857142856 L626 165.05494505494505 L672.6666666666666 166.1224489795918 " style="fill:none; stroke:red; stroke-width:1"/><path d="M66 162.85714285714283 L112.66666666666666 178.57142857142856 L159.33333333333334 195.2380952380952 L206 202.1428571428571 L252.66666666666666 205.7142857142857 L299.3333333333333 201.42857142857142 L345.99999999999994 196.734693877551 L392.66666666666663 198.2142857142857 L439.3333333333333 196.19047619047618 L485.99999999999994 198 L532.6666666666666 195.3246753246753 L579.3333333333334 197.38095238095235 L626 197.36263736263734 L672.6666666666666 197.95918367346937 " style="fill:none; stroke:red; stroke-width:1"/>
				</g>
			</svg>