<?xml version="1.0" encoding="UTF-8"?><svg xml:space="preserve" width="700" height="300">
				<desc>Batting History</desc>
				<g style="stroke:#000000; stroke-width:0.5; font-family:Arial; font-size:7pt;">
					<rect x="1" y="1" width="698" height="298" style="fill:#dddddd;"/><g style="stroke:#888888; font-family:Arial; font-size:6pt;"><line x1="1" y1="285.7142857142857" x2="700" y2="285.7142857142857" style="stroke:#aaaaaa;"/><text x="5" y="283.7142857142857">-20</text></g><g style="stroke:#888888; font-family:Arial; font-size:6pt;"><line x1="1" y1="257.1428571428571" x2="700" y2="257.1428571428571" style="stroke:#aaaaaa;"/><text x="5" y="255.1428571428571">-10</text></g><g style="stroke:#888888; font-family:Arial; font-size:6pt;"><line x1="1" y1="228.57142857142856" x2="700" y2="228.57142857142856" style="stroke:#aaaaaa;"/><text x="5" y="226.57142857142856">0</text></g><g style="stroke:#888888; font-family:Arial; font-size:6pt;"><line x1="1" y1="199.99999999999997" x2="700" y2="199.99999999999997" style="stroke:#aaaaaa;"/><text x="5" y="197.99999999999997">10</text></g><g style="stroke:#888888; font-family:Arial; font-size:6pt;"><line x1="1" y1="171.42857142857142" x2="700" y2="171.42857142857142" style="stroke:#aaaaaa;"/><text x="5" y="169.42857142857142">20</text></g><g style="stroke:#888888; font-family:Arial; font-size:6pt;"><line x1="1" y1="142.85714285714283" x2="700" y2="142.85714285714283" style="stroke:#aaaaaa;"/><text x="5" y="140.85714285714283">30</text></g><g style="stroke:#888888; font-family:Arial; font-size:6pt;"><line x1="1" y1="114.28571428571426" x2="700" y2="114.28571428571426" style="stroke:#aaaaaa;"/><text x="5" y="112.28571428571426">40</text></g><g style="stroke:#888888; font-family:Arial; font-size:6pt;"><line x1="1" y1="85.7142857142857" x2="700" y2="85.7142857142857" style="stroke:#aaaaaa;"/><text x="5" y="83.7142857142857">50</text></g><g style="stroke:#888888; font-family:Arial; font-size:6pt;"><line x1="1" y1="57.14285714285711" x2="700" y2="57.14285714285711" style="stroke:#aaaaaa;"/><text x="5" y="55.14285714285711">60</text></g><g style="stroke:#888888; font-family:Arial; font-size:6pt;"><line x1="1" y1="28.571428571428555" x2="700" y2="28.571428571428555" style="stroke:#aaaaaa;"/><text x="5" y="26.571428571428555">70</text></g><g style="stroke:#888888; font-family:Arial; font-size:6pt;"><line x1="1" y1="-2.842170943040401E-14" x2="700" y2="-2.842170943040401E-14" style="stroke:#aaaaaa;"/><text x="5" y="-2.0000000000000284">80</text></g><text x="350" y="20" style="text-anchor:middle; font-size: 14pt;">Batting History - Grizzly Adams</text>
					
					<rect x="91.5" y="208.57142857142856" height="20" width="79.5" style="fill:#aaaaff;"/><rect x="179" y="114.28571428571426" height="114.28571428571429" width="79.5" style="fill:#aaaaff;"/><rect x="266.5" y="134.28571428571428" height="94.28571428571428" width="79.5" style="fill:#aaaaff;"/><rect x="354" y="162.85714285714283" height="65.71428571428572" width="79.5" style="fill:#aaaaff;"/><rect x="441.5" y="228.57142857142856" height="28.571428571428555" width="79.5" style="fill:#aaaaff;"/><rect x="529" y="128.57142857142856" height="100" width="79.5" style="fill:#aaaaff;"/><rect x="616.5" y="142.85714285714283" height="85.71428571428572" width="79.5" style="fill:#aaaaff;"/><rect x="87.5" y="228.57142857142856" height="2.857142857142861" width="79.5" style="fill:#0000aa;"/><text x="87.5" y="225.57142857142856">-1</text><rect x="175" y="160" height="68.57142857142856" width="79.5" style="fill:#0000aa;"/><text x="175" y="157">24</text><rect x="262.5" y="202.85714285714283" height="25.714285714285722" width="79.5" style="fill:#0000aa;"/><text x="262.5" y="199.85714285714283">9</text><rect x="350" y="202.85714285714283" height="25.714285714285722" width="79.5" style="fill:#0000aa;"/><text x="350" y="199.85714285714283">9</text><rect x="437.5" y="191.42857142857142" height="37.14285714285714" width="79.5" style="fill:#0000aa;"/><text x="437.5" y="188.42857142857142">13</text><rect x="525" y="182.85714285714283" height="45.71428571428572" width="79.5" style="fill:#0000aa;"/><text x="525" y="179.85714285714283">16</text><rect x="612.5" y="171.42857142857142" height="57.14285714285714" width="79.5" style="fill:#0000aa;"/><text x="612.5" y="168.42857142857142">20</text>
					
					<path d="M127.25 208.57142857142856 L214.75 161.42857142857142 L302.25 152.38095238095235 L389.75 155 L477.25 175.42857142857142 L564.75 167.6190476190476 L652.25 164.0816326530612 " style="fill:none; stroke:red; stroke-width:1"/><path d="M127.25 231.42857142857142 L214.75 195.7142857142857 L302.25 198.09523809523807 L389.75 199.28571428571428 L477.25 197.7142857142857 L564.75 195.2380952380952 L652.25 191.83673469387753 " style="fill:none; stroke:red; stroke-width:1"/>
				</g>
			</svg>