<?xml version="1.0" encoding="UTF-8"?><svg xml:space="preserve" width="700" height="300">
				<desc>Batting History</desc>
				<g style="stroke:#000000; stroke-width:0.5; font-family:Arial; font-size:7pt;">
					<rect x="1" y="1" width="698" height="298" style="fill:#dddddd;"/><g style="stroke:#888888; font-family:Arial; font-size:6pt;"><line x1="1" y1="285.7142857142857" x2="700" y2="285.7142857142857" style="stroke:#aaaaaa;"/><text x="5" y="283.7142857142857">-20</text></g><g style="stroke:#888888; font-family:Arial; font-size:6pt;"><line x1="1" y1="257.1428571428571" x2="700" y2="257.1428571428571" style="stroke:#aaaaaa;"/><text x="5" y="255.1428571428571">-10</text></g><g style="stroke:#888888; font-family:Arial; font-size:6pt;"><line x1="1" y1="228.57142857142856" x2="700" y2="228.57142857142856" style="stroke:#aaaaaa;"/><text x="5" y="226.57142857142856">0</text></g><g style="stroke:#888888; font-family:Arial; font-size:6pt;"><line x1="1" y1="199.99999999999997" x2="700" y2="199.99999999999997" style="stroke:#aaaaaa;"/><text x="5" y="197.99999999999997">10</text></g><g style="stroke:#888888; font-family:Arial; font-size:6pt;"><line x1="1" y1="171.42857142857142" x2="700" y2="171.42857142857142" style="stroke:#aaaaaa;"/><text x="5" y="169.42857142857142">20</text></g><g style="stroke:#888888; font-family:Arial; font-size:6pt;"><line x1="1" y1="142.85714285714283" x2="700" y2="142.85714285714283" style="stroke:#aaaaaa;"/><text x="5" y="140.85714285714283">30</text></g><g style="stroke:#888888; font-family:Arial; font-size:6pt;"><line x1="1" y1="114.28571428571426" x2="700" y2="114.28571428571426" style="stroke:#aaaaaa;"/><text x="5" y="112.28571428571426">40</text></g><g style="stroke:#888888; font-family:Arial; font-size:6pt;"><line x1="1" y1="85.7142857142857" x2="700" y2="85.7142857142857" style="stroke:#aaaaaa;"/><text x="5" y="83.7142857142857">50</text></g><g style="stroke:#888888; font-family:Arial; font-size:6pt;"><line x1="1" y1="57.14285714285711" x2="700" y2="57.14285714285711" style="stroke:#aaaaaa;"/><text x="5" y="55.14285714285711">60</text></g><g style="stroke:#888888; font-family:Arial; font-size:6pt;"><line x1="1" y1="28.571428571428555" x2="700" y2="28.571428571428555" style="stroke:#aaaaaa;"/><text x="5" y="26.571428571428555">70</text></g><g style="stroke:#888888; font-family:Arial; font-size:6pt;"><line x1="1" y1="-2.842170943040401E-14" x2="700" y2="-2.842170943040401E-14" style="stroke:#aaaaaa;"/><text x="5" y="-2.0000000000000284">80</text></g><text x="350" y="20" style="text-anchor:middle; font-size: 14pt;">Batting History - Sightscreen Bob</text>
					
					<rect x="25.875" y="140" height="88.57142857142856" width="13.875" style="fill:#aaaaff;"/><rect x="47.75" y="180" height="48.571428571428555" width="13.875" style="fill:#aaaaff;"/><rect x="69.625" y="119.99999999999999" height="108.57142857142857" width="13.875" style="fill:#aaaaff;"/><rect x="91.5" y="145.7142857142857" height="82.85714285714286" width="13.875" style="fill:#aaaaff;"/><rect x="113.375" y="197.1428571428571" height="31.428571428571445" width="13.875" style="fill:#aaaaff;"/><rect x="135.25" y="171.42857142857142" height="57.14285714285714" width="13.875" style="fill:#aaaaff;"/><rect x="157.125" y="182.85714285714283" height="45.71428571428572" width="13.875" style="fill:#aaaaff;"/><rect x="179" y="228.57142857142856" height="28.571428571428555" width="13.875" style="fill:#aaaaff;"/><rect x="200.875" y="151.42857142857142" height="77.14285714285714" width="13.875" style="fill:#aaaaff;"/><rect x="222.75" y="105.7142857142857" height="122.85714285714286" width="13.875" style="fill:#aaaaff;"/><rect x="244.625" y="160" height="68.57142857142856" width="13.875" style="fill:#aaaaff;"/><rect x="266.5" y="208.57142857142856" height="20" width="13.875" style="fill:#aaaaff;"/><rect x="288.375" y="219.99999999999997" height="8.571428571428584" width="13.875" style="fill:#aaaaff;"/><rect x="310.25" y="168.57142857142856" height="60" width="13.875" style="fill:#aaaaff;"/><rect x="332.125" y="228.57142857142856" height="22.85714285714286" width="13.875" style="fill:#aaaaff;"/><rect x="354" y="157.1428571428571" height="71.42857142857144" width="13.875" style="fill:#aaaaff;"/><rect x="375.875" y="228.57142857142856" height="54.28571428571428" width="13.875" style="fill:#aaaaff;"/><rect x="397.75" y="219.99999999999997" height="8.571428571428584" width="13.875" style="fill:#aaaaff;"/><rect x="419.625" y="228.57142857142856" height="5.714285714285722" width="13.875" style="fill:#aaaaff;"/><rect x="441.5" y="34.28571428571428" height="194.28571428571428" width="13.875" style="fill:#aaaaff;"/><rect x="463.375" y="119.99999999999999" height="108.57142857142857" width="13.875" style="fill:#aaaaff;"/><rect x="485.25" y="185.7142857142857" height="42.85714285714286" width="13.875" style="fill:#aaaaff;"/><rect x="507.125" y="148.57142857142856" height="80" width="13.875" style="fill:#aaaaff;"/><rect x="529" y="148.57142857142856" height="80" width="13.875" style="fill:#aaaaff;"/><rect x="550.875" y="102.85714285714283" height="125.71428571428572" width="13.875" style="fill:#aaaaff;"/><rect x="572.75" y="188.57142857142856" height="40" width="13.875" style="fill:#aaaaff;"/><rect x="594.625" y="142.85714285714283" height="85.71428571428572" width="13.875" style="fill:#aaaaff;"/><rect x="616.5" y="165.7142857142857" height="62.85714285714286" width="13.875" style="fill:#aaaaff;"/><rect x="638.375" y="228.57142857142856" height="5.714285714285722" width="13.875" style="fill:#aaaaff;"/><rect x="660.25" y="117.14285714285712" height="111.42857142857143" width="13.875" style="fill:#aaaaff;"/><rect x="682.125" y="185.7142857142857" height="42.85714285714286" width="13.875" style="fill:#aaaaff;"/><rect x="21.875" y="177.1428571428571" height="51.428571428571445" width="13.875" style="fill:#0000aa;"/><text x="21.875" y="174.1428571428571">18</text><rect x="43.75" y="177.1428571428571" height="51.428571428571445" width="13.875" style="fill:#0000aa;"/><text x="43.75" y="174.1428571428571">18</text><rect x="65.625" y="188.57142857142856" height="40" width="13.875" style="fill:#0000aa;"/><text x="65.625" y="185.57142857142856">14</text><rect x="87.5" y="191.42857142857142" height="37.14285714285714" width="13.875" style="fill:#0000aa;"/><text x="87.5" y="188.42857142857142">13</text><rect x="109.375" y="222.85714285714283" height="5.714285714285722" width="13.875" style="fill:#0000aa;"/><text x="109.375" y="219.85714285714283">2</text><rect x="131.25" y="180" height="48.571428571428555" width="13.875" style="fill:#0000aa;"/><text x="131.25" y="177">17</text><rect x="153.125" y="217.14285714285714" height="11.428571428571416" width="13.875" style="fill:#0000aa;"/><text x="153.125" y="214.14285714285714">4</text><rect x="175" y="228.57142857142856" height="14.285714285714278" width="13.875" style="fill:#0000aa;"/><text x="175" y="225.57142857142856">-5</text><rect x="196.875" y="165.7142857142857" height="62.85714285714286" width="13.875" style="fill:#0000aa;"/><text x="196.875" y="162.7142857142857">22</text><rect x="218.75" y="171.42857142857142" height="57.14285714285714" width="13.875" style="fill:#0000aa;"/><text x="218.75" y="168.42857142857142">20</text><rect x="240.625" y="222.85714285714283" height="5.714285714285722" width="13.875" style="fill:#0000aa;"/><text x="240.625" y="219.85714285714283">2</text><rect x="262.5" y="214.28571428571428" height="14.285714285714278" width="13.875" style="fill:#0000aa;"/><text x="262.5" y="211.28571428571428">5</text><rect x="284.375" y="219.99999999999997" height="8.571428571428584" width="13.875" style="fill:#0000aa;"/><text x="284.375" y="216.99999999999997">3</text><rect x="306.25" y="199.99999999999997" height="28.571428571428584" width="13.875" style="fill:#0000aa;"/><text x="306.25" y="196.99999999999997">10</text><rect x="328.125" y="217.14285714285714" height="11.428571428571416" width="13.875" style="fill:#0000aa;"/><text x="328.125" y="214.14285714285714">4</text><rect x="350" y="182.85714285714283" height="45.71428571428572" width="13.875" style="fill:#0000aa;"/><text x="350" y="179.85714285714283">16</text><rect x="371.875" y="219.99999999999997" height="8.571428571428584" width="13.875" style="fill:#0000aa;"/><text x="371.875" y="216.99999999999997">3</text><rect x="393.75" y="228.57142857142856" height="14.285714285714278" width="13.875" style="fill:#0000aa;"/><text x="393.75" y="225.57142857142856">-5</text><rect x="415.625" y="228.57142857142856" height="14.285714285714278" width="13.875" style="fill:#0000aa;"/><text x="415.625" y="225.57142857142856">-5</text><rect x="437.5" y="134.28571428571428" height="94.28571428571428" width="13.875" style="fill:#0000aa;"/><text x="437.5" y="131.28571428571428">33</text><rect x="459.375" y="157.1428571428571" height="71.42857142857144" width="13.875" style="fill:#0000aa;"/><text x="459.375" y="154.1428571428571">25</text><rect x="481.25" y="214.28571428571428" height="14.285714285714278" width="13.875" style="fill:#0000aa;"/><text x="481.25" y="211.28571428571428">5</text><rect x="503.125" y="188.57142857142856" height="40" width="13.875" style="fill:#0000aa;"/><text x="503.125" y="185.57142857142856">14</text><rect x="525" y="185.7142857142857" height="42.85714285714286" width="13.875" style="fill:#0000aa;"/><text x="525" y="182.7142857142857">15</text><rect x="546.875" y="171.42857142857142" height="57.14285714285714" width="13.875" style="fill:#0000aa;"/><text x="546.875" y="168.42857142857142">20</text><rect x="568.75" y="211.42857142857142" height="17.14285714285714" width="13.875" style="fill:#0000aa;"/><text x="568.75" y="208.42857142857142">6</text><rect x="590.625" y="171.42857142857142" height="57.14285714285714" width="13.875" style="fill:#0000aa;"/><text x="590.625" y="168.42857142857142">20</text><rect x="612.5" y="188.57142857142856" height="40" width="13.875" style="fill:#0000aa;"/><text x="612.5" y="185.57142857142856">14</text><rect x="634.375" y="228.57142857142856" height="25.714285714285722" width="13.875" style="fill:#0000aa;"/><text x="634.375" y="225.57142857142856">-9</text><rect x="656.25" y="177.1428571428571" height="51.428571428571445" width="13.875" style="fill:#0000aa;"/><text x="656.25" y="174.1428571428571">18</text><rect x="678.125" y="168.57142857142856" height="60" width="13.875" style="fill:#0000aa;"/><text x="678.125" y="165.57142857142856">21</text>
					
					<path d="M28.8125 140 L50.6875 160 L72.5625 146.66666666666663 L94.4375 146.42857142857142 L116.3125 156.57142857142856 L138.1875 159.04761904761904 L160.0625 162.44897959183672 L181.9375 174.28571428571428 L203.8125 171.74603174603172 L225.6875 165.1428571428571 L247.5625 164.67532467532465 L269.4375 168.33333333333331 L291.3125 172.3076923076923 L313.1875 172.0408163265306 L335.0625 177.33333333333331 L356.9375 176.07142857142856 L378.8125 182.35294117647058 L400.6875 184.44444444444443 L422.5625 187.0676691729323 L444.4375 179.42857142857142 L466.3125 176.5986394557823 L488.1875 177.012987012987 L510.0625 175.77639751552795 L531.9375 174.6428571428571 L553.8125 171.77142857142854 L575.6875 172.4175824175824 L597.5625 171.3227513227513 L619.4375 171.1224489795918 L641.3125 173.3004926108374 L663.1875 171.42857142857142 L685.0625 171.88940092165896 " style="fill:none; stroke:red; stroke-width:1"/><path d="M28.8125 177.1428571428571 L50.6875 177.1428571428571 L72.5625 180.95238095238093 L94.4375 183.57142857142856 L116.3125 191.42857142857142 L138.1875 189.52380952380952 L160.0625 193.46938775510202 L181.9375 199.6428571428571 L203.8125 195.87301587301585 L225.6875 193.42857142857142 L247.5625 196.1038961038961 L269.4375 197.6190476190476 L291.3125 199.34065934065933 L313.1875 199.3877551020408 L335.0625 200.57142857142856 L356.9375 199.4642857142857 L378.8125 200.672268907563 L400.6875 203.015873015873 L422.5625 205.1127819548872 L444.4375 201.57142857142856 L466.3125 199.45578231292515 L488.1875 200.1298701298701 L510.0625 199.62732919254657 L531.9375 199.04761904761904 L553.8125 197.94285714285712 L575.6875 198.46153846153845 L597.5625 197.46031746031744 L619.4375 197.1428571428571 L641.3125 199.11330049261082 L663.1875 198.38095238095235 L685.0625 197.41935483870967 " style="fill:none; stroke:red; stroke-width:1"/>
				</g>
			</svg>