<?xml version="1.0" encoding="UTF-8"?><svg xml:space="preserve" width="700" height="300">
				<desc>Batting History</desc>
				<g style="stroke:#000000; stroke-width:0.5; font-family:Arial; font-size:7pt;">
					<rect x="1" y="1" width="698" height="298" style="fill:#dddddd;"/><g style="stroke:#888888; font-family:Arial; font-size:6pt;"><line x1="1" y1="285.7142857142857" x2="700" y2="285.7142857142857" style="stroke:#aaaaaa;"/><text x="5" y="283.7142857142857">-20</text></g><g style="stroke:#888888; font-family:Arial; font-size:6pt;"><line x1="1" y1="257.1428571428571" x2="700" y2="257.1428571428571" style="stroke:#aaaaaa;"/><text x="5" y="255.1428571428571">-10</text></g><g style="stroke:#888888; font-family:Arial; font-size:6pt;"><line x1="1" y1="228.57142857142856" x2="700" y2="228.57142857142856" style="stroke:#aaaaaa;"/><text x="5" y="226.57142857142856">0</text></g><g style="stroke:#888888; font-family:Arial; font-size:6pt;"><line x1="1" y1="199.99999999999997" x2="700" y2="199.99999999999997" style="stroke:#aaaaaa;"/><text x="5" y="197.99999999999997">10</text></g><g style="stroke:#888888; font-family:Arial; font-size:6pt;"><line x1="1" y1="171.42857142857142" x2="700" y2="171.42857142857142" style="stroke:#aaaaaa;"/><text x="5" y="169.42857142857142">20</text></g><g style="stroke:#888888; font-family:Arial; font-size:6pt;"><line x1="1" y1="142.85714285714283" x2="700" y2="142.85714285714283" style="stroke:#aaaaaa;"/><text x="5" y="140.85714285714283">30</text></g><g style="stroke:#888888; font-family:Arial; font-size:6pt;"><line x1="1" y1="114.28571428571426" x2="700" y2="114.28571428571426" style="stroke:#aaaaaa;"/><text x="5" y="112.28571428571426">40</text></g><g style="stroke:#888888; font-family:Arial; font-size:6pt;"><line x1="1" y1="85.7142857142857" x2="700" y2="85.7142857142857" style="stroke:#aaaaaa;"/><text x="5" y="83.7142857142857">50</text></g><g style="stroke:#888888; font-family:Arial; font-size:6pt;"><line x1="1" y1="57.14285714285711" x2="700" y2="57.14285714285711" style="stroke:#aaaaaa;"/><text x="5" y="55.14285714285711">60</text></g><g style="stroke:#888888; font-family:Arial; font-size:6pt;"><line x1="1" y1="28.571428571428555" x2="700" y2="28.571428571428555" style="stroke:#aaaaaa;"/><text x="5" y="26.571428571428555">70</text></g><g style="stroke:#888888; font-family:Arial; font-size:6pt;"><line x1="1" y1="-2.842170943040401E-14" x2="700" y2="-2.842170943040401E-14" style="stroke:#aaaaaa;"/><text x="5" y="-2.0000000000000284">80</text></g><text x="350" y="20" style="text-anchor:middle; font-size: 14pt;">Batting History - Mick</text>
					
					<rect x="17.46153846153846" y="165.7142857142857" height="62.85714285714286" width="5.461538461538462" style="fill:#aaaaff;"/><rect x="30.923076923076923" y="125.7142857142857" height="102.85714285714286" width="5.461538461538462" style="fill:#aaaaff;"/><rect x="44.38461538461539" y="188.57142857142856" height="40" width="5.461538461538462" style="fill:#aaaaff;"/><rect x="57.84615384615385" y="214.28571428571428" height="14.285714285714278" width="5.461538461538462" style="fill:#aaaaff;"/><rect x="71.3076923076923" y="191.42857142857142" height="37.14285714285714" width="5.461538461538462" style="fill:#aaaaff;"/><rect x="84.76923076923077" y="194.28571428571428" height="34.28571428571428" width="5.461538461538462" style="fill:#aaaaff;"/><rect x="98.23076923076923" y="199.99999999999997" height="28.571428571428584" width="5.461538461538462" style="fill:#aaaaff;"/><rect x="111.6923076923077" y="82.85714285714283" height="145.71428571428572" width="5.461538461538462" style="fill:#aaaaff;"/><rect x="125.15384615384616" y="134.28571428571428" height="94.28571428571428" width="5.461538461538462" style="fill:#aaaaff;"/><rect x="138.6153846153846" y="162.85714285714283" height="65.71428571428572" width="5.461538461538462" style="fill:#aaaaff;"/><rect x="152.07692307692307" y="140" height="88.57142857142856" width="5.461538461538462" style="fill:#aaaaff;"/><rect x="165.53846153846155" y="171.42857142857142" height="57.14285714285714" width="5.461538461538462" style="fill:#aaaaff;"/><rect x="179" y="134.28571428571428" height="94.28571428571428" width="5.461538461538462" style="fill:#aaaaff;"/><rect x="192.46153846153845" y="117.14285714285712" height="111.42857142857143" width="5.461538461538462" style="fill:#aaaaff;"/><rect x="205.92307692307693" y="148.57142857142856" height="80" width="5.461538461538462" style="fill:#aaaaff;"/><rect x="219.3846153846154" y="140" height="88.57142857142856" width="5.461538461538462" style="fill:#aaaaff;"/><rect x="232.84615384615384" y="154.28571428571428" height="74.28571428571428" width="5.461538461538462" style="fill:#aaaaff;"/><rect x="246.30769230769232" y="119.99999999999999" height="108.57142857142857" width="5.461538461538462" style="fill:#aaaaff;"/><rect x="259.7692307692308" y="157.1428571428571" height="71.42857142857144" width="5.461538461538462" style="fill:#aaaaff;"/><rect x="273.2307692307692" y="111.42857142857142" height="117.14285714285714" width="5.461538461538462" style="fill:#aaaaff;"/><rect x="286.6923076923077" y="48.571428571428555" height="180" width="5.461538461538462" style="fill:#aaaaff;"/><rect x="300.15384615384613" y="171.42857142857142" height="57.14285714285714" width="5.461538461538462" style="fill:#aaaaff;"/><rect x="313.61538461538464" y="105.7142857142857" height="122.85714285714286" width="5.461538461538462" style="fill:#aaaaff;"/><rect x="327.0769230769231" y="117.14285714285712" height="111.42857142857143" width="5.461538461538462" style="fill:#aaaaff;"/><rect x="340.53846153846155" y="160" height="68.57142857142856" width="5.461538461538462" style="fill:#aaaaff;"/><rect x="354" y="211.42857142857142" height="17.14285714285714" width="5.461538461538462" style="fill:#aaaaff;"/><rect x="367.46153846153845" y="157.1428571428571" height="71.42857142857144" width="5.461538461538462" style="fill:#aaaaff;"/><rect x="380.9230769230769" y="228.57142857142856" height="11.428571428571416" width="5.461538461538462" style="fill:#aaaaff;"/><rect x="394.3846153846154" y="188.57142857142856" height="40" width="5.461538461538462" style="fill:#aaaaff;"/><rect x="407.84615384615387" y="182.85714285714283" height="45.71428571428572" width="5.461538461538462" style="fill:#aaaaff;"/><rect x="421.3076923076923" y="171.42857142857142" height="57.14285714285714" width="5.461538461538462" style="fill:#aaaaff;"/><rect x="434.7692307692308" y="182.85714285714283" height="45.71428571428572" width="5.461538461538462" style="fill:#aaaaff;"/><rect x="448.2307692307692" y="114.28571428571426" height="114.28571428571429" width="5.461538461538462" style="fill:#aaaaff;"/><rect x="461.6923076923077" y="137.1428571428571" height="91.42857142857144" width="5.461538461538462" style="fill:#aaaaff;"/><rect x="475.15384615384613" y="148.57142857142856" height="80" width="5.461538461538462" style="fill:#aaaaff;"/><rect x="488.61538461538464" y="91.42857142857142" height="137.14285714285714" width="5.461538461538462" style="fill:#aaaaff;"/><rect x="502.0769230769231" y="148.57142857142856" height="80" width="5.461538461538462" style="fill:#aaaaff;"/><rect x="515.5384615384615" y="219.99999999999997" height="8.571428571428584" width="5.461538461538462" style="fill:#aaaaff;"/><rect x="529" y="228.57142857142856" height="11.428571428571416" width="5.461538461538462" style="fill:#aaaaff;"/><rect x="542.4615384615385" y="197.1428571428571" height="31.428571428571445" width="5.461538461538462" style="fill:#aaaaff;"/><rect x="555.9230769230769" y="122.85714285714283" height="105.71428571428572" width="5.461538461538462" style="fill:#aaaaff;"/><rect x="569.3846153846154" y="194.28571428571428" height="34.28571428571428" width="5.461538461538462" style="fill:#aaaaff;"/><rect x="582.8461538461538" y="165.7142857142857" height="62.85714285714286" width="5.461538461538462" style="fill:#aaaaff;"/><rect x="596.3076923076923" y="31.428571428571416" height="197.14285714285714" width="5.461538461538462" style="fill:#aaaaff;"/><rect x="609.7692307692308" y="57.14285714285711" height="171.42857142857144" width="5.461538461538462" style="fill:#aaaaff;"/><rect x="623.2307692307693" y="102.85714285714283" height="125.71428571428572" width="5.461538461538462" style="fill:#aaaaff;"/><rect x="636.6923076923077" y="157.1428571428571" height="71.42857142857144" width="5.461538461538462" style="fill:#aaaaff;"/><rect x="650.1538461538462" y="62.85714285714283" height="165.71428571428572" width="5.461538461538462" style="fill:#aaaaff;"/><rect x="663.6153846153846" y="88.57142857142856" height="140" width="5.461538461538462" style="fill:#aaaaff;"/><rect x="677.0769230769231" y="71.42857142857142" height="157.14285714285714" width="5.461538461538462" style="fill:#aaaaff;"/><rect x="690.5384615384615" y="228.57142857142856" height="17.14285714285714" width="5.461538461538462" style="fill:#aaaaff;"/><rect x="13.461538461538462" y="160" height="68.57142857142856" width="5.461538461538462" style="fill:#0000aa;"/><text x="13.461538461538462" y="157">24</text><rect x="26.923076923076923" y="177.1428571428571" height="51.428571428571445" width="5.461538461538462" style="fill:#0000aa;"/><text x="26.923076923076923" y="174.1428571428571">18</text><rect x="40.38461538461539" y="222.85714285714283" height="5.714285714285722" width="5.461538461538462" style="fill:#0000aa;"/><text x="40.38461538461539" y="219.85714285714283">2</text><rect x="53.84615384615385" y="228.57142857142856" height="0" width="5.461538461538462" style="fill:#0000aa;"/><text x="53.84615384615385" y="225.57142857142856">0</text><rect x="67.3076923076923" y="202.85714285714283" height="25.714285714285722" width="5.461538461538462" style="fill:#0000aa;"/><text x="67.3076923076923" y="199.85714285714283">9</text><rect x="80.76923076923077" y="199.99999999999997" height="28.571428571428584" width="5.461538461538462" style="fill:#0000aa;"/><text x="80.76923076923077" y="196.99999999999997">10</text><rect x="94.23076923076923" y="199.99999999999997" height="28.571428571428584" width="5.461538461538462" style="fill:#0000aa;"/><text x="94.23076923076923" y="196.99999999999997">10</text><rect x="107.6923076923077" y="180" height="48.571428571428555" width="5.461538461538462" style="fill:#0000aa;"/><text x="107.6923076923077" y="177">17</text><rect x="121.15384615384616" y="171.42857142857142" height="57.14285714285714" width="5.461538461538462" style="fill:#0000aa;"/><text x="121.15384615384616" y="168.42857142857142">20</text><rect x="134.6153846153846" y="177.1428571428571" height="51.428571428571445" width="5.461538461538462" style="fill:#0000aa;"/><text x="134.6153846153846" y="174.1428571428571">18</text><rect x="148.07692307692307" y="182.85714285714283" height="45.71428571428572" width="5.461538461538462" style="fill:#0000aa;"/><text x="148.07692307692307" y="179.85714285714283">16</text><rect x="161.53846153846155" y="191.42857142857142" height="37.14285714285714" width="5.461538461538462" style="fill:#0000aa;"/><text x="161.53846153846155" y="188.42857142857142">13</text><rect x="175" y="219.99999999999997" height="8.571428571428584" width="5.461538461538462" style="fill:#0000aa;"/><text x="175" y="216.99999999999997">3</text><rect x="188.46153846153845" y="162.85714285714283" height="65.71428571428572" width="5.461538461538462" style="fill:#0000aa;"/><text x="188.46153846153845" y="159.85714285714283">23</text><rect x="201.92307692307693" y="194.28571428571428" height="34.28571428571428" width="5.461538461538462" style="fill:#0000aa;"/><text x="201.92307692307693" y="191.28571428571428">12</text><rect x="215.3846153846154" y="188.57142857142856" height="40" width="5.461538461538462" style="fill:#0000aa;"/><text x="215.3846153846154" y="185.57142857142856">14</text><rect x="228.84615384615384" y="191.42857142857142" height="37.14285714285714" width="5.461538461538462" style="fill:#0000aa;"/><text x="228.84615384615384" y="188.42857142857142">13</text><rect x="242.30769230769232" y="180" height="48.571428571428555" width="5.461538461538462" style="fill:#0000aa;"/><text x="242.30769230769232" y="177">17</text><rect x="255.76923076923077" y="211.42857142857142" height="17.14285714285714" width="5.461538461538462" style="fill:#0000aa;"/><text x="255.76923076923077" y="208.42857142857142">6</text><rect x="269.2307692307692" y="177.1428571428571" height="51.428571428571445" width="5.461538461538462" style="fill:#0000aa;"/><text x="269.2307692307692" y="174.1428571428571">18</text><rect x="282.6923076923077" y="128.57142857142856" height="100" width="5.461538461538462" style="fill:#0000aa;"/><text x="282.6923076923077" y="125.57142857142856">35</text><rect x="296.15384615384613" y="199.99999999999997" height="28.571428571428584" width="5.461538461538462" style="fill:#0000aa;"/><text x="296.15384615384613" y="196.99999999999997">10</text><rect x="309.61538461538464" y="174.28571428571428" height="54.28571428571428" width="5.461538461538462" style="fill:#0000aa;"/><text x="309.61538461538464" y="171.28571428571428">19</text><rect x="323.0769230769231" y="171.42857142857142" height="57.14285714285714" width="5.461538461538462" style="fill:#0000aa;"/><text x="323.0769230769231" y="168.42857142857142">20</text><rect x="336.53846153846155" y="197.1428571428571" height="31.428571428571445" width="5.461538461538462" style="fill:#0000aa;"/><text x="336.53846153846155" y="194.1428571428571">11</text><rect x="350" y="182.85714285714283" height="45.71428571428572" width="5.461538461538462" style="fill:#0000aa;"/><text x="350" y="179.85714285714283">16</text><rect x="363.46153846153845" y="202.85714285714283" height="25.714285714285722" width="5.461538461538462" style="fill:#0000aa;"/><text x="363.46153846153845" y="199.85714285714283">9</text><rect x="376.9230769230769" y="202.85714285714283" height="25.714285714285722" width="5.461538461538462" style="fill:#0000aa;"/><text x="376.9230769230769" y="199.85714285714283">9</text><rect x="390.3846153846154" y="208.57142857142856" height="20" width="5.461538461538462" style="fill:#0000aa;"/><text x="390.3846153846154" y="205.57142857142856">7</text><rect x="403.84615384615387" y="197.1428571428571" height="31.428571428571445" width="5.461538461538462" style="fill:#0000aa;"/><text x="403.84615384615387" y="194.1428571428571">11</text><rect x="417.3076923076923" y="180" height="48.571428571428555" width="5.461538461538462" style="fill:#0000aa;"/><text x="417.3076923076923" y="177">17</text><rect x="430.7692307692308" y="185.7142857142857" height="42.85714285714286" width="5.461538461538462" style="fill:#0000aa;"/><text x="430.7692307692308" y="182.7142857142857">15</text><rect x="444.2307692307692" y="165.7142857142857" height="62.85714285714286" width="5.461538461538462" style="fill:#0000aa;"/><text x="444.2307692307692" y="162.7142857142857">22</text><rect x="457.6923076923077" y="177.1428571428571" height="51.428571428571445" width="5.461538461538462" style="fill:#0000aa;"/><text x="457.6923076923077" y="174.1428571428571">18</text><rect x="471.15384615384613" y="180" height="48.571428571428555" width="5.461538461538462" style="fill:#0000aa;"/><text x="471.15384615384613" y="177">17</text><rect x="484.61538461538464" y="168.57142857142856" height="60" width="5.461538461538462" style="fill:#0000aa;"/><text x="484.61538461538464" y="165.57142857142856">21</text><rect x="498.0769230769231" y="191.42857142857142" height="37.14285714285714" width="5.461538461538462" style="fill:#0000aa;"/><text x="498.0769230769231" y="188.42857142857142">13</text><rect x="511.53846153846155" y="219.99999999999997" height="8.571428571428584" width="5.461538461538462" style="fill:#0000aa;"/><text x="511.53846153846155" y="216.99999999999997">3</text><rect x="525" y="217.14285714285714" height="11.428571428571416" width="5.461538461538462" style="fill:#0000aa;"/><text x="525" y="214.14285714285714">4</text><rect x="538.4615384615385" y="228.57142857142856" height="5.714285714285722" width="5.461538461538462" style="fill:#0000aa;"/><text x="538.4615384615385" y="225.57142857142856">-2</text><rect x="551.9230769230769" y="191.42857142857142" height="37.14285714285714" width="5.461538461538462" style="fill:#0000aa;"/><text x="551.9230769230769" y="188.42857142857142">13</text><rect x="565.3846153846154" y="168.57142857142856" height="60" width="5.461538461538462" style="fill:#0000aa;"/><text x="565.3846153846154" y="165.57142857142856">21</text><rect x="578.8461538461538" y="177.1428571428571" height="51.428571428571445" width="5.461538461538462" style="fill:#0000aa;"/><text x="578.8461538461538" y="174.1428571428571">18</text><rect x="592.3076923076923" y="131.42857142857142" height="97.14285714285714" width="5.461538461538462" style="fill:#0000aa;"/><text x="592.3076923076923" y="128.42857142857142">34</text><rect x="605.7692307692308" y="171.42857142857142" height="57.14285714285714" width="5.461538461538462" style="fill:#0000aa;"/><text x="605.7692307692308" y="168.42857142857142">20</text><rect x="619.2307692307693" y="171.42857142857142" height="57.14285714285714" width="5.461538461538462" style="fill:#0000aa;"/><text x="619.2307692307693" y="168.42857142857142">20</text><rect x="632.6923076923077" y="199.99999999999997" height="28.571428571428584" width="5.461538461538462" style="fill:#0000aa;"/><text x="632.6923076923077" y="196.99999999999997">10</text><rect x="646.1538461538462" y="162.85714285714283" height="65.71428571428572" width="5.461538461538462" style="fill:#0000aa;"/><text x="646.1538461538462" y="159.85714285714283">23</text><rect x="659.6153846153846" y="180" height="48.571428571428555" width="5.461538461538462" style="fill:#0000aa;"/><text x="659.6153846153846" y="177">17</text><rect x="673.0769230769231" y="148.57142857142856" height="80" width="5.461538461538462" style="fill:#0000aa;"/><text x="673.0769230769231" y="145.57142857142856">28</text><rect x="686.5384615384615" y="202.85714285714283" height="25.714285714285722" width="5.461538461538462" style="fill:#0000aa;"/><text x="686.5384615384615" y="199.85714285714283">9</text>
					
					<path d="M16.192307692307693 165.7142857142857 L29.653846153846153 145.7142857142857 L43.11538461538462 160 L56.57692307692308 173.57142857142856 L70.03846153846153 177.1428571428571 L83.5 180 L96.96153846153845 182.85714285714283 L110.42307692307692 170.35714285714283 L123.88461538461539 166.34920634920633 L137.34615384615384 166 L150.8076923076923 163.63636363636363 L164.26923076923077 164.28571428571428 L177.73076923076923 161.97802197802196 L191.19230769230768 158.77551020408163 L204.65384615384616 158.09523809523807 L218.1153846153846 156.9642857142857 L231.57692307692307 156.80672268907563 L245.03846153846155 154.76190476190476 L258.5 154.88721804511277 L271.96153846153845 152.7142857142857 L285.4230769230769 147.75510204081633 L298.88461538461536 148.8311688311688 L312.34615384615387 146.95652173913044 L325.8076923076923 145.7142857142857 L339.2692307692308 146.28571428571428 L352.7307692307692 148.79120879120876 L366.1923076923077 149.1005291005291 L379.65384615384613 152.34693877551018 L393.11538461538464 153.59605911330047 L406.5769230769231 154.57142857142856 L420.03846153846155 155.11520737327186 L433.5 155.98214285714283 L446.96153846153845 154.7186147186147 L460.4230769230769 154.20168067226888 L473.88461538461536 154.0408163265306 L487.34615384615387 152.3015873015873 L500.8076923076923 152.20077220077218 L514.2692307692308 153.98496240601503 L527.7307692307693 156.19047619047618 L541.1923076923077 157.2142857142857 L554.6538461538462 156.37630662020905 L568.1153846153846 157.27891156462584 L581.5769230769231 157.47508305647838 L595.0384615384615 154.61038961038957 L608.5000000000001 152.44444444444443 L621.9615384615386 151.36645962732916 L635.423076923077 151.48936170212764 L648.8846153846155 149.6428571428571 L662.3461538461539 148.39650145772595 L675.8076923076924 146.85714285714283 L689.2692307692308 148.7955182072829 " style="fill:none; stroke:red; stroke-width:1"/><path d="M16.192307692307693 160 L29.653846153846153 168.57142857142856 L43.11538461538462 186.66666666666666 L56.57692307692308 197.1428571428571 L70.03846153846153 198.28571428571428 L83.5 198.57142857142856 L96.96153846153845 198.77551020408163 L110.42307692307692 196.42857142857142 L123.88461538461539 193.65079365079364 L137.34615384615384 191.99999999999997 L150.8076923076923 191.16883116883116 L164.26923076923077 191.19047619047618 L177.73076923076923 193.4065934065934 L191.19230769230768 191.22448979591834 L204.65384615384616 191.42857142857142 L218.1153846153846 191.25 L231.57692307692307 191.26050420168065 L245.03846153846155 190.6349206349206 L258.5 191.72932330827066 L271.96153846153845 190.99999999999997 L285.4230769230769 188.02721088435374 L298.88461538461536 188.57142857142856 L312.34615384615387 187.9503105590062 L325.8076923076923 187.26190476190476 L339.2692307692308 187.65714285714284 L352.7307692307692 187.47252747252745 L366.1923076923077 188.04232804232802 L379.65384615384613 188.57142857142856 L393.11538461538464 189.26108374384233 L406.5769230769231 189.52380952380952 L420.03846153846155 189.21658986175115 L433.5 189.10714285714283 L446.96153846153845 188.39826839826839 L460.4230769230769 188.06722689075627 L473.88461538461536 187.83673469387753 L487.34615384615387 187.3015873015873 L500.8076923076923 187.4131274131274 L514.2692307692308 188.2706766917293 L527.7307692307693 189.010989010989 L541.1923076923077 190.1428571428571 L554.6538461538462 190.17421602787454 L568.1153846153846 189.65986394557822 L581.5769230769231 189.36877076411957 L595.0384615384615 188.05194805194805 L608.5000000000001 187.68253968253967 L621.9615384615386 187.32919254658384 L635.423076923077 187.59878419452886 L648.8846153846155 187.08333333333331 L662.3461538461539 186.93877551020407 L675.8076923076924 186.17142857142855 L689.2692307692308 186.4985994397759 " style="fill:none; stroke:red; stroke-width:1"/>
				</g>
			</svg>