<?xml version="1.0" encoding="UTF-8"?><svg xml:space="preserve" width="700" height="300">
				<desc>Batting History</desc>
				<g style="stroke:#000000; stroke-width:0.5; font-family:Arial; font-size:7pt;">
					<rect x="1" y="1" width="698" height="298" style="fill:#dddddd;"/><g style="stroke:#888888; font-family:Arial; font-size:6pt;"><line x1="1" y1="285.7142857142857" x2="700" y2="285.7142857142857" style="stroke:#aaaaaa;"/><text x="5" y="283.7142857142857">-20</text></g><g style="stroke:#888888; font-family:Arial; font-size:6pt;"><line x1="1" y1="257.1428571428571" x2="700" y2="257.1428571428571" style="stroke:#aaaaaa;"/><text x="5" y="255.1428571428571">-10</text></g><g style="stroke:#888888; font-family:Arial; font-size:6pt;"><line x1="1" y1="228.57142857142856" x2="700" y2="228.57142857142856" style="stroke:#aaaaaa;"/><text x="5" y="226.57142857142856">0</text></g><g style="stroke:#888888; font-family:Arial; font-size:6pt;"><line x1="1" y1="199.99999999999997" x2="700" y2="199.99999999999997" style="stroke:#aaaaaa;"/><text x="5" y="197.99999999999997">10</text></g><g style="stroke:#888888; font-family:Arial; font-size:6pt;"><line x1="1" y1="171.42857142857142" x2="700" y2="171.42857142857142" style="stroke:#aaaaaa;"/><text x="5" y="169.42857142857142">20</text></g><g style="stroke:#888888; font-family:Arial; font-size:6pt;"><line x1="1" y1="142.85714285714283" x2="700" y2="142.85714285714283" style="stroke:#aaaaaa;"/><text x="5" y="140.85714285714283">30</text></g><g style="stroke:#888888; font-family:Arial; font-size:6pt;"><line x1="1" y1="114.28571428571426" x2="700" y2="114.28571428571426" style="stroke:#aaaaaa;"/><text x="5" y="112.28571428571426">40</text></g><g style="stroke:#888888; font-family:Arial; font-size:6pt;"><line x1="1" y1="85.7142857142857" x2="700" y2="85.7142857142857" style="stroke:#aaaaaa;"/><text x="5" y="83.7142857142857">50</text></g><g style="stroke:#888888; font-family:Arial; font-size:6pt;"><line x1="1" y1="57.14285714285711" x2="700" y2="57.14285714285711" style="stroke:#aaaaaa;"/><text x="5" y="55.14285714285711">60</text></g><g style="stroke:#888888; font-family:Arial; font-size:6pt;"><line x1="1" y1="28.571428571428555" x2="700" y2="28.571428571428555" style="stroke:#aaaaaa;"/><text x="5" y="26.571428571428555">70</text></g><g style="stroke:#888888; font-family:Arial; font-size:6pt;"><line x1="1" y1="-2.842170943040401E-14" x2="700" y2="-2.842170943040401E-14" style="stroke:#aaaaaa;"/><text x="5" y="-2.0000000000000284">80</text></g><text x="350" y="20" style="text-anchor:middle; font-size: 14pt;">Batting History - Jade Goody</text>
					
					<rect x="104" y="191.42857142857142" height="37.14285714285714" width="92" style="fill:#aaaaff;"/><rect x="204" y="191.42857142857142" height="37.14285714285714" width="92" style="fill:#aaaaff;"/><rect x="304" y="199.99999999999997" height="28.571428571428584" width="92" style="fill:#aaaaff;"/><rect x="404" y="180" height="48.571428571428555" width="92" style="fill:#aaaaff;"/><rect x="504" y="160" height="68.57142857142856" width="92" style="fill:#aaaaff;"/><rect x="604" y="180" height="48.571428571428555" width="92" style="fill:#aaaaff;"/><rect x="100" y="214.28571428571428" height="14.285714285714278" width="92" style="fill:#0000aa;"/><text x="100" y="211.28571428571428">5</text><rect x="200" y="211.42857142857142" height="17.14285714285714" width="92" style="fill:#0000aa;"/><text x="200" y="208.42857142857142">6</text><rect x="300" y="228.57142857142856" height="2.857142857142861" width="92" style="fill:#0000aa;"/><text x="300" y="225.57142857142856">-1</text><rect x="400" y="182.85714285714283" height="45.71428571428572" width="92" style="fill:#0000aa;"/><text x="400" y="179.85714285714283">16</text><rect x="500" y="211.42857142857142" height="17.14285714285714" width="92" style="fill:#0000aa;"/><text x="500" y="208.42857142857142">6</text><rect x="600" y="202.85714285714283" height="25.714285714285722" width="92" style="fill:#0000aa;"/><text x="600" y="199.85714285714283">9</text>
					
					<path d="M146 191.42857142857142 L246 191.42857142857142 L346 194.28571428571428 L446 190.7142857142857 L546 184.57142857142856 L646 183.8095238095238 " style="fill:none; stroke:red; stroke-width:1"/><path d="M146 214.28571428571428 L246 212.85714285714283 L346 219.04761904761904 L446 209.99999999999997 L546 210.28571428571428 L646 209.04761904761904 " style="fill:none; stroke:red; stroke-width:1"/>
				</g>
			</svg>