<?xml version="1.0" encoding="UTF-8"?><svg xml:space="preserve" width="700" height="300">
				<desc>Batting History</desc>
				<g style="stroke:#000000; stroke-width:0.5; font-family:Arial; font-size:7pt;">
					<rect x="1" y="1" width="698" height="298" style="fill:#dddddd;"/><g style="stroke:#888888; font-family:Arial; font-size:6pt;"><line x1="1" y1="285.7142857142857" x2="700" y2="285.7142857142857" style="stroke:#aaaaaa;"/><text x="5" y="283.7142857142857">-20</text></g><g style="stroke:#888888; font-family:Arial; font-size:6pt;"><line x1="1" y1="257.1428571428571" x2="700" y2="257.1428571428571" style="stroke:#aaaaaa;"/><text x="5" y="255.1428571428571">-10</text></g><g style="stroke:#888888; font-family:Arial; font-size:6pt;"><line x1="1" y1="228.57142857142856" x2="700" y2="228.57142857142856" style="stroke:#aaaaaa;"/><text x="5" y="226.57142857142856">0</text></g><g style="stroke:#888888; font-family:Arial; font-size:6pt;"><line x1="1" y1="199.99999999999997" x2="700" y2="199.99999999999997" style="stroke:#aaaaaa;"/><text x="5" y="197.99999999999997">10</text></g><g style="stroke:#888888; font-family:Arial; font-size:6pt;"><line x1="1" y1="171.42857142857142" x2="700" y2="171.42857142857142" style="stroke:#aaaaaa;"/><text x="5" y="169.42857142857142">20</text></g><g style="stroke:#888888; font-family:Arial; font-size:6pt;"><line x1="1" y1="142.85714285714283" x2="700" y2="142.85714285714283" style="stroke:#aaaaaa;"/><text x="5" y="140.85714285714283">30</text></g><g style="stroke:#888888; font-family:Arial; font-size:6pt;"><line x1="1" y1="114.28571428571426" x2="700" y2="114.28571428571426" style="stroke:#aaaaaa;"/><text x="5" y="112.28571428571426">40</text></g><g style="stroke:#888888; font-family:Arial; font-size:6pt;"><line x1="1" y1="85.7142857142857" x2="700" y2="85.7142857142857" style="stroke:#aaaaaa;"/><text x="5" y="83.7142857142857">50</text></g><g style="stroke:#888888; font-family:Arial; font-size:6pt;"><line x1="1" y1="57.14285714285711" x2="700" y2="57.14285714285711" style="stroke:#aaaaaa;"/><text x="5" y="55.14285714285711">60</text></g><g style="stroke:#888888; font-family:Arial; font-size:6pt;"><line x1="1" y1="28.571428571428555" x2="700" y2="28.571428571428555" style="stroke:#aaaaaa;"/><text x="5" y="26.571428571428555">70</text></g><g style="stroke:#888888; font-family:Arial; font-size:6pt;"><line x1="1" y1="-2.842170943040401E-14" x2="700" y2="-2.842170943040401E-14" style="stroke:#aaaaaa;"/><text x="5" y="-2.0000000000000284">80</text></g><text x="350" y="20" style="text-anchor:middle; font-size: 14pt;">Batting History - Dave 2</text>
					
					<rect x="32" y="219.99999999999997" height="8.571428571428584" width="20" style="fill:#aaaaff;"/><rect x="60" y="205.7142857142857" height="22.85714285714286" width="20" style="fill:#aaaaff;"/><rect x="88" y="197.1428571428571" height="31.428571428571445" width="20" style="fill:#aaaaff;"/><rect x="116" y="205.7142857142857" height="22.85714285714286" width="20" style="fill:#aaaaff;"/><rect x="144" y="111.42857142857142" height="117.14285714285714" width="20" style="fill:#aaaaff;"/><rect x="172" y="182.85714285714283" height="45.71428571428572" width="20" style="fill:#aaaaff;"/><rect x="200" y="211.42857142857142" height="17.14285714285714" width="20" style="fill:#aaaaff;"/><rect x="228" y="97.14285714285711" height="131.42857142857144" width="20" style="fill:#aaaaff;"/><rect x="256" y="214.28571428571428" height="14.285714285714278" width="20" style="fill:#aaaaff;"/><rect x="284" y="197.1428571428571" height="31.428571428571445" width="20" style="fill:#aaaaff;"/><rect x="312" y="202.85714285714283" height="25.714285714285722" width="20" style="fill:#aaaaff;"/><rect x="340" y="157.1428571428571" height="71.42857142857144" width="20" style="fill:#aaaaff;"/><rect x="368" y="182.85714285714283" height="45.71428571428572" width="20" style="fill:#aaaaff;"/><rect x="396" y="191.42857142857142" height="37.14285714285714" width="20" style="fill:#aaaaff;"/><rect x="424" y="162.85714285714283" height="65.71428571428572" width="20" style="fill:#aaaaff;"/><rect x="452" y="128.57142857142856" height="100" width="20" style="fill:#aaaaff;"/><rect x="480" y="197.1428571428571" height="31.428571428571445" width="20" style="fill:#aaaaff;"/><rect x="508" y="157.1428571428571" height="71.42857142857144" width="20" style="fill:#aaaaff;"/><rect x="536" y="131.42857142857142" height="97.14285714285714" width="20" style="fill:#aaaaff;"/><rect x="564" y="125.7142857142857" height="102.85714285714286" width="20" style="fill:#aaaaff;"/><rect x="592" y="211.42857142857142" height="17.14285714285714" width="20" style="fill:#aaaaff;"/><rect x="620" y="214.28571428571428" height="14.285714285714278" width="20" style="fill:#aaaaff;"/><rect x="648" y="185.7142857142857" height="42.85714285714286" width="20" style="fill:#aaaaff;"/><rect x="676" y="228.57142857142856" height="22.85714285714286" width="20" style="fill:#aaaaff;"/><rect x="28" y="225.7142857142857" height="2.857142857142861" width="20" style="fill:#0000aa;"/><text x="28" y="222.7142857142857">1</text><rect x="56" y="211.42857142857142" height="17.14285714285714" width="20" style="fill:#0000aa;"/><text x="56" y="208.42857142857142">6</text><rect x="84" y="214.28571428571428" height="14.285714285714278" width="20" style="fill:#0000aa;"/><text x="84" y="211.28571428571428">5</text><rect x="112" y="219.99999999999997" height="8.571428571428584" width="20" style="fill:#0000aa;"/><text x="112" y="216.99999999999997">3</text><rect x="140" y="180" height="48.571428571428555" width="20" style="fill:#0000aa;"/><text x="140" y="177">17</text><rect x="168" y="199.99999999999997" height="28.571428571428584" width="20" style="fill:#0000aa;"/><text x="168" y="196.99999999999997">10</text><rect x="196" y="219.99999999999997" height="8.571428571428584" width="20" style="fill:#0000aa;"/><text x="196" y="216.99999999999997">3</text><rect x="224" y="165.7142857142857" height="62.85714285714286" width="20" style="fill:#0000aa;"/><text x="224" y="162.7142857142857">22</text><rect x="252" y="228.57142857142856" height="28.571428571428555" width="20" style="fill:#0000aa;"/><text x="252" y="225.57142857142856">-10</text><rect x="280" y="228.57142857142856" height="2.857142857142861" width="20" style="fill:#0000aa;"/><text x="280" y="225.57142857142856">-1</text><rect x="308" y="228.57142857142856" height="5.714285714285722" width="20" style="fill:#0000aa;"/><text x="308" y="225.57142857142856">-2</text><rect x="336" y="214.28571428571428" height="14.285714285714278" width="20" style="fill:#0000aa;"/><text x="336" y="211.28571428571428">5</text><rect x="364" y="214.28571428571428" height="14.285714285714278" width="20" style="fill:#0000aa;"/><text x="364" y="211.28571428571428">5</text><rect x="392" y="222.85714285714283" height="5.714285714285722" width="20" style="fill:#0000aa;"/><text x="392" y="219.85714285714283">2</text><rect x="420" y="174.28571428571428" height="54.28571428571428" width="20" style="fill:#0000aa;"/><text x="420" y="171.28571428571428">19</text><rect x="448" y="199.99999999999997" height="28.571428571428584" width="20" style="fill:#0000aa;"/><text x="448" y="196.99999999999997">10</text><rect x="476" y="228.57142857142856" height="14.285714285714278" width="20" style="fill:#0000aa;"/><text x="476" y="225.57142857142856">-5</text><rect x="504" y="188.57142857142856" height="40" width="20" style="fill:#0000aa;"/><text x="504" y="185.57142857142856">14</text><rect x="532" y="202.85714285714283" height="25.714285714285722" width="20" style="fill:#0000aa;"/><text x="532" y="199.85714285714283">9</text><rect x="560" y="174.28571428571428" height="54.28571428571428" width="20" style="fill:#0000aa;"/><text x="560" y="171.28571428571428">19</text><rect x="588" y="214.28571428571428" height="14.285714285714278" width="20" style="fill:#0000aa;"/><text x="588" y="211.28571428571428">5</text><rect x="616" y="194.28571428571428" height="34.28571428571428" width="20" style="fill:#0000aa;"/><text x="616" y="191.28571428571428">12</text><rect x="644" y="199.99999999999997" height="28.571428571428584" width="20" style="fill:#0000aa;"/><text x="644" y="196.99999999999997">10</text><rect x="672" y="228.57142857142856" height="0" width="20" style="fill:#0000aa;"/><text x="672" y="225.57142857142856">0</text>
					
					<path d="M38 219.99999999999997 L66 212.85714285714283 L94 207.6190476190476 L122 207.1428571428571 L150 188 L178 187.1428571428571 L206 190.61224489795916 L234 178.92857142857142 L262 182.85714285714283 L290 184.28571428571428 L318 185.97402597402595 L346 183.57142857142856 L374 183.5164835164835 L402 184.0816326530612 L430 182.66666666666666 L458 179.28571428571428 L486 180.33613445378148 L514 179.04761904761904 L542 176.54135338345864 L570 173.99999999999997 L598 175.78231292517006 L626 177.5324675324675 L654 177.88819875776397 L682 180.95238095238093 " style="fill:none; stroke:red; stroke-width:1"/><path d="M38 225.7142857142857 L66 218.57142857142856 L94 217.14285714285714 L122 217.85714285714283 L150 210.28571428571428 L178 208.57142857142856 L206 210.20408163265304 L234 204.6428571428571 L262 210.47619047619045 L290 212.57142857142856 L318 214.54545454545453 L346 214.52380952380952 L374 214.50549450549448 L402 215.1020408163265 L430 212.38095238095235 L458 211.60714285714283 L486 213.44537815126048 L514 212.06349206349205 L542 211.57894736842104 L570 209.7142857142857 L598 209.93197278911563 L626 209.2207792207792 L654 208.8198757763975 L682 209.6428571428571 " style="fill:none; stroke:red; stroke-width:1"/>
				</g>
			</svg>