<?xml version="1.0" encoding="UTF-8"?><svg xml:space="preserve" width="700" height="300">
				<desc>Batting History</desc>
				<g style="stroke:#000000; stroke-width:0.5; font-family:Arial; font-size:7pt;">
					<rect x="1" y="1" width="698" height="298" style="fill:#dddddd;"/><g style="stroke:#888888; font-family:Arial; font-size:6pt;"><line x1="1" y1="285.7142857142857" x2="700" y2="285.7142857142857" style="stroke:#aaaaaa;"/><text x="5" y="283.7142857142857">-20</text></g><g style="stroke:#888888; font-family:Arial; font-size:6pt;"><line x1="1" y1="257.1428571428571" x2="700" y2="257.1428571428571" style="stroke:#aaaaaa;"/><text x="5" y="255.1428571428571">-10</text></g><g style="stroke:#888888; font-family:Arial; font-size:6pt;"><line x1="1" y1="228.57142857142856" x2="700" y2="228.57142857142856" style="stroke:#aaaaaa;"/><text x="5" y="226.57142857142856">0</text></g><g style="stroke:#888888; font-family:Arial; font-size:6pt;"><line x1="1" y1="199.99999999999997" x2="700" y2="199.99999999999997" style="stroke:#aaaaaa;"/><text x="5" y="197.99999999999997">10</text></g><g style="stroke:#888888; font-family:Arial; font-size:6pt;"><line x1="1" y1="171.42857142857142" x2="700" y2="171.42857142857142" style="stroke:#aaaaaa;"/><text x="5" y="169.42857142857142">20</text></g><g style="stroke:#888888; font-family:Arial; font-size:6pt;"><line x1="1" y1="142.85714285714283" x2="700" y2="142.85714285714283" style="stroke:#aaaaaa;"/><text x="5" y="140.85714285714283">30</text></g><g style="stroke:#888888; font-family:Arial; font-size:6pt;"><line x1="1" y1="114.28571428571426" x2="700" y2="114.28571428571426" style="stroke:#aaaaaa;"/><text x="5" y="112.28571428571426">40</text></g><g style="stroke:#888888; font-family:Arial; font-size:6pt;"><line x1="1" y1="85.7142857142857" x2="700" y2="85.7142857142857" style="stroke:#aaaaaa;"/><text x="5" y="83.7142857142857">50</text></g><g style="stroke:#888888; font-family:Arial; font-size:6pt;"><line x1="1" y1="57.14285714285711" x2="700" y2="57.14285714285711" style="stroke:#aaaaaa;"/><text x="5" y="55.14285714285711">60</text></g><g style="stroke:#888888; font-family:Arial; font-size:6pt;"><line x1="1" y1="28.571428571428555" x2="700" y2="28.571428571428555" style="stroke:#aaaaaa;"/><text x="5" y="26.571428571428555">70</text></g><g style="stroke:#888888; font-family:Arial; font-size:6pt;"><line x1="1" y1="-2.842170943040401E-14" x2="700" y2="-2.842170943040401E-14" style="stroke:#aaaaaa;"/><text x="5" y="-2.0000000000000284">80</text></g><text x="350" y="20" style="text-anchor:middle; font-size: 14pt;">Batting History - Aspi</text>
					
					<rect x="120.66666666666667" y="177.1428571428571" height="51.428571428571445" width="108.66666666666667" style="fill:#aaaaff;"/><rect x="237.33333333333334" y="191.42857142857142" height="37.14285714285714" width="108.66666666666667" style="fill:#aaaaff;"/><rect x="354" y="228.57142857142856" height="22.85714285714286" width="108.66666666666667" style="fill:#aaaaff;"/><rect x="470.6666666666667" y="157.1428571428571" height="71.42857142857144" width="108.66666666666667" style="fill:#aaaaff;"/><rect x="587.3333333333334" y="205.7142857142857" height="22.85714285714286" width="108.66666666666667" style="fill:#aaaaff;"/><rect x="116.66666666666667" y="188.57142857142856" height="40" width="108.66666666666667" style="fill:#0000aa;"/><text x="116.66666666666667" y="185.57142857142856">14</text><rect x="233.33333333333334" y="228.57142857142856" height="8.571428571428584" width="108.66666666666667" style="fill:#0000aa;"/><text x="233.33333333333334" y="225.57142857142856">-3</text><rect x="350" y="228.57142857142856" height="17.14285714285714" width="108.66666666666667" style="fill:#0000aa;"/><text x="350" y="225.57142857142856">-6</text><rect x="466.6666666666667" y="202.85714285714283" height="25.714285714285722" width="108.66666666666667" style="fill:#0000aa;"/><text x="466.6666666666667" y="199.85714285714283">9</text><rect x="583.3333333333334" y="228.57142857142856" height="17.14285714285714" width="108.66666666666667" style="fill:#0000aa;"/><text x="583.3333333333334" y="225.57142857142856">-6</text>
					
					<path d="M171 177.1428571428571 L287.6666666666667 184.28571428571428 L404.3333333333333 206.66666666666666 L521 194.28571428571428 L637.6666666666667 196.57142857142856 " style="fill:none; stroke:red; stroke-width:1"/><path d="M171 188.57142857142856 L287.6666666666667 212.85714285714283 L404.3333333333333 223.8095238095238 L521 218.57142857142856 L637.6666666666667 223.99999999999997 " style="fill:none; stroke:red; stroke-width:1"/>
				</g>
			</svg>