<?xml version="1.0" encoding="UTF-8"?><svg xml:space="preserve" width="700" height="300">
				<desc>Batting History</desc>
				<g style="stroke:#000000; stroke-width:0.5; font-family:Arial; font-size:7pt;">
					<rect x="1" y="1" width="698" height="298" style="fill:#dddddd;"/><g style="stroke:#888888; font-family:Arial; font-size:6pt;"><line x1="1" y1="285.7142857142857" x2="700" y2="285.7142857142857" style="stroke:#aaaaaa;"/><text x="5" y="283.7142857142857">-20</text></g><g style="stroke:#888888; font-family:Arial; font-size:6pt;"><line x1="1" y1="257.1428571428571" x2="700" y2="257.1428571428571" style="stroke:#aaaaaa;"/><text x="5" y="255.1428571428571">-10</text></g><g style="stroke:#888888; font-family:Arial; font-size:6pt;"><line x1="1" y1="228.57142857142856" x2="700" y2="228.57142857142856" style="stroke:#aaaaaa;"/><text x="5" y="226.57142857142856">0</text></g><g style="stroke:#888888; font-family:Arial; font-size:6pt;"><line x1="1" y1="199.99999999999997" x2="700" y2="199.99999999999997" style="stroke:#aaaaaa;"/><text x="5" y="197.99999999999997">10</text></g><g style="stroke:#888888; font-family:Arial; font-size:6pt;"><line x1="1" y1="171.42857142857142" x2="700" y2="171.42857142857142" style="stroke:#aaaaaa;"/><text x="5" y="169.42857142857142">20</text></g><g style="stroke:#888888; font-family:Arial; font-size:6pt;"><line x1="1" y1="142.85714285714283" x2="700" y2="142.85714285714283" style="stroke:#aaaaaa;"/><text x="5" y="140.85714285714283">30</text></g><g style="stroke:#888888; font-family:Arial; font-size:6pt;"><line x1="1" y1="114.28571428571426" x2="700" y2="114.28571428571426" style="stroke:#aaaaaa;"/><text x="5" y="112.28571428571426">40</text></g><g style="stroke:#888888; font-family:Arial; font-size:6pt;"><line x1="1" y1="85.7142857142857" x2="700" y2="85.7142857142857" style="stroke:#aaaaaa;"/><text x="5" y="83.7142857142857">50</text></g><g style="stroke:#888888; font-family:Arial; font-size:6pt;"><line x1="1" y1="57.14285714285711" x2="700" y2="57.14285714285711" style="stroke:#aaaaaa;"/><text x="5" y="55.14285714285711">60</text></g><g style="stroke:#888888; font-family:Arial; font-size:6pt;"><line x1="1" y1="28.571428571428555" x2="700" y2="28.571428571428555" style="stroke:#aaaaaa;"/><text x="5" y="26.571428571428555">70</text></g><g style="stroke:#888888; font-family:Arial; font-size:6pt;"><line x1="1" y1="-2.842170943040401E-14" x2="700" y2="-2.842170943040401E-14" style="stroke:#aaaaaa;"/><text x="5" y="-2.0000000000000284">80</text></g><text x="350" y="20" style="text-anchor:middle; font-size: 14pt;">Batting History - Maxipads</text>
					
					<rect x="18.583333333333336" y="174.28571428571428" height="54.28571428571428" width="6.583333333333334" style="fill:#aaaaff;"/><rect x="33.16666666666667" y="142.85714285714283" height="85.71428571428572" width="6.583333333333334" style="fill:#aaaaff;"/><rect x="47.75" y="148.57142857142856" height="80" width="6.583333333333334" style="fill:#aaaaff;"/><rect x="62.333333333333336" y="194.28571428571428" height="34.28571428571428" width="6.583333333333334" style="fill:#aaaaff;"/><rect x="76.91666666666667" y="197.1428571428571" height="31.428571428571445" width="6.583333333333334" style="fill:#aaaaff;"/><rect x="91.5" y="117.14285714285712" height="111.42857142857143" width="6.583333333333334" style="fill:#aaaaff;"/><rect x="106.08333333333334" y="182.85714285714283" height="45.71428571428572" width="6.583333333333334" style="fill:#aaaaff;"/><rect x="120.66666666666667" y="82.85714285714283" height="145.71428571428572" width="6.583333333333334" style="fill:#aaaaff;"/><rect x="135.25" y="228.57142857142856" height="28.571428571428555" width="6.583333333333334" style="fill:#aaaaff;"/><rect x="149.83333333333334" y="162.85714285714283" height="65.71428571428572" width="6.583333333333334" style="fill:#aaaaff;"/><rect x="164.41666666666669" y="140" height="88.57142857142856" width="6.583333333333334" style="fill:#aaaaff;"/><rect x="179" y="168.57142857142856" height="60" width="6.583333333333334" style="fill:#aaaaff;"/><rect x="193.58333333333334" y="117.14285714285712" height="111.42857142857143" width="6.583333333333334" style="fill:#aaaaff;"/><rect x="208.16666666666669" y="171.42857142857142" height="57.14285714285714" width="6.583333333333334" style="fill:#aaaaff;"/><rect x="222.75" y="134.28571428571428" height="94.28571428571428" width="6.583333333333334" style="fill:#aaaaff;"/><rect x="237.33333333333334" y="128.57142857142856" height="100" width="6.583333333333334" style="fill:#aaaaff;"/><rect x="251.91666666666669" y="140" height="88.57142857142856" width="6.583333333333334" style="fill:#aaaaff;"/><rect x="266.5" y="154.28571428571428" height="74.28571428571428" width="6.583333333333334" style="fill:#aaaaff;"/><rect x="281.08333333333337" y="140" height="88.57142857142856" width="6.583333333333334" style="fill:#aaaaff;"/><rect x="295.6666666666667" y="157.1428571428571" height="71.42857142857144" width="6.583333333333334" style="fill:#aaaaff;"/><rect x="310.25" y="111.42857142857142" height="117.14285714285714" width="6.583333333333334" style="fill:#aaaaff;"/><rect x="324.83333333333337" y="48.571428571428555" height="180" width="6.583333333333334" style="fill:#aaaaff;"/><rect x="339.4166666666667" y="105.7142857142857" height="122.85714285714286" width="6.583333333333334" style="fill:#aaaaff;"/><rect x="354" y="117.14285714285712" height="111.42857142857143" width="6.583333333333334" style="fill:#aaaaff;"/><rect x="368.58333333333337" y="160" height="68.57142857142856" width="6.583333333333334" style="fill:#aaaaff;"/><rect x="383.1666666666667" y="111.42857142857142" height="117.14285714285714" width="6.583333333333334" style="fill:#aaaaff;"/><rect x="397.75" y="182.85714285714283" height="45.71428571428572" width="6.583333333333334" style="fill:#aaaaff;"/><rect x="412.33333333333337" y="171.42857142857142" height="57.14285714285714" width="6.583333333333334" style="fill:#aaaaff;"/><rect x="426.9166666666667" y="180" height="48.571428571428555" width="6.583333333333334" style="fill:#aaaaff;"/><rect x="441.5" y="171.42857142857142" height="57.14285714285714" width="6.583333333333334" style="fill:#aaaaff;"/><rect x="456.08333333333337" y="108.57142857142856" height="120" width="6.583333333333334" style="fill:#aaaaff;"/><rect x="470.6666666666667" y="125.7142857142857" height="102.85714285714286" width="6.583333333333334" style="fill:#aaaaff;"/><rect x="485.25" y="182.85714285714283" height="45.71428571428572" width="6.583333333333334" style="fill:#aaaaff;"/><rect x="499.83333333333337" y="148.57142857142856" height="80" width="6.583333333333334" style="fill:#aaaaff;"/><rect x="514.4166666666667" y="91.42857142857142" height="137.14285714285714" width="6.583333333333334" style="fill:#aaaaff;"/><rect x="529" y="219.99999999999997" height="8.571428571428584" width="6.583333333333334" style="fill:#aaaaff;"/><rect x="543.5833333333334" y="157.1428571428571" height="71.42857142857144" width="6.583333333333334" style="fill:#aaaaff;"/><rect x="558.1666666666667" y="197.1428571428571" height="31.428571428571445" width="6.583333333333334" style="fill:#aaaaff;"/><rect x="572.75" y="122.85714285714283" height="105.71428571428572" width="6.583333333333334" style="fill:#aaaaff;"/><rect x="587.3333333333334" y="165.7142857142857" height="62.85714285714286" width="6.583333333333334" style="fill:#aaaaff;"/><rect x="601.9166666666667" y="160" height="68.57142857142856" width="6.583333333333334" style="fill:#aaaaff;"/><rect x="616.5" y="97.14285714285711" height="131.42857142857144" width="6.583333333333334" style="fill:#aaaaff;"/><rect x="631.0833333333334" y="199.99999999999997" height="28.571428571428584" width="6.583333333333334" style="fill:#aaaaff;"/><rect x="645.6666666666667" y="128.57142857142856" height="100" width="6.583333333333334" style="fill:#aaaaff;"/><rect x="660.25" y="117.14285714285712" height="111.42857142857143" width="6.583333333333334" style="fill:#aaaaff;"/><rect x="674.8333333333334" y="142.85714285714283" height="85.71428571428572" width="6.583333333333334" style="fill:#aaaaff;"/><rect x="689.4166666666667" y="162.85714285714283" height="65.71428571428572" width="6.583333333333334" style="fill:#aaaaff;"/><rect x="14.583333333333334" y="182.85714285714283" height="45.71428571428572" width="6.583333333333334" style="fill:#0000aa;"/><text x="14.583333333333334" y="179.85714285714283">16</text><rect x="29.166666666666668" y="174.28571428571428" height="54.28571428571428" width="6.583333333333334" style="fill:#0000aa;"/><text x="29.166666666666668" y="171.28571428571428">19</text><rect x="43.75" y="168.57142857142856" height="60" width="6.583333333333334" style="fill:#0000aa;"/><text x="43.75" y="165.57142857142856">21</text><rect x="58.333333333333336" y="214.28571428571428" height="14.285714285714278" width="6.583333333333334" style="fill:#0000aa;"/><text x="58.333333333333336" y="211.28571428571428">5</text><rect x="72.91666666666667" y="202.85714285714283" height="25.714285714285722" width="6.583333333333334" style="fill:#0000aa;"/><text x="72.91666666666667" y="199.85714285714283">9</text><rect x="87.5" y="148.57142857142856" height="80" width="6.583333333333334" style="fill:#0000aa;"/><text x="87.5" y="145.57142857142856">28</text><rect x="102.08333333333334" y="194.28571428571428" height="34.28571428571428" width="6.583333333333334" style="fill:#0000aa;"/><text x="102.08333333333334" y="191.28571428571428">12</text><rect x="116.66666666666667" y="131.42857142857142" height="97.14285714285714" width="6.583333333333334" style="fill:#0000aa;"/><text x="116.66666666666667" y="128.42857142857142">34</text><rect x="131.25" y="228.57142857142856" height="14.285714285714278" width="6.583333333333334" style="fill:#0000aa;"/><text x="131.25" y="225.57142857142856">-5</text><rect x="145.83333333333334" y="214.28571428571428" height="14.285714285714278" width="6.583333333333334" style="fill:#0000aa;"/><text x="145.83333333333334" y="211.28571428571428">5</text><rect x="160.41666666666669" y="185.7142857142857" height="42.85714285714286" width="6.583333333333334" style="fill:#0000aa;"/><text x="160.41666666666669" y="182.7142857142857">15</text><rect x="175" y="194.28571428571428" height="34.28571428571428" width="6.583333333333334" style="fill:#0000aa;"/><text x="175" y="191.28571428571428">12</text><rect x="189.58333333333334" y="157.1428571428571" height="71.42857142857144" width="6.583333333333334" style="fill:#0000aa;"/><text x="189.58333333333334" y="154.1428571428571">25</text><rect x="204.16666666666669" y="208.57142857142856" height="20" width="6.583333333333334" style="fill:#0000aa;"/><text x="204.16666666666669" y="205.57142857142856">7</text><rect x="218.75" y="142.85714285714283" height="85.71428571428572" width="6.583333333333334" style="fill:#0000aa;"/><text x="218.75" y="139.85714285714283">30</text><rect x="233.33333333333334" y="168.57142857142856" height="60" width="6.583333333333334" style="fill:#0000aa;"/><text x="233.33333333333334" y="165.57142857142856">21</text><rect x="247.91666666666669" y="180" height="48.571428571428555" width="6.583333333333334" style="fill:#0000aa;"/><text x="247.91666666666669" y="177">17</text><rect x="262.5" y="191.42857142857142" height="37.14285714285714" width="6.583333333333334" style="fill:#0000aa;"/><text x="262.5" y="188.42857142857142">13</text><rect x="277.08333333333337" y="177.1428571428571" height="51.428571428571445" width="6.583333333333334" style="fill:#0000aa;"/><text x="277.08333333333337" y="174.1428571428571">18</text><rect x="291.6666666666667" y="174.28571428571428" height="54.28571428571428" width="6.583333333333334" style="fill:#0000aa;"/><text x="291.6666666666667" y="171.28571428571428">19</text><rect x="306.25" y="162.85714285714283" height="65.71428571428572" width="6.583333333333334" style="fill:#0000aa;"/><text x="306.25" y="159.85714285714283">23</text><rect x="320.83333333333337" y="148.57142857142856" height="80" width="6.583333333333334" style="fill:#0000aa;"/><text x="320.83333333333337" y="145.57142857142856">28</text><rect x="335.4166666666667" y="160" height="68.57142857142856" width="6.583333333333334" style="fill:#0000aa;"/><text x="335.4166666666667" y="157">24</text><rect x="350" y="174.28571428571428" height="54.28571428571428" width="6.583333333333334" style="fill:#0000aa;"/><text x="350" y="171.28571428571428">19</text><rect x="364.58333333333337" y="191.42857142857142" height="37.14285714285714" width="6.583333333333334" style="fill:#0000aa;"/><text x="364.58333333333337" y="188.42857142857142">13</text><rect x="379.1666666666667" y="174.28571428571428" height="54.28571428571428" width="6.583333333333334" style="fill:#0000aa;"/><text x="379.1666666666667" y="171.28571428571428">19</text><rect x="393.75" y="228.57142857142856" height="8.571428571428584" width="6.583333333333334" style="fill:#0000aa;"/><text x="393.75" y="225.57142857142856">-3</text><rect x="408.33333333333337" y="202.85714285714283" height="25.714285714285722" width="6.583333333333334" style="fill:#0000aa;"/><text x="408.33333333333337" y="199.85714285714283">9</text><rect x="422.9166666666667" y="177.1428571428571" height="51.428571428571445" width="6.583333333333334" style="fill:#0000aa;"/><text x="422.9166666666667" y="174.1428571428571">18</text><rect x="437.5" y="219.99999999999997" height="8.571428571428584" width="6.583333333333334" style="fill:#0000aa;"/><text x="437.5" y="216.99999999999997">3</text><rect x="452.08333333333337" y="151.42857142857142" height="77.14285714285714" width="6.583333333333334" style="fill:#0000aa;"/><text x="452.08333333333337" y="148.42857142857142">27</text><rect x="466.6666666666667" y="180" height="48.571428571428555" width="6.583333333333334" style="fill:#0000aa;"/><text x="466.6666666666667" y="177">17</text><rect x="481.25" y="225.7142857142857" height="2.857142857142861" width="6.583333333333334" style="fill:#0000aa;"/><text x="481.25" y="222.7142857142857">1</text><rect x="495.83333333333337" y="197.1428571428571" height="31.428571428571445" width="6.583333333333334" style="fill:#0000aa;"/><text x="495.83333333333337" y="194.1428571428571">11</text><rect x="510.4166666666667" y="151.42857142857142" height="77.14285714285714" width="6.583333333333334" style="fill:#0000aa;"/><text x="510.4166666666667" y="148.42857142857142">27</text><rect x="525" y="228.57142857142856" height="0" width="6.583333333333334" style="fill:#0000aa;"/><text x="525" y="225.57142857142856">0</text><rect x="539.5833333333334" y="177.1428571428571" height="51.428571428571445" width="6.583333333333334" style="fill:#0000aa;"/><text x="539.5833333333334" y="174.1428571428571">18</text><rect x="554.1666666666667" y="191.42857142857142" height="37.14285714285714" width="6.583333333333334" style="fill:#0000aa;"/><text x="554.1666666666667" y="188.42857142857142">13</text><rect x="568.75" y="160" height="68.57142857142856" width="6.583333333333334" style="fill:#0000aa;"/><text x="568.75" y="157">24</text><rect x="583.3333333333334" y="217.14285714285714" height="11.428571428571416" width="6.583333333333334" style="fill:#0000aa;"/><text x="583.3333333333334" y="214.14285714285714">4</text><rect x="597.9166666666667" y="217.14285714285714" height="11.428571428571416" width="6.583333333333334" style="fill:#0000aa;"/><text x="597.9166666666667" y="214.14285714285714">4</text><rect x="612.5" y="165.7142857142857" height="62.85714285714286" width="6.583333333333334" style="fill:#0000aa;"/><text x="612.5" y="162.7142857142857">22</text><rect x="627.0833333333334" y="219.99999999999997" height="8.571428571428584" width="6.583333333333334" style="fill:#0000aa;"/><text x="627.0833333333334" y="216.99999999999997">3</text><rect x="641.6666666666667" y="154.28571428571428" height="74.28571428571428" width="6.583333333333334" style="fill:#0000aa;"/><text x="641.6666666666667" y="151.28571428571428">26</text><rect x="656.25" y="168.57142857142856" height="60" width="6.583333333333334" style="fill:#0000aa;"/><text x="656.25" y="165.57142857142856">21</text><rect x="670.8333333333334" y="137.1428571428571" height="91.42857142857144" width="6.583333333333334" style="fill:#0000aa;"/><text x="670.8333333333334" y="134.1428571428571">32</text><rect x="685.4166666666667" y="182.85714285714283" height="45.71428571428572" width="6.583333333333334" style="fill:#0000aa;"/><text x="685.4166666666667" y="179.85714285714283">16</text>
					
					<path d="M17.875 174.28571428571428 L32.458333333333336 158.57142857142856 L47.041666666666664 155.2380952380952 L61.625 165 L76.20833333333334 171.42857142857142 L90.79166666666667 162.38095238095235 L105.37500000000001 165.30612244897958 L119.95833333333334 155 L134.54166666666666 166.34920634920633 L149.125 166 L163.70833333333334 163.63636363636363 L178.29166666666666 164.04761904761904 L192.875 160.4395604395604 L207.45833333333334 161.22448979591834 L222.04166666666666 159.42857142857142 L236.625 157.5 L251.20833333333334 156.4705882352941 L265.7916666666667 156.34920634920633 L280.37500000000006 155.48872180451127 L294.95833333333337 155.57142857142856 L309.5416666666667 153.46938775510202 L324.12500000000006 148.7012987012987 L338.70833333333337 146.83229813664593 L353.2916666666667 145.59523809523807 L367.87500000000006 146.17142857142855 L382.45833333333337 144.83516483516482 L397.0416666666667 146.24338624338623 L411.62500000000006 147.1428571428571 L426.20833333333337 148.27586206896552 L440.7916666666667 149.04761904761904 L455.37500000000006 147.74193548387095 L469.95833333333337 147.05357142857142 L484.5416666666667 148.1385281385281 L499.12500000000006 148.15126050420167 L513.7083333333334 146.53061224489795 L528.2916666666666 148.57142857142856 L542.875 148.80308880308877 L557.4583333333334 150.0751879699248 L572.0416666666666 149.37728937728934 L586.625 149.78571428571428 L601.2083333333334 150.03484320557487 L615.7916666666666 148.77551020408163 L630.375 149.96677740863785 L644.9583333333334 149.48051948051946 L659.5416666666666 148.76190476190476 L674.125 148.63354037267078 L688.7083333333334 148.93617021276594 " style="fill:none; stroke:red; stroke-width:1"/><path d="M17.875 182.85714285714283 L32.458333333333336 178.57142857142856 L47.041666666666664 175.2380952380952 L61.625 185 L76.20833333333334 188.57142857142856 L90.79166666666667 181.9047619047619 L105.37500000000001 183.6734693877551 L119.95833333333334 177.1428571428571 L134.54166666666666 184.44444444444443 L149.125 187.42857142857142 L163.70833333333334 187.27272727272725 L178.29166666666666 187.85714285714283 L192.875 185.49450549450546 L207.45833333333334 187.1428571428571 L222.04166666666666 184.19047619047618 L236.625 183.2142857142857 L251.20833333333334 183.0252100840336 L265.7916666666667 183.49206349206347 L280.37500000000006 183.15789473684208 L294.95833333333337 182.7142857142857 L309.5416666666667 181.7687074829932 L324.12500000000006 180.25974025974023 L338.70833333333337 179.37888198757764 L353.2916666666667 179.16666666666663 L367.87500000000006 179.65714285714284 L382.45833333333337 179.45054945054943 L397.0416666666667 181.58730158730157 L411.62500000000006 182.34693877551018 L426.20833333333337 182.16748768472905 L440.7916666666667 183.42857142857142 L455.37500000000006 182.3963133640553 L469.95833333333337 182.32142857142856 L484.5416666666667 183.63636363636363 L499.12500000000006 184.03361344537814 L513.7083333333334 183.1020408163265 L528.2916666666666 184.36507936507934 L542.875 184.16988416988414 L557.4583333333334 184.36090225563908 L572.0416666666666 183.7362637362637 L586.625 184.57142857142856 L601.2083333333334 185.36585365853657 L615.7916666666666 184.89795918367344 L630.375 185.7142857142857 L644.9583333333334 185 L659.5416666666666 184.6349206349206 L674.125 183.60248447204967 L688.7083333333334 183.5866261398176 " style="fill:none; stroke:red; stroke-width:1"/>
				</g>
			</svg>