<?xml version="1.0" encoding="UTF-8"?><svg xml:space="preserve" width="700" height="300">
				<desc>Batting History</desc>
				<g style="stroke:#000000; stroke-width:0.5; font-family:Arial; font-size:7pt;">
					<rect x="1" y="1" width="698" height="298" style="fill:#dddddd;"/><g style="stroke:#888888; font-family:Arial; font-size:6pt;"><line x1="1" y1="285.7142857142857" x2="700" y2="285.7142857142857" style="stroke:#aaaaaa;"/><text x="5" y="283.7142857142857">-20</text></g><g style="stroke:#888888; font-family:Arial; font-size:6pt;"><line x1="1" y1="257.1428571428571" x2="700" y2="257.1428571428571" style="stroke:#aaaaaa;"/><text x="5" y="255.1428571428571">-10</text></g><g style="stroke:#888888; font-family:Arial; font-size:6pt;"><line x1="1" y1="228.57142857142856" x2="700" y2="228.57142857142856" style="stroke:#aaaaaa;"/><text x="5" y="226.57142857142856">0</text></g><g style="stroke:#888888; font-family:Arial; font-size:6pt;"><line x1="1" y1="199.99999999999997" x2="700" y2="199.99999999999997" style="stroke:#aaaaaa;"/><text x="5" y="197.99999999999997">10</text></g><g style="stroke:#888888; font-family:Arial; font-size:6pt;"><line x1="1" y1="171.42857142857142" x2="700" y2="171.42857142857142" style="stroke:#aaaaaa;"/><text x="5" y="169.42857142857142">20</text></g><g style="stroke:#888888; font-family:Arial; font-size:6pt;"><line x1="1" y1="142.85714285714283" x2="700" y2="142.85714285714283" style="stroke:#aaaaaa;"/><text x="5" y="140.85714285714283">30</text></g><g style="stroke:#888888; font-family:Arial; font-size:6pt;"><line x1="1" y1="114.28571428571426" x2="700" y2="114.28571428571426" style="stroke:#aaaaaa;"/><text x="5" y="112.28571428571426">40</text></g><g style="stroke:#888888; font-family:Arial; font-size:6pt;"><line x1="1" y1="85.7142857142857" x2="700" y2="85.7142857142857" style="stroke:#aaaaaa;"/><text x="5" y="83.7142857142857">50</text></g><g style="stroke:#888888; font-family:Arial; font-size:6pt;"><line x1="1" y1="57.14285714285711" x2="700" y2="57.14285714285711" style="stroke:#aaaaaa;"/><text x="5" y="55.14285714285711">60</text></g><g style="stroke:#888888; font-family:Arial; font-size:6pt;"><line x1="1" y1="28.571428571428555" x2="700" y2="28.571428571428555" style="stroke:#aaaaaa;"/><text x="5" y="26.571428571428555">70</text></g><g style="stroke:#888888; font-family:Arial; font-size:6pt;"><line x1="1" y1="-2.842170943040401E-14" x2="700" y2="-2.842170943040401E-14" style="stroke:#aaaaaa;"/><text x="5" y="-2.0000000000000284">80</text></g><text x="350" y="20" style="text-anchor:middle; font-size: 14pt;">Batting History - Dirty B</text>
					
					<rect x="24" y="165.7142857142857" height="62.85714285714286" width="12" style="fill:#aaaaff;"/><rect x="44" y="228.57142857142856" height="60" width="12" style="fill:#aaaaff;"/><rect x="64" y="174.28571428571428" height="54.28571428571428" width="12" style="fill:#aaaaff;"/><rect x="84" y="214.28571428571428" height="14.285714285714278" width="12" style="fill:#aaaaff;"/><rect x="104" y="228.57142857142856" height="5.714285714285722" width="12" style="fill:#aaaaff;"/><rect x="124" y="222.85714285714283" height="5.714285714285722" width="12" style="fill:#aaaaff;"/><rect x="144" y="171.42857142857142" height="57.14285714285714" width="12" style="fill:#aaaaff;"/><rect x="164" y="182.85714285714283" height="45.71428571428572" width="12" style="fill:#aaaaff;"/><rect x="184" y="185.7142857142857" height="42.85714285714286" width="12" style="fill:#aaaaff;"/><rect x="204" y="197.1428571428571" height="31.428571428571445" width="12" style="fill:#aaaaff;"/><rect x="224" y="197.1428571428571" height="31.428571428571445" width="12" style="fill:#aaaaff;"/><rect x="244" y="219.99999999999997" height="8.571428571428584" width="12" style="fill:#aaaaff;"/><rect x="264" y="162.85714285714283" height="65.71428571428572" width="12" style="fill:#aaaaff;"/><rect x="284" y="151.42857142857142" height="77.14285714285714" width="12" style="fill:#aaaaff;"/><rect x="304" y="182.85714285714283" height="45.71428571428572" width="12" style="fill:#aaaaff;"/><rect x="324" y="174.28571428571428" height="54.28571428571428" width="12" style="fill:#aaaaff;"/><rect x="344" y="99.99999999999997" height="128.57142857142858" width="12" style="fill:#aaaaff;"/><rect x="364" y="208.57142857142856" height="20" width="12" style="fill:#aaaaff;"/><rect x="384" y="131.42857142857142" height="97.14285714285714" width="12" style="fill:#aaaaff;"/><rect x="404" y="157.1428571428571" height="71.42857142857144" width="12" style="fill:#aaaaff;"/><rect x="424" y="211.42857142857142" height="17.14285714285714" width="12" style="fill:#aaaaff;"/><rect x="444" y="228.57142857142856" height="22.85714285714286" width="12" style="fill:#aaaaff;"/><rect x="464" y="228.57142857142856" height="97.14285714285711" width="12" style="fill:#aaaaff;"/><rect x="484" y="148.57142857142856" height="80" width="12" style="fill:#aaaaff;"/><rect x="504" y="91.42857142857142" height="137.14285714285714" width="12" style="fill:#aaaaff;"/><rect x="524" y="228.57142857142856" height="5.714285714285722" width="12" style="fill:#aaaaff;"/><rect x="544" y="228.57142857142856" height="54.28571428571428" width="12" style="fill:#aaaaff;"/><rect x="564" y="134.28571428571428" height="94.28571428571428" width="12" style="fill:#aaaaff;"/><rect x="584" y="225.7142857142857" height="2.857142857142861" width="12" style="fill:#aaaaff;"/><rect x="604" y="185.7142857142857" height="42.85714285714286" width="12" style="fill:#aaaaff;"/><rect x="624" y="180" height="48.571428571428555" width="12" style="fill:#aaaaff;"/><rect x="644" y="151.42857142857142" height="77.14285714285714" width="12" style="fill:#aaaaff;"/><rect x="664" y="228.57142857142856" height="11.428571428571416" width="12" style="fill:#aaaaff;"/><rect x="684" y="228.57142857142856" height="2.857142857142861" width="12" style="fill:#aaaaff;"/><rect x="20" y="228.57142857142856" height="5.714285714285722" width="12" style="fill:#0000aa;"/><text x="20" y="225.57142857142856">-2</text><rect x="40" y="228.57142857142856" height="0" width="12" style="fill:#0000aa;"/><text x="40" y="225.57142857142856">0</text><rect x="60" y="225.7142857142857" height="2.857142857142861" width="12" style="fill:#0000aa;"/><text x="60" y="222.7142857142857">1</text><rect x="80" y="214.28571428571428" height="14.285714285714278" width="12" style="fill:#0000aa;"/><text x="80" y="211.28571428571428">5</text><rect x="100" y="228.57142857142856" height="28.571428571428555" width="12" style="fill:#0000aa;"/><text x="100" y="225.57142857142856">-10</text><rect x="120" y="228.57142857142856" height="14.285714285714278" width="12" style="fill:#0000aa;"/><text x="120" y="225.57142857142856">-5</text><rect x="140" y="199.99999999999997" height="28.571428571428584" width="12" style="fill:#0000aa;"/><text x="140" y="196.99999999999997">10</text><rect x="160" y="197.1428571428571" height="31.428571428571445" width="12" style="fill:#0000aa;"/><text x="160" y="194.1428571428571">11</text><rect x="180" y="228.57142857142856" height="25.714285714285722" width="12" style="fill:#0000aa;"/><text x="180" y="225.57142857142856">-9</text><rect x="200" y="191.42857142857142" height="37.14285714285714" width="12" style="fill:#0000aa;"/><text x="200" y="188.42857142857142">13</text><rect x="220" y="194.28571428571428" height="34.28571428571428" width="12" style="fill:#0000aa;"/><text x="220" y="191.28571428571428">12</text><rect x="240" y="208.57142857142856" height="20" width="12" style="fill:#0000aa;"/><text x="240" y="205.57142857142856">7</text><rect x="260" y="202.85714285714283" height="25.714285714285722" width="12" style="fill:#0000aa;"/><text x="260" y="199.85714285714283">9</text><rect x="280" y="180" height="48.571428571428555" width="12" style="fill:#0000aa;"/><text x="280" y="177">17</text><rect x="300" y="197.1428571428571" height="31.428571428571445" width="12" style="fill:#0000aa;"/><text x="300" y="194.1428571428571">11</text><rect x="320" y="228.57142857142856" height="0" width="12" style="fill:#0000aa;"/><text x="320" y="225.57142857142856">0</text><rect x="340" y="180" height="48.571428571428555" width="12" style="fill:#0000aa;"/><text x="340" y="177">17</text><rect x="360" y="222.85714285714283" height="5.714285714285722" width="12" style="fill:#0000aa;"/><text x="360" y="219.85714285714283">2</text><rect x="380" y="177.1428571428571" height="51.428571428571445" width="12" style="fill:#0000aa;"/><text x="380" y="174.1428571428571">18</text><rect x="400" y="197.1428571428571" height="31.428571428571445" width="12" style="fill:#0000aa;"/><text x="400" y="194.1428571428571">11</text><rect x="420" y="219.99999999999997" height="8.571428571428584" width="12" style="fill:#0000aa;"/><text x="420" y="216.99999999999997">3</text><rect x="440" y="228.57142857142856" height="11.428571428571416" width="12" style="fill:#0000aa;"/><text x="440" y="225.57142857142856">-4</text><rect x="460" y="228.57142857142856" height="45.71428571428572" width="12" style="fill:#0000aa;"/><text x="460" y="225.57142857142856">-16</text><rect x="480" y="162.85714285714283" height="65.71428571428572" width="12" style="fill:#0000aa;"/><text x="480" y="159.85714285714283">23</text><rect x="500" y="145.7142857142857" height="82.85714285714286" width="12" style="fill:#0000aa;"/><text x="500" y="142.7142857142857">29</text><rect x="520" y="202.85714285714283" height="25.714285714285722" width="12" style="fill:#0000aa;"/><text x="520" y="199.85714285714283">9</text><rect x="540" y="211.42857142857142" height="17.14285714285714" width="12" style="fill:#0000aa;"/><text x="540" y="208.42857142857142">6</text><rect x="560" y="182.85714285714283" height="45.71428571428572" width="12" style="fill:#0000aa;"/><text x="560" y="179.85714285714283">16</text><rect x="580" y="228.57142857142856" height="8.571428571428584" width="12" style="fill:#0000aa;"/><text x="580" y="225.57142857142856">-3</text><rect x="600" y="191.42857142857142" height="37.14285714285714" width="12" style="fill:#0000aa;"/><text x="600" y="188.42857142857142">13</text><rect x="620" y="191.42857142857142" height="37.14285714285714" width="12" style="fill:#0000aa;"/><text x="620" y="188.42857142857142">13</text><rect x="640" y="180" height="48.571428571428555" width="12" style="fill:#0000aa;"/><text x="640" y="177">17</text><rect x="660" y="228.57142857142856" height="8.571428571428584" width="12" style="fill:#0000aa;"/><text x="660" y="225.57142857142856">-3</text><rect x="680" y="228.57142857142856" height="20" width="12" style="fill:#0000aa;"/><text x="680" y="225.57142857142856">-7</text>
					
					<path d="M26 165.7142857142857 L46 227.14285714285714 L66 209.52380952380952 L86 210.7142857142857 L106 215.42857142857142 L126 216.66666666666666 L146 210.20408163265304 L166 206.78571428571428 L186 204.44444444444443 L206 203.7142857142857 L226 203.11688311688312 L246 204.52380952380952 L266 201.3186813186813 L286 197.7551020408163 L306 196.76190476190476 L326 195.35714285714283 L346 189.74789915966386 L366 190.79365079365078 L386 187.6691729323308 L406 186.1428571428571 L426 187.34693877551018 L446 190.25974025974025 L466 196.14906832298135 L486 194.16666666666666 L506 190.05714285714282 L526 191.75824175824175 L546 195.1322751322751 L566 192.95918367346937 L586 194.0886699507389 L606 193.8095238095238 L626 193.36405529953916 L646 192.05357142857142 L666 193.50649350649348 L686 194.6218487394958 " style="fill:none; stroke:red; stroke-width:1"/><path d="M26 234.28571428571428 L46 231.42857142857142 L66 229.52380952380952 L86 225.7142857142857 L106 231.99999999999997 L126 233.8095238095238 L146 228.97959183673467 L166 224.99999999999997 L186 228.25396825396822 L206 224.57142857142856 L226 221.8181818181818 L246 220.7142857142857 L266 219.34065934065933 L286 216.53061224489795 L306 215.2380952380952 L326 216.07142857142856 L346 213.94957983193277 L366 214.44444444444443 L386 212.4812030075188 L406 211.7142857142857 L426 212.10884353741494 L446 213.37662337662337 L466 216.02484472049687 L486 213.8095238095238 L506 211.08571428571426 L526 210.76923076923075 L546 210.79365079365078 L566 209.79591836734693 L586 210.7389162561576 L606 210.09523809523807 L626 209.49308755760367 L646 208.57142857142856 L666 209.4372294372294 L686 210.58823529411762 " style="fill:none; stroke:red; stroke-width:1"/>
				</g>
			</svg>