<?xml version="1.0" encoding="UTF-8"?><svg xml:space="preserve" width="700" height="300">
				<desc>Batting History</desc>
				<g style="stroke:#000000; stroke-width:0.5; font-family:Arial; font-size:7pt;">
					<rect x="1" y="1" width="698" height="298" style="fill:#dddddd;"/><g style="stroke:#888888; font-family:Arial; font-size:6pt;"><line x1="1" y1="285.7142857142857" x2="700" y2="285.7142857142857" style="stroke:#aaaaaa;"/><text x="5" y="283.7142857142857">-20</text></g><g style="stroke:#888888; font-family:Arial; font-size:6pt;"><line x1="1" y1="257.1428571428571" x2="700" y2="257.1428571428571" style="stroke:#aaaaaa;"/><text x="5" y="255.1428571428571">-10</text></g><g style="stroke:#888888; font-family:Arial; font-size:6pt;"><line x1="1" y1="228.57142857142856" x2="700" y2="228.57142857142856" style="stroke:#aaaaaa;"/><text x="5" y="226.57142857142856">0</text></g><g style="stroke:#888888; font-family:Arial; font-size:6pt;"><line x1="1" y1="199.99999999999997" x2="700" y2="199.99999999999997" style="stroke:#aaaaaa;"/><text x="5" y="197.99999999999997">10</text></g><g style="stroke:#888888; font-family:Arial; font-size:6pt;"><line x1="1" y1="171.42857142857142" x2="700" y2="171.42857142857142" style="stroke:#aaaaaa;"/><text x="5" y="169.42857142857142">20</text></g><g style="stroke:#888888; font-family:Arial; font-size:6pt;"><line x1="1" y1="142.85714285714283" x2="700" y2="142.85714285714283" style="stroke:#aaaaaa;"/><text x="5" y="140.85714285714283">30</text></g><g style="stroke:#888888; font-family:Arial; font-size:6pt;"><line x1="1" y1="114.28571428571426" x2="700" y2="114.28571428571426" style="stroke:#aaaaaa;"/><text x="5" y="112.28571428571426">40</text></g><g style="stroke:#888888; font-family:Arial; font-size:6pt;"><line x1="1" y1="85.7142857142857" x2="700" y2="85.7142857142857" style="stroke:#aaaaaa;"/><text x="5" y="83.7142857142857">50</text></g><g style="stroke:#888888; font-family:Arial; font-size:6pt;"><line x1="1" y1="57.14285714285711" x2="700" y2="57.14285714285711" style="stroke:#aaaaaa;"/><text x="5" y="55.14285714285711">60</text></g><g style="stroke:#888888; font-family:Arial; font-size:6pt;"><line x1="1" y1="28.571428571428555" x2="700" y2="28.571428571428555" style="stroke:#aaaaaa;"/><text x="5" y="26.571428571428555">70</text></g><g style="stroke:#888888; font-family:Arial; font-size:6pt;"><line x1="1" y1="-2.842170943040401E-14" x2="700" y2="-2.842170943040401E-14" style="stroke:#aaaaaa;"/><text x="5" y="-2.0000000000000284">80</text></g><text x="350" y="20" style="text-anchor:middle; font-size: 14pt;">Batting History - Trenty</text>
					
					<rect x="50.666666666666664" y="199.99999999999997" height="28.571428571428584" width="38.666666666666664" style="fill:#aaaaff;"/><rect x="97.33333333333333" y="174.28571428571428" height="54.28571428571428" width="38.666666666666664" style="fill:#aaaaff;"/><rect x="144" y="214.28571428571428" height="14.285714285714278" width="38.666666666666664" style="fill:#aaaaff;"/><rect x="190.66666666666666" y="134.28571428571428" height="94.28571428571428" width="38.666666666666664" style="fill:#aaaaff;"/><rect x="237.33333333333331" y="197.1428571428571" height="31.428571428571445" width="38.666666666666664" style="fill:#aaaaff;"/><rect x="284" y="225.7142857142857" height="2.857142857142861" width="38.666666666666664" style="fill:#aaaaff;"/><rect x="330.66666666666663" y="165.7142857142857" height="62.85714285714286" width="38.666666666666664" style="fill:#aaaaff;"/><rect x="377.3333333333333" y="177.1428571428571" height="51.428571428571445" width="38.666666666666664" style="fill:#aaaaff;"/><rect x="424" y="160" height="68.57142857142856" width="38.666666666666664" style="fill:#aaaaff;"/><rect x="470.66666666666663" y="148.57142857142856" height="80" width="38.666666666666664" style="fill:#aaaaff;"/><rect x="517.3333333333333" y="151.42857142857142" height="77.14285714285714" width="38.666666666666664" style="fill:#aaaaff;"/><rect x="564" y="168.57142857142856" height="60" width="38.666666666666664" style="fill:#aaaaff;"/><rect x="610.6666666666666" y="228.57142857142856" height="40" width="38.666666666666664" style="fill:#aaaaff;"/><rect x="657.3333333333333" y="154.28571428571428" height="74.28571428571428" width="38.666666666666664" style="fill:#aaaaff;"/><rect x="46.666666666666664" y="211.42857142857142" height="17.14285714285714" width="38.666666666666664" style="fill:#0000aa;"/><text x="46.666666666666664" y="208.42857142857142">6</text><rect x="93.33333333333333" y="177.1428571428571" height="51.428571428571445" width="38.666666666666664" style="fill:#0000aa;"/><text x="93.33333333333333" y="174.1428571428571">18</text><rect x="140" y="228.57142857142856" height="0" width="38.666666666666664" style="fill:#0000aa;"/><text x="140" y="225.57142857142856">0</text><rect x="186.66666666666666" y="205.7142857142857" height="22.85714285714286" width="38.666666666666664" style="fill:#0000aa;"/><text x="186.66666666666666" y="202.7142857142857">8</text><rect x="233.33333333333331" y="211.42857142857142" height="17.14285714285714" width="38.666666666666664" style="fill:#0000aa;"/><text x="233.33333333333331" y="208.42857142857142">6</text><rect x="280" y="228.57142857142856" height="17.14285714285714" width="38.666666666666664" style="fill:#0000aa;"/><text x="280" y="225.57142857142856">-6</text><rect x="326.66666666666663" y="197.1428571428571" height="31.428571428571445" width="38.666666666666664" style="fill:#0000aa;"/><text x="326.66666666666663" y="194.1428571428571">11</text><rect x="373.3333333333333" y="199.99999999999997" height="28.571428571428584" width="38.666666666666664" style="fill:#0000aa;"/><text x="373.3333333333333" y="196.99999999999997">10</text><rect x="420" y="188.57142857142856" height="40" width="38.666666666666664" style="fill:#0000aa;"/><text x="420" y="185.57142857142856">14</text><rect x="466.66666666666663" y="162.85714285714283" height="65.71428571428572" width="38.666666666666664" style="fill:#0000aa;"/><text x="466.66666666666663" y="159.85714285714283">23</text><rect x="513.3333333333333" y="214.28571428571428" height="14.285714285714278" width="38.666666666666664" style="fill:#0000aa;"/><text x="513.3333333333333" y="211.28571428571428">5</text><rect x="560" y="194.28571428571428" height="34.28571428571428" width="38.666666666666664" style="fill:#0000aa;"/><text x="560" y="191.28571428571428">12</text><rect x="606.6666666666666" y="228.57142857142856" height="31.428571428571445" width="38.666666666666664" style="fill:#0000aa;"/><text x="606.6666666666666" y="225.57142857142856">-11</text><rect x="653.3333333333333" y="197.1428571428571" height="31.428571428571445" width="38.666666666666664" style="fill:#0000aa;"/><text x="653.3333333333333" y="194.1428571428571">11</text>
					
					<path d="M66 199.99999999999997 L112.66666666666666 187.1428571428571 L159.33333333333334 196.19047619047618 L206 180.7142857142857 L252.66666666666666 184 L299.3333333333333 190.95238095238093 L345.99999999999994 187.34693877551018 L392.66666666666663 186.07142857142856 L439.3333333333333 183.17460317460316 L485.99999999999994 179.7142857142857 L532.6666666666666 177.1428571428571 L579.3333333333334 176.42857142857142 L626 183.5164835164835 L672.6666666666666 181.42857142857142 " style="fill:none; stroke:red; stroke-width:1"/><path d="M66 211.42857142857142 L112.66666666666666 194.28571428571428 L159.33333333333334 205.7142857142857 L206 205.7142857142857 L252.66666666666666 206.85714285714283 L299.3333333333333 213.33333333333331 L345.99999999999994 211.0204081632653 L392.66666666666663 209.6428571428571 L439.3333333333333 207.3015873015873 L485.99999999999994 202.85714285714283 L532.6666666666666 203.89610389610388 L579.3333333333334 203.09523809523807 L626 207.47252747252745 L672.6666666666666 206.734693877551 " style="fill:none; stroke:red; stroke-width:1"/>
				</g>
			</svg>