<?xml version="1.0" encoding="UTF-8"?><svg xml:space="preserve" width="700" height="300">
				<desc>Batting History</desc>
				<g style="stroke:#000000; stroke-width:0.5; font-family:Arial; font-size:7pt;">
					<rect x="1" y="1" width="698" height="298" style="fill:#dddddd;"/><g style="stroke:#888888; font-family:Arial; font-size:6pt;"><line x1="1" y1="285.7142857142857" x2="700" y2="285.7142857142857" style="stroke:#aaaaaa;"/><text x="5" y="283.7142857142857">-20</text></g><g style="stroke:#888888; font-family:Arial; font-size:6pt;"><line x1="1" y1="257.1428571428571" x2="700" y2="257.1428571428571" style="stroke:#aaaaaa;"/><text x="5" y="255.1428571428571">-10</text></g><g style="stroke:#888888; font-family:Arial; font-size:6pt;"><line x1="1" y1="228.57142857142856" x2="700" y2="228.57142857142856" style="stroke:#aaaaaa;"/><text x="5" y="226.57142857142856">0</text></g><g style="stroke:#888888; font-family:Arial; font-size:6pt;"><line x1="1" y1="199.99999999999997" x2="700" y2="199.99999999999997" style="stroke:#aaaaaa;"/><text x="5" y="197.99999999999997">10</text></g><g style="stroke:#888888; font-family:Arial; font-size:6pt;"><line x1="1" y1="171.42857142857142" x2="700" y2="171.42857142857142" style="stroke:#aaaaaa;"/><text x="5" y="169.42857142857142">20</text></g><g style="stroke:#888888; font-family:Arial; font-size:6pt;"><line x1="1" y1="142.85714285714283" x2="700" y2="142.85714285714283" style="stroke:#aaaaaa;"/><text x="5" y="140.85714285714283">30</text></g><g style="stroke:#888888; font-family:Arial; font-size:6pt;"><line x1="1" y1="114.28571428571426" x2="700" y2="114.28571428571426" style="stroke:#aaaaaa;"/><text x="5" y="112.28571428571426">40</text></g><g style="stroke:#888888; font-family:Arial; font-size:6pt;"><line x1="1" y1="85.7142857142857" x2="700" y2="85.7142857142857" style="stroke:#aaaaaa;"/><text x="5" y="83.7142857142857">50</text></g><g style="stroke:#888888; font-family:Arial; font-size:6pt;"><line x1="1" y1="57.14285714285711" x2="700" y2="57.14285714285711" style="stroke:#aaaaaa;"/><text x="5" y="55.14285714285711">60</text></g><g style="stroke:#888888; font-family:Arial; font-size:6pt;"><line x1="1" y1="28.571428571428555" x2="700" y2="28.571428571428555" style="stroke:#aaaaaa;"/><text x="5" y="26.571428571428555">70</text></g><g style="stroke:#888888; font-family:Arial; font-size:6pt;"><line x1="1" y1="-2.842170943040401E-14" x2="700" y2="-2.842170943040401E-14" style="stroke:#aaaaaa;"/><text x="5" y="-2.0000000000000284">80</text></g><text x="350" y="20" style="text-anchor:middle; font-size: 14pt;">Batting History - Spud</text>
					
					<rect x="37.333333333333336" y="185.7142857142857" height="42.85714285714286" width="25.333333333333336" style="fill:#aaaaff;"/><rect x="70.66666666666667" y="128.57142857142856" height="100" width="25.333333333333336" style="fill:#aaaaff;"/><rect x="104" y="225.7142857142857" height="2.857142857142861" width="25.333333333333336" style="fill:#aaaaff;"/><rect x="137.33333333333334" y="99.99999999999997" height="128.57142857142858" width="25.333333333333336" style="fill:#aaaaff;"/><rect x="170.66666666666669" y="145.7142857142857" height="82.85714285714286" width="25.333333333333336" style="fill:#aaaaff;"/><rect x="204" y="162.85714285714283" height="65.71428571428572" width="25.333333333333336" style="fill:#aaaaff;"/><rect x="237.33333333333334" y="131.42857142857142" height="97.14285714285714" width="25.333333333333336" style="fill:#aaaaff;"/><rect x="270.6666666666667" y="111.42857142857142" height="117.14285714285714" width="25.333333333333336" style="fill:#aaaaff;"/><rect x="304" y="228.57142857142856" height="22.85714285714286" width="25.333333333333336" style="fill:#aaaaff;"/><rect x="337.33333333333337" y="228.57142857142856" height="17.14285714285714" width="25.333333333333336" style="fill:#aaaaff;"/><rect x="370.6666666666667" y="180" height="48.571428571428555" width="25.333333333333336" style="fill:#aaaaff;"/><rect x="404" y="142.85714285714283" height="85.71428571428572" width="25.333333333333336" style="fill:#aaaaff;"/><rect x="437.33333333333337" y="119.99999999999999" height="108.57142857142857" width="25.333333333333336" style="fill:#aaaaff;"/><rect x="470.6666666666667" y="222.85714285714283" height="5.714285714285722" width="25.333333333333336" style="fill:#aaaaff;"/><rect x="504.00000000000006" y="108.57142857142856" height="120" width="25.333333333333336" style="fill:#aaaaff;"/><rect x="537.3333333333334" y="165.7142857142857" height="62.85714285714286" width="25.333333333333336" style="fill:#aaaaff;"/><rect x="570.6666666666667" y="228.57142857142856" height="34.28571428571428" width="25.333333333333336" style="fill:#aaaaff;"/><rect x="604" y="228.57142857142856" height="2.857142857142861" width="25.333333333333336" style="fill:#aaaaff;"/><rect x="637.3333333333334" y="137.1428571428571" height="91.42857142857144" width="25.333333333333336" style="fill:#aaaaff;"/><rect x="670.6666666666667" y="228.57142857142856" height="17.14285714285714" width="25.333333333333336" style="fill:#aaaaff;"/><rect x="33.333333333333336" y="199.99999999999997" height="28.571428571428584" width="25.333333333333336" style="fill:#0000aa;"/><text x="33.333333333333336" y="196.99999999999997">10</text><rect x="66.66666666666667" y="174.28571428571428" height="54.28571428571428" width="25.333333333333336" style="fill:#0000aa;"/><text x="66.66666666666667" y="171.28571428571428">19</text><rect x="100" y="228.57142857142856" height="5.714285714285722" width="25.333333333333336" style="fill:#0000aa;"/><text x="100" y="225.57142857142856">-2</text><rect x="133.33333333333334" y="145.7142857142857" height="82.85714285714286" width="25.333333333333336" style="fill:#0000aa;"/><text x="133.33333333333334" y="142.7142857142857">29</text><rect x="166.66666666666669" y="214.28571428571428" height="14.285714285714278" width="25.333333333333336" style="fill:#0000aa;"/><text x="166.66666666666669" y="211.28571428571428">5</text><rect x="200" y="197.1428571428571" height="31.428571428571445" width="25.333333333333336" style="fill:#0000aa;"/><text x="200" y="194.1428571428571">11</text><rect x="233.33333333333334" y="160" height="68.57142857142856" width="25.333333333333336" style="fill:#0000aa;"/><text x="233.33333333333334" y="157">24</text><rect x="266.6666666666667" y="165.7142857142857" height="62.85714285714286" width="25.333333333333336" style="fill:#0000aa;"/><text x="266.6666666666667" y="162.7142857142857">22</text><rect x="300" y="228.57142857142856" height="34.28571428571428" width="25.333333333333336" style="fill:#0000aa;"/><text x="300" y="225.57142857142856">-12</text><rect x="333.33333333333337" y="228.57142857142856" height="20" width="25.333333333333336" style="fill:#0000aa;"/><text x="333.33333333333337" y="225.57142857142856">-7</text><rect x="366.6666666666667" y="188.57142857142856" height="40" width="25.333333333333336" style="fill:#0000aa;"/><text x="366.6666666666667" y="185.57142857142856">14</text><rect x="400" y="211.42857142857142" height="17.14285714285714" width="25.333333333333336" style="fill:#0000aa;"/><text x="400" y="208.42857142857142">6</text><rect x="433.33333333333337" y="191.42857142857142" height="37.14285714285714" width="25.333333333333336" style="fill:#0000aa;"/><text x="433.33333333333337" y="188.42857142857142">13</text><rect x="466.6666666666667" y="228.57142857142856" height="11.428571428571416" width="25.333333333333336" style="fill:#0000aa;"/><text x="466.6666666666667" y="225.57142857142856">-4</text><rect x="500.00000000000006" y="140" height="88.57142857142856" width="25.333333333333336" style="fill:#0000aa;"/><text x="500.00000000000006" y="137">31</text><rect x="533.3333333333334" y="214.28571428571428" height="14.285714285714278" width="25.333333333333336" style="fill:#0000aa;"/><text x="533.3333333333334" y="211.28571428571428">5</text><rect x="566.6666666666667" y="228.57142857142856" height="2.857142857142861" width="25.333333333333336" style="fill:#0000aa;"/><text x="566.6666666666667" y="225.57142857142856">-1</text><rect x="600" y="211.42857142857142" height="17.14285714285714" width="25.333333333333336" style="fill:#0000aa;"/><text x="600" y="208.42857142857142">6</text><rect x="633.3333333333334" y="180" height="48.571428571428555" width="25.333333333333336" style="fill:#0000aa;"/><text x="633.3333333333334" y="177">17</text><rect x="666.6666666666667" y="228.57142857142856" height="0" width="25.333333333333336" style="fill:#0000aa;"/><text x="666.6666666666667" y="225.57142857142856">0</text>
					
					<path d="M46 185.7142857142857 L79.33333333333334 157.1428571428571 L112.66666666666667 180 L146 160 L179.33333333333334 157.1428571428571 L212.66666666666666 158.09523809523807 L246 154.28571428571428 L279.33333333333337 148.92857142857142 L312.6666666666667 160.3174603174603 L346.00000000000006 168.85714285714283 L379.33333333333337 169.87012987012986 L412.6666666666667 167.6190476190476 L446.00000000000006 163.9560439560439 L479.33333333333337 168.16326530612244 L512.6666666666667 164.19047619047615 L546 164.28571428571428 L579.3333333333334 170.08403361344537 L612.6666666666666 173.49206349206347 L646 171.57894736842104 L679.3333333333334 175.28571428571428 " style="fill:none; stroke:red; stroke-width:1"/><path d="M46 199.99999999999997 L79.33333333333334 187.1428571428571 L112.66666666666667 202.85714285714283 L146 188.57142857142856 L179.33333333333334 193.7142857142857 L212.66666666666666 194.28571428571428 L246 189.38775510204079 L279.33333333333337 186.42857142857142 L312.6666666666667 194.9206349206349 L346.00000000000006 200.28571428571428 L379.33333333333337 199.2207792207792 L412.6666666666667 200.2380952380952 L446.00000000000006 199.56043956043953 L479.33333333333337 202.44897959183672 L512.6666666666667 198.28571428571428 L546 199.28571428571428 L579.3333333333334 201.17647058823528 L612.6666666666666 201.74603174603172 L646 200.6015037593985 L679.3333333333334 201.99999999999997 " style="fill:none; stroke:red; stroke-width:1"/>
				</g>
			</svg>