<?xml version="1.0" encoding="UTF-8"?><svg xml:space="preserve" width="700" height="300">
				<desc>Batting History</desc>
				<g style="stroke:#000000; stroke-width:0.5; font-family:Arial; font-size:7pt;">
					<rect x="1" y="1" width="698" height="298" style="fill:#dddddd;"/><g style="stroke:#888888; font-family:Arial; font-size:6pt;"><line x1="1" y1="285.7142857142857" x2="700" y2="285.7142857142857" style="stroke:#aaaaaa;"/><text x="5" y="283.7142857142857">-20</text></g><g style="stroke:#888888; font-family:Arial; font-size:6pt;"><line x1="1" y1="257.1428571428571" x2="700" y2="257.1428571428571" style="stroke:#aaaaaa;"/><text x="5" y="255.1428571428571">-10</text></g><g style="stroke:#888888; font-family:Arial; font-size:6pt;"><line x1="1" y1="228.57142857142856" x2="700" y2="228.57142857142856" style="stroke:#aaaaaa;"/><text x="5" y="226.57142857142856">0</text></g><g style="stroke:#888888; font-family:Arial; font-size:6pt;"><line x1="1" y1="199.99999999999997" x2="700" y2="199.99999999999997" style="stroke:#aaaaaa;"/><text x="5" y="197.99999999999997">10</text></g><g style="stroke:#888888; font-family:Arial; font-size:6pt;"><line x1="1" y1="171.42857142857142" x2="700" y2="171.42857142857142" style="stroke:#aaaaaa;"/><text x="5" y="169.42857142857142">20</text></g><g style="stroke:#888888; font-family:Arial; font-size:6pt;"><line x1="1" y1="142.85714285714283" x2="700" y2="142.85714285714283" style="stroke:#aaaaaa;"/><text x="5" y="140.85714285714283">30</text></g><g style="stroke:#888888; font-family:Arial; font-size:6pt;"><line x1="1" y1="114.28571428571426" x2="700" y2="114.28571428571426" style="stroke:#aaaaaa;"/><text x="5" y="112.28571428571426">40</text></g><g style="stroke:#888888; font-family:Arial; font-size:6pt;"><line x1="1" y1="85.7142857142857" x2="700" y2="85.7142857142857" style="stroke:#aaaaaa;"/><text x="5" y="83.7142857142857">50</text></g><g style="stroke:#888888; font-family:Arial; font-size:6pt;"><line x1="1" y1="57.14285714285711" x2="700" y2="57.14285714285711" style="stroke:#aaaaaa;"/><text x="5" y="55.14285714285711">60</text></g><g style="stroke:#888888; font-family:Arial; font-size:6pt;"><line x1="1" y1="28.571428571428555" x2="700" y2="28.571428571428555" style="stroke:#aaaaaa;"/><text x="5" y="26.571428571428555">70</text></g><g style="stroke:#888888; font-family:Arial; font-size:6pt;"><line x1="1" y1="-2.842170943040401E-14" x2="700" y2="-2.842170943040401E-14" style="stroke:#aaaaaa;"/><text x="5" y="-2.0000000000000284">80</text></g><text x="350" y="20" style="text-anchor:middle; font-size: 14pt;">Batting History - Chester Molester</text>
					
					<rect x="21.94871794871795" y="125.7142857142857" height="102.85714285714286" width="9.948717948717949" style="fill:#aaaaff;"/><rect x="39.8974358974359" y="188.57142857142856" height="40" width="9.948717948717949" style="fill:#aaaaff;"/><rect x="57.84615384615385" y="108.57142857142856" height="120" width="9.948717948717949" style="fill:#aaaaff;"/><rect x="75.7948717948718" y="197.1428571428571" height="31.428571428571445" width="9.948717948717949" style="fill:#aaaaff;"/><rect x="93.74358974358975" y="194.28571428571428" height="34.28571428571428" width="9.948717948717949" style="fill:#aaaaff;"/><rect x="111.6923076923077" y="165.7142857142857" height="62.85714285714286" width="9.948717948717949" style="fill:#aaaaff;"/><rect x="129.64102564102564" y="177.1428571428571" height="51.428571428571445" width="9.948717948717949" style="fill:#aaaaff;"/><rect x="147.5897435897436" y="211.42857142857142" height="17.14285714285714" width="9.948717948717949" style="fill:#aaaaff;"/><rect x="165.53846153846155" y="182.85714285714283" height="45.71428571428572" width="9.948717948717949" style="fill:#aaaaff;"/><rect x="183.4871794871795" y="168.57142857142856" height="60" width="9.948717948717949" style="fill:#aaaaff;"/><rect x="201.43589743589743" y="208.57142857142856" height="20" width="9.948717948717949" style="fill:#aaaaff;"/><rect x="219.3846153846154" y="208.57142857142856" height="20" width="9.948717948717949" style="fill:#aaaaff;"/><rect x="237.33333333333334" y="119.99999999999999" height="108.57142857142857" width="9.948717948717949" style="fill:#aaaaff;"/><rect x="255.28205128205127" y="160" height="68.57142857142856" width="9.948717948717949" style="fill:#aaaaff;"/><rect x="273.2307692307692" y="191.42857142857142" height="37.14285714285714" width="9.948717948717949" style="fill:#aaaaff;"/><rect x="291.1794871794872" y="171.42857142857142" height="57.14285714285714" width="9.948717948717949" style="fill:#aaaaff;"/><rect x="309.12820512820514" y="151.42857142857142" height="77.14285714285714" width="9.948717948717949" style="fill:#aaaaff;"/><rect x="327.0769230769231" y="140" height="88.57142857142856" width="9.948717948717949" style="fill:#aaaaff;"/><rect x="345.02564102564105" y="137.1428571428571" height="91.42857142857144" width="9.948717948717949" style="fill:#aaaaff;"/><rect x="362.974358974359" y="148.57142857142856" height="80" width="9.948717948717949" style="fill:#aaaaff;"/><rect x="380.9230769230769" y="145.7142857142857" height="82.85714285714286" width="9.948717948717949" style="fill:#aaaaff;"/><rect x="398.87179487179486" y="99.99999999999997" height="128.57142857142858" width="9.948717948717949" style="fill:#aaaaff;"/><rect x="416.8205128205128" y="79.99999999999997" height="148.57142857142858" width="9.948717948717949" style="fill:#aaaaff;"/><rect x="434.7692307692308" y="171.42857142857142" height="57.14285714285714" width="9.948717948717949" style="fill:#aaaaff;"/><rect x="452.71794871794873" y="219.99999999999997" height="8.571428571428584" width="9.948717948717949" style="fill:#aaaaff;"/><rect x="470.6666666666667" y="157.1428571428571" height="71.42857142857144" width="9.948717948717949" style="fill:#aaaaff;"/><rect x="488.61538461538464" y="185.7142857142857" height="42.85714285714286" width="9.948717948717949" style="fill:#aaaaff;"/><rect x="506.56410256410254" y="119.99999999999999" height="108.57142857142857" width="9.948717948717949" style="fill:#aaaaff;"/><rect x="524.5128205128206" y="214.28571428571428" height="14.285714285714278" width="9.948717948717949" style="fill:#aaaaff;"/><rect x="542.4615384615385" y="228.57142857142856" height="17.14285714285714" width="9.948717948717949" style="fill:#aaaaff;"/><rect x="560.4102564102565" y="171.42857142857142" height="57.14285714285714" width="9.948717948717949" style="fill:#aaaaff;"/><rect x="578.3589743589744" y="142.85714285714283" height="85.71428571428572" width="9.948717948717949" style="fill:#aaaaff;"/><rect x="596.3076923076923" y="174.28571428571428" height="54.28571428571428" width="9.948717948717949" style="fill:#aaaaff;"/><rect x="614.2564102564103" y="74.28571428571428" height="154.28571428571428" width="9.948717948717949" style="fill:#aaaaff;"/><rect x="632.2051282051282" y="142.85714285714283" height="85.71428571428572" width="9.948717948717949" style="fill:#aaaaff;"/><rect x="650.1538461538462" y="185.7142857142857" height="42.85714285714286" width="9.948717948717949" style="fill:#aaaaff;"/><rect x="668.1025641025641" y="228.57142857142856" height="5.714285714285722" width="9.948717948717949" style="fill:#aaaaff;"/><rect x="686.0512820512821" y="125.7142857142857" height="102.85714285714286" width="9.948717948717949" style="fill:#aaaaff;"/><rect x="17.94871794871795" y="177.1428571428571" height="51.428571428571445" width="9.948717948717949" style="fill:#0000aa;"/><text x="17.94871794871795" y="174.1428571428571">18</text><rect x="35.8974358974359" y="194.28571428571428" height="34.28571428571428" width="9.948717948717949" style="fill:#0000aa;"/><text x="35.8974358974359" y="191.28571428571428">12</text><rect x="53.84615384615385" y="168.57142857142856" height="60" width="9.948717948717949" style="fill:#0000aa;"/><text x="53.84615384615385" y="165.57142857142856">21</text><rect x="71.7948717948718" y="208.57142857142856" height="20" width="9.948717948717949" style="fill:#0000aa;"/><text x="71.7948717948718" y="205.57142857142856">7</text><rect x="89.74358974358975" y="222.85714285714283" height="5.714285714285722" width="9.948717948717949" style="fill:#0000aa;"/><text x="89.74358974358975" y="219.85714285714283">2</text><rect x="107.6923076923077" y="197.1428571428571" height="31.428571428571445" width="9.948717948717949" style="fill:#0000aa;"/><text x="107.6923076923077" y="194.1428571428571">11</text><rect x="125.64102564102564" y="205.7142857142857" height="22.85714285714286" width="9.948717948717949" style="fill:#0000aa;"/><text x="125.64102564102564" y="202.7142857142857">8</text><rect x="143.5897435897436" y="219.99999999999997" height="8.571428571428584" width="9.948717948717949" style="fill:#0000aa;"/><text x="143.5897435897436" y="216.99999999999997">3</text><rect x="161.53846153846155" y="214.28571428571428" height="14.285714285714278" width="9.948717948717949" style="fill:#0000aa;"/><text x="161.53846153846155" y="211.28571428571428">5</text><rect x="179.4871794871795" y="202.85714285714283" height="25.714285714285722" width="9.948717948717949" style="fill:#0000aa;"/><text x="179.4871794871795" y="199.85714285714283">9</text><rect x="197.43589743589743" y="205.7142857142857" height="22.85714285714286" width="9.948717948717949" style="fill:#0000aa;"/><text x="197.43589743589743" y="202.7142857142857">8</text><rect x="215.3846153846154" y="228.57142857142856" height="11.428571428571416" width="9.948717948717949" style="fill:#0000aa;"/><text x="215.3846153846154" y="225.57142857142856">-4</text><rect x="233.33333333333334" y="180" height="48.571428571428555" width="9.948717948717949" style="fill:#0000aa;"/><text x="233.33333333333334" y="177">17</text><rect x="251.28205128205127" y="202.85714285714283" height="25.714285714285722" width="9.948717948717949" style="fill:#0000aa;"/><text x="251.28205128205127" y="199.85714285714283">9</text><rect x="269.2307692307692" y="182.85714285714283" height="45.71428571428572" width="9.948717948717949" style="fill:#0000aa;"/><text x="269.2307692307692" y="179.85714285714283">16</text><rect x="287.1794871794872" y="208.57142857142856" height="20" width="9.948717948717949" style="fill:#0000aa;"/><text x="287.1794871794872" y="205.57142857142856">7</text><rect x="305.12820512820514" y="199.99999999999997" height="28.571428571428584" width="9.948717948717949" style="fill:#0000aa;"/><text x="305.12820512820514" y="196.99999999999997">10</text><rect x="323.0769230769231" y="191.42857142857142" height="37.14285714285714" width="9.948717948717949" style="fill:#0000aa;"/><text x="323.0769230769231" y="188.42857142857142">13</text><rect x="341.02564102564105" y="162.85714285714283" height="65.71428571428572" width="9.948717948717949" style="fill:#0000aa;"/><text x="341.02564102564105" y="159.85714285714283">23</text><rect x="358.974358974359" y="174.28571428571428" height="54.28571428571428" width="9.948717948717949" style="fill:#0000aa;"/><text x="358.974358974359" y="171.28571428571428">19</text><rect x="376.9230769230769" y="160" height="68.57142857142856" width="9.948717948717949" style="fill:#0000aa;"/><text x="376.9230769230769" y="157">24</text><rect x="394.87179487179486" y="148.57142857142856" height="80" width="9.948717948717949" style="fill:#0000aa;"/><text x="394.87179487179486" y="145.57142857142856">28</text><rect x="412.8205128205128" y="157.1428571428571" height="71.42857142857144" width="9.948717948717949" style="fill:#0000aa;"/><text x="412.8205128205128" y="154.1428571428571">25</text><rect x="430.7692307692308" y="219.99999999999997" height="8.571428571428584" width="9.948717948717949" style="fill:#0000aa;"/><text x="430.7692307692308" y="216.99999999999997">3</text><rect x="448.71794871794873" y="228.57142857142856" height="0" width="9.948717948717949" style="fill:#0000aa;"/><text x="448.71794871794873" y="225.57142857142856">0</text><rect x="466.6666666666667" y="165.7142857142857" height="62.85714285714286" width="9.948717948717949" style="fill:#0000aa;"/><text x="466.6666666666667" y="162.7142857142857">22</text><rect x="484.61538461538464" y="202.85714285714283" height="25.714285714285722" width="9.948717948717949" style="fill:#0000aa;"/><text x="484.61538461538464" y="199.85714285714283">9</text><rect x="502.56410256410254" y="180" height="48.571428571428555" width="9.948717948717949" style="fill:#0000aa;"/><text x="502.56410256410254" y="177">17</text><rect x="520.5128205128206" y="185.7142857142857" height="42.85714285714286" width="9.948717948717949" style="fill:#0000aa;"/><text x="520.5128205128206" y="182.7142857142857">15</text><rect x="538.4615384615385" y="228.57142857142856" height="28.571428571428555" width="9.948717948717949" style="fill:#0000aa;"/><text x="538.4615384615385" y="225.57142857142856">-10</text><rect x="556.4102564102565" y="228.57142857142856" height="0" width="9.948717948717949" style="fill:#0000aa;"/><text x="556.4102564102565" y="225.57142857142856">0</text><rect x="574.3589743589744" y="171.42857142857142" height="57.14285714285714" width="9.948717948717949" style="fill:#0000aa;"/><text x="574.3589743589744" y="168.42857142857142">20</text><rect x="592.3076923076923" y="157.1428571428571" height="71.42857142857144" width="9.948717948717949" style="fill:#0000aa;"/><text x="592.3076923076923" y="154.1428571428571">25</text><rect x="610.2564102564103" y="171.42857142857142" height="57.14285714285714" width="9.948717948717949" style="fill:#0000aa;"/><text x="610.2564102564103" y="168.42857142857142">20</text><rect x="628.2051282051282" y="208.57142857142856" height="20" width="9.948717948717949" style="fill:#0000aa;"/><text x="628.2051282051282" y="205.57142857142856">7</text><rect x="646.1538461538462" y="217.14285714285714" height="11.428571428571416" width="9.948717948717949" style="fill:#0000aa;"/><text x="646.1538461538462" y="214.14285714285714">4</text><rect x="664.1025641025641" y="228.57142857142856" height="31.428571428571445" width="9.948717948717949" style="fill:#0000aa;"/><text x="664.1025641025641" y="225.57142857142856">-11</text><rect x="682.0512820512821" y="182.85714285714283" height="45.71428571428572" width="9.948717948717949" style="fill:#0000aa;"/><text x="682.0512820512821" y="179.85714285714283">16</text>
					
					<path d="M22.923076923076923 125.7142857142857 L40.871794871794876 157.1428571428571 L58.82051282051282 140.95238095238093 L76.76923076923077 155 L94.71794871794873 162.85714285714283 L112.66666666666667 163.33333333333331 L130.6153846153846 165.30612244897958 L148.56410256410257 171.07142857142856 L166.51282051282053 172.38095238095235 L184.46153846153848 171.99999999999997 L202.4102564102564 175.3246753246753 L220.35897435897436 178.09523809523807 L238.30769230769232 173.6263736263736 L256.2564102564102 172.65306122448976 L274.2051282051282 173.9047619047619 L292.15384615384613 173.75 L310.1025641025641 172.43697478991595 L328.05128205128204 170.6349206349206 L346 168.8721804511278 L363.94871794871796 167.85714285714283 L381.89743589743586 166.80272108843536 L399.8461538461538 163.76623376623374 L417.79487179487177 160.12422360248445 L435.7435897435897 160.59523809523807 L453.6923076923077 162.97142857142853 L471.64102564102564 162.74725274725273 L489.5897435897436 163.5978835978836 L507.5384615384615 162.0408163265306 L525.4871794871796 163.8423645320197 L543.4358974358975 166.57142857142856 L561.3846153846155 166.72811059907832 L579.3333333333334 165.98214285714283 L597.2820512820513 166.23376623376623 L615.2307692307693 163.52941176470586 L633.1794871794872 162.93877551020407 L651.1282051282052 163.57142857142856 L669.0769230769231 165.48262548262545 L687.0256410256411 164.4360902255639 " style="fill:none; stroke:red; stroke-width:1"/><path d="M22.923076923076923 177.1428571428571 L40.871794871794876 185.7142857142857 L58.82051282051282 180 L76.76923076923077 187.1428571428571 L94.71794871794873 194.28571428571428 L112.66666666666667 194.76190476190476 L130.6153846153846 196.32653061224488 L148.56410256410257 199.28571428571428 L166.51282051282053 200.95238095238093 L184.46153846153848 201.14285714285714 L202.4102564102564 201.55844155844153 L220.35897435897436 204.76190476190476 L238.30769230769232 202.85714285714283 L256.2564102564102 202.85714285714283 L274.2051282051282 201.52380952380952 L292.15384615384613 201.9642857142857 L310.1025641025641 201.8487394957983 L328.05128205128204 201.26984126984127 L346 199.24812030075185 L363.94871794871796 198 L381.89743589743586 196.19047619047618 L399.8461538461538 194.025974025974 L417.79487179487177 192.42236024844718 L435.7435897435897 193.57142857142856 L453.6923076923077 194.97142857142856 L471.64102564102564 193.84615384615384 L489.5897435897436 194.17989417989418 L507.5384615384615 193.6734693877551 L525.4871794871796 193.39901477832512 L543.4358974358975 195.52380952380952 L561.3846153846155 196.58986175115206 L579.3333333333334 195.80357142857142 L597.2820512820513 194.63203463203462 L615.2307692307693 193.94957983193277 L633.1794871794872 194.36734693877548 L651.1282051282052 195 L669.0769230769231 196.75675675675674 L687.0256410256411 196.39097744360902 " style="fill:none; stroke:red; stroke-width:1"/>
				</g>
			</svg>