<?xml version="1.0" encoding="UTF-8"?><svg xml:space="preserve" width="700" height="300">
				<desc>Batting History</desc>
				<g style="stroke:#000000; stroke-width:0.5; font-family:Arial; font-size:7pt;">
					<rect x="1" y="1" width="698" height="298" style="fill:#dddddd;"/><g style="stroke:#888888; font-family:Arial; font-size:6pt;"><line x1="1" y1="285.7142857142857" x2="700" y2="285.7142857142857" style="stroke:#aaaaaa;"/><text x="5" y="283.7142857142857">-20</text></g><g style="stroke:#888888; font-family:Arial; font-size:6pt;"><line x1="1" y1="257.1428571428571" x2="700" y2="257.1428571428571" style="stroke:#aaaaaa;"/><text x="5" y="255.1428571428571">-10</text></g><g style="stroke:#888888; font-family:Arial; font-size:6pt;"><line x1="1" y1="228.57142857142856" x2="700" y2="228.57142857142856" style="stroke:#aaaaaa;"/><text x="5" y="226.57142857142856">0</text></g><g style="stroke:#888888; font-family:Arial; font-size:6pt;"><line x1="1" y1="199.99999999999997" x2="700" y2="199.99999999999997" style="stroke:#aaaaaa;"/><text x="5" y="197.99999999999997">10</text></g><g style="stroke:#888888; font-family:Arial; font-size:6pt;"><line x1="1" y1="171.42857142857142" x2="700" y2="171.42857142857142" style="stroke:#aaaaaa;"/><text x="5" y="169.42857142857142">20</text></g><g style="stroke:#888888; font-family:Arial; font-size:6pt;"><line x1="1" y1="142.85714285714283" x2="700" y2="142.85714285714283" style="stroke:#aaaaaa;"/><text x="5" y="140.85714285714283">30</text></g><g style="stroke:#888888; font-family:Arial; font-size:6pt;"><line x1="1" y1="114.28571428571426" x2="700" y2="114.28571428571426" style="stroke:#aaaaaa;"/><text x="5" y="112.28571428571426">40</text></g><g style="stroke:#888888; font-family:Arial; font-size:6pt;"><line x1="1" y1="85.7142857142857" x2="700" y2="85.7142857142857" style="stroke:#aaaaaa;"/><text x="5" y="83.7142857142857">50</text></g><g style="stroke:#888888; font-family:Arial; font-size:6pt;"><line x1="1" y1="57.14285714285711" x2="700" y2="57.14285714285711" style="stroke:#aaaaaa;"/><text x="5" y="55.14285714285711">60</text></g><g style="stroke:#888888; font-family:Arial; font-size:6pt;"><line x1="1" y1="28.571428571428555" x2="700" y2="28.571428571428555" style="stroke:#aaaaaa;"/><text x="5" y="26.571428571428555">70</text></g><g style="stroke:#888888; font-family:Arial; font-size:6pt;"><line x1="1" y1="-2.842170943040401E-14" x2="700" y2="-2.842170943040401E-14" style="stroke:#aaaaaa;"/><text x="5" y="-2.0000000000000284">80</text></g><text x="350" y="20" style="text-anchor:middle; font-size: 14pt;">Batting History - Dickie</text>
					
					<rect x="21.073170731707318" y="211.42857142857142" height="17.14285714285714" width="9.073170731707318" style="fill:#aaaaff;"/><rect x="38.146341463414636" y="185.7142857142857" height="42.85714285714286" width="9.073170731707318" style="fill:#aaaaff;"/><rect x="55.21951219512195" y="140" height="88.57142857142856" width="9.073170731707318" style="fill:#aaaaff;"/><rect x="72.29268292682927" y="171.42857142857142" height="57.14285714285714" width="9.073170731707318" style="fill:#aaaaff;"/><rect x="89.3658536585366" y="91.42857142857142" height="137.14285714285714" width="9.073170731707318" style="fill:#aaaaff;"/><rect x="106.4390243902439" y="137.1428571428571" height="91.42857142857144" width="9.073170731707318" style="fill:#aaaaff;"/><rect x="123.51219512195122" y="157.1428571428571" height="71.42857142857144" width="9.073170731707318" style="fill:#aaaaff;"/><rect x="140.58536585365854" y="160" height="68.57142857142856" width="9.073170731707318" style="fill:#aaaaff;"/><rect x="157.65853658536585" y="148.57142857142856" height="80" width="9.073170731707318" style="fill:#aaaaff;"/><rect x="174.7317073170732" y="119.99999999999999" height="108.57142857142857" width="9.073170731707318" style="fill:#aaaaff;"/><rect x="191.8048780487805" y="228.57142857142856" height="40" width="9.073170731707318" style="fill:#aaaaff;"/><rect x="208.8780487804878" y="228.57142857142856" height="5.714285714285722" width="9.073170731707318" style="fill:#aaaaff;"/><rect x="225.95121951219514" y="157.1428571428571" height="71.42857142857144" width="9.073170731707318" style="fill:#aaaaff;"/><rect x="243.02439024390245" y="185.7142857142857" height="42.85714285714286" width="9.073170731707318" style="fill:#aaaaff;"/><rect x="260.0975609756098" y="77.14285714285711" height="151.42857142857144" width="9.073170731707318" style="fill:#aaaaff;"/><rect x="277.1707317073171" y="94.28571428571428" height="134.28571428571428" width="9.073170731707318" style="fill:#aaaaff;"/><rect x="294.2439024390244" y="174.28571428571428" height="54.28571428571428" width="9.073170731707318" style="fill:#aaaaff;"/><rect x="311.3170731707317" y="137.1428571428571" height="91.42857142857144" width="9.073170731707318" style="fill:#aaaaff;"/><rect x="328.39024390243907" y="59.99999999999997" height="168.57142857142858" width="9.073170731707318" style="fill:#aaaaff;"/><rect x="345.4634146341464" y="57.14285714285711" height="171.42857142857144" width="9.073170731707318" style="fill:#aaaaff;"/><rect x="362.5365853658537" y="14.285714285714278" height="214.28571428571428" width="9.073170731707318" style="fill:#aaaaff;"/><rect x="379.609756097561" y="162.85714285714283" height="65.71428571428572" width="9.073170731707318" style="fill:#aaaaff;"/><rect x="396.6829268292683" y="188.57142857142856" height="40" width="9.073170731707318" style="fill:#aaaaff;"/><rect x="413.7560975609756" y="222.85714285714283" height="5.714285714285722" width="9.073170731707318" style="fill:#aaaaff;"/><rect x="430.82926829268297" y="219.99999999999997" height="8.571428571428584" width="9.073170731707318" style="fill:#aaaaff;"/><rect x="447.9024390243903" y="182.85714285714283" height="45.71428571428572" width="9.073170731707318" style="fill:#aaaaff;"/><rect x="464.9756097560976" y="197.1428571428571" height="31.428571428571445" width="9.073170731707318" style="fill:#aaaaff;"/><rect x="482.0487804878049" y="228.57142857142856" height="5.714285714285722" width="9.073170731707318" style="fill:#aaaaff;"/><rect x="499.1219512195122" y="91.42857142857142" height="137.14285714285714" width="9.073170731707318" style="fill:#aaaaff;"/><rect x="516.1951219512196" y="111.42857142857142" height="117.14285714285714" width="9.073170731707318" style="fill:#aaaaff;"/><rect x="533.2682926829268" y="168.57142857142856" height="60" width="9.073170731707318" style="fill:#aaaaff;"/><rect x="550.3414634146342" y="222.85714285714283" height="5.714285714285722" width="9.073170731707318" style="fill:#aaaaff;"/><rect x="567.4146341463415" y="85.7142857142857" height="142.85714285714286" width="9.073170731707318" style="fill:#aaaaff;"/><rect x="584.4878048780488" y="114.28571428571426" height="114.28571428571429" width="9.073170731707318" style="fill:#aaaaff;"/><rect x="601.5609756097562" y="197.1428571428571" height="31.428571428571445" width="9.073170731707318" style="fill:#aaaaff;"/><rect x="618.6341463414634" y="77.14285714285711" height="151.42857142857144" width="9.073170731707318" style="fill:#aaaaff;"/><rect x="635.7073170731708" y="174.28571428571428" height="54.28571428571428" width="9.073170731707318" style="fill:#aaaaff;"/><rect x="652.7804878048781" y="185.7142857142857" height="42.85714285714286" width="9.073170731707318" style="fill:#aaaaff;"/><rect x="669.8536585365854" y="91.42857142857142" height="137.14285714285714" width="9.073170731707318" style="fill:#aaaaff;"/><rect x="686.9268292682927" y="174.28571428571428" height="54.28571428571428" width="9.073170731707318" style="fill:#aaaaff;"/><rect x="17.073170731707318" y="168.57142857142856" height="60" width="9.073170731707318" style="fill:#0000aa;"/><text x="17.073170731707318" y="165.57142857142856">21</text><rect x="34.146341463414636" y="197.1428571428571" height="31.428571428571445" width="9.073170731707318" style="fill:#0000aa;"/><text x="34.146341463414636" y="194.1428571428571">11</text><rect x="51.21951219512195" y="177.1428571428571" height="51.428571428571445" width="9.073170731707318" style="fill:#0000aa;"/><text x="51.21951219512195" y="174.1428571428571">18</text><rect x="68.29268292682927" y="219.99999999999997" height="8.571428571428584" width="9.073170731707318" style="fill:#0000aa;"/><text x="68.29268292682927" y="216.99999999999997">3</text><rect x="85.3658536585366" y="151.42857142857142" height="77.14285714285714" width="9.073170731707318" style="fill:#0000aa;"/><text x="85.3658536585366" y="148.42857142857142">27</text><rect x="102.4390243902439" y="171.42857142857142" height="57.14285714285714" width="9.073170731707318" style="fill:#0000aa;"/><text x="102.4390243902439" y="168.42857142857142">20</text><rect x="119.51219512195122" y="225.7142857142857" height="2.857142857142861" width="9.073170731707318" style="fill:#0000aa;"/><text x="119.51219512195122" y="222.7142857142857">1</text><rect x="136.58536585365854" y="199.99999999999997" height="28.571428571428584" width="9.073170731707318" style="fill:#0000aa;"/><text x="136.58536585365854" y="196.99999999999997">10</text><rect x="153.65853658536585" y="214.28571428571428" height="14.285714285714278" width="9.073170731707318" style="fill:#0000aa;"/><text x="153.65853658536585" y="211.28571428571428">5</text><rect x="170.7317073170732" y="211.42857142857142" height="17.14285714285714" width="9.073170731707318" style="fill:#0000aa;"/><text x="170.7317073170732" y="208.42857142857142">6</text><rect x="187.8048780487805" y="228.57142857142856" height="8.571428571428584" width="9.073170731707318" style="fill:#0000aa;"/><text x="187.8048780487805" y="225.57142857142856">-3</text><rect x="204.8780487804878" y="228.57142857142856" height="2.857142857142861" width="9.073170731707318" style="fill:#0000aa;"/><text x="204.8780487804878" y="225.57142857142856">-1</text><rect x="221.95121951219514" y="185.7142857142857" height="42.85714285714286" width="9.073170731707318" style="fill:#0000aa;"/><text x="221.95121951219514" y="182.7142857142857">15</text><rect x="239.02439024390245" y="214.28571428571428" height="14.285714285714278" width="9.073170731707318" style="fill:#0000aa;"/><text x="239.02439024390245" y="211.28571428571428">5</text><rect x="256.0975609756098" y="151.42857142857142" height="77.14285714285714" width="9.073170731707318" style="fill:#0000aa;"/><text x="256.0975609756098" y="148.42857142857142">27</text><rect x="273.1707317073171" y="168.57142857142856" height="60" width="9.073170731707318" style="fill:#0000aa;"/><text x="273.1707317073171" y="165.57142857142856">21</text><rect x="290.2439024390244" y="191.42857142857142" height="37.14285714285714" width="9.073170731707318" style="fill:#0000aa;"/><text x="290.2439024390244" y="188.42857142857142">13</text><rect x="307.3170731707317" y="222.85714285714283" height="5.714285714285722" width="9.073170731707318" style="fill:#0000aa;"/><text x="307.3170731707317" y="219.85714285714283">2</text><rect x="324.39024390243907" y="131.42857142857142" height="97.14285714285714" width="9.073170731707318" style="fill:#0000aa;"/><text x="324.39024390243907" y="128.42857142857142">34</text><rect x="341.4634146341464" y="165.7142857142857" height="62.85714285714286" width="9.073170731707318" style="fill:#0000aa;"/><text x="341.4634146341464" y="162.7142857142857">22</text><rect x="358.5365853658537" y="134.28571428571428" height="94.28571428571428" width="9.073170731707318" style="fill:#0000aa;"/><text x="358.5365853658537" y="131.28571428571428">33</text><rect x="375.609756097561" y="211.42857142857142" height="17.14285714285714" width="9.073170731707318" style="fill:#0000aa;"/><text x="375.609756097561" y="208.42857142857142">6</text><rect x="392.6829268292683" y="199.99999999999997" height="28.571428571428584" width="9.073170731707318" style="fill:#0000aa;"/><text x="392.6829268292683" y="196.99999999999997">10</text><rect x="409.7560975609756" y="228.57142857142856" height="22.85714285714286" width="9.073170731707318" style="fill:#0000aa;"/><text x="409.7560975609756" y="225.57142857142856">-8</text><rect x="426.82926829268297" y="228.57142857142856" height="5.714285714285722" width="9.073170731707318" style="fill:#0000aa;"/><text x="426.82926829268297" y="225.57142857142856">-2</text><rect x="443.9024390243903" y="199.99999999999997" height="28.571428571428584" width="9.073170731707318" style="fill:#0000aa;"/><text x="443.9024390243903" y="196.99999999999997">10</text><rect x="460.9756097560976" y="222.85714285714283" height="5.714285714285722" width="9.073170731707318" style="fill:#0000aa;"/><text x="460.9756097560976" y="219.85714285714283">2</text><rect x="478.0487804878049" y="219.99999999999997" height="8.571428571428584" width="9.073170731707318" style="fill:#0000aa;"/><text x="478.0487804878049" y="216.99999999999997">3</text><rect x="495.1219512195122" y="174.28571428571428" height="54.28571428571428" width="9.073170731707318" style="fill:#0000aa;"/><text x="495.1219512195122" y="171.28571428571428">19</text><rect x="512.1951219512196" y="174.28571428571428" height="54.28571428571428" width="9.073170731707318" style="fill:#0000aa;"/><text x="512.1951219512196" y="171.28571428571428">19</text><rect x="529.2682926829268" y="182.85714285714283" height="45.71428571428572" width="9.073170731707318" style="fill:#0000aa;"/><text x="529.2682926829268" y="179.85714285714283">16</text><rect x="546.3414634146342" y="211.42857142857142" height="17.14285714285714" width="9.073170731707318" style="fill:#0000aa;"/><text x="546.3414634146342" y="208.42857142857142">6</text><rect x="563.4146341463415" y="151.42857142857142" height="77.14285714285714" width="9.073170731707318" style="fill:#0000aa;"/><text x="563.4146341463415" y="148.42857142857142">27</text><rect x="580.4878048780488" y="197.1428571428571" height="31.428571428571445" width="9.073170731707318" style="fill:#0000aa;"/><text x="580.4878048780488" y="194.1428571428571">11</text><rect x="597.5609756097562" y="205.7142857142857" height="22.85714285714286" width="9.073170731707318" style="fill:#0000aa;"/><text x="597.5609756097562" y="202.7142857142857">8</text><rect x="614.6341463414634" y="191.42857142857142" height="37.14285714285714" width="9.073170731707318" style="fill:#0000aa;"/><text x="614.6341463414634" y="188.42857142857142">13</text><rect x="631.7073170731708" y="202.85714285714283" height="25.714285714285722" width="9.073170731707318" style="fill:#0000aa;"/><text x="631.7073170731708" y="199.85714285714283">9</text><rect x="648.7804878048781" y="194.28571428571428" height="34.28571428571428" width="9.073170731707318" style="fill:#0000aa;"/><text x="648.7804878048781" y="191.28571428571428">12</text><rect x="665.8536585365854" y="145.7142857142857" height="82.85714285714286" width="9.073170731707318" style="fill:#0000aa;"/><text x="665.8536585365854" y="142.7142857142857">29</text><rect x="682.9268292682927" y="194.28571428571428" height="34.28571428571428" width="9.073170731707318" style="fill:#0000aa;"/><text x="682.9268292682927" y="191.28571428571428">12</text>
					
					<path d="M21.609756097560975 211.42857142857142 L38.6829268292683 198.57142857142856 L55.75609756097561 179.04761904761904 L72.82926829268293 177.1428571428571 L89.90243902439025 160 L106.97560975609755 156.19047619047618 L124.04878048780488 156.32653061224488 L141.1219512195122 156.78571428571428 L158.1951219512195 155.87301587301585 L175.26829268292684 152.28571428571428 L192.34146341463415 162.85714285714283 L209.41463414634146 168.8095238095238 L226.4878048780488 167.91208791208788 L243.5609756097561 169.18367346938774 L260.63414634146346 163.04761904761904 L277.70731707317077 158.75 L294.7804878048781 159.66386554621846 L311.8536585365854 158.41269841269838 L328.92682926829275 153.23308270676688 L346.00000000000006 148.4285714285714 L363.07317073170736 142.0408163265306 L380.1463414634147 142.98701298701297 L397.219512195122 144.96894409937886 L414.2926829268293 148.2142857142857 L431.36585365853665 151.08571428571426 L448.43902439024396 152.3076923076923 L465.51219512195127 153.96825396825395 L482.5853658536586 156.83673469387753 L499.6585365853659 154.5812807881773 L516.7317073170732 153.1428571428571 L533.8048780487804 153.6405529953917 L550.8780487804878 155.80357142857142 L567.9512195121952 153.67965367965365 L585.0243902439024 152.52100840336132 L602.0975609756098 153.79591836734693 L619.170731707317 151.66666666666663 L636.2439024390244 152.27799227799227 L653.3170731707318 153.15789473684208 L670.390243902439 151.57509157509156 L687.4634146341464 152.1428571428571 " style="fill:none; stroke:red; stroke-width:1"/><path d="M21.609756097560975 168.57142857142856 L38.6829268292683 182.85714285714283 L55.75609756097561 180.95238095238093 L72.82926829268293 190.7142857142857 L89.90243902439025 182.85714285714283 L106.97560975609755 180.95238095238093 L124.04878048780488 187.34693877551018 L141.1219512195122 188.92857142857142 L158.1951219512195 191.74603174603172 L175.26829268292684 193.7142857142857 L192.34146341463415 197.66233766233765 L209.41463414634146 200.47619047619045 L226.4878048780488 199.34065934065933 L243.5609756097561 200.40816326530611 L260.63414634146346 197.1428571428571 L277.70731707317077 195.35714285714283 L294.7804878048781 195.12605042016804 L311.8536585365854 196.66666666666666 L328.92682926829275 193.2330827067669 L346.00000000000006 191.85714285714283 L363.07317073170736 189.11564625850338 L380.1463414634147 190.1298701298701 L397.219512195122 190.5590062111801 L414.2926829268293 193.09523809523807 L431.36585365853665 194.74285714285713 L448.43902439024396 194.94505494505492 L465.51219512195127 195.97883597883597 L482.5853658536586 196.83673469387753 L499.6585365853659 196.05911330049258 L516.7317073170732 195.33333333333331 L533.8048780487804 194.93087557603684 L550.8780487804878 195.44642857142856 L567.9512195121952 194.1125541125541 L585.0243902439024 194.20168067226888 L602.0975609756098 194.53061224489795 L619.170731707317 194.44444444444443 L636.2439024390244 194.67181467181464 L653.3170731707318 194.66165413533832 L670.390243902439 193.4065934065934 L687.4634146341464 193.42857142857142 " style="fill:none; stroke:red; stroke-width:1"/>
				</g>
			</svg>