<?xml version="1.0" encoding="UTF-8"?><svg xml:space="preserve" width="700" height="300">
				<desc>Batting History</desc>
				<g style="stroke:#000000; stroke-width:0.5; font-family:Arial; font-size:7pt;">
					<rect x="1" y="1" width="698" height="298" style="fill:#dddddd;"/><g style="stroke:#888888; font-family:Arial; font-size:6pt;"><line x1="1" y1="285.7142857142857" x2="700" y2="285.7142857142857" style="stroke:#aaaaaa;"/><text x="5" y="283.7142857142857">-20</text></g><g style="stroke:#888888; font-family:Arial; font-size:6pt;"><line x1="1" y1="257.1428571428571" x2="700" y2="257.1428571428571" style="stroke:#aaaaaa;"/><text x="5" y="255.1428571428571">-10</text></g><g style="stroke:#888888; font-family:Arial; font-size:6pt;"><line x1="1" y1="228.57142857142856" x2="700" y2="228.57142857142856" style="stroke:#aaaaaa;"/><text x="5" y="226.57142857142856">0</text></g><g style="stroke:#888888; font-family:Arial; font-size:6pt;"><line x1="1" y1="199.99999999999997" x2="700" y2="199.99999999999997" style="stroke:#aaaaaa;"/><text x="5" y="197.99999999999997">10</text></g><g style="stroke:#888888; font-family:Arial; font-size:6pt;"><line x1="1" y1="171.42857142857142" x2="700" y2="171.42857142857142" style="stroke:#aaaaaa;"/><text x="5" y="169.42857142857142">20</text></g><g style="stroke:#888888; font-family:Arial; font-size:6pt;"><line x1="1" y1="142.85714285714283" x2="700" y2="142.85714285714283" style="stroke:#aaaaaa;"/><text x="5" y="140.85714285714283">30</text></g><g style="stroke:#888888; font-family:Arial; font-size:6pt;"><line x1="1" y1="114.28571428571426" x2="700" y2="114.28571428571426" style="stroke:#aaaaaa;"/><text x="5" y="112.28571428571426">40</text></g><g style="stroke:#888888; font-family:Arial; font-size:6pt;"><line x1="1" y1="85.7142857142857" x2="700" y2="85.7142857142857" style="stroke:#aaaaaa;"/><text x="5" y="83.7142857142857">50</text></g><g style="stroke:#888888; font-family:Arial; font-size:6pt;"><line x1="1" y1="57.14285714285711" x2="700" y2="57.14285714285711" style="stroke:#aaaaaa;"/><text x="5" y="55.14285714285711">60</text></g><g style="stroke:#888888; font-family:Arial; font-size:6pt;"><line x1="1" y1="28.571428571428555" x2="700" y2="28.571428571428555" style="stroke:#aaaaaa;"/><text x="5" y="26.571428571428555">70</text></g><g style="stroke:#888888; font-family:Arial; font-size:6pt;"><line x1="1" y1="-2.842170943040401E-14" x2="700" y2="-2.842170943040401E-14" style="stroke:#aaaaaa;"/><text x="5" y="-2.0000000000000284">80</text></g><text x="350" y="20" style="text-anchor:middle; font-size: 14pt;">Batting History - Pav</text>
					
					<rect x="91.5" y="157.1428571428571" height="71.42857142857144" width="79.5" style="fill:#aaaaff;"/><rect x="179" y="182.85714285714283" height="45.71428571428572" width="79.5" style="fill:#aaaaff;"/><rect x="266.5" y="145.7142857142857" height="82.85714285714286" width="79.5" style="fill:#aaaaff;"/><rect x="354" y="162.85714285714283" height="65.71428571428572" width="79.5" style="fill:#aaaaff;"/><rect x="441.5" y="197.1428571428571" height="31.428571428571445" width="79.5" style="fill:#aaaaff;"/><rect x="529" y="182.85714285714283" height="45.71428571428572" width="79.5" style="fill:#aaaaff;"/><rect x="616.5" y="197.1428571428571" height="31.428571428571445" width="79.5" style="fill:#aaaaff;"/><rect x="87.5" y="208.57142857142856" height="20" width="79.5" style="fill:#0000aa;"/><text x="87.5" y="205.57142857142856">7</text><rect x="175" y="191.42857142857142" height="37.14285714285714" width="79.5" style="fill:#0000aa;"/><text x="175" y="188.42857142857142">13</text><rect x="262.5" y="194.28571428571428" height="34.28571428571428" width="79.5" style="fill:#0000aa;"/><text x="262.5" y="191.28571428571428">12</text><rect x="350" y="222.85714285714283" height="5.714285714285722" width="79.5" style="fill:#0000aa;"/><text x="350" y="219.85714285714283">2</text><rect x="437.5" y="214.28571428571428" height="14.285714285714278" width="79.5" style="fill:#0000aa;"/><text x="437.5" y="211.28571428571428">5</text><rect x="525" y="208.57142857142856" height="20" width="79.5" style="fill:#0000aa;"/><text x="525" y="205.57142857142856">7</text><rect x="612.5" y="228.57142857142856" height="2.857142857142861" width="79.5" style="fill:#0000aa;"/><text x="612.5" y="225.57142857142856">-1</text>
					
					<path d="M127.25 157.1428571428571 L214.75 170 L302.25 161.90476190476187 L389.75 162.1428571428571 L477.25 169.1428571428571 L564.75 171.42857142857142 L652.25 175.1020408163265 " style="fill:none; stroke:red; stroke-width:1"/><path d="M127.25 208.57142857142856 L214.75 199.99999999999997 L302.25 198.09523809523807 L389.75 204.28571428571428 L477.25 206.28571428571428 L564.75 206.66666666666666 L652.25 210.20408163265304 " style="fill:none; stroke:red; stroke-width:1"/>
				</g>
			</svg>