<?xml version="1.0" encoding="UTF-8"?><svg xml:space="preserve" width="700" height="300">
				<desc>Batting History</desc>
				<g style="stroke:#000000; stroke-width:0.5; font-family:Arial; font-size:7pt;">
					<rect x="1" y="1" width="698" height="298" style="fill:#dddddd;"/><g style="stroke:#888888; font-family:Arial; font-size:6pt;"><line x1="1" y1="285.7142857142857" x2="700" y2="285.7142857142857" style="stroke:#aaaaaa;"/><text x="5" y="283.7142857142857">-20</text></g><g style="stroke:#888888; font-family:Arial; font-size:6pt;"><line x1="1" y1="257.1428571428571" x2="700" y2="257.1428571428571" style="stroke:#aaaaaa;"/><text x="5" y="255.1428571428571">-10</text></g><g style="stroke:#888888; font-family:Arial; font-size:6pt;"><line x1="1" y1="228.57142857142856" x2="700" y2="228.57142857142856" style="stroke:#aaaaaa;"/><text x="5" y="226.57142857142856">0</text></g><g style="stroke:#888888; font-family:Arial; font-size:6pt;"><line x1="1" y1="199.99999999999997" x2="700" y2="199.99999999999997" style="stroke:#aaaaaa;"/><text x="5" y="197.99999999999997">10</text></g><g style="stroke:#888888; font-family:Arial; font-size:6pt;"><line x1="1" y1="171.42857142857142" x2="700" y2="171.42857142857142" style="stroke:#aaaaaa;"/><text x="5" y="169.42857142857142">20</text></g><g style="stroke:#888888; font-family:Arial; font-size:6pt;"><line x1="1" y1="142.85714285714283" x2="700" y2="142.85714285714283" style="stroke:#aaaaaa;"/><text x="5" y="140.85714285714283">30</text></g><g style="stroke:#888888; font-family:Arial; font-size:6pt;"><line x1="1" y1="114.28571428571426" x2="700" y2="114.28571428571426" style="stroke:#aaaaaa;"/><text x="5" y="112.28571428571426">40</text></g><g style="stroke:#888888; font-family:Arial; font-size:6pt;"><line x1="1" y1="85.7142857142857" x2="700" y2="85.7142857142857" style="stroke:#aaaaaa;"/><text x="5" y="83.7142857142857">50</text></g><g style="stroke:#888888; font-family:Arial; font-size:6pt;"><line x1="1" y1="57.14285714285711" x2="700" y2="57.14285714285711" style="stroke:#aaaaaa;"/><text x="5" y="55.14285714285711">60</text></g><g style="stroke:#888888; font-family:Arial; font-size:6pt;"><line x1="1" y1="28.571428571428555" x2="700" y2="28.571428571428555" style="stroke:#aaaaaa;"/><text x="5" y="26.571428571428555">70</text></g><g style="stroke:#888888; font-family:Arial; font-size:6pt;"><line x1="1" y1="-2.842170943040401E-14" x2="700" y2="-2.842170943040401E-14" style="stroke:#aaaaaa;"/><text x="5" y="-2.0000000000000284">80</text></g><text x="350" y="20" style="text-anchor:middle; font-size: 14pt;">Batting History - Craig</text>
					
					<rect x="29" y="148.57142857142856" height="80" width="17" style="fill:#aaaaff;"/><rect x="54" y="134.28571428571428" height="94.28571428571428" width="17" style="fill:#aaaaff;"/><rect x="79" y="191.42857142857142" height="37.14285714285714" width="17" style="fill:#aaaaff;"/><rect x="104" y="182.85714285714283" height="45.71428571428572" width="17" style="fill:#aaaaff;"/><rect x="129" y="180" height="48.571428571428555" width="17" style="fill:#aaaaff;"/><rect x="154" y="134.28571428571428" height="94.28571428571428" width="17" style="fill:#aaaaff;"/><rect x="179" y="128.57142857142856" height="100" width="17" style="fill:#aaaaff;"/><rect x="204" y="99.99999999999997" height="128.57142857142858" width="17" style="fill:#aaaaff;"/><rect x="229" y="148.57142857142856" height="80" width="17" style="fill:#aaaaff;"/><rect x="254" y="171.42857142857142" height="57.14285714285714" width="17" style="fill:#aaaaff;"/><rect x="279" y="131.42857142857142" height="97.14285714285714" width="17" style="fill:#aaaaff;"/><rect x="304" y="105.7142857142857" height="122.85714285714286" width="17" style="fill:#aaaaff;"/><rect x="329" y="160" height="68.57142857142856" width="17" style="fill:#aaaaff;"/><rect x="354" y="171.42857142857142" height="57.14285714285714" width="17" style="fill:#aaaaff;"/><rect x="379" y="168.57142857142856" height="60" width="17" style="fill:#aaaaff;"/><rect x="404" y="168.57142857142856" height="60" width="17" style="fill:#aaaaff;"/><rect x="429" y="211.42857142857142" height="17.14285714285714" width="17" style="fill:#aaaaff;"/><rect x="454" y="119.99999999999999" height="108.57142857142857" width="17" style="fill:#aaaaff;"/><rect x="479" y="171.42857142857142" height="57.14285714285714" width="17" style="fill:#aaaaff;"/><rect x="504" y="228.57142857142856" height="11.428571428571416" width="17" style="fill:#aaaaff;"/><rect x="529" y="205.7142857142857" height="22.85714285714286" width="17" style="fill:#aaaaff;"/><rect x="554" y="188.57142857142856" height="40" width="17" style="fill:#aaaaff;"/><rect x="579" y="142.85714285714283" height="85.71428571428572" width="17" style="fill:#aaaaff;"/><rect x="604" y="34.28571428571428" height="194.28571428571428" width="17" style="fill:#aaaaff;"/><rect x="629" y="185.7142857142857" height="42.85714285714286" width="17" style="fill:#aaaaff;"/><rect x="654" y="137.1428571428571" height="91.42857142857144" width="17" style="fill:#aaaaff;"/><rect x="679" y="140" height="88.57142857142856" width="17" style="fill:#aaaaff;"/><rect x="25" y="208.57142857142856" height="20" width="17" style="fill:#0000aa;"/><text x="25" y="205.57142857142856">7</text><rect x="50" y="157.1428571428571" height="71.42857142857144" width="17" style="fill:#0000aa;"/><text x="50" y="154.1428571428571">25</text><rect x="75" y="205.7142857142857" height="22.85714285714286" width="17" style="fill:#0000aa;"/><text x="75" y="202.7142857142857">8</text><rect x="100" y="208.57142857142856" height="20" width="17" style="fill:#0000aa;"/><text x="100" y="205.57142857142856">7</text><rect x="125" y="199.99999999999997" height="28.571428571428584" width="17" style="fill:#0000aa;"/><text x="125" y="196.99999999999997">10</text><rect x="150" y="148.57142857142856" height="80" width="17" style="fill:#0000aa;"/><text x="150" y="145.57142857142856">28</text><rect x="175" y="188.57142857142856" height="40" width="17" style="fill:#0000aa;"/><text x="175" y="185.57142857142856">14</text><rect x="200" y="182.85714285714283" height="45.71428571428572" width="17" style="fill:#0000aa;"/><text x="200" y="179.85714285714283">16</text><rect x="225" y="191.42857142857142" height="37.14285714285714" width="17" style="fill:#0000aa;"/><text x="225" y="188.42857142857142">13</text><rect x="250" y="199.99999999999997" height="28.571428571428584" width="17" style="fill:#0000aa;"/><text x="250" y="196.99999999999997">10</text><rect x="275" y="199.99999999999997" height="28.571428571428584" width="17" style="fill:#0000aa;"/><text x="275" y="196.99999999999997">10</text><rect x="300" y="162.85714285714283" height="65.71428571428572" width="17" style="fill:#0000aa;"/><text x="300" y="159.85714285714283">23</text><rect x="325" y="165.7142857142857" height="62.85714285714286" width="17" style="fill:#0000aa;"/><text x="325" y="162.7142857142857">22</text><rect x="350" y="180" height="48.571428571428555" width="17" style="fill:#0000aa;"/><text x="350" y="177">17</text><rect x="375" y="222.85714285714283" height="5.714285714285722" width="17" style="fill:#0000aa;"/><text x="375" y="219.85714285714283">2</text><rect x="400" y="197.1428571428571" height="31.428571428571445" width="17" style="fill:#0000aa;"/><text x="400" y="194.1428571428571">11</text><rect x="425" y="228.57142857142856" height="28.571428571428555" width="17" style="fill:#0000aa;"/><text x="425" y="225.57142857142856">-10</text><rect x="450" y="168.57142857142856" height="60" width="17" style="fill:#0000aa;"/><text x="450" y="165.57142857142856">21</text><rect x="475" y="197.1428571428571" height="31.428571428571445" width="17" style="fill:#0000aa;"/><text x="475" y="194.1428571428571">11</text><rect x="500" y="228.57142857142856" height="37.14285714285717" width="17" style="fill:#0000aa;"/><text x="500" y="225.57142857142856">-13</text><rect x="525" y="188.57142857142856" height="40" width="17" style="fill:#0000aa;"/><text x="525" y="185.57142857142856">14</text><rect x="550" y="208.57142857142856" height="20" width="17" style="fill:#0000aa;"/><text x="550" y="205.57142857142856">7</text><rect x="575" y="160" height="68.57142857142856" width="17" style="fill:#0000aa;"/><text x="575" y="157">24</text><rect x="600" y="128.57142857142856" height="100" width="17" style="fill:#0000aa;"/><text x="600" y="125.57142857142856">35</text><rect x="625" y="197.1428571428571" height="31.428571428571445" width="17" style="fill:#0000aa;"/><text x="625" y="194.1428571428571">11</text><rect x="650" y="145.7142857142857" height="82.85714285714286" width="17" style="fill:#0000aa;"/><text x="650" y="142.7142857142857">29</text><rect x="675" y="191.42857142857142" height="37.14285714285714" width="17" style="fill:#0000aa;"/><text x="675" y="188.42857142857142">13</text>
					
					<path d="M33.5 148.57142857142856 L58.5 141.42857142857142 L83.5 158.09523809523807 L108.5 164.28571428571428 L133.5 167.42857142857142 L158.5 161.90476190476187 L183.5 157.1428571428571 L208.5 150 L233.5 149.84126984126982 L258.5 152 L283.5 150.1298701298701 L308.5 146.42857142857142 L333.5 147.47252747252747 L358.5 149.18367346938774 L383.5 150.47619047619048 L408.5 151.60714285714283 L433.5 155.12605042016804 L458.5 153.17460317460313 L483.5 154.13533834586462 L508.5 158.4285714285714 L533.5 160.6802721088435 L558.5 161.94805194805195 L583.5 161.1180124223602 L608.5 155.83333333333331 L633.5 157.0285714285714 L658.5 156.26373626373623 L683.5 155.66137566137564 " style="fill:none; stroke:red; stroke-width:1"/><path d="M33.5 208.57142857142856 L58.5 182.85714285714283 L83.5 190.47619047619045 L108.5 195 L133.5 195.99999999999997 L158.5 188.09523809523807 L183.5 188.16326530612244 L208.5 187.5 L233.5 187.93650793650792 L258.5 189.1428571428571 L283.5 190.1298701298701 L308.5 187.85714285714283 L333.5 186.15384615384613 L358.5 185.7142857142857 L383.5 188.19047619047618 L408.5 188.75 L433.5 192.77310924369746 L458.5 191.42857142857142 L483.5 191.72932330827066 L508.5 195.42857142857142 L533.5 195.1020408163265 L558.5 195.7142857142857 L583.5 194.1614906832298 L608.5 191.42857142857142 L633.5 191.65714285714284 L658.5 189.89010989010987 L683.5 189.94708994708992 " style="fill:none; stroke:red; stroke-width:1"/>
				</g>
			</svg>