<?xml version="1.0" encoding="UTF-8"?><svg xml:space="preserve" width="700" height="300">
				<desc>Batting History</desc>
				<g style="stroke:#000000; stroke-width:0.5; font-family:Arial; font-size:7pt;">
					<rect x="1" y="1" width="698" height="298" style="fill:#dddddd;"/><g style="stroke:#888888; font-family:Arial; font-size:6pt;"><line x1="1" y1="285.7142857142857" x2="700" y2="285.7142857142857" style="stroke:#aaaaaa;"/><text x="5" y="283.7142857142857">-20</text></g><g style="stroke:#888888; font-family:Arial; font-size:6pt;"><line x1="1" y1="257.1428571428571" x2="700" y2="257.1428571428571" style="stroke:#aaaaaa;"/><text x="5" y="255.1428571428571">-10</text></g><g style="stroke:#888888; font-family:Arial; font-size:6pt;"><line x1="1" y1="228.57142857142856" x2="700" y2="228.57142857142856" style="stroke:#aaaaaa;"/><text x="5" y="226.57142857142856">0</text></g><g style="stroke:#888888; font-family:Arial; font-size:6pt;"><line x1="1" y1="199.99999999999997" x2="700" y2="199.99999999999997" style="stroke:#aaaaaa;"/><text x="5" y="197.99999999999997">10</text></g><g style="stroke:#888888; font-family:Arial; font-size:6pt;"><line x1="1" y1="171.42857142857142" x2="700" y2="171.42857142857142" style="stroke:#aaaaaa;"/><text x="5" y="169.42857142857142">20</text></g><g style="stroke:#888888; font-family:Arial; font-size:6pt;"><line x1="1" y1="142.85714285714283" x2="700" y2="142.85714285714283" style="stroke:#aaaaaa;"/><text x="5" y="140.85714285714283">30</text></g><g style="stroke:#888888; font-family:Arial; font-size:6pt;"><line x1="1" y1="114.28571428571426" x2="700" y2="114.28571428571426" style="stroke:#aaaaaa;"/><text x="5" y="112.28571428571426">40</text></g><g style="stroke:#888888; font-family:Arial; font-size:6pt;"><line x1="1" y1="85.7142857142857" x2="700" y2="85.7142857142857" style="stroke:#aaaaaa;"/><text x="5" y="83.7142857142857">50</text></g><g style="stroke:#888888; font-family:Arial; font-size:6pt;"><line x1="1" y1="57.14285714285711" x2="700" y2="57.14285714285711" style="stroke:#aaaaaa;"/><text x="5" y="55.14285714285711">60</text></g><g style="stroke:#888888; font-family:Arial; font-size:6pt;"><line x1="1" y1="28.571428571428555" x2="700" y2="28.571428571428555" style="stroke:#aaaaaa;"/><text x="5" y="26.571428571428555">70</text></g><g style="stroke:#888888; font-family:Arial; font-size:6pt;"><line x1="1" y1="-2.842170943040401E-14" x2="700" y2="-2.842170943040401E-14" style="stroke:#aaaaaa;"/><text x="5" y="-2.0000000000000284">80</text></g><text x="350" y="20" style="text-anchor:middle; font-size: 14pt;">Batting History - The Womp</text>
					
					<rect x="81.77777777777777" y="157.1428571428571" height="71.42857142857144" width="69.77777777777777" style="fill:#aaaaff;"/><rect x="159.55555555555554" y="180" height="48.571428571428555" width="69.77777777777777" style="fill:#aaaaff;"/><rect x="237.33333333333331" y="165.7142857142857" height="62.85714285714286" width="69.77777777777777" style="fill:#aaaaff;"/><rect x="315.1111111111111" y="137.1428571428571" height="91.42857142857144" width="69.77777777777777" style="fill:#aaaaff;"/><rect x="392.88888888888886" y="128.57142857142856" height="100" width="69.77777777777777" style="fill:#aaaaff;"/><rect x="470.66666666666663" y="160" height="68.57142857142856" width="69.77777777777777" style="fill:#aaaaff;"/><rect x="548.4444444444443" y="171.42857142857142" height="57.14285714285714" width="69.77777777777777" style="fill:#aaaaff;"/><rect x="626.2222222222222" y="228.57142857142856" height="0" width="69.77777777777777" style="fill:#aaaaff;"/><rect x="77.77777777777777" y="214.28571428571428" height="14.285714285714278" width="69.77777777777777" style="fill:#0000aa;"/><text x="77.77777777777777" y="211.28571428571428">5</text><rect x="155.55555555555554" y="197.1428571428571" height="31.428571428571445" width="69.77777777777777" style="fill:#0000aa;"/><text x="155.55555555555554" y="194.1428571428571">11</text><rect x="233.33333333333331" y="199.99999999999997" height="28.571428571428584" width="69.77777777777777" style="fill:#0000aa;"/><text x="233.33333333333331" y="196.99999999999997">10</text><rect x="311.1111111111111" y="185.7142857142857" height="42.85714285714286" width="69.77777777777777" style="fill:#0000aa;"/><text x="311.1111111111111" y="182.7142857142857">15</text><rect x="388.88888888888886" y="171.42857142857142" height="57.14285714285714" width="69.77777777777777" style="fill:#0000aa;"/><text x="388.88888888888886" y="168.42857142857142">20</text><rect x="466.66666666666663" y="188.57142857142856" height="40" width="69.77777777777777" style="fill:#0000aa;"/><text x="466.66666666666663" y="185.57142857142856">14</text><rect x="544.4444444444443" y="199.99999999999997" height="28.571428571428584" width="69.77777777777777" style="fill:#0000aa;"/><text x="544.4444444444443" y="196.99999999999997">10</text><rect x="622.2222222222222" y="219.99999999999997" height="8.571428571428584" width="69.77777777777777" style="fill:#0000aa;"/><text x="622.2222222222222" y="216.99999999999997">3</text>
					
					<path d="M112.66666666666666 157.1428571428571 L190.44444444444443 168.57142857142856 L268.2222222222222 167.6190476190476 L346 160 L423.7777777777777 153.7142857142857 L501.55555555555554 154.76190476190476 L579.3333333333333 157.1428571428571 L657.1111111111111 166.07142857142856 " style="fill:none; stroke:red; stroke-width:1"/><path d="M112.66666666666666 214.28571428571428 L190.44444444444443 205.7142857142857 L268.2222222222222 203.8095238095238 L346 199.28571428571428 L423.7777777777777 193.7142857142857 L501.55555555555554 192.85714285714283 L579.3333333333333 193.87755102040813 L657.1111111111111 197.1428571428571 " style="fill:none; stroke:red; stroke-width:1"/>
				</g>
			</svg>