<?xml version="1.0" encoding="UTF-8"?><svg xml:space="preserve" width="700" height="300">
				<desc>Batting History</desc>
				<g style="stroke:#000000; stroke-width:0.5; font-family:Arial; font-size:7pt;">
					<rect x="1" y="1" width="698" height="298" style="fill:#dddddd;"/><g style="stroke:#888888; font-family:Arial; font-size:6pt;"><line x1="1" y1="285.7142857142857" x2="700" y2="285.7142857142857" style="stroke:#aaaaaa;"/><text x="5" y="283.7142857142857">-20</text></g><g style="stroke:#888888; font-family:Arial; font-size:6pt;"><line x1="1" y1="257.1428571428571" x2="700" y2="257.1428571428571" style="stroke:#aaaaaa;"/><text x="5" y="255.1428571428571">-10</text></g><g style="stroke:#888888; font-family:Arial; font-size:6pt;"><line x1="1" y1="228.57142857142856" x2="700" y2="228.57142857142856" style="stroke:#aaaaaa;"/><text x="5" y="226.57142857142856">0</text></g><g style="stroke:#888888; font-family:Arial; font-size:6pt;"><line x1="1" y1="199.99999999999997" x2="700" y2="199.99999999999997" style="stroke:#aaaaaa;"/><text x="5" y="197.99999999999997">10</text></g><g style="stroke:#888888; font-family:Arial; font-size:6pt;"><line x1="1" y1="171.42857142857142" x2="700" y2="171.42857142857142" style="stroke:#aaaaaa;"/><text x="5" y="169.42857142857142">20</text></g><g style="stroke:#888888; font-family:Arial; font-size:6pt;"><line x1="1" y1="142.85714285714283" x2="700" y2="142.85714285714283" style="stroke:#aaaaaa;"/><text x="5" y="140.85714285714283">30</text></g><g style="stroke:#888888; font-family:Arial; font-size:6pt;"><line x1="1" y1="114.28571428571426" x2="700" y2="114.28571428571426" style="stroke:#aaaaaa;"/><text x="5" y="112.28571428571426">40</text></g><g style="stroke:#888888; font-family:Arial; font-size:6pt;"><line x1="1" y1="85.7142857142857" x2="700" y2="85.7142857142857" style="stroke:#aaaaaa;"/><text x="5" y="83.7142857142857">50</text></g><g style="stroke:#888888; font-family:Arial; font-size:6pt;"><line x1="1" y1="57.14285714285711" x2="700" y2="57.14285714285711" style="stroke:#aaaaaa;"/><text x="5" y="55.14285714285711">60</text></g><g style="stroke:#888888; font-family:Arial; font-size:6pt;"><line x1="1" y1="28.571428571428555" x2="700" y2="28.571428571428555" style="stroke:#aaaaaa;"/><text x="5" y="26.571428571428555">70</text></g><g style="stroke:#888888; font-family:Arial; font-size:6pt;"><line x1="1" y1="-2.842170943040401E-14" x2="700" y2="-2.842170943040401E-14" style="stroke:#aaaaaa;"/><text x="5" y="-2.0000000000000284">80</text></g><text x="350" y="20" style="text-anchor:middle; font-size: 14pt;">Batting History - Big Kev</text>
					
					<rect x="74" y="228.57142857142856" height="40" width="62" style="fill:#aaaaff;"/><rect x="144" y="197.1428571428571" height="31.428571428571445" width="62" style="fill:#aaaaff;"/><rect x="214" y="228.57142857142856" height="5.714285714285722" width="62" style="fill:#aaaaff;"/><rect x="284" y="177.1428571428571" height="51.428571428571445" width="62" style="fill:#aaaaff;"/><rect x="354" y="228.57142857142856" height="22.85714285714286" width="62" style="fill:#aaaaff;"/><rect x="424" y="217.14285714285714" height="11.428571428571416" width="62" style="fill:#aaaaff;"/><rect x="494" y="202.85714285714283" height="25.714285714285722" width="62" style="fill:#aaaaff;"/><rect x="564" y="228.57142857142856" height="5.714285714285722" width="62" style="fill:#aaaaff;"/><rect x="634" y="211.42857142857142" height="17.14285714285714" width="62" style="fill:#aaaaff;"/><rect x="70" y="219.99999999999997" height="8.571428571428584" width="62" style="fill:#0000aa;"/><text x="70" y="216.99999999999997">3</text><rect x="140" y="228.57142857142856" height="5.714285714285722" width="62" style="fill:#0000aa;"/><text x="140" y="225.57142857142856">-2</text><rect x="210" y="211.42857142857142" height="17.14285714285714" width="62" style="fill:#0000aa;"/><text x="210" y="208.42857142857142">6</text><rect x="280" y="217.14285714285714" height="11.428571428571416" width="62" style="fill:#0000aa;"/><text x="280" y="214.14285714285714">4</text><rect x="350" y="228.57142857142856" height="5.714285714285722" width="62" style="fill:#0000aa;"/><text x="350" y="225.57142857142856">-2</text><rect x="420" y="222.85714285714283" height="5.714285714285722" width="62" style="fill:#0000aa;"/><text x="420" y="219.85714285714283">2</text><rect x="490" y="197.1428571428571" height="31.428571428571445" width="62" style="fill:#0000aa;"/><text x="490" y="194.1428571428571">11</text><rect x="560" y="228.57142857142856" height="20" width="62" style="fill:#0000aa;"/><text x="560" y="225.57142857142856">-7</text><rect x="630" y="225.7142857142857" height="2.857142857142861" width="62" style="fill:#0000aa;"/><text x="630" y="222.7142857142857">1</text>
					
					<path d="M101 268.57142857142856 L171 232.85714285714283 L241 233.33333333333331 L311 219.28571428571428 L381 225.7142857142857 L451 224.28571428571428 L521 221.22448979591834 L591 222.85714285714283 L661 221.58730158730157 " style="fill:none; stroke:red; stroke-width:1"/><path d="M101 219.99999999999997 L171 227.14285714285714 L241 221.9047619047619 L311 220.7142857142857 L381 223.42857142857142 L451 223.33333333333331 L521 219.59183673469386 L591 223.2142857142857 L661 223.49206349206347 " style="fill:none; stroke:red; stroke-width:1"/>
				</g>
			</svg>