<?xml version="1.0" encoding="UTF-8"?><svg xml:space="preserve" width="700" height="300">
				<desc>Batting History</desc>
				<g style="stroke:#000000; stroke-width:0.5; font-family:Arial; font-size:7pt;">
					<rect x="1" y="1" width="698" height="298" style="fill:#dddddd;"/><g style="stroke:#888888; font-family:Arial; font-size:6pt;"><line x1="1" y1="285.7142857142857" x2="700" y2="285.7142857142857" style="stroke:#aaaaaa;"/><text x="5" y="283.7142857142857">-20</text></g><g style="stroke:#888888; font-family:Arial; font-size:6pt;"><line x1="1" y1="257.1428571428571" x2="700" y2="257.1428571428571" style="stroke:#aaaaaa;"/><text x="5" y="255.1428571428571">-10</text></g><g style="stroke:#888888; font-family:Arial; font-size:6pt;"><line x1="1" y1="228.57142857142856" x2="700" y2="228.57142857142856" style="stroke:#aaaaaa;"/><text x="5" y="226.57142857142856">0</text></g><g style="stroke:#888888; font-family:Arial; font-size:6pt;"><line x1="1" y1="199.99999999999997" x2="700" y2="199.99999999999997" style="stroke:#aaaaaa;"/><text x="5" y="197.99999999999997">10</text></g><g style="stroke:#888888; font-family:Arial; font-size:6pt;"><line x1="1" y1="171.42857142857142" x2="700" y2="171.42857142857142" style="stroke:#aaaaaa;"/><text x="5" y="169.42857142857142">20</text></g><g style="stroke:#888888; font-family:Arial; font-size:6pt;"><line x1="1" y1="142.85714285714283" x2="700" y2="142.85714285714283" style="stroke:#aaaaaa;"/><text x="5" y="140.85714285714283">30</text></g><g style="stroke:#888888; font-family:Arial; font-size:6pt;"><line x1="1" y1="114.28571428571426" x2="700" y2="114.28571428571426" style="stroke:#aaaaaa;"/><text x="5" y="112.28571428571426">40</text></g><g style="stroke:#888888; font-family:Arial; font-size:6pt;"><line x1="1" y1="85.7142857142857" x2="700" y2="85.7142857142857" style="stroke:#aaaaaa;"/><text x="5" y="83.7142857142857">50</text></g><g style="stroke:#888888; font-family:Arial; font-size:6pt;"><line x1="1" y1="57.14285714285711" x2="700" y2="57.14285714285711" style="stroke:#aaaaaa;"/><text x="5" y="55.14285714285711">60</text></g><g style="stroke:#888888; font-family:Arial; font-size:6pt;"><line x1="1" y1="28.571428571428555" x2="700" y2="28.571428571428555" style="stroke:#aaaaaa;"/><text x="5" y="26.571428571428555">70</text></g><g style="stroke:#888888; font-family:Arial; font-size:6pt;"><line x1="1" y1="-2.842170943040401E-14" x2="700" y2="-2.842170943040401E-14" style="stroke:#aaaaaa;"/><text x="5" y="-2.0000000000000284">80</text></g><text x="350" y="20" style="text-anchor:middle; font-size: 14pt;">Batting History - The Weasel</text>
					
					<rect x="144" y="165.7142857142857" height="62.85714285714286" width="132" style="fill:#aaaaff;"/><rect x="284" y="160" height="68.57142857142856" width="132" style="fill:#aaaaff;"/><rect x="424" y="171.42857142857142" height="57.14285714285714" width="132" style="fill:#aaaaff;"/><rect x="564" y="180" height="48.571428571428555" width="132" style="fill:#aaaaff;"/><rect x="140" y="194.28571428571428" height="34.28571428571428" width="132" style="fill:#0000aa;"/><text x="140" y="191.28571428571428">12</text><rect x="280" y="202.85714285714283" height="25.714285714285722" width="132" style="fill:#0000aa;"/><text x="280" y="199.85714285714283">9</text><rect x="420" y="199.99999999999997" height="28.571428571428584" width="132" style="fill:#0000aa;"/><text x="420" y="196.99999999999997">10</text><rect x="560" y="217.14285714285714" height="11.428571428571416" width="132" style="fill:#0000aa;"/><text x="560" y="214.14285714285714">4</text>
					
					<path d="M206 165.7142857142857 L346 162.85714285714283 L486 165.7142857142857 L626 169.28571428571428 " style="fill:none; stroke:red; stroke-width:1"/><path d="M206 194.28571428571428 L346 198.57142857142856 L486 199.04761904761904 L626 203.57142857142856 " style="fill:none; stroke:red; stroke-width:1"/>
				</g>
			</svg>