<?xml version="1.0" encoding="UTF-8"?><svg xml:space="preserve" width="700" height="300">
				<desc>Batting History</desc>
				<g style="stroke:#000000; stroke-width:0.5; font-family:Arial; font-size:7pt;">
					<rect x="1" y="1" width="698" height="298" style="fill:#dddddd;"/><g style="stroke:#888888; font-family:Arial; font-size:6pt;"><line x1="1" y1="285.7142857142857" x2="700" y2="285.7142857142857" style="stroke:#aaaaaa;"/><text x="5" y="283.7142857142857">-20</text></g><g style="stroke:#888888; font-family:Arial; font-size:6pt;"><line x1="1" y1="257.1428571428571" x2="700" y2="257.1428571428571" style="stroke:#aaaaaa;"/><text x="5" y="255.1428571428571">-10</text></g><g style="stroke:#888888; font-family:Arial; font-size:6pt;"><line x1="1" y1="228.57142857142856" x2="700" y2="228.57142857142856" style="stroke:#aaaaaa;"/><text x="5" y="226.57142857142856">0</text></g><g style="stroke:#888888; font-family:Arial; font-size:6pt;"><line x1="1" y1="199.99999999999997" x2="700" y2="199.99999999999997" style="stroke:#aaaaaa;"/><text x="5" y="197.99999999999997">10</text></g><g style="stroke:#888888; font-family:Arial; font-size:6pt;"><line x1="1" y1="171.42857142857142" x2="700" y2="171.42857142857142" style="stroke:#aaaaaa;"/><text x="5" y="169.42857142857142">20</text></g><g style="stroke:#888888; font-family:Arial; font-size:6pt;"><line x1="1" y1="142.85714285714283" x2="700" y2="142.85714285714283" style="stroke:#aaaaaa;"/><text x="5" y="140.85714285714283">30</text></g><g style="stroke:#888888; font-family:Arial; font-size:6pt;"><line x1="1" y1="114.28571428571426" x2="700" y2="114.28571428571426" style="stroke:#aaaaaa;"/><text x="5" y="112.28571428571426">40</text></g><g style="stroke:#888888; font-family:Arial; font-size:6pt;"><line x1="1" y1="85.7142857142857" x2="700" y2="85.7142857142857" style="stroke:#aaaaaa;"/><text x="5" y="83.7142857142857">50</text></g><g style="stroke:#888888; font-family:Arial; font-size:6pt;"><line x1="1" y1="57.14285714285711" x2="700" y2="57.14285714285711" style="stroke:#aaaaaa;"/><text x="5" y="55.14285714285711">60</text></g><g style="stroke:#888888; font-family:Arial; font-size:6pt;"><line x1="1" y1="28.571428571428555" x2="700" y2="28.571428571428555" style="stroke:#aaaaaa;"/><text x="5" y="26.571428571428555">70</text></g><g style="stroke:#888888; font-family:Arial; font-size:6pt;"><line x1="1" y1="-2.842170943040401E-14" x2="700" y2="-2.842170943040401E-14" style="stroke:#aaaaaa;"/><text x="5" y="-2.0000000000000284">80</text></g><text x="350" y="20" style="text-anchor:middle; font-size: 14pt;">Batting History - Tim</text>
					
					<rect x="91.5" y="168.57142857142856" height="60" width="79.5" style="fill:#aaaaff;"/><rect x="179" y="160" height="68.57142857142856" width="79.5" style="fill:#aaaaff;"/><rect x="266.5" y="142.85714285714283" height="85.71428571428572" width="79.5" style="fill:#aaaaff;"/><rect x="354" y="151.42857142857142" height="77.14285714285714" width="79.5" style="fill:#aaaaff;"/><rect x="441.5" y="191.42857142857142" height="37.14285714285714" width="79.5" style="fill:#aaaaff;"/><rect x="529" y="182.85714285714283" height="45.71428571428572" width="79.5" style="fill:#aaaaff;"/><rect x="616.5" y="205.7142857142857" height="22.85714285714286" width="79.5" style="fill:#aaaaff;"/><rect x="87.5" y="214.28571428571428" height="14.285714285714278" width="79.5" style="fill:#0000aa;"/><text x="87.5" y="211.28571428571428">5</text><rect x="175" y="182.85714285714283" height="45.71428571428572" width="79.5" style="fill:#0000aa;"/><text x="175" y="179.85714285714283">16</text><rect x="262.5" y="157.1428571428571" height="71.42857142857144" width="79.5" style="fill:#0000aa;"/><text x="262.5" y="154.1428571428571">25</text><rect x="350" y="162.85714285714283" height="65.71428571428572" width="79.5" style="fill:#0000aa;"/><text x="350" y="159.85714285714283">23</text><rect x="437.5" y="199.99999999999997" height="28.571428571428584" width="79.5" style="fill:#0000aa;"/><text x="437.5" y="196.99999999999997">10</text><rect x="525" y="214.28571428571428" height="14.285714285714278" width="79.5" style="fill:#0000aa;"/><text x="525" y="211.28571428571428">5</text><rect x="612.5" y="228.57142857142856" height="14.285714285714278" width="79.5" style="fill:#0000aa;"/><text x="612.5" y="225.57142857142856">-5</text>
					
					<path d="M127.25 168.57142857142856 L214.75 164.28571428571428 L302.25 157.1428571428571 L389.75 155.7142857142857 L477.25 162.85714285714283 L564.75 166.19047619047618 L652.25 171.83673469387753 " style="fill:none; stroke:red; stroke-width:1"/><path d="M127.25 214.28571428571428 L214.75 198.57142857142856 L302.25 184.76190476190476 L389.75 179.28571428571428 L477.25 183.42857142857142 L564.75 188.57142857142856 L652.25 196.32653061224488 " style="fill:none; stroke:red; stroke-width:1"/>
				</g>
			</svg>