<?xml version="1.0" encoding="UTF-8"?><svg xml:space="preserve" width="700" height="300">
				<desc>Batting History</desc>
				<g style="stroke:#000000; stroke-width:0.5; font-family:Arial; font-size:7pt;">
					<rect x="1" y="1" width="698" height="298" style="fill:#dddddd;"/><g style="stroke:#888888; font-family:Arial; font-size:6pt;"><line x1="1" y1="285.7142857142857" x2="700" y2="285.7142857142857" style="stroke:#aaaaaa;"/><text x="5" y="283.7142857142857">-20</text></g><g style="stroke:#888888; font-family:Arial; font-size:6pt;"><line x1="1" y1="257.1428571428571" x2="700" y2="257.1428571428571" style="stroke:#aaaaaa;"/><text x="5" y="255.1428571428571">-10</text></g><g style="stroke:#888888; font-family:Arial; font-size:6pt;"><line x1="1" y1="228.57142857142856" x2="700" y2="228.57142857142856" style="stroke:#aaaaaa;"/><text x="5" y="226.57142857142856">0</text></g><g style="stroke:#888888; font-family:Arial; font-size:6pt;"><line x1="1" y1="199.99999999999997" x2="700" y2="199.99999999999997" style="stroke:#aaaaaa;"/><text x="5" y="197.99999999999997">10</text></g><g style="stroke:#888888; font-family:Arial; font-size:6pt;"><line x1="1" y1="171.42857142857142" x2="700" y2="171.42857142857142" style="stroke:#aaaaaa;"/><text x="5" y="169.42857142857142">20</text></g><g style="stroke:#888888; font-family:Arial; font-size:6pt;"><line x1="1" y1="142.85714285714283" x2="700" y2="142.85714285714283" style="stroke:#aaaaaa;"/><text x="5" y="140.85714285714283">30</text></g><g style="stroke:#888888; font-family:Arial; font-size:6pt;"><line x1="1" y1="114.28571428571426" x2="700" y2="114.28571428571426" style="stroke:#aaaaaa;"/><text x="5" y="112.28571428571426">40</text></g><g style="stroke:#888888; font-family:Arial; font-size:6pt;"><line x1="1" y1="85.7142857142857" x2="700" y2="85.7142857142857" style="stroke:#aaaaaa;"/><text x="5" y="83.7142857142857">50</text></g><g style="stroke:#888888; font-family:Arial; font-size:6pt;"><line x1="1" y1="57.14285714285711" x2="700" y2="57.14285714285711" style="stroke:#aaaaaa;"/><text x="5" y="55.14285714285711">60</text></g><g style="stroke:#888888; font-family:Arial; font-size:6pt;"><line x1="1" y1="28.571428571428555" x2="700" y2="28.571428571428555" style="stroke:#aaaaaa;"/><text x="5" y="26.571428571428555">70</text></g><g style="stroke:#888888; font-family:Arial; font-size:6pt;"><line x1="1" y1="-2.842170943040401E-14" x2="700" y2="-2.842170943040401E-14" style="stroke:#aaaaaa;"/><text x="5" y="-2.0000000000000284">80</text></g><text x="350" y="20" style="text-anchor:middle; font-size: 14pt;">Batting History - Jeff</text>
					
					<rect x="16.280701754385966" y="180" height="48.571428571428555" width="4.280701754385966" style="fill:#aaaaff;"/><rect x="28.56140350877193" y="119.99999999999999" height="108.57142857142857" width="4.280701754385966" style="fill:#aaaaff;"/><rect x="40.8421052631579" y="119.99999999999999" height="108.57142857142857" width="4.280701754385966" style="fill:#aaaaff;"/><rect x="53.12280701754386" y="145.7142857142857" height="82.85714285714286" width="4.280701754385966" style="fill:#aaaaff;"/><rect x="65.40350877192984" y="188.57142857142856" height="40" width="4.280701754385966" style="fill:#aaaaff;"/><rect x="77.6842105263158" y="91.42857142857142" height="137.14285714285714" width="4.280701754385966" style="fill:#aaaaff;"/><rect x="89.96491228070175" y="137.1428571428571" height="91.42857142857144" width="4.280701754385966" style="fill:#aaaaff;"/><rect x="102.24561403508773" y="157.1428571428571" height="71.42857142857144" width="4.280701754385966" style="fill:#aaaaff;"/><rect x="114.5263157894737" y="134.28571428571428" height="94.28571428571428" width="4.280701754385966" style="fill:#aaaaff;"/><rect x="126.80701754385966" y="119.99999999999999" height="108.57142857142857" width="4.280701754385966" style="fill:#aaaaff;"/><rect x="139.08771929824562" y="228.57142857142856" height="40" width="4.280701754385966" style="fill:#aaaaff;"/><rect x="151.3684210526316" y="154.28571428571428" height="74.28571428571428" width="4.280701754385966" style="fill:#aaaaff;"/><rect x="163.64912280701756" y="117.14285714285712" height="111.42857142857143" width="4.280701754385966" style="fill:#aaaaff;"/><rect x="175.9298245614035" y="79.99999999999997" height="148.57142857142858" width="4.280701754385966" style="fill:#aaaaff;"/><rect x="188.21052631578948" y="165.7142857142857" height="62.85714285714286" width="4.280701754385966" style="fill:#aaaaff;"/><rect x="200.49122807017545" y="157.1428571428571" height="71.42857142857144" width="4.280701754385966" style="fill:#aaaaff;"/><rect x="212.77192982456143" y="114.28571428571426" height="114.28571428571429" width="4.280701754385966" style="fill:#aaaaff;"/><rect x="225.0526315789474" y="77.14285714285711" height="151.42857142857144" width="4.280701754385966" style="fill:#aaaaff;"/><rect x="237.33333333333334" y="134.28571428571428" height="94.28571428571428" width="4.280701754385966" style="fill:#aaaaff;"/><rect x="249.61403508771932" y="162.85714285714283" height="65.71428571428572" width="4.280701754385966" style="fill:#aaaaff;"/><rect x="261.89473684210526" y="94.28571428571428" height="134.28571428571428" width="4.280701754385966" style="fill:#aaaaff;"/><rect x="274.17543859649123" y="137.1428571428571" height="91.42857142857144" width="4.280701754385966" style="fill:#aaaaff;"/><rect x="286.4561403508772" y="59.99999999999997" height="168.57142857142858" width="4.280701754385966" style="fill:#aaaaff;"/><rect x="298.7368421052632" y="148.57142857142856" height="80" width="4.280701754385966" style="fill:#aaaaff;"/><rect x="311.01754385964915" y="57.14285714285711" height="171.42857142857144" width="4.280701754385966" style="fill:#aaaaff;"/><rect x="323.2982456140351" y="14.285714285714278" height="214.28571428571428" width="4.280701754385966" style="fill:#aaaaff;"/><rect x="335.5789473684211" y="162.85714285714283" height="65.71428571428572" width="4.280701754385966" style="fill:#aaaaff;"/><rect x="347.859649122807" y="188.57142857142856" height="40" width="4.280701754385966" style="fill:#aaaaff;"/><rect x="360.140350877193" y="222.85714285714283" height="5.714285714285722" width="4.280701754385966" style="fill:#aaaaff;"/><rect x="372.42105263157896" y="219.99999999999997" height="8.571428571428584" width="4.280701754385966" style="fill:#aaaaff;"/><rect x="384.70175438596493" y="219.99999999999997" height="8.571428571428584" width="4.280701754385966" style="fill:#aaaaff;"/><rect x="396.9824561403509" y="182.85714285714283" height="45.71428571428572" width="4.280701754385966" style="fill:#aaaaff;"/><rect x="409.2631578947369" y="197.1428571428571" height="31.428571428571445" width="4.280701754385966" style="fill:#aaaaff;"/><rect x="421.54385964912285" y="111.42857142857142" height="117.14285714285714" width="4.280701754385966" style="fill:#aaaaff;"/><rect x="433.8245614035088" y="168.57142857142856" height="60" width="4.280701754385966" style="fill:#aaaaff;"/><rect x="446.1052631578948" y="128.57142857142856" height="100" width="4.280701754385966" style="fill:#aaaaff;"/><rect x="458.3859649122807" y="85.7142857142857" height="142.85714285714286" width="4.280701754385966" style="fill:#aaaaff;"/><rect x="470.6666666666667" y="114.28571428571426" height="114.28571428571429" width="4.280701754385966" style="fill:#aaaaff;"/><rect x="482.94736842105266" y="157.1428571428571" height="71.42857142857144" width="4.280701754385966" style="fill:#aaaaff;"/><rect x="495.22807017543863" y="185.7142857142857" height="42.85714285714286" width="4.280701754385966" style="fill:#aaaaff;"/><rect x="507.5087719298246" y="197.1428571428571" height="31.428571428571445" width="4.280701754385966" style="fill:#aaaaff;"/><rect x="519.7894736842105" y="185.7142857142857" height="42.85714285714286" width="4.280701754385966" style="fill:#aaaaff;"/><rect x="532.0701754385965" y="77.14285714285711" height="151.42857142857144" width="4.280701754385966" style="fill:#aaaaff;"/><rect x="544.3508771929825" y="228.57142857142856" height="11.428571428571416" width="4.280701754385966" style="fill:#aaaaff;"/><rect x="556.6315789473684" y="85.7142857142857" height="142.85714285714286" width="4.280701754385966" style="fill:#aaaaff;"/><rect x="568.9122807017544" y="79.99999999999997" height="148.57142857142858" width="4.280701754385966" style="fill:#aaaaff;"/><rect x="581.1929824561404" y="122.85714285714283" height="105.71428571428572" width="4.280701754385966" style="fill:#aaaaff;"/><rect x="593.4736842105264" y="131.42857142857142" height="97.14285714285714" width="4.280701754385966" style="fill:#aaaaff;"/><rect x="605.7543859649123" y="31.428571428571416" height="197.14285714285714" width="4.280701754385966" style="fill:#aaaaff;"/><rect x="618.0350877192983" y="57.14285714285711" height="171.42857142857144" width="4.280701754385966" style="fill:#aaaaff;"/><rect x="630.3157894736843" y="102.85714285714283" height="125.71428571428572" width="4.280701754385966" style="fill:#aaaaff;"/><rect x="642.5964912280702" y="157.1428571428571" height="71.42857142857144" width="4.280701754385966" style="fill:#aaaaff;"/><rect x="654.8771929824562" y="62.85714285714283" height="165.71428571428572" width="4.280701754385966" style="fill:#aaaaff;"/><rect x="667.1578947368422" y="88.57142857142856" height="140" width="4.280701754385966" style="fill:#aaaaff;"/><rect x="679.4385964912282" y="71.42857142857142" height="157.14285714285714" width="4.280701754385966" style="fill:#aaaaff;"/><rect x="691.719298245614" y="128.57142857142856" height="100" width="4.280701754385966" style="fill:#aaaaff;"/><rect x="12.280701754385966" y="228.57142857142856" height="2.857142857142861" width="4.280701754385966" style="fill:#0000aa;"/><text x="12.280701754385966" y="225.57142857142856">-1</text><rect x="24.56140350877193" y="160" height="68.57142857142856" width="4.280701754385966" style="fill:#0000aa;"/><text x="24.56140350877193" y="157">24</text><rect x="36.8421052631579" y="197.1428571428571" height="31.428571428571445" width="4.280701754385966" style="fill:#0000aa;"/><text x="36.8421052631579" y="194.1428571428571">11</text><rect x="49.12280701754386" y="182.85714285714283" height="45.71428571428572" width="4.280701754385966" style="fill:#0000aa;"/><text x="49.12280701754386" y="179.85714285714283">16</text><rect x="61.40350877192983" y="228.57142857142856" height="2.857142857142861" width="4.280701754385966" style="fill:#0000aa;"/><text x="61.40350877192983" y="225.57142857142856">-1</text><rect x="73.6842105263158" y="168.57142857142856" height="60" width="4.280701754385966" style="fill:#0000aa;"/><text x="73.6842105263158" y="165.57142857142856">21</text><rect x="85.96491228070175" y="194.28571428571428" height="34.28571428571428" width="4.280701754385966" style="fill:#0000aa;"/><text x="85.96491228070175" y="191.28571428571428">12</text><rect x="98.24561403508773" y="160" height="68.57142857142856" width="4.280701754385966" style="fill:#0000aa;"/><text x="98.24561403508773" y="157">24</text><rect x="110.5263157894737" y="191.42857142857142" height="37.14285714285714" width="4.280701754385966" style="fill:#0000aa;"/><text x="110.5263157894737" y="188.42857142857142">13</text><rect x="122.80701754385966" y="137.1428571428571" height="91.42857142857144" width="4.280701754385966" style="fill:#0000aa;"/><text x="122.80701754385966" y="134.1428571428571">32</text><rect x="135.08771929824562" y="228.57142857142856" height="68.57142857142856" width="4.280701754385966" style="fill:#0000aa;"/><text x="135.08771929824562" y="225.57142857142856">-24</text><rect x="147.3684210526316" y="185.7142857142857" height="42.85714285714286" width="4.280701754385966" style="fill:#0000aa;"/><text x="147.3684210526316" y="182.7142857142857">15</text><rect x="159.64912280701756" y="188.57142857142856" height="40" width="4.280701754385966" style="fill:#0000aa;"/><text x="159.64912280701756" y="185.57142857142856">14</text><rect x="171.9298245614035" y="145.7142857142857" height="82.85714285714286" width="4.280701754385966" style="fill:#0000aa;"/><text x="171.9298245614035" y="142.7142857142857">29</text><rect x="184.21052631578948" y="205.7142857142857" height="22.85714285714286" width="4.280701754385966" style="fill:#0000aa;"/><text x="184.21052631578948" y="202.7142857142857">8</text><rect x="196.49122807017545" y="199.99999999999997" height="28.571428571428584" width="4.280701754385966" style="fill:#0000aa;"/><text x="196.49122807017545" y="196.99999999999997">10</text><rect x="208.77192982456143" y="182.85714285714283" height="45.71428571428572" width="4.280701754385966" style="fill:#0000aa;"/><text x="208.77192982456143" y="179.85714285714283">16</text><rect x="221.0526315789474" y="154.28571428571428" height="74.28571428571428" width="4.280701754385966" style="fill:#0000aa;"/><text x="221.0526315789474" y="151.28571428571428">26</text><rect x="233.33333333333334" y="160" height="68.57142857142856" width="4.280701754385966" style="fill:#0000aa;"/><text x="233.33333333333334" y="157">24</text><rect x="245.61403508771932" y="188.57142857142856" height="40" width="4.280701754385966" style="fill:#0000aa;"/><text x="245.61403508771932" y="185.57142857142856">14</text><rect x="257.89473684210526" y="154.28571428571428" height="74.28571428571428" width="4.280701754385966" style="fill:#0000aa;"/><text x="257.89473684210526" y="151.28571428571428">26</text><rect x="270.17543859649123" y="142.85714285714283" height="85.71428571428572" width="4.280701754385966" style="fill:#0000aa;"/><text x="270.17543859649123" y="139.85714285714283">30</text><rect x="282.4561403508772" y="157.1428571428571" height="71.42857142857144" width="4.280701754385966" style="fill:#0000aa;"/><text x="282.4561403508772" y="154.1428571428571">25</text><rect x="294.7368421052632" y="185.7142857142857" height="42.85714285714286" width="4.280701754385966" style="fill:#0000aa;"/><text x="294.7368421052632" y="182.7142857142857">15</text><rect x="307.01754385964915" y="119.99999999999999" height="108.57142857142857" width="4.280701754385966" style="fill:#0000aa;"/><text x="307.01754385964915" y="116.99999999999999">38</text><rect x="319.2982456140351" y="108.57142857142856" height="120" width="4.280701754385966" style="fill:#0000aa;"/><text x="319.2982456140351" y="105.57142857142856">42</text><rect x="331.5789473684211" y="180" height="48.571428571428555" width="4.280701754385966" style="fill:#0000aa;"/><text x="331.5789473684211" y="177">17</text><rect x="343.859649122807" y="217.14285714285714" height="11.428571428571416" width="4.280701754385966" style="fill:#0000aa;"/><text x="343.859649122807" y="214.14285714285714">4</text><rect x="356.140350877193" y="199.99999999999997" height="28.571428571428584" width="4.280701754385966" style="fill:#0000aa;"/><text x="356.140350877193" y="196.99999999999997">10</text><rect x="368.42105263157896" y="214.28571428571428" height="14.285714285714278" width="4.280701754385966" style="fill:#0000aa;"/><text x="368.42105263157896" y="211.28571428571428">5</text><rect x="380.70175438596493" y="205.7142857142857" height="22.85714285714286" width="4.280701754385966" style="fill:#0000aa;"/><text x="380.70175438596493" y="202.7142857142857">8</text><rect x="392.9824561403509" y="211.42857142857142" height="17.14285714285714" width="4.280701754385966" style="fill:#0000aa;"/><text x="392.9824561403509" y="208.42857142857142">6</text><rect x="405.2631578947369" y="202.85714285714283" height="25.714285714285722" width="4.280701754385966" style="fill:#0000aa;"/><text x="405.2631578947369" y="199.85714285714283">9</text><rect x="417.54385964912285" y="165.7142857142857" height="62.85714285714286" width="4.280701754385966" style="fill:#0000aa;"/><text x="417.54385964912285" y="162.7142857142857">22</text><rect x="429.8245614035088" y="214.28571428571428" height="14.285714285714278" width="4.280701754385966" style="fill:#0000aa;"/><text x="429.8245614035088" y="211.28571428571428">5</text><rect x="442.1052631578948" y="188.57142857142856" height="40" width="4.280701754385966" style="fill:#0000aa;"/><text x="442.1052631578948" y="185.57142857142856">14</text><rect x="454.3859649122807" y="162.85714285714283" height="65.71428571428572" width="4.280701754385966" style="fill:#0000aa;"/><text x="454.3859649122807" y="159.85714285714283">23</text><rect x="466.6666666666667" y="145.7142857142857" height="82.85714285714286" width="4.280701754385966" style="fill:#0000aa;"/><text x="466.6666666666667" y="142.7142857142857">29</text><rect x="478.94736842105266" y="188.57142857142856" height="40" width="4.280701754385966" style="fill:#0000aa;"/><text x="478.94736842105266" y="185.57142857142856">14</text><rect x="491.22807017543863" y="228.57142857142856" height="22.85714285714286" width="4.280701754385966" style="fill:#0000aa;"/><text x="491.22807017543863" y="225.57142857142856">-8</text><rect x="503.5087719298246" y="219.99999999999997" height="8.571428571428584" width="4.280701754385966" style="fill:#0000aa;"/><text x="503.5087719298246" y="216.99999999999997">3</text><rect x="515.7894736842105" y="185.7142857142857" height="42.85714285714286" width="4.280701754385966" style="fill:#0000aa;"/><text x="515.7894736842105" y="182.7142857142857">15</text><rect x="528.0701754385965" y="114.28571428571426" height="114.28571428571429" width="4.280701754385966" style="fill:#0000aa;"/><text x="528.0701754385965" y="111.28571428571426">40</text><rect x="540.3508771929825" y="228.57142857142856" height="22.85714285714286" width="4.280701754385966" style="fill:#0000aa;"/><text x="540.3508771929825" y="225.57142857142856">-8</text><rect x="552.6315789473684" y="168.57142857142856" height="60" width="4.280701754385966" style="fill:#0000aa;"/><text x="552.6315789473684" y="165.57142857142856">21</text><rect x="564.9122807017544" y="151.42857142857142" height="77.14285714285714" width="4.280701754385966" style="fill:#0000aa;"/><text x="564.9122807017544" y="148.42857142857142">27</text><rect x="577.1929824561404" y="154.28571428571428" height="74.28571428571428" width="4.280701754385966" style="fill:#0000aa;"/><text x="577.1929824561404" y="151.28571428571428">26</text><rect x="589.4736842105264" y="180" height="48.571428571428555" width="4.280701754385966" style="fill:#0000aa;"/><text x="589.4736842105264" y="177">17</text><rect x="601.7543859649123" y="128.57142857142856" height="100" width="4.280701754385966" style="fill:#0000aa;"/><text x="601.7543859649123" y="125.57142857142856">35</text><rect x="614.0350877192983" y="114.28571428571426" height="114.28571428571429" width="4.280701754385966" style="fill:#0000aa;"/><text x="614.0350877192983" y="111.28571428571426">40</text><rect x="626.3157894736843" y="160" height="68.57142857142856" width="4.280701754385966" style="fill:#0000aa;"/><text x="626.3157894736843" y="157">24</text><rect x="638.5964912280702" y="185.7142857142857" height="42.85714285714286" width="4.280701754385966" style="fill:#0000aa;"/><text x="638.5964912280702" y="182.7142857142857">15</text><rect x="650.8771929824562" y="128.57142857142856" height="100" width="4.280701754385966" style="fill:#0000aa;"/><text x="650.8771929824562" y="125.57142857142856">35</text><rect x="663.1578947368422" y="137.1428571428571" height="91.42857142857144" width="4.280701754385966" style="fill:#0000aa;"/><text x="663.1578947368422" y="134.1428571428571">32</text><rect x="675.4385964912282" y="151.42857142857142" height="77.14285714285714" width="4.280701754385966" style="fill:#0000aa;"/><text x="675.4385964912282" y="148.42857142857142">27</text><rect x="687.719298245614" y="177.1428571428571" height="51.428571428571445" width="4.280701754385966" style="fill:#0000aa;"/><text x="687.719298245614" y="174.1428571428571">18</text>
					
					<path d="M14.421052631578949 180 L26.701754385964914 150 L38.98245614035088 140 L51.26315789473685 141.42857142857142 L63.54385964912281 150.85714285714283 L75.82456140350878 140.95238095238093 L88.10526315789474 140.4081632653061 L100.38596491228071 142.5 L112.66666666666669 141.58730158730157 L124.94736842105264 139.42857142857142 L137.2280701754386 151.16883116883116 L149.50877192982458 151.42857142857142 L161.78947368421055 148.79120879120876 L174.0701754385965 143.87755102040813 L186.35087719298247 145.33333333333331 L198.63157894736844 146.07142857142856 L210.9122807017544 144.20168067226888 L223.19298245614038 140.47619047619048 L235.47368421052633 140.1503759398496 L247.7543859649123 141.28571428571428 L260.03508771929825 139.04761904761904 L272.3157894736842 138.96103896103892 L284.5964912280702 135.527950310559 L296.87719298245617 136.07142857142856 L309.15789473684214 132.9142857142857 L321.4385964912281 128.35164835164832 L333.7192982456141 129.62962962962962 L346 131.734693877551 L358.280701754386 134.87684729064037 L370.56140350877195 137.7142857142857 L382.8421052631579 140.36866359447004 L395.1228070175439 141.69642857142856 L407.40350877192986 143.37662337662334 L419.68421052631584 142.43697478991595 L431.9649122807018 143.18367346938774 L444.2456140350878 142.77777777777777 L456.5263157894737 141.23552123552122 L468.8070175438597 140.52631578947367 L481.08771929824564 140.95238095238093 L493.3684210526316 142.07142857142856 L505.6491228070176 143.41463414634143 L517.9298245614035 144.42176870748295 L530.2105263157895 142.85714285714283 L542.4912280701755 145.06493506493504 L554.7719298245614 143.74603174603172 L567.0526315789474 142.36024844720495 L579.3333333333334 141.9452887537994 L591.6140350877193 141.72619047619048 L603.8947368421053 139.47521865889212 L616.1754385964913 137.82857142857142 L628.4561403508773 137.1428571428571 L640.7368421052632 137.52747252747253 L653.0175438596492 136.1185983827493 L665.2982456140352 135.23809523809524 L677.5789473684212 134.07792207792207 L689.859649122807 133.9795918367347 " style="fill:none; stroke:red; stroke-width:1"/><path d="M14.421052631578949 231.42857142857142 L26.701754385964914 195.7142857142857 L38.98245614035088 196.19047619047618 L51.26315789473685 192.85714285714283 L63.54385964912281 200.57142857142856 L75.82456140350878 195.2380952380952 L88.10526315789474 195.1020408163265 L100.38596491228071 190.7142857142857 L112.66666666666669 190.79365079365078 L124.94736842105264 185.42857142857142 L137.2280701754386 195.58441558441558 L149.50877192982458 194.76190476190476 L161.78947368421055 194.28571428571428 L174.0701754385965 190.81632653061223 L186.35087719298247 191.8095238095238 L198.63157894736844 192.32142857142856 L210.9122807017544 191.76470588235293 L223.19298245614038 189.68253968253967 L235.47368421052633 188.12030075187968 L247.7543859649123 188.1428571428571 L260.03508771929825 186.53061224489795 L272.3157894736842 184.54545454545453 L284.5964912280702 183.35403726708074 L296.87719298245617 183.45238095238093 L309.15789473684214 180.9142857142857 L321.4385964912281 178.13186813186812 L333.7192982456141 178.20105820105817 L346 179.59183673469386 L358.280701754386 180.29556650246303 L370.56140350877195 181.42857142857142 L382.8421052631579 182.21198156682027 L395.1228070175439 183.125 L407.40350877192986 183.7229437229437 L419.68421052631584 183.19327731092434 L431.9649122807018 184.0816326530612 L444.2456140350878 184.2063492063492 L456.5263157894737 183.62934362934362 L468.8070175438597 182.6315789473684 L481.08771929824564 182.78388278388277 L493.3684210526316 184.49999999999997 L505.6491228070176 185.36585365853657 L517.9298245614035 185.37414965986392 L530.2105263157895 183.72093023255812 L542.4912280701755 185.25974025974025 L554.7719298245614 184.88888888888886 L567.0526315789474 184.1614906832298 L579.3333333333334 183.5258358662614 L591.6140350877193 183.45238095238093 L603.8947368421053 182.33236151603495 L616.1754385964913 180.97142857142856 L628.4561403508773 180.56022408963582 L640.7368421052632 180.65934065934064 L653.0175438596492 179.6765498652291 L665.2982456140352 178.88888888888886 L677.5789473684212 178.38961038961037 L689.859649122807 178.36734693877548 " style="fill:none; stroke:red; stroke-width:1"/>
				</g>
			</svg>