<?xml version="1.0" encoding="UTF-8"?><svg xml:space="preserve" width="700" height="300">
				<desc>Batting History</desc>
				<g style="stroke:#000000; stroke-width:0.5; font-family:Arial; font-size:7pt;">
					<rect x="1" y="1" width="698" height="298" style="fill:#dddddd;"/><g style="stroke:#888888; font-family:Arial; font-size:6pt;"><line x1="1" y1="285.7142857142857" x2="700" y2="285.7142857142857" style="stroke:#aaaaaa;"/><text x="5" y="283.7142857142857">-20</text></g><g style="stroke:#888888; font-family:Arial; font-size:6pt;"><line x1="1" y1="257.1428571428571" x2="700" y2="257.1428571428571" style="stroke:#aaaaaa;"/><text x="5" y="255.1428571428571">-10</text></g><g style="stroke:#888888; font-family:Arial; font-size:6pt;"><line x1="1" y1="228.57142857142856" x2="700" y2="228.57142857142856" style="stroke:#aaaaaa;"/><text x="5" y="226.57142857142856">0</text></g><g style="stroke:#888888; font-family:Arial; font-size:6pt;"><line x1="1" y1="199.99999999999997" x2="700" y2="199.99999999999997" style="stroke:#aaaaaa;"/><text x="5" y="197.99999999999997">10</text></g><g style="stroke:#888888; font-family:Arial; font-size:6pt;"><line x1="1" y1="171.42857142857142" x2="700" y2="171.42857142857142" style="stroke:#aaaaaa;"/><text x="5" y="169.42857142857142">20</text></g><g style="stroke:#888888; font-family:Arial; font-size:6pt;"><line x1="1" y1="142.85714285714283" x2="700" y2="142.85714285714283" style="stroke:#aaaaaa;"/><text x="5" y="140.85714285714283">30</text></g><g style="stroke:#888888; font-family:Arial; font-size:6pt;"><line x1="1" y1="114.28571428571426" x2="700" y2="114.28571428571426" style="stroke:#aaaaaa;"/><text x="5" y="112.28571428571426">40</text></g><g style="stroke:#888888; font-family:Arial; font-size:6pt;"><line x1="1" y1="85.7142857142857" x2="700" y2="85.7142857142857" style="stroke:#aaaaaa;"/><text x="5" y="83.7142857142857">50</text></g><g style="stroke:#888888; font-family:Arial; font-size:6pt;"><line x1="1" y1="57.14285714285711" x2="700" y2="57.14285714285711" style="stroke:#aaaaaa;"/><text x="5" y="55.14285714285711">60</text></g><g style="stroke:#888888; font-family:Arial; font-size:6pt;"><line x1="1" y1="28.571428571428555" x2="700" y2="28.571428571428555" style="stroke:#aaaaaa;"/><text x="5" y="26.571428571428555">70</text></g><g style="stroke:#888888; font-family:Arial; font-size:6pt;"><line x1="1" y1="-2.842170943040401E-14" x2="700" y2="-2.842170943040401E-14" style="stroke:#aaaaaa;"/><text x="5" y="-2.0000000000000284">80</text></g><text x="350" y="20" style="text-anchor:middle; font-size: 14pt;">Batting History - Chuck</text>
					
					<rect x="34.434782608695656" y="228.57142857142856" height="17.14285714285714" width="22.434782608695652" style="fill:#aaaaff;"/><rect x="64.86956521739131" y="228.57142857142856" height="54.28571428571428" width="22.434782608695652" style="fill:#aaaaff;"/><rect x="95.30434782608695" y="185.7142857142857" height="42.85714285714286" width="22.434782608695652" style="fill:#aaaaff;"/><rect x="125.73913043478261" y="148.57142857142856" height="80" width="22.434782608695652" style="fill:#aaaaff;"/><rect x="156.17391304347825" y="157.1428571428571" height="71.42857142857144" width="22.434782608695652" style="fill:#aaaaff;"/><rect x="186.6086956521739" y="74.28571428571428" height="154.28571428571428" width="22.434782608695652" style="fill:#aaaaff;"/><rect x="217.04347826086956" y="182.85714285714283" height="45.71428571428572" width="22.434782608695652" style="fill:#aaaaff;"/><rect x="247.47826086956522" y="185.7142857142857" height="42.85714285714286" width="22.434782608695652" style="fill:#aaaaff;"/><rect x="277.9130434782609" y="102.85714285714283" height="125.71428571428572" width="22.434782608695652" style="fill:#aaaaff;"/><rect x="308.3478260869565" y="162.85714285714283" height="65.71428571428572" width="22.434782608695652" style="fill:#aaaaff;"/><rect x="338.7826086956522" y="85.7142857142857" height="142.85714285714286" width="22.434782608695652" style="fill:#aaaaff;"/><rect x="369.2173913043478" y="174.28571428571428" height="54.28571428571428" width="22.434782608695652" style="fill:#aaaaff;"/><rect x="399.6521739130435" y="79.99999999999997" height="148.57142857142858" width="22.434782608695652" style="fill:#aaaaff;"/><rect x="430.0869565217391" y="122.85714285714283" height="105.71428571428572" width="22.434782608695652" style="fill:#aaaaff;"/><rect x="460.5217391304348" y="131.42857142857142" height="97.14285714285714" width="22.434782608695652" style="fill:#aaaaff;"/><rect x="490.95652173913044" y="188.57142857142856" height="40" width="22.434782608695652" style="fill:#aaaaff;"/><rect x="521.3913043478261" y="157.1428571428571" height="71.42857142857144" width="22.434782608695652" style="fill:#aaaaff;"/><rect x="551.8260869565217" y="168.57142857142856" height="60" width="22.434782608695652" style="fill:#aaaaff;"/><rect x="582.2608695652174" y="160" height="68.57142857142856" width="22.434782608695652" style="fill:#aaaaff;"/><rect x="612.695652173913" y="160" height="68.57142857142856" width="22.434782608695652" style="fill:#aaaaff;"/><rect x="643.1304347826087" y="142.85714285714283" height="85.71428571428572" width="22.434782608695652" style="fill:#aaaaff;"/><rect x="673.5652173913044" y="180" height="48.571428571428555" width="22.434782608695652" style="fill:#aaaaff;"/><rect x="30.434782608695652" y="225.7142857142857" height="2.857142857142861" width="22.434782608695652" style="fill:#0000aa;"/><text x="30.434782608695652" y="222.7142857142857">1</text><rect x="60.869565217391305" y="228.57142857142856" height="62.85714285714289" width="22.434782608695652" style="fill:#0000aa;"/><text x="60.869565217391305" y="225.57142857142856">-22</text><rect x="91.30434782608695" y="199.99999999999997" height="28.571428571428584" width="22.434782608695652" style="fill:#0000aa;"/><text x="91.30434782608695" y="196.99999999999997">10</text><rect x="121.73913043478261" y="188.57142857142856" height="40" width="22.434782608695652" style="fill:#0000aa;"/><text x="121.73913043478261" y="185.57142857142856">14</text><rect x="152.17391304347825" y="197.1428571428571" height="31.428571428571445" width="22.434782608695652" style="fill:#0000aa;"/><text x="152.17391304347825" y="194.1428571428571">11</text><rect x="182.6086956521739" y="140" height="88.57142857142856" width="22.434782608695652" style="fill:#0000aa;"/><text x="182.6086956521739" y="137">31</text><rect x="213.04347826086956" y="217.14285714285714" height="11.428571428571416" width="22.434782608695652" style="fill:#0000aa;"/><text x="213.04347826086956" y="214.14285714285714">4</text><rect x="243.47826086956522" y="228.57142857142856" height="0" width="22.434782608695652" style="fill:#0000aa;"/><text x="243.47826086956522" y="225.57142857142856">0</text><rect x="273.9130434782609" y="160" height="68.57142857142856" width="22.434782608695652" style="fill:#0000aa;"/><text x="273.9130434782609" y="157">24</text><rect x="304.3478260869565" y="185.7142857142857" height="42.85714285714286" width="22.434782608695652" style="fill:#0000aa;"/><text x="304.3478260869565" y="182.7142857142857">15</text><rect x="334.7826086956522" y="145.7142857142857" height="82.85714285714286" width="22.434782608695652" style="fill:#0000aa;"/><text x="334.7826086956522" y="142.7142857142857">29</text><rect x="365.2173913043478" y="217.14285714285714" height="11.428571428571416" width="22.434782608695652" style="fill:#0000aa;"/><text x="365.2173913043478" y="214.14285714285714">4</text><rect x="395.6521739130435" y="157.1428571428571" height="71.42857142857144" width="22.434782608695652" style="fill:#0000aa;"/><text x="395.6521739130435" y="154.1428571428571">25</text><rect x="426.0869565217391" y="197.1428571428571" height="31.428571428571445" width="22.434782608695652" style="fill:#0000aa;"/><text x="426.0869565217391" y="194.1428571428571">11</text><rect x="456.5217391304348" y="180" height="48.571428571428555" width="22.434782608695652" style="fill:#0000aa;"/><text x="456.5217391304348" y="177">17</text><rect x="486.95652173913044" y="205.7142857142857" height="22.85714285714286" width="22.434782608695652" style="fill:#0000aa;"/><text x="486.95652173913044" y="202.7142857142857">8</text><rect x="517.3913043478261" y="171.42857142857142" height="57.14285714285714" width="22.434782608695652" style="fill:#0000aa;"/><text x="517.3913043478261" y="168.42857142857142">20</text><rect x="547.8260869565217" y="182.85714285714283" height="45.71428571428572" width="22.434782608695652" style="fill:#0000aa;"/><text x="547.8260869565217" y="179.85714285714283">16</text><rect x="578.2608695652174" y="185.7142857142857" height="42.85714285714286" width="22.434782608695652" style="fill:#0000aa;"/><text x="578.2608695652174" y="182.7142857142857">15</text><rect x="608.695652173913" y="199.99999999999997" height="28.571428571428584" width="22.434782608695652" style="fill:#0000aa;"/><text x="608.695652173913" y="196.99999999999997">10</text><rect x="639.1304347826087" y="228.57142857142856" height="5.714285714285722" width="22.434782608695652" style="fill:#0000aa;"/><text x="639.1304347826087" y="225.57142857142856">-2</text><rect x="669.5652173913044" y="191.42857142857142" height="37.14285714285714" width="22.434782608695652" style="fill:#0000aa;"/><text x="669.5652173913044" y="188.42857142857142">13</text>
					
					<path d="M41.65217391304348 245.7142857142857 L72.08695652173913 264.2857142857143 L102.52173913043478 238.09523809523807 L132.95652173913044 215.7142857142857 L163.39130434782606 204 L193.82608695652172 182.38095238095235 L224.26086956521738 182.44897959183672 L254.69565217391303 182.85714285714283 L285.1304347826087 173.96825396825395 L315.5652173913043 172.85714285714283 L346 164.93506493506493 L376.4347826086956 165.7142857142857 L406.8695652173913 159.12087912087912 L437.30434782608694 156.53061224489795 L467.7391304347826 154.85714285714283 L498.17391304347825 156.9642857142857 L528.608695652174 156.97478991596637 L559.0434782608696 157.6190476190476 L589.4782608695652 157.7443609022556 L619.9130434782609 157.85714285714283 L650.3478260869566 157.1428571428571 L680.7826086956522 158.18181818181816 " style="fill:none; stroke:red; stroke-width:1"/><path d="M41.65217391304348 225.7142857142857 L72.08695652173913 258.57142857142856 L102.52173913043478 239.04761904761904 L132.95652173913044 226.42857142857142 L163.39130434782606 220.57142857142856 L193.82608695652172 207.1428571428571 L224.26086956521738 208.57142857142856 L254.69565217391303 211.07142857142856 L285.1304347826087 205.3968253968254 L315.5652173913043 203.42857142857142 L346 198.18181818181816 L376.4347826086956 199.76190476190476 L406.8695652173913 196.48351648351647 L437.30434782608694 196.53061224489795 L467.7391304347826 195.42857142857142 L498.17391304347825 196.07142857142856 L528.608695652174 194.6218487394958 L559.0434782608696 193.96825396825395 L589.4782608695652 193.53383458646616 L619.9130434782609 193.85714285714283 L650.3478260869566 195.78231292517006 L680.7826086956522 195.58441558441558 " style="fill:none; stroke:red; stroke-width:1"/>
				</g>
			</svg>