<?xml version="1.0" encoding="UTF-8"?><svg xml:space="preserve" width="700" height="300">
				<desc>Batting History</desc>
				<g style="stroke:#000000; stroke-width:0.5; font-family:Arial; font-size:7pt;">
					<rect x="1" y="1" width="698" height="298" style="fill:#dddddd;"/><g style="stroke:#888888; font-family:Arial; font-size:6pt;"><line x1="1" y1="285.7142857142857" x2="700" y2="285.7142857142857" style="stroke:#aaaaaa;"/><text x="5" y="283.7142857142857">-20</text></g><g style="stroke:#888888; font-family:Arial; font-size:6pt;"><line x1="1" y1="257.1428571428571" x2="700" y2="257.1428571428571" style="stroke:#aaaaaa;"/><text x="5" y="255.1428571428571">-10</text></g><g style="stroke:#888888; font-family:Arial; font-size:6pt;"><line x1="1" y1="228.57142857142856" x2="700" y2="228.57142857142856" style="stroke:#aaaaaa;"/><text x="5" y="226.57142857142856">0</text></g><g style="stroke:#888888; font-family:Arial; font-size:6pt;"><line x1="1" y1="199.99999999999997" x2="700" y2="199.99999999999997" style="stroke:#aaaaaa;"/><text x="5" y="197.99999999999997">10</text></g><g style="stroke:#888888; font-family:Arial; font-size:6pt;"><line x1="1" y1="171.42857142857142" x2="700" y2="171.42857142857142" style="stroke:#aaaaaa;"/><text x="5" y="169.42857142857142">20</text></g><g style="stroke:#888888; font-family:Arial; font-size:6pt;"><line x1="1" y1="142.85714285714283" x2="700" y2="142.85714285714283" style="stroke:#aaaaaa;"/><text x="5" y="140.85714285714283">30</text></g><g style="stroke:#888888; font-family:Arial; font-size:6pt;"><line x1="1" y1="114.28571428571426" x2="700" y2="114.28571428571426" style="stroke:#aaaaaa;"/><text x="5" y="112.28571428571426">40</text></g><g style="stroke:#888888; font-family:Arial; font-size:6pt;"><line x1="1" y1="85.7142857142857" x2="700" y2="85.7142857142857" style="stroke:#aaaaaa;"/><text x="5" y="83.7142857142857">50</text></g><g style="stroke:#888888; font-family:Arial; font-size:6pt;"><line x1="1" y1="57.14285714285711" x2="700" y2="57.14285714285711" style="stroke:#aaaaaa;"/><text x="5" y="55.14285714285711">60</text></g><g style="stroke:#888888; font-family:Arial; font-size:6pt;"><line x1="1" y1="28.571428571428555" x2="700" y2="28.571428571428555" style="stroke:#aaaaaa;"/><text x="5" y="26.571428571428555">70</text></g><g style="stroke:#888888; font-family:Arial; font-size:6pt;"><line x1="1" y1="-2.842170943040401E-14" x2="700" y2="-2.842170943040401E-14" style="stroke:#aaaaaa;"/><text x="5" y="-2.0000000000000284">80</text></g><text x="350" y="20" style="text-anchor:middle; font-size: 14pt;">Batting History - Carlton</text>
					
					<rect x="67.63636363636363" y="174.28571428571428" height="54.28571428571428" width="55.63636363636363" style="fill:#aaaaff;"/><rect x="131.27272727272725" y="228.57142857142856" height="60" width="55.63636363636363" style="fill:#aaaaff;"/><rect x="194.9090909090909" y="165.7142857142857" height="62.85714285714286" width="55.63636363636363" style="fill:#aaaaff;"/><rect x="258.5454545454545" y="185.7142857142857" height="42.85714285714286" width="55.63636363636363" style="fill:#aaaaff;"/><rect x="322.1818181818182" y="197.1428571428571" height="31.428571428571445" width="55.63636363636363" style="fill:#aaaaff;"/><rect x="385.8181818181818" y="225.7142857142857" height="2.857142857142861" width="55.63636363636363" style="fill:#aaaaff;"/><rect x="449.45454545454544" y="185.7142857142857" height="42.85714285714286" width="55.63636363636363" style="fill:#aaaaff;"/><rect x="513.090909090909" y="182.85714285714283" height="45.71428571428572" width="55.63636363636363" style="fill:#aaaaff;"/><rect x="576.7272727272727" y="165.7142857142857" height="62.85714285714286" width="55.63636363636363" style="fill:#aaaaff;"/><rect x="640.3636363636364" y="228.57142857142856" height="5.714285714285722" width="55.63636363636363" style="fill:#aaaaff;"/><rect x="63.63636363636363" y="219.99999999999997" height="8.571428571428584" width="55.63636363636363" style="fill:#0000aa;"/><text x="63.63636363636363" y="216.99999999999997">3</text><rect x="127.27272727272727" y="228.57142857142856" height="60" width="55.63636363636363" style="fill:#0000aa;"/><text x="127.27272727272727" y="225.57142857142856">-21</text><rect x="190.9090909090909" y="197.1428571428571" height="31.428571428571445" width="55.63636363636363" style="fill:#0000aa;"/><text x="190.9090909090909" y="194.1428571428571">11</text><rect x="254.54545454545453" y="217.14285714285714" height="11.428571428571416" width="55.63636363636363" style="fill:#0000aa;"/><text x="254.54545454545453" y="214.14285714285714">4</text><rect x="318.1818181818182" y="217.14285714285714" height="11.428571428571416" width="55.63636363636363" style="fill:#0000aa;"/><text x="318.1818181818182" y="214.14285714285714">4</text><rect x="381.8181818181818" y="219.99999999999997" height="8.571428571428584" width="55.63636363636363" style="fill:#0000aa;"/><text x="381.8181818181818" y="216.99999999999997">3</text><rect x="445.45454545454544" y="185.7142857142857" height="42.85714285714286" width="55.63636363636363" style="fill:#0000aa;"/><text x="445.45454545454544" y="182.7142857142857">15</text><rect x="509.09090909090907" y="208.57142857142856" height="20" width="55.63636363636363" style="fill:#0000aa;"/><text x="509.09090909090907" y="205.57142857142856">7</text><rect x="572.7272727272727" y="225.7142857142857" height="2.857142857142861" width="55.63636363636363" style="fill:#0000aa;"/><text x="572.7272727272727" y="222.7142857142857">1</text><rect x="636.3636363636364" y="214.28571428571428" height="14.285714285714278" width="55.63636363636363" style="fill:#0000aa;"/><text x="636.3636363636364" y="211.28571428571428">5</text>
					
					<path d="M91.45454545454545 174.28571428571428 L155.0909090909091 231.42857142857142 L218.72727272727272 209.52380952380952 L282.3636363636364 203.57142857142856 L346 202.28571428571428 L409.6363636363636 206.19047619047618 L473.27272727272725 203.26530612244898 L536.9090909090909 200.7142857142857 L600.5454545454546 196.8253968253968 L664.1818181818182 200.57142857142856 " style="fill:none; stroke:red; stroke-width:1"/><path d="M91.45454545454545 219.99999999999997 L155.0909090909091 254.28571428571428 L218.72727272727272 235.2380952380952 L282.3636363636364 230.7142857142857 L346 227.99999999999997 L409.6363636363636 226.66666666666666 L473.27272727272725 220.81632653061223 L536.9090909090909 219.28571428571428 L600.5454545454546 219.99999999999997 L664.1818181818182 219.42857142857142 " style="fill:none; stroke:red; stroke-width:1"/>
				</g>
			</svg>