<?xml version="1.0" encoding="UTF-8"?><svg xml:space="preserve" width="700" height="300">
				<desc>Bowling History</desc>
				<g style="stroke:#000000; stroke-width:0.5; font-family:Arial; font-size:7pt;">
					<rect x="1" y="1" width="698" height="298" style="fill:#dddddd;"/><g style="stroke:#888888; font-family:Arial; font-size:6pt;"><line x1="1" y1="300" x2="700" y2="300" style="stroke:#aaaaaa;"/><text x="5" y="298">-25</text></g><g style="stroke:#888888; font-family:Arial; font-size:6pt;"><line x1="1" y1="270" x2="700" y2="270" style="stroke:#aaaaaa;"/><text x="5" y="268">-20</text></g><g style="stroke:#888888; font-family:Arial; font-size:6pt;"><line x1="1" y1="240" x2="700" y2="240" style="stroke:#aaaaaa;"/><text x="5" y="238">-15</text></g><g style="stroke:#888888; font-family:Arial; font-size:6pt;"><line x1="1" y1="210" x2="700" y2="210" style="stroke:#aaaaaa;"/><text x="5" y="208">-10</text></g><g style="stroke:#888888; font-family:Arial; font-size:6pt;"><line x1="1" y1="180" x2="700" y2="180" style="stroke:#aaaaaa;"/><text x="5" y="178">-5</text></g><g style="stroke:#888888; font-family:Arial; font-size:6pt;"><line x1="1" y1="150" x2="700" y2="150" style="stroke:#aaaaaa;"/><text x="5" y="148">0</text></g><g style="stroke:#888888; font-family:Arial; font-size:6pt;"><line x1="1" y1="120" x2="700" y2="120" style="stroke:#aaaaaa;"/><text x="5" y="118">5</text></g><g style="stroke:#888888; font-family:Arial; font-size:6pt;"><line x1="1" y1="90" x2="700" y2="90" style="stroke:#aaaaaa;"/><text x="5" y="88">10</text></g><g style="stroke:#888888; font-family:Arial; font-size:6pt;"><line x1="1" y1="60" x2="700" y2="60" style="stroke:#aaaaaa;"/><text x="5" y="58">15</text></g><g style="stroke:#888888; font-family:Arial; font-size:6pt;"><line x1="1" y1="30" x2="700" y2="30" style="stroke:#aaaaaa;"/><text x="5" y="28">20</text></g><g style="stroke:#888888; font-family:Arial; font-size:6pt;"><line x1="1" y1="0" x2="700" y2="0" style="stroke:#aaaaaa;"/><text x="5" y="-2">25</text></g><text x="350" y="20" style="text-anchor:middle; font-size: 14pt;">Bowling History - Neil (Snr)</text>
					
					<rect x="5.833333333333333" y="150" height="18" width="3.833333333333333" style="fill:#00007f;"/><rect x="11.666666666666666" y="120" height="30" width="3.833333333333333" style="fill:#00007f;"/><rect x="17.5" y="150" height="60" width="3.833333333333333" style="fill:#00007f;"/><rect x="23.333333333333332" y="60" height="90" width="3.833333333333333" style="fill:#00007f;"/><rect x="29.166666666666664" y="132" height="18" width="3.833333333333333" style="fill:#00007f;"/><rect x="35" y="102" height="48" width="3.833333333333333" style="fill:#00007f;"/><rect x="40.83333333333333" y="150" height="24" width="3.833333333333333" style="fill:#00007f;"/><rect x="46.666666666666664" y="90" height="60" width="3.833333333333333" style="fill:#00007f;"/><rect x="52.5" y="96" height="54" width="3.833333333333333" style="fill:#00007f;"/><rect x="58.33333333333333" y="144" height="6" width="3.833333333333333" style="fill:#00007f;"/><rect x="64.16666666666666" y="150" height="36" width="3.833333333333333" style="fill:#00007f;"/><rect x="70" y="60" height="90" width="3.833333333333333" style="fill:#00007f;"/><rect x="75.83333333333333" y="102" height="48" width="3.833333333333333" style="fill:#00007f;"/><rect x="81.66666666666666" y="90" height="60" width="3.833333333333333" style="fill:#00007f;"/><rect x="87.5" y="60" height="90" width="3.833333333333333" style="fill:#00007f;"/><rect x="93.33333333333333" y="150" height="0" width="3.833333333333333" style="fill:#00007f;"/><rect x="99.16666666666666" y="120" height="30" width="3.833333333333333" style="fill:#00007f;"/><rect x="105" y="102" height="48" width="3.833333333333333" style="fill:#00007f;"/><rect x="110.83333333333333" y="102" height="48" width="3.833333333333333" style="fill:#00007f;"/><rect x="116.66666666666666" y="84" height="66" width="3.833333333333333" style="fill:#00007f;"/><rect x="122.5" y="150" height="24" width="3.833333333333333" style="fill:#00007f;"/><rect x="128.33333333333331" y="126" height="24" width="3.833333333333333" style="fill:#00007f;"/><rect x="134.16666666666666" y="144" height="6" width="3.833333333333333" style="fill:#00007f;"/><rect x="140" y="108" height="42" width="3.833333333333333" style="fill:#00007f;"/><rect x="145.83333333333331" y="12" height="138" width="3.833333333333333" style="fill:#00007f;"/><rect x="151.66666666666666" y="102" height="48" width="3.833333333333333" style="fill:#00007f;"/><rect x="157.5" y="150" height="18" width="3.833333333333333" style="fill:#00007f;"/><rect x="163.33333333333331" y="150" height="0" width="3.833333333333333" style="fill:#00007f;"/><rect x="169.16666666666666" y="102" height="48" width="3.833333333333333" style="fill:#00007f;"/><rect x="175" y="84" height="66" width="3.833333333333333" style="fill:#00007f;"/><rect x="180.83333333333331" y="66" height="84" width="3.833333333333333" style="fill:#00007f;"/><rect x="186.66666666666666" y="132" height="18" width="3.833333333333333" style="fill:#00007f;"/><rect x="192.5" y="144" height="6" width="3.833333333333333" style="fill:#00007f;"/><rect x="198.33333333333331" y="132" height="18" width="3.833333333333333" style="fill:#00007f;"/><rect x="204.16666666666666" y="150" height="66" width="3.833333333333333" style="fill:#00007f;"/><rect x="210" y="150" height="0" width="3.833333333333333" style="fill:#00007f;"/><rect x="215.83333333333331" y="144" height="6" width="3.833333333333333" style="fill:#00007f;"/><rect x="221.66666666666666" y="126" height="24" width="3.833333333333333" style="fill:#00007f;"/><rect x="227.5" y="150" height="42" width="3.833333333333333" style="fill:#00007f;"/><rect x="233.33333333333331" y="144" height="6" width="3.833333333333333" style="fill:#00007f;"/><rect x="239.16666666666666" y="150" height="18" width="3.833333333333333" style="fill:#00007f;"/><rect x="245" y="84" height="66" width="3.833333333333333" style="fill:#00007f;"/><rect x="250.83333333333331" y="102" height="48" width="3.833333333333333" style="fill:#00007f;"/><rect x="256.66666666666663" y="150" height="84" width="3.833333333333333" style="fill:#00007f;"/><rect x="262.5" y="90" height="60" width="3.833333333333333" style="fill:#00007f;"/><rect x="268.3333333333333" y="150" height="36" width="3.833333333333333" style="fill:#00007f;"/><rect x="274.16666666666663" y="84" height="66" width="3.833333333333333" style="fill:#00007f;"/><rect x="280" y="150" height="6" width="3.833333333333333" style="fill:#00007f;"/><rect x="285.8333333333333" y="108" height="42" width="3.833333333333333" style="fill:#00007f;"/><rect x="291.66666666666663" y="150" height="24" width="3.833333333333333" style="fill:#00007f;"/><rect x="297.5" y="132" height="18" width="3.833333333333333" style="fill:#00007f;"/><rect x="303.3333333333333" y="138" height="12" width="3.833333333333333" style="fill:#00007f;"/><rect x="309.16666666666663" y="120" height="30" width="3.833333333333333" style="fill:#00007f;"/><rect x="315" y="150" height="24" width="3.833333333333333" style="fill:#00007f;"/><rect x="320.8333333333333" y="78" height="72" width="3.833333333333333" style="fill:#00007f;"/><rect x="326.66666666666663" y="66" height="84" width="3.833333333333333" style="fill:#00007f;"/><rect x="332.5" y="108" height="42" width="3.833333333333333" style="fill:#00007f;"/><rect x="338.3333333333333" y="90" height="60" width="3.833333333333333" style="fill:#00007f;"/><rect x="344.16666666666663" y="132" height="18" width="3.833333333333333" style="fill:#00007f;"/><rect x="350" y="96" height="54" width="3.833333333333333" style="fill:#00007f;"/><rect x="355.8333333333333" y="150" height="0" width="3.833333333333333" style="fill:#00007f;"/><rect x="361.66666666666663" y="132" height="18" width="3.833333333333333" style="fill:#00007f;"/><rect x="367.5" y="96" height="54" width="3.833333333333333" style="fill:#00007f;"/><rect x="373.3333333333333" y="150" height="0" width="3.833333333333333" style="fill:#00007f;"/><rect x="379.16666666666663" y="150" height="48" width="3.833333333333333" style="fill:#00007f;"/><rect x="385" y="66" height="84" width="3.833333333333333" style="fill:#00007f;"/><rect x="390.8333333333333" y="150" height="36" width="3.833333333333333" style="fill:#00007f;"/><rect x="396.66666666666663" y="132" height="18" width="3.833333333333333" style="fill:#00007f;"/><rect x="402.5" y="108" height="42" width="3.833333333333333" style="fill:#00007f;"/><rect x="408.3333333333333" y="150" height="72" width="3.833333333333333" style="fill:#00007f;"/><rect x="414.16666666666663" y="150" height="6" width="3.833333333333333" style="fill:#00007f;"/><rect x="420" y="108" height="42" width="3.833333333333333" style="fill:#00007f;"/><rect x="425.8333333333333" y="108" height="42" width="3.833333333333333" style="fill:#00007f;"/><rect x="431.66666666666663" y="138" height="12" width="3.833333333333333" style="fill:#00007f;"/><rect x="437.5" y="90" height="60" width="3.833333333333333" style="fill:#00007f;"/><rect x="443.3333333333333" y="126" height="24" width="3.833333333333333" style="fill:#00007f;"/><rect x="449.16666666666663" y="150" height="0" width="3.833333333333333" style="fill:#00007f;"/><rect x="455" y="150" height="30" width="3.833333333333333" style="fill:#00007f;"/><rect x="460.8333333333333" y="60" height="90" width="3.833333333333333" style="fill:#00007f;"/><rect x="466.66666666666663" y="90" height="60" width="3.833333333333333" style="fill:#00007f;"/><rect x="472.5" y="126" height="24" width="3.833333333333333" style="fill:#00007f;"/><rect x="478.3333333333333" y="90" height="60" width="3.833333333333333" style="fill:#00007f;"/><rect x="484.16666666666663" y="120" height="30" width="3.833333333333333" style="fill:#00007f;"/><rect x="490" y="96" height="54" width="3.833333333333333" style="fill:#00007f;"/><rect x="495.8333333333333" y="138" height="12" width="3.833333333333333" style="fill:#00007f;"/><rect x="501.66666666666663" y="126" height="24" width="3.833333333333333" style="fill:#00007f;"/><rect x="507.5" y="78" height="72" width="3.833333333333333" style="fill:#00007f;"/><rect x="513.3333333333333" y="108" height="42" width="3.833333333333333" style="fill:#00007f;"/><rect x="519.1666666666666" y="150" height="42" width="3.833333333333333" style="fill:#00007f;"/><rect x="525" y="144" height="6" width="3.833333333333333" style="fill:#00007f;"/><rect x="530.8333333333333" y="66" height="84" width="3.833333333333333" style="fill:#00007f;"/><rect x="536.6666666666666" y="84" height="66" width="3.833333333333333" style="fill:#00007f;"/><rect x="542.5" y="150" height="6" width="3.833333333333333" style="fill:#00007f;"/><rect x="548.3333333333333" y="138" height="12" width="3.833333333333333" style="fill:#00007f;"/><rect x="554.1666666666666" y="138" height="12" width="3.833333333333333" style="fill:#00007f;"/><rect x="560" y="60" height="90" width="3.833333333333333" style="fill:#00007f;"/><rect x="565.8333333333333" y="150" height="18" width="3.833333333333333" style="fill:#00007f;"/><rect x="571.6666666666666" y="120" height="30" width="3.833333333333333" style="fill:#00007f;"/><rect x="577.5" y="150" height="30" width="3.833333333333333" style="fill:#00007f;"/><rect x="583.3333333333333" y="114" height="36" width="3.833333333333333" style="fill:#00007f;"/><rect x="589.1666666666666" y="150" height="96" width="3.833333333333333" style="fill:#00007f;"/><rect x="595" y="150" height="60" width="3.833333333333333" style="fill:#00007f;"/><rect x="600.8333333333333" y="144" height="6" width="3.833333333333333" style="fill:#00007f;"/><rect x="606.6666666666666" y="144" height="6" width="3.833333333333333" style="fill:#00007f;"/><rect x="612.5" y="72" height="78" width="3.833333333333333" style="fill:#00007f;"/><rect x="618.3333333333333" y="90" height="60" width="3.833333333333333" style="fill:#00007f;"/><rect x="624.1666666666666" y="84" height="66" width="3.833333333333333" style="fill:#00007f;"/><rect x="630" y="120" height="30" width="3.833333333333333" style="fill:#00007f;"/><rect x="635.8333333333333" y="108" height="42" width="3.833333333333333" style="fill:#00007f;"/><rect x="641.6666666666666" y="72" height="78" width="3.833333333333333" style="fill:#00007f;"/><rect x="647.5" y="144" height="6" width="3.833333333333333" style="fill:#00007f;"/><rect x="653.3333333333333" y="144" height="6" width="3.833333333333333" style="fill:#00007f;"/><rect x="659.1666666666666" y="144" height="6" width="3.833333333333333" style="fill:#00007f;"/><rect x="665" y="102" height="48" width="3.833333333333333" style="fill:#00007f;"/><rect x="670.8333333333333" y="150" height="12" width="3.833333333333333" style="fill:#00007f;"/><rect x="676.6666666666666" y="138" height="12" width="3.833333333333333" style="fill:#00007f;"/><rect x="682.5" y="150" height="12" width="3.833333333333333" style="fill:#00007f;"/><rect x="688.3333333333333" y="114" height="36" width="3.833333333333333" style="fill:#00007f;"/><rect x="694.1666666666666" y="114" height="36" width="3.833333333333333" style="fill:#00007f;"/>
					
					<path d="M7.75 168 L13.583333333333332 144 L19.416666666666668 166 L25.25 139.5 L31.083333333333332 138 L36.916666666666664 132 L42.74999999999999 138 L48.58333333333333 132 L54.416666666666664 128 L60.24999999999999 129.6 L66.08333333333333 134.72727272727272 L71.91666666666667 128.5 L77.75 126.46153846153847 L83.58333333333333 123.85714285714286 L89.41666666666667 119.6 L95.25 121.5 L101.08333333333333 121.41176470588235 L106.91666666666667 120.33333333333333 L112.75 119.36842105263158 L118.58333333333333 117.6 L124.41666666666667 120.28571428571428 L130.24999999999997 120.54545454545455 L136.08333333333331 121.56521739130434 L141.91666666666666 121 L147.74999999999997 116.64 L153.58333333333331 116.07692307692307 L159.41666666666666 118 L165.24999999999997 119.14285714285714 L171.08333333333331 118.55172413793103 L176.91666666666666 117.4 L182.74999999999997 115.74193548387098 L188.58333333333331 116.25 L194.41666666666666 117.0909090909091 L200.24999999999997 117.52941176470588 L206.08333333333331 120.34285714285714 L211.91666666666666 121.16666666666667 L217.74999999999997 121.78378378378378 L223.58333333333331 121.89473684210526 L229.41666666666666 123.6923076923077 L235.24999999999997 124.2 L241.08333333333331 125.26829268292683 L246.91666666666666 124.28571428571428 L252.74999999999997 123.76744186046511 L258.5833333333333 126.27272727272728 L264.4166666666667 125.46666666666667 L270.25 126.78260869565217 L276.0833333333333 125.87234042553192 L281.9166666666667 126.5 L287.75 126.12244897959184 L293.5833333333333 127.08 L299.4166666666667 127.1764705882353 L305.25 127.38461538461539 L311.0833333333333 127.24528301886792 L316.9166666666667 128.11111111111111 L322.75 127.2 L328.5833333333333 126.10714285714286 L334.4166666666667 125.78947368421052 L340.25 125.17241379310344 L346.0833333333333 125.28813559322035 L351.9166666666667 124.8 L357.75 125.21311475409836 L363.5833333333333 125.32258064516128 L369.4166666666667 124.85714285714286 L375.25 125.25 L381.0833333333333 126.36923076923077 L386.9166666666667 125.45454545454545 L392.75 126.35820895522389 L398.5833333333333 126.44117647058823 L404.4166666666667 126.17391304347827 L410.25 127.54285714285714 L416.0833333333333 127.94366197183098 L421.9166666666667 127.66666666666666 L427.75 127.3972602739726 L433.5833333333333 127.54054054054055 L439.4166666666667 127.03999999999999 L445.25 127.02631578947368 L451.0833333333333 127.32467532467533 L456.9166666666667 128 L462.75 127.13924050632912 L468.5833333333333 126.675 L474.4166666666667 126.66666666666667 L480.25 126.21951219512195 L486.0833333333333 126.144578313253 L491.9166666666667 125.78571428571428 L497.75 125.92941176470589 L503.5833333333333 125.93023255813954 L509.4166666666667 125.37931034482759 L515.2499999999999 125.18181818181819 L521.0833333333333 125.93258426966293 L526.9166666666666 126.13333333333333 L532.7499999999999 125.47252747252747 L538.5833333333333 125.02173913043478 L544.4166666666666 125.35483870967742 L550.2499999999999 125.48936170212767 L556.0833333333333 125.62105263157895 L561.9166666666666 124.9375 L567.7499999999999 125.38144329896907 L573.5833333333333 125.3265306122449 L579.4166666666666 125.87878787878788 L585.2499999999999 125.75999999999999 L591.0833333333333 126.95049504950495 L596.9166666666666 127.76470588235294 L602.7499999999999 127.92233009708738 L608.5833333333333 128.07692307692307 L614.4166666666666 127.54285714285714 L620.2499999999999 127.18867924528303 L626.0833333333333 126.78504672897196 L631.9166666666666 126.72222222222223 L637.7499999999999 126.55045871559633 L643.5833333333333 126.05454545454546 L649.4166666666666 126.21621621621622 L655.2499999999999 126.375 L661.0833333333333 126.53097345132744 L666.9166666666666 126.31578947368422 L672.7499999999999 126.62608695652173 L678.5833333333333 126.72413793103448 L684.4166666666666 127.02564102564102 L690.2499999999999 126.91525423728814 L696.0833333333333 126.80672268907563 " style="fill:none; stroke:red; stroke-width:1"/>
				</g>
			</svg>