<?xml version="1.0" encoding="UTF-8"?><svg xml:space="preserve" width="700" height="300">
				<desc>Bowling History</desc>
				<g style="stroke:#000000; stroke-width:0.5; font-family:Arial; font-size:7pt;">
					<rect x="1" y="1" width="698" height="298" style="fill:#dddddd;"/><g style="stroke:#888888; font-family:Arial; font-size:6pt;"><line x1="1" y1="300" x2="700" y2="300" style="stroke:#aaaaaa;"/><text x="5" y="298">-25</text></g><g style="stroke:#888888; font-family:Arial; font-size:6pt;"><line x1="1" y1="270" x2="700" y2="270" style="stroke:#aaaaaa;"/><text x="5" y="268">-20</text></g><g style="stroke:#888888; font-family:Arial; font-size:6pt;"><line x1="1" y1="240" x2="700" y2="240" style="stroke:#aaaaaa;"/><text x="5" y="238">-15</text></g><g style="stroke:#888888; font-family:Arial; font-size:6pt;"><line x1="1" y1="210" x2="700" y2="210" style="stroke:#aaaaaa;"/><text x="5" y="208">-10</text></g><g style="stroke:#888888; font-family:Arial; font-size:6pt;"><line x1="1" y1="180" x2="700" y2="180" style="stroke:#aaaaaa;"/><text x="5" y="178">-5</text></g><g style="stroke:#888888; font-family:Arial; font-size:6pt;"><line x1="1" y1="150" x2="700" y2="150" style="stroke:#aaaaaa;"/><text x="5" y="148">0</text></g><g style="stroke:#888888; font-family:Arial; font-size:6pt;"><line x1="1" y1="120" x2="700" y2="120" style="stroke:#aaaaaa;"/><text x="5" y="118">5</text></g><g style="stroke:#888888; font-family:Arial; font-size:6pt;"><line x1="1" y1="90" x2="700" y2="90" style="stroke:#aaaaaa;"/><text x="5" y="88">10</text></g><g style="stroke:#888888; font-family:Arial; font-size:6pt;"><line x1="1" y1="60" x2="700" y2="60" style="stroke:#aaaaaa;"/><text x="5" y="58">15</text></g><g style="stroke:#888888; font-family:Arial; font-size:6pt;"><line x1="1" y1="30" x2="700" y2="30" style="stroke:#aaaaaa;"/><text x="5" y="28">20</text></g><g style="stroke:#888888; font-family:Arial; font-size:6pt;"><line x1="1" y1="0" x2="700" y2="0" style="stroke:#aaaaaa;"/><text x="5" y="-2">25</text></g><text x="350" y="20" style="text-anchor:middle; font-size: 14pt;">Bowling History - Dr Nick</text>
					
					<rect x="12.727272727272727" y="144" height="6" width="10.727272727272727" style="fill:#00007f;"/><rect x="25.454545454545453" y="72" height="78" width="10.727272727272727" style="fill:#00007f;"/><rect x="38.18181818181818" y="150" height="6" width="10.727272727272727" style="fill:#00007f;"/><rect x="50.90909090909091" y="150" height="30" width="10.727272727272727" style="fill:#00007f;"/><rect x="63.63636363636363" y="144" height="6" width="10.727272727272727" style="fill:#00007f;"/><rect x="76.36363636363636" y="78" height="72" width="10.727272727272727" style="fill:#00007f;"/><rect x="89.0909090909091" y="102" height="48" width="10.727272727272727" style="fill:#00007f;"/><rect x="101.81818181818181" y="150" height="12" width="10.727272727272727" style="fill:#00007f;"/><rect x="114.54545454545453" y="150" height="24" width="10.727272727272727" style="fill:#00007f;"/><rect x="127.27272727272727" y="150" height="6" width="10.727272727272727" style="fill:#00007f;"/><rect x="140" y="126" height="24" width="10.727272727272727" style="fill:#00007f;"/><rect x="152.72727272727272" y="150" height="42" width="10.727272727272727" style="fill:#00007f;"/><rect x="165.45454545454544" y="108" height="42" width="10.727272727272727" style="fill:#00007f;"/><rect x="178.1818181818182" y="150" height="6" width="10.727272727272727" style="fill:#00007f;"/><rect x="190.9090909090909" y="66" height="84" width="10.727272727272727" style="fill:#00007f;"/><rect x="203.63636363636363" y="108" height="42" width="10.727272727272727" style="fill:#00007f;"/><rect x="216.36363636363635" y="54" height="96" width="10.727272727272727" style="fill:#00007f;"/><rect x="229.09090909090907" y="150" height="18" width="10.727272727272727" style="fill:#00007f;"/><rect x="241.8181818181818" y="150" height="0" width="10.727272727272727" style="fill:#00007f;"/><rect x="254.54545454545453" y="84" height="66" width="10.727272727272727" style="fill:#00007f;"/><rect x="267.27272727272725" y="78" height="72" width="10.727272727272727" style="fill:#00007f;"/><rect x="280" y="102" height="48" width="10.727272727272727" style="fill:#00007f;"/><rect x="292.7272727272727" y="108" height="42" width="10.727272727272727" style="fill:#00007f;"/><rect x="305.45454545454544" y="132" height="18" width="10.727272727272727" style="fill:#00007f;"/><rect x="318.1818181818182" y="132" height="18" width="10.727272727272727" style="fill:#00007f;"/><rect x="330.9090909090909" y="138" height="12" width="10.727272727272727" style="fill:#00007f;"/><rect x="343.6363636363636" y="120" height="30" width="10.727272727272727" style="fill:#00007f;"/><rect x="356.3636363636364" y="78" height="72" width="10.727272727272727" style="fill:#00007f;"/><rect x="369.09090909090907" y="78" height="72" width="10.727272727272727" style="fill:#00007f;"/><rect x="381.8181818181818" y="126" height="24" width="10.727272727272727" style="fill:#00007f;"/><rect x="394.5454545454545" y="54" height="96" width="10.727272727272727" style="fill:#00007f;"/><rect x="407.27272727272725" y="150" height="36" width="10.727272727272727" style="fill:#00007f;"/><rect x="420" y="132" height="18" width="10.727272727272727" style="fill:#00007f;"/><rect x="432.7272727272727" y="150" height="12" width="10.727272727272727" style="fill:#00007f;"/><rect x="445.45454545454544" y="132" height="18" width="10.727272727272727" style="fill:#00007f;"/><rect x="458.18181818181813" y="132" height="18" width="10.727272727272727" style="fill:#00007f;"/><rect x="470.9090909090909" y="120" height="30" width="10.727272727272727" style="fill:#00007f;"/><rect x="483.6363636363636" y="102" height="48" width="10.727272727272727" style="fill:#00007f;"/><rect x="496.3636363636363" y="108" height="42" width="10.727272727272727" style="fill:#00007f;"/><rect x="509.09090909090907" y="120" height="30" width="10.727272727272727" style="fill:#00007f;"/><rect x="521.8181818181818" y="144" height="6" width="10.727272727272727" style="fill:#00007f;"/><rect x="534.5454545454545" y="150" height="30" width="10.727272727272727" style="fill:#00007f;"/><rect x="547.2727272727273" y="132" height="18" width="10.727272727272727" style="fill:#00007f;"/><rect x="560" y="60" height="90" width="10.727272727272727" style="fill:#00007f;"/><rect x="572.7272727272727" y="150" height="30" width="10.727272727272727" style="fill:#00007f;"/><rect x="585.4545454545454" y="84" height="66" width="10.727272727272727" style="fill:#00007f;"/><rect x="598.1818181818181" y="132" height="18" width="10.727272727272727" style="fill:#00007f;"/><rect x="610.9090909090909" y="90" height="60" width="10.727272727272727" style="fill:#00007f;"/><rect x="623.6363636363636" y="126" height="24" width="10.727272727272727" style="fill:#00007f;"/><rect x="636.3636363636364" y="120" height="30" width="10.727272727272727" style="fill:#00007f;"/><rect x="649.090909090909" y="102" height="48" width="10.727272727272727" style="fill:#00007f;"/><rect x="661.8181818181818" y="150" height="24" width="10.727272727272727" style="fill:#00007f;"/><rect x="674.5454545454545" y="150" height="24" width="10.727272727272727" style="fill:#00007f;"/><rect x="687.2727272727273" y="90" height="60" width="10.727272727272727" style="fill:#00007f;"/>
					
					<path d="M18.09090909090909 144 L30.818181818181817 108 L43.54545454545455 124 L56.272727272727266 138 L69 139.2 L81.72727272727272 129 L94.45454545454545 125.14285714285714 L107.18181818181817 129.75 L119.90909090909089 134.66666666666666 L132.63636363636363 136.8 L145.36363636363637 135.8181818181818 L158.0909090909091 140.5 L170.8181818181818 138 L183.54545454545456 139.28571428571428 L196.27272727272728 134.4 L209 132.75 L221.72727272727272 128.11764705882354 L234.45454545454544 130.33333333333334 L247.1818181818182 131.3684210526316 L259.9090909090909 129 L272.6363636363636 126.57142857142857 L285.3636363636364 125.45454545454545 L298.09090909090907 124.69565217391305 L310.8181818181818 125 L323.54545454545456 125.28 L336.27272727272725 125.76923076923077 L349 125.55555555555556 L361.72727272727275 123.85714285714286 L374.45454545454544 122.27586206896552 L387.1818181818182 122.4 L399.9090909090909 120.19354838709677 L412.6363636363636 122.25 L425.3636363636364 122.54545454545455 L438.09090909090907 123.70588235294117 L450.8181818181818 123.94285714285715 L463.5454545454545 124.16666666666667 L476.27272727272725 124.05405405405405 L489 123.47368421052632 L501.7272727272727 123.07692307692308 L514.4545454545454 123 L527.1818181818181 123.51219512195121 L539.9090909090909 124.85714285714286 L552.6363636363636 125.02325581395348 L565.3636363636364 123.54545454545455 L578.0909090909091 124.8 L590.8181818181818 123.91304347826087 L603.5454545454545 124.08510638297872 L616.2727272727273 123.375 L629 123.42857142857143 L641.7272727272727 123.36 L654.4545454545454 122.94117647058823 L667.1818181818181 123.92307692307693 L679.9090909090909 124.86792452830188 L692.6363636363636 124.22222222222223 " style="fill:none; stroke:red; stroke-width:1"/>
				</g>
			</svg>