<?xml version="1.0" encoding="UTF-8"?><svg xml:space="preserve" width="700" height="300">
				<desc>Bowling History</desc>
				<g style="stroke:#000000; stroke-width:0.5; font-family:Arial; font-size:7pt;">
					<rect x="1" y="1" width="698" height="298" style="fill:#dddddd;"/><g style="stroke:#888888; font-family:Arial; font-size:6pt;"><line x1="1" y1="300" x2="700" y2="300" style="stroke:#aaaaaa;"/><text x="5" y="298">-25</text></g><g style="stroke:#888888; font-family:Arial; font-size:6pt;"><line x1="1" y1="270" x2="700" y2="270" style="stroke:#aaaaaa;"/><text x="5" y="268">-20</text></g><g style="stroke:#888888; font-family:Arial; font-size:6pt;"><line x1="1" y1="240" x2="700" y2="240" style="stroke:#aaaaaa;"/><text x="5" y="238">-15</text></g><g style="stroke:#888888; font-family:Arial; font-size:6pt;"><line x1="1" y1="210" x2="700" y2="210" style="stroke:#aaaaaa;"/><text x="5" y="208">-10</text></g><g style="stroke:#888888; font-family:Arial; font-size:6pt;"><line x1="1" y1="180" x2="700" y2="180" style="stroke:#aaaaaa;"/><text x="5" y="178">-5</text></g><g style="stroke:#888888; font-family:Arial; font-size:6pt;"><line x1="1" y1="150" x2="700" y2="150" style="stroke:#aaaaaa;"/><text x="5" y="148">0</text></g><g style="stroke:#888888; font-family:Arial; font-size:6pt;"><line x1="1" y1="120" x2="700" y2="120" style="stroke:#aaaaaa;"/><text x="5" y="118">5</text></g><g style="stroke:#888888; font-family:Arial; font-size:6pt;"><line x1="1" y1="90" x2="700" y2="90" style="stroke:#aaaaaa;"/><text x="5" y="88">10</text></g><g style="stroke:#888888; font-family:Arial; font-size:6pt;"><line x1="1" y1="60" x2="700" y2="60" style="stroke:#aaaaaa;"/><text x="5" y="58">15</text></g><g style="stroke:#888888; font-family:Arial; font-size:6pt;"><line x1="1" y1="30" x2="700" y2="30" style="stroke:#aaaaaa;"/><text x="5" y="28">20</text></g><g style="stroke:#888888; font-family:Arial; font-size:6pt;"><line x1="1" y1="0" x2="700" y2="0" style="stroke:#aaaaaa;"/><text x="5" y="-2">25</text></g><text x="350" y="20" style="text-anchor:middle; font-size: 14pt;">Bowling History - Carlton</text>
					
					<rect x="38.888888888888886" y="108" height="42" width="36.888888888888886" style="fill:#00007f;"/><rect x="77.77777777777777" y="144" height="6" width="36.888888888888886" style="fill:#00007f;"/><rect x="116.66666666666666" y="138" height="12" width="36.888888888888886" style="fill:#00007f;"/><rect x="155.55555555555554" y="126" height="24" width="36.888888888888886" style="fill:#00007f;"/><rect x="194.44444444444443" y="138" height="12" width="36.888888888888886" style="fill:#00007f;"/><rect x="233.33333333333331" y="60" height="90" width="36.888888888888886" style="fill:#00007f;"/><rect x="272.2222222222222" y="138" height="12" width="36.888888888888886" style="fill:#00007f;"/><rect x="311.1111111111111" y="150" height="0" width="36.888888888888886" style="fill:#00007f;"/><rect x="350" y="126" height="24" width="36.888888888888886" style="fill:#00007f;"/><rect x="388.88888888888886" y="150" height="42" width="36.888888888888886" style="fill:#00007f;"/><rect x="427.7777777777777" y="108" height="42" width="36.888888888888886" style="fill:#00007f;"/><rect x="466.66666666666663" y="120" height="30" width="36.888888888888886" style="fill:#00007f;"/><rect x="505.55555555555554" y="150" height="30" width="36.888888888888886" style="fill:#00007f;"/><rect x="544.4444444444443" y="96" height="54" width="36.888888888888886" style="fill:#00007f;"/><rect x="583.3333333333333" y="96" height="54" width="36.888888888888886" style="fill:#00007f;"/><rect x="622.2222222222222" y="90" height="60" width="36.888888888888886" style="fill:#00007f;"/><rect x="661.1111111111111" y="84" height="66" width="36.888888888888886" style="fill:#00007f;"/>
					
					<path d="M57.33333333333333 108 L96.22222222222221 126 L135.1111111111111 130 L174 129 L212.88888888888886 130.8 L251.77777777777777 119 L290.66666666666663 121.71428571428572 L329.55555555555554 125.25 L368.44444444444446 125.33333333333334 L407.3333333333333 132 L446.2222222222222 129.8181818181818 L485.1111111111111 129 L524 132.92307692307693 L562.8888888888888 130.28571428571428 L601.7777777777777 128 L640.6666666666666 125.625 L679.5555555555555 123.17647058823529 " style="fill:none; stroke:red; stroke-width:1"/>
				</g>
			</svg>