<?xml version="1.0" encoding="UTF-8"?><svg xml:space="preserve" width="700" height="300">
				<desc>Bowling History</desc>
				<g style="stroke:#000000; stroke-width:0.5; font-family:Arial; font-size:7pt;">
					<rect x="1" y="1" width="698" height="298" style="fill:#dddddd;"/><g style="stroke:#888888; font-family:Arial; font-size:6pt;"><line x1="1" y1="300" x2="700" y2="300" style="stroke:#aaaaaa;"/><text x="5" y="298">-25</text></g><g style="stroke:#888888; font-family:Arial; font-size:6pt;"><line x1="1" y1="270" x2="700" y2="270" style="stroke:#aaaaaa;"/><text x="5" y="268">-20</text></g><g style="stroke:#888888; font-family:Arial; font-size:6pt;"><line x1="1" y1="240" x2="700" y2="240" style="stroke:#aaaaaa;"/><text x="5" y="238">-15</text></g><g style="stroke:#888888; font-family:Arial; font-size:6pt;"><line x1="1" y1="210" x2="700" y2="210" style="stroke:#aaaaaa;"/><text x="5" y="208">-10</text></g><g style="stroke:#888888; font-family:Arial; font-size:6pt;"><line x1="1" y1="180" x2="700" y2="180" style="stroke:#aaaaaa;"/><text x="5" y="178">-5</text></g><g style="stroke:#888888; font-family:Arial; font-size:6pt;"><line x1="1" y1="150" x2="700" y2="150" style="stroke:#aaaaaa;"/><text x="5" y="148">0</text></g><g style="stroke:#888888; font-family:Arial; font-size:6pt;"><line x1="1" y1="120" x2="700" y2="120" style="stroke:#aaaaaa;"/><text x="5" y="118">5</text></g><g style="stroke:#888888; font-family:Arial; font-size:6pt;"><line x1="1" y1="90" x2="700" y2="90" style="stroke:#aaaaaa;"/><text x="5" y="88">10</text></g><g style="stroke:#888888; font-family:Arial; font-size:6pt;"><line x1="1" y1="60" x2="700" y2="60" style="stroke:#aaaaaa;"/><text x="5" y="58">15</text></g><g style="stroke:#888888; font-family:Arial; font-size:6pt;"><line x1="1" y1="30" x2="700" y2="30" style="stroke:#aaaaaa;"/><text x="5" y="28">20</text></g><g style="stroke:#888888; font-family:Arial; font-size:6pt;"><line x1="1" y1="0" x2="700" y2="0" style="stroke:#aaaaaa;"/><text x="5" y="-2">25</text></g><text x="350" y="20" style="text-anchor:middle; font-size: 14pt;">Bowling History - Mark 2</text>
					
					<rect x="77.77777777777777" y="90" height="60" width="75.77777777777777" style="fill:#00007f;"/><rect x="155.55555555555554" y="126" height="24" width="75.77777777777777" style="fill:#00007f;"/><rect x="233.33333333333331" y="150" height="36" width="75.77777777777777" style="fill:#00007f;"/><rect x="311.1111111111111" y="150" height="24" width="75.77777777777777" style="fill:#00007f;"/><rect x="388.88888888888886" y="90" height="60" width="75.77777777777777" style="fill:#00007f;"/><rect x="466.66666666666663" y="114" height="36" width="75.77777777777777" style="fill:#00007f;"/><rect x="544.4444444444443" y="36" height="114" width="75.77777777777777" style="fill:#00007f;"/><rect x="622.2222222222222" y="150" height="72" width="75.77777777777777" style="fill:#00007f;"/>
					
					<path d="M115.66666666666666 90 L193.44444444444443 108 L271.2222222222222 134 L349 144 L426.7777777777777 133.2 L504.55555555555554 130 L582.3333333333333 116.57142857142857 L660.1111111111111 129.75 " style="fill:none; stroke:red; stroke-width:1"/>
				</g>
			</svg>