<?xml version="1.0" encoding="UTF-8"?><svg xml:space="preserve" width="700" height="300">
				<desc>Bowling History</desc>
				<g style="stroke:#000000; stroke-width:0.5; font-family:Arial; font-size:7pt;">
					<rect x="1" y="1" width="698" height="298" style="fill:#dddddd;"/><g style="stroke:#888888; font-family:Arial; font-size:6pt;"><line x1="1" y1="300" x2="700" y2="300" style="stroke:#aaaaaa;"/><text x="5" y="298">-25</text></g><g style="stroke:#888888; font-family:Arial; font-size:6pt;"><line x1="1" y1="270" x2="700" y2="270" style="stroke:#aaaaaa;"/><text x="5" y="268">-20</text></g><g style="stroke:#888888; font-family:Arial; font-size:6pt;"><line x1="1" y1="240" x2="700" y2="240" style="stroke:#aaaaaa;"/><text x="5" y="238">-15</text></g><g style="stroke:#888888; font-family:Arial; font-size:6pt;"><line x1="1" y1="210" x2="700" y2="210" style="stroke:#aaaaaa;"/><text x="5" y="208">-10</text></g><g style="stroke:#888888; font-family:Arial; font-size:6pt;"><line x1="1" y1="180" x2="700" y2="180" style="stroke:#aaaaaa;"/><text x="5" y="178">-5</text></g><g style="stroke:#888888; font-family:Arial; font-size:6pt;"><line x1="1" y1="150" x2="700" y2="150" style="stroke:#aaaaaa;"/><text x="5" y="148">0</text></g><g style="stroke:#888888; font-family:Arial; font-size:6pt;"><line x1="1" y1="120" x2="700" y2="120" style="stroke:#aaaaaa;"/><text x="5" y="118">5</text></g><g style="stroke:#888888; font-family:Arial; font-size:6pt;"><line x1="1" y1="90" x2="700" y2="90" style="stroke:#aaaaaa;"/><text x="5" y="88">10</text></g><g style="stroke:#888888; font-family:Arial; font-size:6pt;"><line x1="1" y1="60" x2="700" y2="60" style="stroke:#aaaaaa;"/><text x="5" y="58">15</text></g><g style="stroke:#888888; font-family:Arial; font-size:6pt;"><line x1="1" y1="30" x2="700" y2="30" style="stroke:#aaaaaa;"/><text x="5" y="28">20</text></g><g style="stroke:#888888; font-family:Arial; font-size:6pt;"><line x1="1" y1="0" x2="700" y2="0" style="stroke:#aaaaaa;"/><text x="5" y="-2">25</text></g><text x="350" y="20" style="text-anchor:middle; font-size: 14pt;">Bowling History - Aspi</text>
					
					<rect x="63.63636363636363" y="144" height="6" width="61.63636363636363" style="fill:#00007f;"/><rect x="127.27272727272727" y="48" height="102" width="61.63636363636363" style="fill:#00007f;"/><rect x="190.9090909090909" y="54" height="96" width="61.63636363636363" style="fill:#00007f;"/><rect x="254.54545454545453" y="126" height="24" width="61.63636363636363" style="fill:#00007f;"/><rect x="318.1818181818182" y="102" height="48" width="61.63636363636363" style="fill:#00007f;"/><rect x="381.8181818181818" y="84" height="66" width="61.63636363636363" style="fill:#00007f;"/><rect x="445.45454545454544" y="150" height="30" width="61.63636363636363" style="fill:#00007f;"/><rect x="509.09090909090907" y="78" height="72" width="61.63636363636363" style="fill:#00007f;"/><rect x="572.7272727272727" y="150" height="12" width="61.63636363636363" style="fill:#00007f;"/><rect x="636.3636363636364" y="96" height="54" width="61.63636363636363" style="fill:#00007f;"/>
					
					<path d="M94.45454545454545 144 L158.0909090909091 96 L221.72727272727272 82 L285.3636363636364 93 L349 94.80000000000001 L412.6363636363636 93 L476.27272727272725 105.42857142857143 L539.9090909090909 102 L603.5454545454546 108.66666666666666 L667.1818181818182 107.4 " style="fill:none; stroke:red; stroke-width:1"/>
				</g>
			</svg>