<?xml version="1.0" encoding="UTF-8"?><svg xml:space="preserve" width="700" height="300">
				<desc>Bowling History</desc>
				<g style="stroke:#000000; stroke-width:0.5; font-family:Arial; font-size:7pt;">
					<rect x="1" y="1" width="698" height="298" style="fill:#dddddd;"/><g style="stroke:#888888; font-family:Arial; font-size:6pt;"><line x1="1" y1="300" x2="700" y2="300" style="stroke:#aaaaaa;"/><text x="5" y="298">-25</text></g><g style="stroke:#888888; font-family:Arial; font-size:6pt;"><line x1="1" y1="270" x2="700" y2="270" style="stroke:#aaaaaa;"/><text x="5" y="268">-20</text></g><g style="stroke:#888888; font-family:Arial; font-size:6pt;"><line x1="1" y1="240" x2="700" y2="240" style="stroke:#aaaaaa;"/><text x="5" y="238">-15</text></g><g style="stroke:#888888; font-family:Arial; font-size:6pt;"><line x1="1" y1="210" x2="700" y2="210" style="stroke:#aaaaaa;"/><text x="5" y="208">-10</text></g><g style="stroke:#888888; font-family:Arial; font-size:6pt;"><line x1="1" y1="180" x2="700" y2="180" style="stroke:#aaaaaa;"/><text x="5" y="178">-5</text></g><g style="stroke:#888888; font-family:Arial; font-size:6pt;"><line x1="1" y1="150" x2="700" y2="150" style="stroke:#aaaaaa;"/><text x="5" y="148">0</text></g><g style="stroke:#888888; font-family:Arial; font-size:6pt;"><line x1="1" y1="120" x2="700" y2="120" style="stroke:#aaaaaa;"/><text x="5" y="118">5</text></g><g style="stroke:#888888; font-family:Arial; font-size:6pt;"><line x1="1" y1="90" x2="700" y2="90" style="stroke:#aaaaaa;"/><text x="5" y="88">10</text></g><g style="stroke:#888888; font-family:Arial; font-size:6pt;"><line x1="1" y1="60" x2="700" y2="60" style="stroke:#aaaaaa;"/><text x="5" y="58">15</text></g><g style="stroke:#888888; font-family:Arial; font-size:6pt;"><line x1="1" y1="30" x2="700" y2="30" style="stroke:#aaaaaa;"/><text x="5" y="28">20</text></g><g style="stroke:#888888; font-family:Arial; font-size:6pt;"><line x1="1" y1="0" x2="700" y2="0" style="stroke:#aaaaaa;"/><text x="5" y="-2">25</text></g><text x="350" y="20" style="text-anchor:middle; font-size: 14pt;">Bowling History - Matt</text>
					
					<rect x="43.75" y="144" height="6" width="41.75" style="fill:#00007f;"/><rect x="87.5" y="96" height="54" width="41.75" style="fill:#00007f;"/><rect x="131.25" y="84" height="66" width="41.75" style="fill:#00007f;"/><rect x="175" y="96" height="54" width="41.75" style="fill:#00007f;"/><rect x="218.75" y="66" height="84" width="41.75" style="fill:#00007f;"/><rect x="262.5" y="72" height="78" width="41.75" style="fill:#00007f;"/><rect x="306.25" y="102" height="48" width="41.75" style="fill:#00007f;"/><rect x="350" y="150" height="0" width="41.75" style="fill:#00007f;"/><rect x="393.75" y="138" height="12" width="41.75" style="fill:#00007f;"/><rect x="437.5" y="90" height="60" width="41.75" style="fill:#00007f;"/><rect x="481.25" y="108" height="42" width="41.75" style="fill:#00007f;"/><rect x="525" y="144" height="6" width="41.75" style="fill:#00007f;"/><rect x="568.75" y="150" height="6" width="41.75" style="fill:#00007f;"/><rect x="612.5" y="90" height="60" width="41.75" style="fill:#00007f;"/><rect x="656.25" y="150" height="12" width="41.75" style="fill:#00007f;"/>
					
					<path d="M64.625 144 L108.375 120 L152.125 108 L195.875 105 L239.625 97.19999999999999 L283.375 93 L327.125 94.28571428571428 L370.875 101.25 L414.625 105.33333333333333 L458.375 103.8 L502.125 104.18181818181819 L545.875 107.5 L589.625 111.23076923076923 L633.375 109.71428571428572 L677.125 113.19999999999999 " style="fill:none; stroke:red; stroke-width:1"/>
				</g>
			</svg>