<?xml version="1.0" encoding="UTF-8"?><svg xml:space="preserve" width="700" height="300">
				<desc>Bowling History</desc>
				<g style="stroke:#000000; stroke-width:0.5; font-family:Arial; font-size:7pt;">
					<rect x="1" y="1" width="698" height="298" style="fill:#dddddd;"/><g style="stroke:#888888; font-family:Arial; font-size:6pt;"><line x1="1" y1="300" x2="700" y2="300" style="stroke:#aaaaaa;"/><text x="5" y="298">-25</text></g><g style="stroke:#888888; font-family:Arial; font-size:6pt;"><line x1="1" y1="270" x2="700" y2="270" style="stroke:#aaaaaa;"/><text x="5" y="268">-20</text></g><g style="stroke:#888888; font-family:Arial; font-size:6pt;"><line x1="1" y1="240" x2="700" y2="240" style="stroke:#aaaaaa;"/><text x="5" y="238">-15</text></g><g style="stroke:#888888; font-family:Arial; font-size:6pt;"><line x1="1" y1="210" x2="700" y2="210" style="stroke:#aaaaaa;"/><text x="5" y="208">-10</text></g><g style="stroke:#888888; font-family:Arial; font-size:6pt;"><line x1="1" y1="180" x2="700" y2="180" style="stroke:#aaaaaa;"/><text x="5" y="178">-5</text></g><g style="stroke:#888888; font-family:Arial; font-size:6pt;"><line x1="1" y1="150" x2="700" y2="150" style="stroke:#aaaaaa;"/><text x="5" y="148">0</text></g><g style="stroke:#888888; font-family:Arial; font-size:6pt;"><line x1="1" y1="120" x2="700" y2="120" style="stroke:#aaaaaa;"/><text x="5" y="118">5</text></g><g style="stroke:#888888; font-family:Arial; font-size:6pt;"><line x1="1" y1="90" x2="700" y2="90" style="stroke:#aaaaaa;"/><text x="5" y="88">10</text></g><g style="stroke:#888888; font-family:Arial; font-size:6pt;"><line x1="1" y1="60" x2="700" y2="60" style="stroke:#aaaaaa;"/><text x="5" y="58">15</text></g><g style="stroke:#888888; font-family:Arial; font-size:6pt;"><line x1="1" y1="30" x2="700" y2="30" style="stroke:#aaaaaa;"/><text x="5" y="28">20</text></g><g style="stroke:#888888; font-family:Arial; font-size:6pt;"><line x1="1" y1="0" x2="700" y2="0" style="stroke:#aaaaaa;"/><text x="5" y="-2">25</text></g><text x="350" y="20" style="text-anchor:middle; font-size: 14pt;">Bowling History - Kumaran</text>
					
					<rect x="24.137931034482758" y="144" height="6" width="22.137931034482758" style="fill:#00007f;"/><rect x="48.275862068965516" y="126" height="24" width="22.137931034482758" style="fill:#00007f;"/><rect x="72.41379310344827" y="90" height="60" width="22.137931034482758" style="fill:#00007f;"/><rect x="96.55172413793103" y="84" height="66" width="22.137931034482758" style="fill:#00007f;"/><rect x="120.6896551724138" y="108" height="42" width="22.137931034482758" style="fill:#00007f;"/><rect x="144.82758620689654" y="150" height="0" width="22.137931034482758" style="fill:#00007f;"/><rect x="168.9655172413793" y="36" height="114" width="22.137931034482758" style="fill:#00007f;"/><rect x="193.10344827586206" y="84" height="66" width="22.137931034482758" style="fill:#00007f;"/><rect x="217.24137931034483" y="120" height="30" width="22.137931034482758" style="fill:#00007f;"/><rect x="241.3793103448276" y="150" height="12" width="22.137931034482758" style="fill:#00007f;"/><rect x="265.51724137931035" y="66" height="84" width="22.137931034482758" style="fill:#00007f;"/><rect x="289.6551724137931" y="90" height="60" width="22.137931034482758" style="fill:#00007f;"/><rect x="313.7931034482759" y="78" height="72" width="22.137931034482758" style="fill:#00007f;"/><rect x="337.9310344827586" y="150" height="0" width="22.137931034482758" style="fill:#00007f;"/><rect x="362.0689655172414" y="84" height="66" width="22.137931034482758" style="fill:#00007f;"/><rect x="386.2068965517241" y="144" height="6" width="22.137931034482758" style="fill:#00007f;"/><rect x="410.34482758620686" y="150" height="6" width="22.137931034482758" style="fill:#00007f;"/><rect x="434.48275862068965" y="150" height="54" width="22.137931034482758" style="fill:#00007f;"/><rect x="458.6206896551724" y="132" height="18" width="22.137931034482758" style="fill:#00007f;"/><rect x="482.7586206896552" y="120" height="30" width="22.137931034482758" style="fill:#00007f;"/><rect x="506.8965517241379" y="72" height="78" width="22.137931034482758" style="fill:#00007f;"/><rect x="531.0344827586207" y="132" height="18" width="22.137931034482758" style="fill:#00007f;"/><rect x="555.1724137931035" y="150" height="30" width="22.137931034482758" style="fill:#00007f;"/><rect x="579.3103448275862" y="120" height="30" width="22.137931034482758" style="fill:#00007f;"/><rect x="603.448275862069" y="150" height="72" width="22.137931034482758" style="fill:#00007f;"/><rect x="627.5862068965517" y="120" height="30" width="22.137931034482758" style="fill:#00007f;"/><rect x="651.7241379310344" y="126" height="24" width="22.137931034482758" style="fill:#00007f;"/><rect x="675.8620689655172" y="90" height="60" width="22.137931034482758" style="fill:#00007f;"/>
					
					<path d="M35.206896551724135 144 L59.3448275862069 135 L83.48275862068965 120 L107.62068965517241 111 L131.75862068965517 110.4 L155.8965517241379 117 L180.03448275862067 105.42857142857143 L204.17241379310343 102.75 L228.3103448275862 104.66666666666667 L252.44827586206895 110.4 L276.58620689655174 106.36363636363637 L300.7241379310345 105 L324.86206896551727 102.92307692307693 L349 106.28571428571428 L373.1379310344828 104.8 L397.2758620689655 107.25 L421.41379310344826 110.11764705882354 L445.55172413793105 115.33333333333334 L469.6896551724138 116.21052631578948 L493.82758620689657 116.4 L517.9655172413793 114.28571428571428 L542.1034482758621 115.0909090909091 L566.2413793103449 117.91304347826087 L590.3793103448276 118 L614.5172413793103 122.16 L638.6551724137931 122.07692307692307 L662.7931034482758 122.22222222222223 L686.9310344827586 121.07142857142857 " style="fill:none; stroke:red; stroke-width:1"/>
				</g>
			</svg>