<?xml version="1.0" encoding="UTF-8"?><svg xml:space="preserve" width="700" height="300">
				<desc>Bowling History</desc>
				<g style="stroke:#000000; stroke-width:0.5; font-family:Arial; font-size:7pt;">
					<rect x="1" y="1" width="698" height="298" style="fill:#dddddd;"/><g style="stroke:#888888; font-family:Arial; font-size:6pt;"><line x1="1" y1="300" x2="700" y2="300" style="stroke:#aaaaaa;"/><text x="5" y="298">-25</text></g><g style="stroke:#888888; font-family:Arial; font-size:6pt;"><line x1="1" y1="270" x2="700" y2="270" style="stroke:#aaaaaa;"/><text x="5" y="268">-20</text></g><g style="stroke:#888888; font-family:Arial; font-size:6pt;"><line x1="1" y1="240" x2="700" y2="240" style="stroke:#aaaaaa;"/><text x="5" y="238">-15</text></g><g style="stroke:#888888; font-family:Arial; font-size:6pt;"><line x1="1" y1="210" x2="700" y2="210" style="stroke:#aaaaaa;"/><text x="5" y="208">-10</text></g><g style="stroke:#888888; font-family:Arial; font-size:6pt;"><line x1="1" y1="180" x2="700" y2="180" style="stroke:#aaaaaa;"/><text x="5" y="178">-5</text></g><g style="stroke:#888888; font-family:Arial; font-size:6pt;"><line x1="1" y1="150" x2="700" y2="150" style="stroke:#aaaaaa;"/><text x="5" y="148">0</text></g><g style="stroke:#888888; font-family:Arial; font-size:6pt;"><line x1="1" y1="120" x2="700" y2="120" style="stroke:#aaaaaa;"/><text x="5" y="118">5</text></g><g style="stroke:#888888; font-family:Arial; font-size:6pt;"><line x1="1" y1="90" x2="700" y2="90" style="stroke:#aaaaaa;"/><text x="5" y="88">10</text></g><g style="stroke:#888888; font-family:Arial; font-size:6pt;"><line x1="1" y1="60" x2="700" y2="60" style="stroke:#aaaaaa;"/><text x="5" y="58">15</text></g><g style="stroke:#888888; font-family:Arial; font-size:6pt;"><line x1="1" y1="30" x2="700" y2="30" style="stroke:#aaaaaa;"/><text x="5" y="28">20</text></g><g style="stroke:#888888; font-family:Arial; font-size:6pt;"><line x1="1" y1="0" x2="700" y2="0" style="stroke:#aaaaaa;"/><text x="5" y="-2">25</text></g><text x="350" y="20" style="text-anchor:middle; font-size: 14pt;">Bowling History - Chester Molester</text>
					
					<rect x="8.641975308641975" y="30" height="120" width="6.641975308641975" style="fill:#00007f;"/><rect x="17.28395061728395" y="102" height="48" width="6.641975308641975" style="fill:#00007f;"/><rect x="25.925925925925924" y="150" height="30" width="6.641975308641975" style="fill:#00007f;"/><rect x="34.5679012345679" y="66" height="84" width="6.641975308641975" style="fill:#00007f;"/><rect x="43.20987654320987" y="78" height="72" width="6.641975308641975" style="fill:#00007f;"/><rect x="51.85185185185185" y="150" height="6" width="6.641975308641975" style="fill:#00007f;"/><rect x="60.49382716049382" y="96" height="54" width="6.641975308641975" style="fill:#00007f;"/><rect x="69.1358024691358" y="84" height="66" width="6.641975308641975" style="fill:#00007f;"/><rect x="77.77777777777777" y="78" height="72" width="6.641975308641975" style="fill:#00007f;"/><rect x="86.41975308641975" y="90" height="60" width="6.641975308641975" style="fill:#00007f;"/><rect x="95.06172839506172" y="138" height="12" width="6.641975308641975" style="fill:#00007f;"/><rect x="103.7037037037037" y="96" height="54" width="6.641975308641975" style="fill:#00007f;"/><rect x="112.34567901234567" y="96" height="54" width="6.641975308641975" style="fill:#00007f;"/><rect x="120.98765432098764" y="150" height="24" width="6.641975308641975" style="fill:#00007f;"/><rect x="129.62962962962962" y="102" height="48" width="6.641975308641975" style="fill:#00007f;"/><rect x="138.2716049382716" y="90" height="60" width="6.641975308641975" style="fill:#00007f;"/><rect x="146.91358024691357" y="144" height="6" width="6.641975308641975" style="fill:#00007f;"/><rect x="155.55555555555554" y="150" height="36" width="6.641975308641975" style="fill:#00007f;"/><rect x="164.19753086419752" y="150" height="48" width="6.641975308641975" style="fill:#00007f;"/><rect x="172.8395061728395" y="66" height="84" width="6.641975308641975" style="fill:#00007f;"/><rect x="181.48148148148147" y="150" height="0" width="6.641975308641975" style="fill:#00007f;"/><rect x="190.12345679012344" y="126" height="24" width="6.641975308641975" style="fill:#00007f;"/><rect x="198.76543209876542" y="150" height="54" width="6.641975308641975" style="fill:#00007f;"/><rect x="207.4074074074074" y="132" height="18" width="6.641975308641975" style="fill:#00007f;"/><rect x="216.04938271604937" y="96" height="54" width="6.641975308641975" style="fill:#00007f;"/><rect x="224.69135802469134" y="84" height="66" width="6.641975308641975" style="fill:#00007f;"/><rect x="233.33333333333331" y="144" height="6" width="6.641975308641975" style="fill:#00007f;"/><rect x="241.9753086419753" y="138" height="12" width="6.641975308641975" style="fill:#00007f;"/><rect x="250.61728395061726" y="96" height="54" width="6.641975308641975" style="fill:#00007f;"/><rect x="259.25925925925924" y="150" height="48" width="6.641975308641975" style="fill:#00007f;"/><rect x="267.9012345679012" y="114" height="36" width="6.641975308641975" style="fill:#00007f;"/><rect x="276.5432098765432" y="78" height="72" width="6.641975308641975" style="fill:#00007f;"/><rect x="285.18518518518516" y="102" height="48" width="6.641975308641975" style="fill:#00007f;"/><rect x="293.82716049382714" y="48" height="102" width="6.641975308641975" style="fill:#00007f;"/><rect x="302.4691358024691" y="96" height="54" width="6.641975308641975" style="fill:#00007f;"/><rect x="311.1111111111111" y="150" height="6" width="6.641975308641975" style="fill:#00007f;"/><rect x="319.75308641975306" y="96" height="54" width="6.641975308641975" style="fill:#00007f;"/><rect x="328.39506172839504" y="120" height="30" width="6.641975308641975" style="fill:#00007f;"/><rect x="337.037037037037" y="90" height="60" width="6.641975308641975" style="fill:#00007f;"/><rect x="345.679012345679" y="90" height="60" width="6.641975308641975" style="fill:#00007f;"/><rect x="354.32098765432096" y="126" height="24" width="6.641975308641975" style="fill:#00007f;"/><rect x="362.96296296296293" y="150" height="48" width="6.641975308641975" style="fill:#00007f;"/><rect x="371.6049382716049" y="150" height="36" width="6.641975308641975" style="fill:#00007f;"/><rect x="380.2469135802469" y="150" height="72" width="6.641975308641975" style="fill:#00007f;"/><rect x="388.88888888888886" y="150" height="24" width="6.641975308641975" style="fill:#00007f;"/><rect x="397.53086419753083" y="108" height="42" width="6.641975308641975" style="fill:#00007f;"/><rect x="406.1728395061728" y="150" height="6" width="6.641975308641975" style="fill:#00007f;"/><rect x="414.8148148148148" y="150" height="6" width="6.641975308641975" style="fill:#00007f;"/><rect x="423.45679012345676" y="132" height="18" width="6.641975308641975" style="fill:#00007f;"/><rect x="432.09876543209873" y="126" height="24" width="6.641975308641975" style="fill:#00007f;"/><rect x="440.7407407407407" y="72" height="78" width="6.641975308641975" style="fill:#00007f;"/><rect x="449.3827160493827" y="78" height="72" width="6.641975308641975" style="fill:#00007f;"/><rect x="458.02469135802465" y="84" height="66" width="6.641975308641975" style="fill:#00007f;"/><rect x="466.66666666666663" y="150" height="36" width="6.641975308641975" style="fill:#00007f;"/><rect x="475.3086419753086" y="120" height="30" width="6.641975308641975" style="fill:#00007f;"/><rect x="483.9506172839506" y="108" height="42" width="6.641975308641975" style="fill:#00007f;"/><rect x="492.59259259259255" y="12" height="138" width="6.641975308641975" style="fill:#00007f;"/><rect x="501.2345679012345" y="150" height="24" width="6.641975308641975" style="fill:#00007f;"/><rect x="509.8765432098765" y="96" height="54" width="6.641975308641975" style="fill:#00007f;"/><rect x="518.5185185185185" y="120" height="30" width="6.641975308641975" style="fill:#00007f;"/><rect x="527.1604938271605" y="132" height="18" width="6.641975308641975" style="fill:#00007f;"/><rect x="535.8024691358024" y="150" height="12" width="6.641975308641975" style="fill:#00007f;"/><rect x="544.4444444444443" y="132" height="18" width="6.641975308641975" style="fill:#00007f;"/><rect x="553.0864197530864" y="114" height="36" width="6.641975308641975" style="fill:#00007f;"/><rect x="561.7283950617284" y="120" height="30" width="6.641975308641975" style="fill:#00007f;"/><rect x="570.3703703703703" y="138" height="12" width="6.641975308641975" style="fill:#00007f;"/><rect x="579.0123456790122" y="114" height="36" width="6.641975308641975" style="fill:#00007f;"/><rect x="587.6543209876543" y="96" height="54" width="6.641975308641975" style="fill:#00007f;"/><rect x="596.2962962962963" y="108" height="42" width="6.641975308641975" style="fill:#00007f;"/><rect x="604.9382716049382" y="102" height="48" width="6.641975308641975" style="fill:#00007f;"/><rect x="613.5802469135801" y="132" height="18" width="6.641975308641975" style="fill:#00007f;"/><rect x="622.2222222222222" y="126" height="24" width="6.641975308641975" style="fill:#00007f;"/><rect x="630.8641975308642" y="126" height="24" width="6.641975308641975" style="fill:#00007f;"/><rect x="639.5061728395061" y="150" height="30" width="6.641975308641975" style="fill:#00007f;"/><rect x="648.148148148148" y="96" height="54" width="6.641975308641975" style="fill:#00007f;"/><rect x="656.7901234567901" y="150" height="18" width="6.641975308641975" style="fill:#00007f;"/><rect x="665.4320987654321" y="132" height="18" width="6.641975308641975" style="fill:#00007f;"/><rect x="674.074074074074" y="132" height="18" width="6.641975308641975" style="fill:#00007f;"/><rect x="682.7160493827159" y="78" height="72" width="6.641975308641975" style="fill:#00007f;"/><rect x="691.358024691358" y="114" height="36" width="6.641975308641975" style="fill:#00007f;"/>
					
					<path d="M11.962962962962962 30 L20.604938271604937 66 L29.24691358024691 104 L37.888888888888886 94.5 L46.53086419753086 91.19999999999999 L55.172839506172835 102 L63.81481481481481 101.14285714285714 L72.45679012345678 99 L81.09876543209876 96.66666666666666 L89.74074074074073 96 L98.38271604938271 99.81818181818181 L107.02469135802468 99.5 L115.66666666666666 99.23076923076923 L124.30864197530863 104.57142857142857 L132.9506172839506 104.4 L141.59259259259258 103.5 L150.23456790123456 105.88235294117646 L158.87654320987653 110.33333333333334 L167.5185185185185 114.94736842105263 L176.16049382716048 112.5 L184.80246913580245 114.28571428571428 L193.44444444444443 114.81818181818181 L202.0864197530864 118.69565217391305 L210.72839506172838 119.25 L219.37037037037035 118.32 L228.01234567901233 117 L236.6543209876543 118 L245.29629629629628 118.71428571428572 L253.93827160493825 117.93103448275862 L262.58024691358025 120.6 L271.2222222222222 120.38709677419355 L279.8641975308642 119.0625 L288.5061728395061 118.54545454545455 L297.14814814814815 116.47058823529412 L305.79012345679007 115.88571428571429 L314.4320987654321 117 L323.074074074074 116.43243243243244 L331.71604938271605 116.52631578947368 L340.35802469135797 115.84615384615384 L349 115.2 L357.6419753086419 115.46341463414635 L366.28395061728395 117.42857142857143 L374.92592592592587 119.02325581395348 L383.5679012345679 121.36363636363637 L392.2098765432098 122.53333333333333 L400.85185185185185 122.21739130434783 L409.49382716049377 122.93617021276596 L418.1358024691358 123.625 L426.7777777777777 123.79591836734694 L435.41975308641975 123.84 L444.06172839506166 122.82352941176471 L452.7037037037037 121.96153846153845 L461.3456790123456 121.24528301886792 L469.98765432098764 122.44444444444444 L478.62962962962956 122.4 L487.2716049382716 122.14285714285714 L495.9135802469135 120.21052631578948 L504.55555555555554 121.13793103448276 L513.1975308641975 120.71186440677965 L521.8395061728395 120.69999999999999 L530.4814814814815 120.88524590163934 L539.1234567901234 121.54838709677419 L547.7654320987654 121.71428571428572 L556.4074074074074 121.59375 L565.0493827160494 121.56923076923077 L573.6913580246913 121.81818181818181 L582.3333333333333 121.70149253731343 L590.9753086419753 121.32352941176471 L599.6172839506173 121.13043478260869 L608.2592592592592 120.85714285714286 L616.9012345679012 121.01408450704226 L625.5432098765432 121.08333333333333 L634.1851851851852 121.15068493150685 L642.8271604938271 121.94594594594595 L651.469135802469 121.6 L660.1111111111111 122.21052631578948 L668.7530864197531 122.33766233766234 L677.395061728395 122.46153846153847 L686.037037037037 121.89873417721519 L694.679012345679 121.8 " style="fill:none; stroke:red; stroke-width:1"/>
				</g>
			</svg>