<?xml version="1.0" encoding="UTF-8"?><svg xml:space="preserve" width="700" height="300">
				<desc>Bowling History</desc>
				<g style="stroke:#000000; stroke-width:0.5; font-family:Arial; font-size:7pt;">
					<rect x="1" y="1" width="698" height="298" style="fill:#dddddd;"/><g style="stroke:#888888; font-family:Arial; font-size:6pt;"><line x1="1" y1="300" x2="700" y2="300" style="stroke:#aaaaaa;"/><text x="5" y="298">-25</text></g><g style="stroke:#888888; font-family:Arial; font-size:6pt;"><line x1="1" y1="270" x2="700" y2="270" style="stroke:#aaaaaa;"/><text x="5" y="268">-20</text></g><g style="stroke:#888888; font-family:Arial; font-size:6pt;"><line x1="1" y1="240" x2="700" y2="240" style="stroke:#aaaaaa;"/><text x="5" y="238">-15</text></g><g style="stroke:#888888; font-family:Arial; font-size:6pt;"><line x1="1" y1="210" x2="700" y2="210" style="stroke:#aaaaaa;"/><text x="5" y="208">-10</text></g><g style="stroke:#888888; font-family:Arial; font-size:6pt;"><line x1="1" y1="180" x2="700" y2="180" style="stroke:#aaaaaa;"/><text x="5" y="178">-5</text></g><g style="stroke:#888888; font-family:Arial; font-size:6pt;"><line x1="1" y1="150" x2="700" y2="150" style="stroke:#aaaaaa;"/><text x="5" y="148">0</text></g><g style="stroke:#888888; font-family:Arial; font-size:6pt;"><line x1="1" y1="120" x2="700" y2="120" style="stroke:#aaaaaa;"/><text x="5" y="118">5</text></g><g style="stroke:#888888; font-family:Arial; font-size:6pt;"><line x1="1" y1="90" x2="700" y2="90" style="stroke:#aaaaaa;"/><text x="5" y="88">10</text></g><g style="stroke:#888888; font-family:Arial; font-size:6pt;"><line x1="1" y1="60" x2="700" y2="60" style="stroke:#aaaaaa;"/><text x="5" y="58">15</text></g><g style="stroke:#888888; font-family:Arial; font-size:6pt;"><line x1="1" y1="30" x2="700" y2="30" style="stroke:#aaaaaa;"/><text x="5" y="28">20</text></g><g style="stroke:#888888; font-family:Arial; font-size:6pt;"><line x1="1" y1="0" x2="700" y2="0" style="stroke:#aaaaaa;"/><text x="5" y="-2">25</text></g><text x="350" y="20" style="text-anchor:middle; font-size: 14pt;">Bowling History - Trenty</text>
					
					<rect x="23.333333333333332" y="150" height="24" width="21.333333333333332" style="fill:#00007f;"/><rect x="46.666666666666664" y="132" height="18" width="21.333333333333332" style="fill:#00007f;"/><rect x="70" y="96" height="54" width="21.333333333333332" style="fill:#00007f;"/><rect x="93.33333333333333" y="72" height="78" width="21.333333333333332" style="fill:#00007f;"/><rect x="116.66666666666666" y="150" height="42" width="21.333333333333332" style="fill:#00007f;"/><rect x="140" y="96" height="54" width="21.333333333333332" style="fill:#00007f;"/><rect x="163.33333333333331" y="48" height="102" width="21.333333333333332" style="fill:#00007f;"/><rect x="186.66666666666666" y="132" height="18" width="21.333333333333332" style="fill:#00007f;"/><rect x="210" y="78" height="72" width="21.333333333333332" style="fill:#00007f;"/><rect x="233.33333333333331" y="132" height="18" width="21.333333333333332" style="fill:#00007f;"/><rect x="256.66666666666663" y="90" height="60" width="21.333333333333332" style="fill:#00007f;"/><rect x="280" y="96" height="54" width="21.333333333333332" style="fill:#00007f;"/><rect x="303.3333333333333" y="132" height="18" width="21.333333333333332" style="fill:#00007f;"/><rect x="326.66666666666663" y="150" height="66" width="21.333333333333332" style="fill:#00007f;"/><rect x="350" y="150" height="6" width="21.333333333333332" style="fill:#00007f;"/><rect x="373.3333333333333" y="132" height="18" width="21.333333333333332" style="fill:#00007f;"/><rect x="396.66666666666663" y="96" height="54" width="21.333333333333332" style="fill:#00007f;"/><rect x="420" y="78" height="72" width="21.333333333333332" style="fill:#00007f;"/><rect x="443.3333333333333" y="126" height="24" width="21.333333333333332" style="fill:#00007f;"/><rect x="466.66666666666663" y="60" height="90" width="21.333333333333332" style="fill:#00007f;"/><rect x="490" y="150" height="30" width="21.333333333333332" style="fill:#00007f;"/><rect x="513.3333333333333" y="126" height="24" width="21.333333333333332" style="fill:#00007f;"/><rect x="536.6666666666666" y="150" height="72" width="21.333333333333332" style="fill:#00007f;"/><rect x="560" y="108" height="42" width="21.333333333333332" style="fill:#00007f;"/><rect x="583.3333333333333" y="150" height="12" width="21.333333333333332" style="fill:#00007f;"/><rect x="606.6666666666666" y="120" height="30" width="21.333333333333332" style="fill:#00007f;"/><rect x="630" y="18" height="132" width="21.333333333333332" style="fill:#00007f;"/><rect x="653.3333333333333" y="96" height="54" width="21.333333333333332" style="fill:#00007f;"/><rect x="676.6666666666666" y="150" height="0" width="21.333333333333332" style="fill:#00007f;"/>
					
					<path d="M34 174 L57.33333333333333 153 L80.66666666666667 134 L104 118.5 L127.33333333333333 133.2 L150.66666666666666 127 L173.99999999999997 115.71428571428572 L197.33333333333331 117.75 L220.66666666666666 113.33333333333334 L243.99999999999997 115.2 L267.3333333333333 112.9090909090909 L290.6666666666667 111.5 L314 113.07692307692307 L337.3333333333333 120.42857142857143 L360.6666666666667 122.8 L384 123.375 L407.3333333333333 121.76470588235294 L430.6666666666667 119.33333333333334 L454 119.6842105263158 L477.3333333333333 116.7 L500.6666666666667 119.71428571428572 L523.9999999999999 120 L547.3333333333333 124.43478260869566 L570.6666666666666 123.75 L593.9999999999999 125.28 L617.3333333333333 125.07692307692307 L640.6666666666666 121.11111111111111 L663.9999999999999 120.21428571428572 L687.3333333333333 121.24137931034483 " style="fill:none; stroke:red; stroke-width:1"/>
				</g>
			</svg>