<?xml version="1.0" encoding="UTF-8"?><svg xml:space="preserve" width="700" height="300">
				<desc>Bowling History</desc>
				<g style="stroke:#000000; stroke-width:0.5; font-family:Arial; font-size:7pt;">
					<rect x="1" y="1" width="698" height="298" style="fill:#dddddd;"/><g style="stroke:#888888; font-family:Arial; font-size:6pt;"><line x1="1" y1="300" x2="700" y2="300" style="stroke:#aaaaaa;"/><text x="5" y="298">-25</text></g><g style="stroke:#888888; font-family:Arial; font-size:6pt;"><line x1="1" y1="270" x2="700" y2="270" style="stroke:#aaaaaa;"/><text x="5" y="268">-20</text></g><g style="stroke:#888888; font-family:Arial; font-size:6pt;"><line x1="1" y1="240" x2="700" y2="240" style="stroke:#aaaaaa;"/><text x="5" y="238">-15</text></g><g style="stroke:#888888; font-family:Arial; font-size:6pt;"><line x1="1" y1="210" x2="700" y2="210" style="stroke:#aaaaaa;"/><text x="5" y="208">-10</text></g><g style="stroke:#888888; font-family:Arial; font-size:6pt;"><line x1="1" y1="180" x2="700" y2="180" style="stroke:#aaaaaa;"/><text x="5" y="178">-5</text></g><g style="stroke:#888888; font-family:Arial; font-size:6pt;"><line x1="1" y1="150" x2="700" y2="150" style="stroke:#aaaaaa;"/><text x="5" y="148">0</text></g><g style="stroke:#888888; font-family:Arial; font-size:6pt;"><line x1="1" y1="120" x2="700" y2="120" style="stroke:#aaaaaa;"/><text x="5" y="118">5</text></g><g style="stroke:#888888; font-family:Arial; font-size:6pt;"><line x1="1" y1="90" x2="700" y2="90" style="stroke:#aaaaaa;"/><text x="5" y="88">10</text></g><g style="stroke:#888888; font-family:Arial; font-size:6pt;"><line x1="1" y1="60" x2="700" y2="60" style="stroke:#aaaaaa;"/><text x="5" y="58">15</text></g><g style="stroke:#888888; font-family:Arial; font-size:6pt;"><line x1="1" y1="30" x2="700" y2="30" style="stroke:#aaaaaa;"/><text x="5" y="28">20</text></g><g style="stroke:#888888; font-family:Arial; font-size:6pt;"><line x1="1" y1="0" x2="700" y2="0" style="stroke:#aaaaaa;"/><text x="5" y="-2">25</text></g><text x="350" y="20" style="text-anchor:middle; font-size: 14pt;">Bowling History - Maxipads</text>
					
					<rect x="7.216494845360825" y="150" height="60" width="5.216494845360825" style="fill:#00007f;"/><rect x="14.43298969072165" y="120" height="30" width="5.216494845360825" style="fill:#00007f;"/><rect x="21.649484536082475" y="96" height="54" width="5.216494845360825" style="fill:#00007f;"/><rect x="28.8659793814433" y="78" height="72" width="5.216494845360825" style="fill:#00007f;"/><rect x="36.08247422680412" y="150" height="30" width="5.216494845360825" style="fill:#00007f;"/><rect x="43.29896907216495" y="150" height="6" width="5.216494845360825" style="fill:#00007f;"/><rect x="50.51546391752577" y="150" height="0" width="5.216494845360825" style="fill:#00007f;"/><rect x="57.7319587628866" y="138" height="12" width="5.216494845360825" style="fill:#00007f;"/><rect x="64.94845360824742" y="78" height="72" width="5.216494845360825" style="fill:#00007f;"/><rect x="72.16494845360825" y="84" height="66" width="5.216494845360825" style="fill:#00007f;"/><rect x="79.38144329896907" y="150" height="6" width="5.216494845360825" style="fill:#00007f;"/><rect x="86.5979381443299" y="96" height="54" width="5.216494845360825" style="fill:#00007f;"/><rect x="93.81443298969073" y="120" height="30" width="5.216494845360825" style="fill:#00007f;"/><rect x="101.03092783505154" y="108" height="42" width="5.216494845360825" style="fill:#00007f;"/><rect x="108.24742268041237" y="138" height="12" width="5.216494845360825" style="fill:#00007f;"/><rect x="115.4639175257732" y="132" height="18" width="5.216494845360825" style="fill:#00007f;"/><rect x="122.68041237113403" y="72" height="78" width="5.216494845360825" style="fill:#00007f;"/><rect x="129.89690721649484" y="150" height="12" width="5.216494845360825" style="fill:#00007f;"/><rect x="137.11340206185568" y="102" height="48" width="5.216494845360825" style="fill:#00007f;"/><rect x="144.3298969072165" y="150" height="30" width="5.216494845360825" style="fill:#00007f;"/><rect x="151.54639175257734" y="150" height="6" width="5.216494845360825" style="fill:#00007f;"/><rect x="158.76288659793815" y="150" height="24" width="5.216494845360825" style="fill:#00007f;"/><rect x="165.97938144329896" y="96" height="54" width="5.216494845360825" style="fill:#00007f;"/><rect x="173.1958762886598" y="78" height="72" width="5.216494845360825" style="fill:#00007f;"/><rect x="180.41237113402062" y="144" height="6" width="5.216494845360825" style="fill:#00007f;"/><rect x="187.62886597938146" y="138" height="12" width="5.216494845360825" style="fill:#00007f;"/><rect x="194.84536082474227" y="150" height="48" width="5.216494845360825" style="fill:#00007f;"/><rect x="202.06185567010309" y="108" height="42" width="5.216494845360825" style="fill:#00007f;"/><rect x="209.27835051546393" y="150" height="0" width="5.216494845360825" style="fill:#00007f;"/><rect x="216.49484536082474" y="144" height="6" width="5.216494845360825" style="fill:#00007f;"/><rect x="223.71134020618558" y="126" height="24" width="5.216494845360825" style="fill:#00007f;"/><rect x="230.9278350515464" y="84" height="66" width="5.216494845360825" style="fill:#00007f;"/><rect x="238.1443298969072" y="150" height="54" width="5.216494845360825" style="fill:#00007f;"/><rect x="245.36082474226805" y="150" height="6" width="5.216494845360825" style="fill:#00007f;"/><rect x="252.57731958762886" y="150" height="24" width="5.216494845360825" style="fill:#00007f;"/><rect x="259.7938144329897" y="102" height="48" width="5.216494845360825" style="fill:#00007f;"/><rect x="267.0103092783505" y="108" height="42" width="5.216494845360825" style="fill:#00007f;"/><rect x="274.22680412371136" y="90" height="60" width="5.216494845360825" style="fill:#00007f;"/><rect x="281.44329896907215" y="150" height="24" width="5.216494845360825" style="fill:#00007f;"/><rect x="288.659793814433" y="150" height="48" width="5.216494845360825" style="fill:#00007f;"/><rect x="295.87628865979383" y="78" height="72" width="5.216494845360825" style="fill:#00007f;"/><rect x="303.09278350515467" y="150" height="36" width="5.216494845360825" style="fill:#00007f;"/><rect x="310.30927835051546" y="132" height="18" width="5.216494845360825" style="fill:#00007f;"/><rect x="317.5257731958763" y="150" height="0" width="5.216494845360825" style="fill:#00007f;"/><rect x="324.74226804123714" y="66" height="84" width="5.216494845360825" style="fill:#00007f;"/><rect x="331.9587628865979" y="108" height="42" width="5.216494845360825" style="fill:#00007f;"/><rect x="339.17525773195877" y="150" height="6" width="5.216494845360825" style="fill:#00007f;"/><rect x="346.3917525773196" y="150" height="30" width="5.216494845360825" style="fill:#00007f;"/><rect x="353.6082474226804" y="132" height="18" width="5.216494845360825" style="fill:#00007f;"/><rect x="360.82474226804123" y="144" height="6" width="5.216494845360825" style="fill:#00007f;"/><rect x="368.0412371134021" y="150" height="0" width="5.216494845360825" style="fill:#00007f;"/><rect x="375.2577319587629" y="96" height="54" width="5.216494845360825" style="fill:#00007f;"/><rect x="382.4742268041237" y="114" height="36" width="5.216494845360825" style="fill:#00007f;"/><rect x="389.69072164948454" y="126" height="24" width="5.216494845360825" style="fill:#00007f;"/><rect x="396.9072164948454" y="120" height="30" width="5.216494845360825" style="fill:#00007f;"/><rect x="404.12371134020617" y="120" height="30" width="5.216494845360825" style="fill:#00007f;"/><rect x="411.340206185567" y="78" height="72" width="5.216494845360825" style="fill:#00007f;"/><rect x="418.55670103092785" y="132" height="18" width="5.216494845360825" style="fill:#00007f;"/><rect x="425.77319587628864" y="42" height="108" width="5.216494845360825" style="fill:#00007f;"/><rect x="432.9896907216495" y="126" height="24" width="5.216494845360825" style="fill:#00007f;"/><rect x="440.2061855670103" y="150" height="12" width="5.216494845360825" style="fill:#00007f;"/><rect x="447.42268041237116" y="150" height="6" width="5.216494845360825" style="fill:#00007f;"/><rect x="454.63917525773195" y="150" height="36" width="5.216494845360825" style="fill:#00007f;"/><rect x="461.8556701030928" y="150" height="24" width="5.216494845360825" style="fill:#00007f;"/><rect x="469.07216494845363" y="90" height="60" width="5.216494845360825" style="fill:#00007f;"/><rect x="476.2886597938144" y="150" height="78" width="5.216494845360825" style="fill:#00007f;"/><rect x="483.50515463917526" y="150" height="54" width="5.216494845360825" style="fill:#00007f;"/><rect x="490.7216494845361" y="102" height="48" width="5.216494845360825" style="fill:#00007f;"/><rect x="497.93814432989694" y="102" height="48" width="5.216494845360825" style="fill:#00007f;"/><rect x="505.1546391752577" y="102" height="48" width="5.216494845360825" style="fill:#00007f;"/><rect x="512.3711340206186" y="120" height="30" width="5.216494845360825" style="fill:#00007f;"/><rect x="519.5876288659794" y="150" height="12" width="5.216494845360825" style="fill:#00007f;"/><rect x="526.8041237113403" y="108" height="42" width="5.216494845360825" style="fill:#00007f;"/><rect x="534.020618556701" y="150" height="90" width="5.216494845360825" style="fill:#00007f;"/><rect x="541.2371134020618" y="84" height="66" width="5.216494845360825" style="fill:#00007f;"/><rect x="548.4536082474227" y="126" height="24" width="5.216494845360825" style="fill:#00007f;"/><rect x="555.6701030927835" y="126" height="24" width="5.216494845360825" style="fill:#00007f;"/><rect x="562.8865979381443" y="132" height="18" width="5.216494845360825" style="fill:#00007f;"/><rect x="570.1030927835052" y="84" height="66" width="5.216494845360825" style="fill:#00007f;"/><rect x="577.319587628866" y="72" height="78" width="5.216494845360825" style="fill:#00007f;"/><rect x="584.5360824742268" y="138" height="12" width="5.216494845360825" style="fill:#00007f;"/><rect x="591.7525773195877" y="150" height="30" width="5.216494845360825" style="fill:#00007f;"/><rect x="598.9690721649484" y="96" height="54" width="5.216494845360825" style="fill:#00007f;"/><rect x="606.1855670103093" y="138" height="12" width="5.216494845360825" style="fill:#00007f;"/><rect x="613.4020618556701" y="30" height="120" width="5.216494845360825" style="fill:#00007f;"/><rect x="620.6185567010309" y="150" height="12" width="5.216494845360825" style="fill:#00007f;"/><rect x="627.8350515463918" y="78" height="72" width="5.216494845360825" style="fill:#00007f;"/><rect x="635.0515463917526" y="132" height="18" width="5.216494845360825" style="fill:#00007f;"/><rect x="642.2680412371134" y="126" height="24" width="5.216494845360825" style="fill:#00007f;"/><rect x="649.4845360824743" y="150" height="114" width="5.216494845360825" style="fill:#00007f;"/><rect x="656.7010309278351" y="144" height="6" width="5.216494845360825" style="fill:#00007f;"/><rect x="663.9175257731958" y="114" height="36" width="5.216494845360825" style="fill:#00007f;"/><rect x="671.1340206185567" y="78" height="72" width="5.216494845360825" style="fill:#00007f;"/><rect x="678.3505154639175" y="150" height="30" width="5.216494845360825" style="fill:#00007f;"/><rect x="685.5670103092783" y="150" height="0" width="5.216494845360825" style="fill:#00007f;"/><rect x="692.7835051546392" y="132" height="18" width="5.216494845360825" style="fill:#00007f;"/>
					
					<path d="M9.824742268041238 210 L17.04123711340206 165 L24.25773195876289 142 L31.474226804123713 126 L38.69072164948454 136.8 L45.907216494845365 140 L53.123711340206185 141.42857142857142 L60.34020618556701 141 L67.55670103092783 134 L74.77319587628865 129 L81.98969072164948 131.45454545454544 L89.20618556701031 128.5 L96.42268041237114 127.84615384615384 L103.63917525773195 126.42857142857143 L110.85567010309278 127.2 L118.0721649484536 127.5 L125.28865979381443 124.23529411764706 L132.50515463917526 126.33333333333333 L139.7216494845361 125.05263157894737 L146.93814432989691 127.8 L154.15463917525776 129.14285714285714 L161.37113402061857 131.1818181818182 L168.58762886597938 129.65217391304347 L175.80412371134022 127.5 L183.02061855670104 128.16 L190.23711340206188 128.53846153846155 L197.4536082474227 131.11111111111111 L204.6701030927835 130.28571428571428 L211.88659793814435 130.9655172413793 L219.10309278350516 131.4 L226.319587628866 131.2258064516129 L233.53608247422682 129.75 L240.75257731958763 132 L247.96907216494847 132.7058823529412 L255.18556701030928 133.8857142857143 L262.40206185567007 133 L269.6185567010309 132.32432432432432 L276.83505154639175 131.21052631578948 L284.05154639175254 132.30769230769232 L291.2680412371134 133.95 L298.4845360824742 132.58536585365854 L305.70103092783506 133.85714285714286 L312.91752577319585 133.81395348837208 L320.1340206185567 134.1818181818182 L327.35051546391753 132.66666666666666 L334.5670103092783 132.1304347826087 L341.78350515463916 132.63829787234042 L349 133.625 L356.2164948453608 133.59183673469389 L363.4329896907216 133.8 L370.64948453608247 134.11764705882354 L377.8659793814433 133.3846153846154 L385.0824742268041 133.0188679245283 L392.29896907216494 132.88888888888889 L399.5154639175258 132.65454545454546 L406.73195876288656 132.42857142857144 L413.9484536082474 131.4736842105263 L421.16494845360825 131.48275862068965 L428.38144329896903 129.96610169491527 L435.5979381443299 129.9 L442.8144329896907 130.4262295081967 L450.03092783505156 130.83870967741936 L457.24742268041234 131.71428571428572 L464.4639175257732 132.375 L471.680412371134 131.72307692307692 L478.8969072164948 133.1818181818182 L486.11340206185565 134.23880597014926 L493.3298969072165 133.76470588235293 L500.54639175257734 133.30434782608697 L507.7628865979381 132.85714285714286 L514.979381443299 132.67605633802816 L522.1958762886597 133.08333333333334 L529.4123711340206 132.73972602739727 L536.6288659793814 134.1891891891892 L543.8453608247422 133.52 L551.0618556701031 133.42105263157896 L558.2783505154639 133.32467532467533 L565.4948453608247 133.30769230769232 L572.7113402061856 132.68354430379748 L579.9278350515464 131.925 L587.1443298969072 132 L594.360824742268 132.58536585365854 L601.5773195876288 132.14457831325302 L608.7938144329897 132.21428571428572 L616.0103092783505 131.01176470588234 L623.2268041237113 131.37209302325581 L630.4432989690722 130.75862068965517 L637.659793814433 130.77272727272728 L644.8762886597938 130.71910112359552 L652.0927835051547 132.2 L659.3092783505155 132.32967032967034 L666.5257731958762 132.1304347826087 L673.7422680412371 131.5483870967742 L680.9587628865979 132.06382978723406 L688.1752577319587 132.25263157894736 L695.3917525773196 132.25 " style="fill:none; stroke:red; stroke-width:1"/>
				</g>
			</svg>