<?xml version="1.0" encoding="UTF-8"?><svg xml:space="preserve" width="700" height="300">
				<desc>Bowling History</desc>
				<g style="stroke:#000000; stroke-width:0.5; font-family:Arial; font-size:7pt;">
					<rect x="1" y="1" width="698" height="298" style="fill:#dddddd;"/><g style="stroke:#888888; font-family:Arial; font-size:6pt;"><line x1="1" y1="300" x2="700" y2="300" style="stroke:#aaaaaa;"/><text x="5" y="298">-25</text></g><g style="stroke:#888888; font-family:Arial; font-size:6pt;"><line x1="1" y1="270" x2="700" y2="270" style="stroke:#aaaaaa;"/><text x="5" y="268">-20</text></g><g style="stroke:#888888; font-family:Arial; font-size:6pt;"><line x1="1" y1="240" x2="700" y2="240" style="stroke:#aaaaaa;"/><text x="5" y="238">-15</text></g><g style="stroke:#888888; font-family:Arial; font-size:6pt;"><line x1="1" y1="210" x2="700" y2="210" style="stroke:#aaaaaa;"/><text x="5" y="208">-10</text></g><g style="stroke:#888888; font-family:Arial; font-size:6pt;"><line x1="1" y1="180" x2="700" y2="180" style="stroke:#aaaaaa;"/><text x="5" y="178">-5</text></g><g style="stroke:#888888; font-family:Arial; font-size:6pt;"><line x1="1" y1="150" x2="700" y2="150" style="stroke:#aaaaaa;"/><text x="5" y="148">0</text></g><g style="stroke:#888888; font-family:Arial; font-size:6pt;"><line x1="1" y1="120" x2="700" y2="120" style="stroke:#aaaaaa;"/><text x="5" y="118">5</text></g><g style="stroke:#888888; font-family:Arial; font-size:6pt;"><line x1="1" y1="90" x2="700" y2="90" style="stroke:#aaaaaa;"/><text x="5" y="88">10</text></g><g style="stroke:#888888; font-family:Arial; font-size:6pt;"><line x1="1" y1="60" x2="700" y2="60" style="stroke:#aaaaaa;"/><text x="5" y="58">15</text></g><g style="stroke:#888888; font-family:Arial; font-size:6pt;"><line x1="1" y1="30" x2="700" y2="30" style="stroke:#aaaaaa;"/><text x="5" y="28">20</text></g><g style="stroke:#888888; font-family:Arial; font-size:6pt;"><line x1="1" y1="0" x2="700" y2="0" style="stroke:#aaaaaa;"/><text x="5" y="-2">25</text></g><text x="350" y="20" style="text-anchor:middle; font-size: 14pt;">Bowling History - John</text>
					
					<rect x="43.75" y="120" height="30" width="41.75" style="fill:#00007f;"/><rect x="87.5" y="90" height="60" width="41.75" style="fill:#00007f;"/><rect x="131.25" y="126" height="24" width="41.75" style="fill:#00007f;"/><rect x="175" y="108" height="42" width="41.75" style="fill:#00007f;"/><rect x="218.75" y="138" height="12" width="41.75" style="fill:#00007f;"/><rect x="262.5" y="138" height="12" width="41.75" style="fill:#00007f;"/><rect x="306.25" y="138" height="12" width="41.75" style="fill:#00007f;"/><rect x="350" y="150" height="12" width="41.75" style="fill:#00007f;"/><rect x="393.75" y="60" height="90" width="41.75" style="fill:#00007f;"/><rect x="437.5" y="108" height="42" width="41.75" style="fill:#00007f;"/><rect x="481.25" y="90" height="60" width="41.75" style="fill:#00007f;"/><rect x="525" y="102" height="48" width="41.75" style="fill:#00007f;"/><rect x="568.75" y="78" height="72" width="41.75" style="fill:#00007f;"/><rect x="612.5" y="150" height="0" width="41.75" style="fill:#00007f;"/><rect x="656.25" y="150" height="6" width="41.75" style="fill:#00007f;"/>
					
					<path d="M64.625 120 L108.375 105 L152.125 112 L195.875 111 L239.625 116.4 L283.375 120 L327.125 122.57142857142857 L370.875 127.5 L414.625 120 L458.375 118.8 L502.125 116.18181818181819 L545.875 115 L589.625 112.15384615384616 L633.375 114.85714285714286 L677.125 117.6 " style="fill:none; stroke:red; stroke-width:1"/>
				</g>
			</svg>