<?xml version="1.0" encoding="UTF-8"?><svg xml:space="preserve" width="700" height="300">
				<desc>Bowling History</desc>
				<g style="stroke:#000000; stroke-width:0.5; font-family:Arial; font-size:7pt;">
					<rect x="1" y="1" width="698" height="298" style="fill:#dddddd;"/><g style="stroke:#888888; font-family:Arial; font-size:6pt;"><line x1="1" y1="300" x2="700" y2="300" style="stroke:#aaaaaa;"/><text x="5" y="298">-25</text></g><g style="stroke:#888888; font-family:Arial; font-size:6pt;"><line x1="1" y1="270" x2="700" y2="270" style="stroke:#aaaaaa;"/><text x="5" y="268">-20</text></g><g style="stroke:#888888; font-family:Arial; font-size:6pt;"><line x1="1" y1="240" x2="700" y2="240" style="stroke:#aaaaaa;"/><text x="5" y="238">-15</text></g><g style="stroke:#888888; font-family:Arial; font-size:6pt;"><line x1="1" y1="210" x2="700" y2="210" style="stroke:#aaaaaa;"/><text x="5" y="208">-10</text></g><g style="stroke:#888888; font-family:Arial; font-size:6pt;"><line x1="1" y1="180" x2="700" y2="180" style="stroke:#aaaaaa;"/><text x="5" y="178">-5</text></g><g style="stroke:#888888; font-family:Arial; font-size:6pt;"><line x1="1" y1="150" x2="700" y2="150" style="stroke:#aaaaaa;"/><text x="5" y="148">0</text></g><g style="stroke:#888888; font-family:Arial; font-size:6pt;"><line x1="1" y1="120" x2="700" y2="120" style="stroke:#aaaaaa;"/><text x="5" y="118">5</text></g><g style="stroke:#888888; font-family:Arial; font-size:6pt;"><line x1="1" y1="90" x2="700" y2="90" style="stroke:#aaaaaa;"/><text x="5" y="88">10</text></g><g style="stroke:#888888; font-family:Arial; font-size:6pt;"><line x1="1" y1="60" x2="700" y2="60" style="stroke:#aaaaaa;"/><text x="5" y="58">15</text></g><g style="stroke:#888888; font-family:Arial; font-size:6pt;"><line x1="1" y1="30" x2="700" y2="30" style="stroke:#aaaaaa;"/><text x="5" y="28">20</text></g><g style="stroke:#888888; font-family:Arial; font-size:6pt;"><line x1="1" y1="0" x2="700" y2="0" style="stroke:#aaaaaa;"/><text x="5" y="-2">25</text></g><text x="350" y="20" style="text-anchor:middle; font-size: 14pt;">Bowling History - Sightscreen Bob</text>
					
					<rect x="11.11111111111111" y="90" height="60" width="9.11111111111111" style="fill:#00007f;"/><rect x="22.22222222222222" y="150" height="30" width="9.11111111111111" style="fill:#00007f;"/><rect x="33.33333333333333" y="150" height="0" width="9.11111111111111" style="fill:#00007f;"/><rect x="44.44444444444444" y="138" height="12" width="9.11111111111111" style="fill:#00007f;"/><rect x="55.55555555555556" y="102" height="48" width="9.11111111111111" style="fill:#00007f;"/><rect x="66.66666666666666" y="60" height="90" width="9.11111111111111" style="fill:#00007f;"/><rect x="77.77777777777777" y="102" height="48" width="9.11111111111111" style="fill:#00007f;"/><rect x="88.88888888888889" y="126" height="24" width="9.11111111111111" style="fill:#00007f;"/><rect x="100" y="102" height="48" width="9.11111111111111" style="fill:#00007f;"/><rect x="111.11111111111111" y="84" height="66" width="9.11111111111111" style="fill:#00007f;"/><rect x="122.22222222222221" y="108" height="42" width="9.11111111111111" style="fill:#00007f;"/><rect x="133.33333333333331" y="84" height="66" width="9.11111111111111" style="fill:#00007f;"/><rect x="144.44444444444443" y="96" height="54" width="9.11111111111111" style="fill:#00007f;"/><rect x="155.55555555555554" y="48" height="102" width="9.11111111111111" style="fill:#00007f;"/><rect x="166.66666666666666" y="96" height="54" width="9.11111111111111" style="fill:#00007f;"/><rect x="177.77777777777777" y="96" height="54" width="9.11111111111111" style="fill:#00007f;"/><rect x="188.88888888888889" y="150" height="150" width="9.11111111111111" style="fill:#00007f;"/><rect x="200" y="90" height="60" width="9.11111111111111" style="fill:#00007f;"/><rect x="211.11111111111111" y="102" height="48" width="9.11111111111111" style="fill:#00007f;"/><rect x="222.22222222222223" y="150" height="36" width="9.11111111111111" style="fill:#00007f;"/><rect x="233.33333333333331" y="90" height="60" width="9.11111111111111" style="fill:#00007f;"/><rect x="244.44444444444443" y="120" height="30" width="9.11111111111111" style="fill:#00007f;"/><rect x="255.55555555555554" y="78" height="72" width="9.11111111111111" style="fill:#00007f;"/><rect x="266.66666666666663" y="126" height="24" width="9.11111111111111" style="fill:#00007f;"/><rect x="277.77777777777777" y="78" height="72" width="9.11111111111111" style="fill:#00007f;"/><rect x="288.88888888888886" y="108" height="42" width="9.11111111111111" style="fill:#00007f;"/><rect x="300" y="138" height="12" width="9.11111111111111" style="fill:#00007f;"/><rect x="311.1111111111111" y="150" height="6" width="9.11111111111111" style="fill:#00007f;"/><rect x="322.22222222222223" y="84" height="66" width="9.11111111111111" style="fill:#00007f;"/><rect x="333.3333333333333" y="72" height="78" width="9.11111111111111" style="fill:#00007f;"/><rect x="344.44444444444446" y="48" height="102" width="9.11111111111111" style="fill:#00007f;"/><rect x="355.55555555555554" y="120" height="30" width="9.11111111111111" style="fill:#00007f;"/><rect x="366.66666666666663" y="60" height="90" width="9.11111111111111" style="fill:#00007f;"/><rect x="377.77777777777777" y="102" height="48" width="9.11111111111111" style="fill:#00007f;"/><rect x="388.88888888888886" y="150" height="18" width="9.11111111111111" style="fill:#00007f;"/><rect x="400" y="144" height="6" width="9.11111111111111" style="fill:#00007f;"/><rect x="411.1111111111111" y="84" height="66" width="9.11111111111111" style="fill:#00007f;"/><rect x="422.22222222222223" y="24" height="126" width="9.11111111111111" style="fill:#00007f;"/><rect x="433.3333333333333" y="114" height="36" width="9.11111111111111" style="fill:#00007f;"/><rect x="444.44444444444446" y="120" height="30" width="9.11111111111111" style="fill:#00007f;"/><rect x="455.55555555555554" y="150" height="66" width="9.11111111111111" style="fill:#00007f;"/><rect x="466.66666666666663" y="144" height="6" width="9.11111111111111" style="fill:#00007f;"/><rect x="477.77777777777777" y="102" height="48" width="9.11111111111111" style="fill:#00007f;"/><rect x="488.88888888888886" y="108" height="42" width="9.11111111111111" style="fill:#00007f;"/><rect x="500" y="150" height="6" width="9.11111111111111" style="fill:#00007f;"/><rect x="511.1111111111111" y="96" height="54" width="9.11111111111111" style="fill:#00007f;"/><rect x="522.2222222222222" y="150" height="42" width="9.11111111111111" style="fill:#00007f;"/><rect x="533.3333333333333" y="78" height="72" width="9.11111111111111" style="fill:#00007f;"/><rect x="544.4444444444445" y="66" height="84" width="9.11111111111111" style="fill:#00007f;"/><rect x="555.5555555555555" y="150" height="42" width="9.11111111111111" style="fill:#00007f;"/><rect x="566.6666666666666" y="150" height="24" width="9.11111111111111" style="fill:#00007f;"/><rect x="577.7777777777777" y="30" height="120" width="9.11111111111111" style="fill:#00007f;"/><rect x="588.8888888888889" y="60" height="90" width="9.11111111111111" style="fill:#00007f;"/><rect x="600" y="150" height="0" width="9.11111111111111" style="fill:#00007f;"/><rect x="611.1111111111111" y="102" height="48" width="9.11111111111111" style="fill:#00007f;"/><rect x="622.2222222222222" y="144" height="6" width="9.11111111111111" style="fill:#00007f;"/><rect x="633.3333333333333" y="150" height="36" width="9.11111111111111" style="fill:#00007f;"/><rect x="644.4444444444445" y="150" height="0" width="9.11111111111111" style="fill:#00007f;"/><rect x="655.5555555555555" y="84" height="66" width="9.11111111111111" style="fill:#00007f;"/><rect x="666.6666666666666" y="150" height="42" width="9.11111111111111" style="fill:#00007f;"/><rect x="677.7777777777777" y="114" height="36" width="9.11111111111111" style="fill:#00007f;"/><rect x="688.8888888888889" y="150" height="36" width="9.11111111111111" style="fill:#00007f;"/>
					
					<path d="M15.666666666666666 90 L26.77777777777778 135 L37.888888888888886 140 L49 139.5 L60.111111111111114 132 L71.22222222222221 120 L82.33333333333333 117.42857142857143 L93.44444444444444 118.5 L104.55555555555556 116.66666666666667 L115.66666666666667 113.4 L126.77777777777777 112.9090909090909 L137.88888888888886 110.5 L148.99999999999997 109.38461538461539 L160.1111111111111 105 L171.2222222222222 104.4 L182.33333333333331 103.875 L193.44444444444443 115.41176470588235 L204.55555555555554 114 L215.66666666666666 113.36842105263158 L226.77777777777777 117 L237.88888888888886 115.71428571428572 L248.99999999999997 115.9090909090909 L260.1111111111111 114.26086956521739 L271.2222222222222 114.75 L282.3333333333333 113.28 L293.4444444444444 113.07692307692307 L304.55555555555554 114 L315.66666666666663 115.5 L326.77777777777777 114.41379310344827 L337.88888888888886 113 L349 110.90322580645162 L360.1111111111111 111.1875 L371.2222222222222 109.63636363636363 L382.3333333333333 109.41176470588235 L393.4444444444444 111.08571428571429 L404.55555555555554 112 L415.66666666666663 111.24324324324324 L426.77777777777777 108.94736842105263 L437.88888888888886 109.07692307692308 L449 109.35 L460.1111111111111 111.95121951219512 L471.2222222222222 112.71428571428572 L482.3333333333333 112.46511627906978 L493.4444444444444 112.36363636363637 L504.55555555555554 113.33333333333334 L515.6666666666666 112.95652173913044 L526.7777777777777 114.63829787234043 L537.8888888888888 113.875 L549 112.89795918367346 L560.1111111111111 114.48 L571.2222222222222 115.64705882352942 L582.3333333333333 114 L593.4444444444445 112.98113207547169 L604.5555555555555 113.66666666666667 L615.6666666666666 113.45454545454545 L626.7777777777777 114 L637.8888888888888 115.26315789473685 L649 115.86206896551724 L660.1111111111111 115.32203389830508 L671.2222222222222 116.6 L682.3333333333333 116.55737704918033 L693.4444444444445 117.67741935483872 " style="fill:none; stroke:red; stroke-width:1"/>
				</g>
			</svg>