<?xml version="1.0" encoding="UTF-8"?><svg xml:space="preserve" width="700" height="300">
				<desc>Bowling History</desc>
				<g style="stroke:#000000; stroke-width:0.5; font-family:Arial; font-size:7pt;">
					<rect x="1" y="1" width="698" height="298" style="fill:#dddddd;"/><g style="stroke:#888888; font-family:Arial; font-size:6pt;"><line x1="1" y1="300" x2="700" y2="300" style="stroke:#aaaaaa;"/><text x="5" y="298">-25</text></g><g style="stroke:#888888; font-family:Arial; font-size:6pt;"><line x1="1" y1="270" x2="700" y2="270" style="stroke:#aaaaaa;"/><text x="5" y="268">-20</text></g><g style="stroke:#888888; font-family:Arial; font-size:6pt;"><line x1="1" y1="240" x2="700" y2="240" style="stroke:#aaaaaa;"/><text x="5" y="238">-15</text></g><g style="stroke:#888888; font-family:Arial; font-size:6pt;"><line x1="1" y1="210" x2="700" y2="210" style="stroke:#aaaaaa;"/><text x="5" y="208">-10</text></g><g style="stroke:#888888; font-family:Arial; font-size:6pt;"><line x1="1" y1="180" x2="700" y2="180" style="stroke:#aaaaaa;"/><text x="5" y="178">-5</text></g><g style="stroke:#888888; font-family:Arial; font-size:6pt;"><line x1="1" y1="150" x2="700" y2="150" style="stroke:#aaaaaa;"/><text x="5" y="148">0</text></g><g style="stroke:#888888; font-family:Arial; font-size:6pt;"><line x1="1" y1="120" x2="700" y2="120" style="stroke:#aaaaaa;"/><text x="5" y="118">5</text></g><g style="stroke:#888888; font-family:Arial; font-size:6pt;"><line x1="1" y1="90" x2="700" y2="90" style="stroke:#aaaaaa;"/><text x="5" y="88">10</text></g><g style="stroke:#888888; font-family:Arial; font-size:6pt;"><line x1="1" y1="60" x2="700" y2="60" style="stroke:#aaaaaa;"/><text x="5" y="58">15</text></g><g style="stroke:#888888; font-family:Arial; font-size:6pt;"><line x1="1" y1="30" x2="700" y2="30" style="stroke:#aaaaaa;"/><text x="5" y="28">20</text></g><g style="stroke:#888888; font-family:Arial; font-size:6pt;"><line x1="1" y1="0" x2="700" y2="0" style="stroke:#aaaaaa;"/><text x="5" y="-2">25</text></g><text x="350" y="20" style="text-anchor:middle; font-size: 14pt;">Bowling History - Big Kev</text>
					
					<rect x="35" y="114" height="36" width="33" style="fill:#00007f;"/><rect x="70" y="114" height="36" width="33" style="fill:#00007f;"/><rect x="105" y="90" height="60" width="33" style="fill:#00007f;"/><rect x="140" y="114" height="36" width="33" style="fill:#00007f;"/><rect x="175" y="60" height="90" width="33" style="fill:#00007f;"/><rect x="210" y="150" height="0" width="33" style="fill:#00007f;"/><rect x="245" y="108" height="42" width="33" style="fill:#00007f;"/><rect x="280" y="96" height="54" width="33" style="fill:#00007f;"/><rect x="315" y="84" height="66" width="33" style="fill:#00007f;"/><rect x="350" y="78" height="72" width="33" style="fill:#00007f;"/><rect x="385" y="150" height="24" width="33" style="fill:#00007f;"/><rect x="420" y="18" height="132" width="33" style="fill:#00007f;"/><rect x="455" y="102" height="48" width="33" style="fill:#00007f;"/><rect x="490" y="132" height="18" width="33" style="fill:#00007f;"/><rect x="525" y="90" height="60" width="33" style="fill:#00007f;"/><rect x="560" y="66" height="84" width="33" style="fill:#00007f;"/><rect x="595" y="90" height="60" width="33" style="fill:#00007f;"/><rect x="630" y="126" height="24" width="33" style="fill:#00007f;"/><rect x="665" y="138" height="12" width="33" style="fill:#00007f;"/>
					
					<path d="M51.5 114 L86.5 114 L121.5 106 L156.5 108 L191.5 98.4 L226.5 107 L261.5 107.14285714285714 L296.5 105.75 L331.5 103.33333333333334 L366.5 100.80000000000001 L401.5 107.45454545454545 L436.5 100 L471.5 100.15384615384615 L506.5 102.42857142857143 L541.5 101.6 L576.5 99.375 L611.5 98.82352941176471 L646.5 100.33333333333333 L681.5 102.3157894736842 " style="fill:none; stroke:red; stroke-width:1"/>
				</g>
			</svg>