<?xml version="1.0" encoding="UTF-8"?><svg xml:space="preserve" width="700" height="300">
				<desc>Bowling History</desc>
				<g style="stroke:#000000; stroke-width:0.5; font-family:Arial; font-size:7pt;">
					<rect x="1" y="1" width="698" height="298" style="fill:#dddddd;"/><g style="stroke:#888888; font-family:Arial; font-size:6pt;"><line x1="1" y1="300" x2="700" y2="300" style="stroke:#aaaaaa;"/><text x="5" y="298">-25</text></g><g style="stroke:#888888; font-family:Arial; font-size:6pt;"><line x1="1" y1="270" x2="700" y2="270" style="stroke:#aaaaaa;"/><text x="5" y="268">-20</text></g><g style="stroke:#888888; font-family:Arial; font-size:6pt;"><line x1="1" y1="240" x2="700" y2="240" style="stroke:#aaaaaa;"/><text x="5" y="238">-15</text></g><g style="stroke:#888888; font-family:Arial; font-size:6pt;"><line x1="1" y1="210" x2="700" y2="210" style="stroke:#aaaaaa;"/><text x="5" y="208">-10</text></g><g style="stroke:#888888; font-family:Arial; font-size:6pt;"><line x1="1" y1="180" x2="700" y2="180" style="stroke:#aaaaaa;"/><text x="5" y="178">-5</text></g><g style="stroke:#888888; font-family:Arial; font-size:6pt;"><line x1="1" y1="150" x2="700" y2="150" style="stroke:#aaaaaa;"/><text x="5" y="148">0</text></g><g style="stroke:#888888; font-family:Arial; font-size:6pt;"><line x1="1" y1="120" x2="700" y2="120" style="stroke:#aaaaaa;"/><text x="5" y="118">5</text></g><g style="stroke:#888888; font-family:Arial; font-size:6pt;"><line x1="1" y1="90" x2="700" y2="90" style="stroke:#aaaaaa;"/><text x="5" y="88">10</text></g><g style="stroke:#888888; font-family:Arial; font-size:6pt;"><line x1="1" y1="60" x2="700" y2="60" style="stroke:#aaaaaa;"/><text x="5" y="58">15</text></g><g style="stroke:#888888; font-family:Arial; font-size:6pt;"><line x1="1" y1="30" x2="700" y2="30" style="stroke:#aaaaaa;"/><text x="5" y="28">20</text></g><g style="stroke:#888888; font-family:Arial; font-size:6pt;"><line x1="1" y1="0" x2="700" y2="0" style="stroke:#aaaaaa;"/><text x="5" y="-2">25</text></g><text x="350" y="20" style="text-anchor:middle; font-size: 14pt;">Bowling History - Spud</text>
					
					<rect x="17.073170731707318" y="150" height="18" width="15.073170731707318" style="fill:#00007f;"/><rect x="34.146341463414636" y="84" height="66" width="15.073170731707318" style="fill:#00007f;"/><rect x="51.21951219512195" y="102" height="48" width="15.073170731707318" style="fill:#00007f;"/><rect x="68.29268292682927" y="132" height="18" width="15.073170731707318" style="fill:#00007f;"/><rect x="85.3658536585366" y="102" height="48" width="15.073170731707318" style="fill:#00007f;"/><rect x="102.4390243902439" y="150" height="36" width="15.073170731707318" style="fill:#00007f;"/><rect x="119.51219512195122" y="108" height="42" width="15.073170731707318" style="fill:#00007f;"/><rect x="136.58536585365854" y="150" height="12" width="15.073170731707318" style="fill:#00007f;"/><rect x="153.65853658536585" y="150" height="66" width="15.073170731707318" style="fill:#00007f;"/><rect x="170.7317073170732" y="144" height="6" width="15.073170731707318" style="fill:#00007f;"/><rect x="187.8048780487805" y="60" height="90" width="15.073170731707318" style="fill:#00007f;"/><rect x="204.8780487804878" y="150" height="6" width="15.073170731707318" style="fill:#00007f;"/><rect x="221.95121951219514" y="78" height="72" width="15.073170731707318" style="fill:#00007f;"/><rect x="239.02439024390245" y="90" height="60" width="15.073170731707318" style="fill:#00007f;"/><rect x="256.0975609756098" y="150" height="24" width="15.073170731707318" style="fill:#00007f;"/><rect x="273.1707317073171" y="150" height="66" width="15.073170731707318" style="fill:#00007f;"/><rect x="290.2439024390244" y="72" height="78" width="15.073170731707318" style="fill:#00007f;"/><rect x="307.3170731707317" y="90" height="60" width="15.073170731707318" style="fill:#00007f;"/><rect x="324.39024390243907" y="66" height="84" width="15.073170731707318" style="fill:#00007f;"/><rect x="341.4634146341464" y="150" height="24" width="15.073170731707318" style="fill:#00007f;"/><rect x="358.5365853658537" y="108" height="42" width="15.073170731707318" style="fill:#00007f;"/><rect x="375.609756097561" y="66" height="84" width="15.073170731707318" style="fill:#00007f;"/><rect x="392.6829268292683" y="102" height="48" width="15.073170731707318" style="fill:#00007f;"/><rect x="409.7560975609756" y="150" height="36" width="15.073170731707318" style="fill:#00007f;"/><rect x="426.82926829268297" y="150" height="36" width="15.073170731707318" style="fill:#00007f;"/><rect x="443.9024390243903" y="120" height="30" width="15.073170731707318" style="fill:#00007f;"/><rect x="460.9756097560976" y="150" height="90" width="15.073170731707318" style="fill:#00007f;"/><rect x="478.0487804878049" y="126" height="24" width="15.073170731707318" style="fill:#00007f;"/><rect x="495.1219512195122" y="144" height="6" width="15.073170731707318" style="fill:#00007f;"/><rect x="512.1951219512196" y="66" height="84" width="15.073170731707318" style="fill:#00007f;"/><rect x="529.2682926829268" y="150" height="18" width="15.073170731707318" style="fill:#00007f;"/><rect x="546.3414634146342" y="30" height="120" width="15.073170731707318" style="fill:#00007f;"/><rect x="563.4146341463415" y="126" height="24" width="15.073170731707318" style="fill:#00007f;"/><rect x="580.4878048780488" y="90" height="60" width="15.073170731707318" style="fill:#00007f;"/><rect x="597.5609756097562" y="90" height="60" width="15.073170731707318" style="fill:#00007f;"/><rect x="614.6341463414634" y="150" height="18" width="15.073170731707318" style="fill:#00007f;"/><rect x="631.7073170731708" y="138" height="12" width="15.073170731707318" style="fill:#00007f;"/><rect x="648.7804878048781" y="144" height="6" width="15.073170731707318" style="fill:#00007f;"/><rect x="665.8536585365854" y="54" height="96" width="15.073170731707318" style="fill:#00007f;"/><rect x="682.9268292682927" y="66" height="84" width="15.073170731707318" style="fill:#00007f;"/>
					
					<path d="M24.609756097560975 168 L41.6829268292683 126 L58.75609756097561 118 L75.82926829268293 121.5 L92.90243902439025 117.6 L109.97560975609755 129 L127.04878048780488 126 L144.1219512195122 130.5 L161.1951219512195 140 L178.26829268292684 140.4 L195.34146341463415 133.0909090909091 L212.41463414634146 135 L229.4878048780488 130.6153846153846 L246.5609756097561 127.71428571428572 L263.63414634146346 130.8 L280.70731707317077 136.125 L297.7804878048781 132.35294117647058 L314.8536585365854 130 L331.92682926829275 126.63157894736842 L349.00000000000006 129 L366.07317073170736 128 L383.1463414634147 125.18181818181819 L400.219512195122 124.17391304347827 L417.2926829268293 126.75 L434.36585365853665 129.12 L451.43902439024396 128.76923076923077 L468.51219512195127 132.88888888888889 L485.5853658536586 132.64285714285714 L502.6585365853659 133.0344827586207 L519.7317073170732 130.8 L536.8048780487804 132 L553.8780487804878 128.8125 L570.9512195121952 128.72727272727272 L588.0243902439024 127.58823529411765 L605.0975609756098 126.51428571428572 L622.170731707317 127.66666666666666 L639.2439024390244 127.94594594594594 L656.3170731707318 128.3684210526316 L673.390243902439 126.46153846153847 L690.4634146341464 124.95 " style="fill:none; stroke:red; stroke-width:1"/>
				</g>
			</svg>