<?xml version="1.0" encoding="UTF-8"?><svg xml:space="preserve" width="700" height="300">
				<desc>Bowling History</desc>
				<g style="stroke:#000000; stroke-width:0.5; font-family:Arial; font-size:7pt;">
					<rect x="1" y="1" width="698" height="298" style="fill:#dddddd;"/><g style="stroke:#888888; font-family:Arial; font-size:6pt;"><line x1="1" y1="300" x2="700" y2="300" style="stroke:#aaaaaa;"/><text x="5" y="298">-25</text></g><g style="stroke:#888888; font-family:Arial; font-size:6pt;"><line x1="1" y1="270" x2="700" y2="270" style="stroke:#aaaaaa;"/><text x="5" y="268">-20</text></g><g style="stroke:#888888; font-family:Arial; font-size:6pt;"><line x1="1" y1="240" x2="700" y2="240" style="stroke:#aaaaaa;"/><text x="5" y="238">-15</text></g><g style="stroke:#888888; font-family:Arial; font-size:6pt;"><line x1="1" y1="210" x2="700" y2="210" style="stroke:#aaaaaa;"/><text x="5" y="208">-10</text></g><g style="stroke:#888888; font-family:Arial; font-size:6pt;"><line x1="1" y1="180" x2="700" y2="180" style="stroke:#aaaaaa;"/><text x="5" y="178">-5</text></g><g style="stroke:#888888; font-family:Arial; font-size:6pt;"><line x1="1" y1="150" x2="700" y2="150" style="stroke:#aaaaaa;"/><text x="5" y="148">0</text></g><g style="stroke:#888888; font-family:Arial; font-size:6pt;"><line x1="1" y1="120" x2="700" y2="120" style="stroke:#aaaaaa;"/><text x="5" y="118">5</text></g><g style="stroke:#888888; font-family:Arial; font-size:6pt;"><line x1="1" y1="90" x2="700" y2="90" style="stroke:#aaaaaa;"/><text x="5" y="88">10</text></g><g style="stroke:#888888; font-family:Arial; font-size:6pt;"><line x1="1" y1="60" x2="700" y2="60" style="stroke:#aaaaaa;"/><text x="5" y="58">15</text></g><g style="stroke:#888888; font-family:Arial; font-size:6pt;"><line x1="1" y1="30" x2="700" y2="30" style="stroke:#aaaaaa;"/><text x="5" y="28">20</text></g><g style="stroke:#888888; font-family:Arial; font-size:6pt;"><line x1="1" y1="0" x2="700" y2="0" style="stroke:#aaaaaa;"/><text x="5" y="-2">25</text></g><text x="350" y="20" style="text-anchor:middle; font-size: 14pt;">Bowling History - Dillo</text>
					
					<rect x="41.1764705882353" y="84" height="66" width="39.1764705882353" style="fill:#00007f;"/><rect x="82.3529411764706" y="132" height="18" width="39.1764705882353" style="fill:#00007f;"/><rect x="123.52941176470588" y="150" height="12" width="39.1764705882353" style="fill:#00007f;"/><rect x="164.7058823529412" y="114" height="36" width="39.1764705882353" style="fill:#00007f;"/><rect x="205.8823529411765" y="114" height="36" width="39.1764705882353" style="fill:#00007f;"/><rect x="247.05882352941177" y="108" height="42" width="39.1764705882353" style="fill:#00007f;"/><rect x="288.2352941176471" y="78" height="72" width="39.1764705882353" style="fill:#00007f;"/><rect x="329.4117647058824" y="96" height="54" width="39.1764705882353" style="fill:#00007f;"/><rect x="370.5882352941177" y="120" height="30" width="39.1764705882353" style="fill:#00007f;"/><rect x="411.764705882353" y="150" height="36" width="39.1764705882353" style="fill:#00007f;"/><rect x="452.9411764705883" y="150" height="48" width="39.1764705882353" style="fill:#00007f;"/><rect x="494.11764705882354" y="138" height="12" width="39.1764705882353" style="fill:#00007f;"/><rect x="535.2941176470589" y="120" height="30" width="39.1764705882353" style="fill:#00007f;"/><rect x="576.4705882352941" y="108" height="42" width="39.1764705882353" style="fill:#00007f;"/><rect x="617.6470588235295" y="96" height="54" width="39.1764705882353" style="fill:#00007f;"/><rect x="658.8235294117648" y="108" height="42" width="39.1764705882353" style="fill:#00007f;"/>
					
					<path d="M60.76470588235294 84 L101.94117647058825 108 L143.11764705882354 126 L184.29411764705884 123 L225.47058823529414 121.2 L266.6470588235294 119 L307.8235294117647 113.14285714285714 L349 111 L390.1764705882353 112 L431.3529411764706 119.4 L472.5294117647059 126.54545454545455 L513.7058823529412 127.5 L554.8823529411766 126.92307692307692 L596.0588235294118 125.57142857142857 L637.2352941176472 123.6 L678.4117647058824 122.625 " style="fill:none; stroke:red; stroke-width:1"/>
				</g>
			</svg>