<?xml version="1.0" encoding="UTF-8"?><svg xml:space="preserve" width="700" height="300">
				<desc>Bowling History</desc>
				<g style="stroke:#000000; stroke-width:0.5; font-family:Arial; font-size:7pt;">
					<rect x="1" y="1" width="698" height="298" style="fill:#dddddd;"/><g style="stroke:#888888; font-family:Arial; font-size:6pt;"><line x1="1" y1="300" x2="700" y2="300" style="stroke:#aaaaaa;"/><text x="5" y="298">-25</text></g><g style="stroke:#888888; font-family:Arial; font-size:6pt;"><line x1="1" y1="270" x2="700" y2="270" style="stroke:#aaaaaa;"/><text x="5" y="268">-20</text></g><g style="stroke:#888888; font-family:Arial; font-size:6pt;"><line x1="1" y1="240" x2="700" y2="240" style="stroke:#aaaaaa;"/><text x="5" y="238">-15</text></g><g style="stroke:#888888; font-family:Arial; font-size:6pt;"><line x1="1" y1="210" x2="700" y2="210" style="stroke:#aaaaaa;"/><text x="5" y="208">-10</text></g><g style="stroke:#888888; font-family:Arial; font-size:6pt;"><line x1="1" y1="180" x2="700" y2="180" style="stroke:#aaaaaa;"/><text x="5" y="178">-5</text></g><g style="stroke:#888888; font-family:Arial; font-size:6pt;"><line x1="1" y1="150" x2="700" y2="150" style="stroke:#aaaaaa;"/><text x="5" y="148">0</text></g><g style="stroke:#888888; font-family:Arial; font-size:6pt;"><line x1="1" y1="120" x2="700" y2="120" style="stroke:#aaaaaa;"/><text x="5" y="118">5</text></g><g style="stroke:#888888; font-family:Arial; font-size:6pt;"><line x1="1" y1="90" x2="700" y2="90" style="stroke:#aaaaaa;"/><text x="5" y="88">10</text></g><g style="stroke:#888888; font-family:Arial; font-size:6pt;"><line x1="1" y1="60" x2="700" y2="60" style="stroke:#aaaaaa;"/><text x="5" y="58">15</text></g><g style="stroke:#888888; font-family:Arial; font-size:6pt;"><line x1="1" y1="30" x2="700" y2="30" style="stroke:#aaaaaa;"/><text x="5" y="28">20</text></g><g style="stroke:#888888; font-family:Arial; font-size:6pt;"><line x1="1" y1="0" x2="700" y2="0" style="stroke:#aaaaaa;"/><text x="5" y="-2">25</text></g><text x="350" y="20" style="text-anchor:middle; font-size: 14pt;">Bowling History - Dirty B</text>
					
					<rect x="10.447761194029852" y="78" height="72" width="8.447761194029852" style="fill:#00007f;"/><rect x="20.895522388059703" y="96" height="54" width="8.447761194029852" style="fill:#00007f;"/><rect x="31.343283582089555" y="150" height="18" width="8.447761194029852" style="fill:#00007f;"/><rect x="41.791044776119406" y="54" height="96" width="8.447761194029852" style="fill:#00007f;"/><rect x="52.23880597014926" y="138" height="12" width="8.447761194029852" style="fill:#00007f;"/><rect x="62.68656716417911" y="150" height="24" width="8.447761194029852" style="fill:#00007f;"/><rect x="73.13432835820896" y="126" height="24" width="8.447761194029852" style="fill:#00007f;"/><rect x="83.58208955223881" y="120" height="30" width="8.447761194029852" style="fill:#00007f;"/><rect x="94.02985074626866" y="144" height="6" width="8.447761194029852" style="fill:#00007f;"/><rect x="104.47761194029852" y="120" height="30" width="8.447761194029852" style="fill:#00007f;"/><rect x="114.92537313432837" y="66" height="84" width="8.447761194029852" style="fill:#00007f;"/><rect x="125.37313432835822" y="150" height="72" width="8.447761194029852" style="fill:#00007f;"/><rect x="135.82089552238807" y="120" height="30" width="8.447761194029852" style="fill:#00007f;"/><rect x="146.26865671641792" y="78" height="72" width="8.447761194029852" style="fill:#00007f;"/><rect x="156.71641791044777" y="150" height="18" width="8.447761194029852" style="fill:#00007f;"/><rect x="167.16417910447763" y="84" height="66" width="8.447761194029852" style="fill:#00007f;"/><rect x="177.61194029850748" y="72" height="78" width="8.447761194029852" style="fill:#00007f;"/><rect x="188.05970149253733" y="90" height="60" width="8.447761194029852" style="fill:#00007f;"/><rect x="198.50746268656718" y="66" height="84" width="8.447761194029852" style="fill:#00007f;"/><rect x="208.95522388059703" y="132" height="18" width="8.447761194029852" style="fill:#00007f;"/><rect x="219.40298507462688" y="78" height="72" width="8.447761194029852" style="fill:#00007f;"/><rect x="229.85074626865674" y="96" height="54" width="8.447761194029852" style="fill:#00007f;"/><rect x="240.2985074626866" y="132" height="18" width="8.447761194029852" style="fill:#00007f;"/><rect x="250.74626865671644" y="144" height="6" width="8.447761194029852" style="fill:#00007f;"/><rect x="261.1940298507463" y="132" height="18" width="8.447761194029852" style="fill:#00007f;"/><rect x="271.64179104477614" y="102" height="48" width="8.447761194029852" style="fill:#00007f;"/><rect x="282.089552238806" y="126" height="24" width="8.447761194029852" style="fill:#00007f;"/><rect x="292.53731343283584" y="84" height="66" width="8.447761194029852" style="fill:#00007f;"/><rect x="302.9850746268657" y="120" height="30" width="8.447761194029852" style="fill:#00007f;"/><rect x="313.43283582089555" y="150" height="60" width="8.447761194029852" style="fill:#00007f;"/><rect x="323.8805970149254" y="150" height="54" width="8.447761194029852" style="fill:#00007f;"/><rect x="334.32835820895525" y="150" height="36" width="8.447761194029852" style="fill:#00007f;"/><rect x="344.7761194029851" y="150" height="30" width="8.447761194029852" style="fill:#00007f;"/><rect x="355.22388059701495" y="72" height="78" width="8.447761194029852" style="fill:#00007f;"/><rect x="365.6716417910448" y="48" height="102" width="8.447761194029852" style="fill:#00007f;"/><rect x="376.11940298507466" y="90" height="60" width="8.447761194029852" style="fill:#00007f;"/><rect x="386.5671641791045" y="48" height="102" width="8.447761194029852" style="fill:#00007f;"/><rect x="397.01492537313436" y="144" height="6" width="8.447761194029852" style="fill:#00007f;"/><rect x="407.4626865671642" y="42" height="108" width="8.447761194029852" style="fill:#00007f;"/><rect x="417.91044776119406" y="126" height="24" width="8.447761194029852" style="fill:#00007f;"/><rect x="428.3582089552239" y="150" height="18" width="8.447761194029852" style="fill:#00007f;"/><rect x="438.80597014925377" y="78" height="72" width="8.447761194029852" style="fill:#00007f;"/><rect x="449.2537313432836" y="120" height="30" width="8.447761194029852" style="fill:#00007f;"/><rect x="459.70149253731347" y="126" height="24" width="8.447761194029852" style="fill:#00007f;"/><rect x="470.1492537313433" y="138" height="12" width="8.447761194029852" style="fill:#00007f;"/><rect x="480.5970149253732" y="150" height="24" width="8.447761194029852" style="fill:#00007f;"/><rect x="491.044776119403" y="150" height="60" width="8.447761194029852" style="fill:#00007f;"/><rect x="501.4925373134329" y="150" height="12" width="8.447761194029852" style="fill:#00007f;"/><rect x="511.9402985074627" y="60" height="90" width="8.447761194029852" style="fill:#00007f;"/><rect x="522.3880597014926" y="78" height="72" width="8.447761194029852" style="fill:#00007f;"/><rect x="532.8358208955224" y="150" height="54" width="8.447761194029852" style="fill:#00007f;"/><rect x="543.2835820895523" y="90" height="60" width="8.447761194029852" style="fill:#00007f;"/><rect x="553.7313432835822" y="96" height="54" width="8.447761194029852" style="fill:#00007f;"/><rect x="564.179104477612" y="138" height="12" width="8.447761194029852" style="fill:#00007f;"/><rect x="574.6268656716418" y="72" height="78" width="8.447761194029852" style="fill:#00007f;"/><rect x="585.0746268656717" y="126" height="24" width="8.447761194029852" style="fill:#00007f;"/><rect x="595.5223880597016" y="150" height="24" width="8.447761194029852" style="fill:#00007f;"/><rect x="605.9701492537314" y="150" height="66" width="8.447761194029852" style="fill:#00007f;"/><rect x="616.4179104477612" y="102" height="48" width="8.447761194029852" style="fill:#00007f;"/><rect x="626.8656716417911" y="72" height="78" width="8.447761194029852" style="fill:#00007f;"/><rect x="637.313432835821" y="150" height="54" width="8.447761194029852" style="fill:#00007f;"/><rect x="647.7611940298508" y="114" height="36" width="8.447761194029852" style="fill:#00007f;"/><rect x="658.2089552238806" y="84" height="66" width="8.447761194029852" style="fill:#00007f;"/><rect x="668.6567164179105" y="132" height="18" width="8.447761194029852" style="fill:#00007f;"/><rect x="679.1044776119404" y="138" height="12" width="8.447761194029852" style="fill:#00007f;"/><rect x="689.5522388059702" y="78" height="72" width="8.447761194029852" style="fill:#00007f;"/>
					
					<path d="M14.671641791044777 78 L25.11940298507463 87 L35.56716417910448 114 L46.01492537313433 99 L56.462686567164184 106.8 L66.91044776119404 118 L77.35820895522389 119.14285714285714 L87.80597014925374 119.25 L98.25373134328359 122 L108.70149253731344 121.8 L119.1492537313433 116.72727272727272 L129.59701492537314 125.5 L140.044776119403 125.07692307692307 L150.49253731343285 121.71428571428572 L160.9402985074627 124.8 L171.38805970149255 122.25 L181.8358208955224 119.29411764705883 L192.28358208955225 117.66666666666666 L202.7313432835821 114.94736842105263 L213.17910447761196 115.8 L223.6268656716418 114 L234.07462686567166 113.18181818181819 L244.5223880597015 114 L254.97014925373136 115.25 L265.4179104477612 115.92 L275.8656716417911 115.38461538461539 L286.3134328358209 115.77777777777777 L296.7611940298508 114.64285714285714 L307.2089552238806 114.82758620689656 L317.6567164179105 118 L328.1044776119403 120.7741935483871 L338.5522388059702 122.8125 L349 124.54545454545455 L359.4477611940299 123 L369.8955223880597 120.85714285714286 L380.3432835820896 120 L390.7910447761194 118.05405405405405 L401.2388059701493 118.73684210526315 L411.6865671641791 116.76923076923077 L422.134328358209 117 L432.5820895522388 118.2439024390244 L443.0298507462687 117.28571428571428 L453.4776119402985 117.34883720930233 L463.9253731343284 117.54545454545455 L474.3731343283582 118 L484.8208955223881 119.21739130434783 L495.2686567164179 121.14893617021276 L505.71641791044783 122 L516.1641791044776 120.73469387755102 L526.6119402985075 119.88 L537.0597014925373 121.52941176470588 L547.5074626865672 120.92307692307693 L557.9552238805971 120.45283018867924 L568.4029850746269 120.77777777777777 L578.8507462686567 119.89090909090909 L589.2985074626866 120 L599.7462686567166 120.94736842105263 L610.1940298507463 122.58620689655173 L620.6417910447761 122.23728813559322 L631.089552238806 121.4 L641.537313432836 122.75409836065573 L651.9850746268658 122.61290322580645 L662.4328358208955 122 L672.8805970149255 122.15625 L683.3283582089554 122.4 L693.7761194029852 121.72727272727272 " style="fill:none; stroke:red; stroke-width:1"/>
				</g>
			</svg>