<?xml version="1.0" encoding="UTF-8"?><svg xml:space="preserve" width="700" height="300">
				<desc>Bowling History</desc>
				<g style="stroke:#000000; stroke-width:0.5; font-family:Arial; font-size:7pt;">
					<rect x="1" y="1" width="698" height="298" style="fill:#dddddd;"/><g style="stroke:#888888; font-family:Arial; font-size:6pt;"><line x1="1" y1="300" x2="700" y2="300" style="stroke:#aaaaaa;"/><text x="5" y="298">-25</text></g><g style="stroke:#888888; font-family:Arial; font-size:6pt;"><line x1="1" y1="270" x2="700" y2="270" style="stroke:#aaaaaa;"/><text x="5" y="268">-20</text></g><g style="stroke:#888888; font-family:Arial; font-size:6pt;"><line x1="1" y1="240" x2="700" y2="240" style="stroke:#aaaaaa;"/><text x="5" y="238">-15</text></g><g style="stroke:#888888; font-family:Arial; font-size:6pt;"><line x1="1" y1="210" x2="700" y2="210" style="stroke:#aaaaaa;"/><text x="5" y="208">-10</text></g><g style="stroke:#888888; font-family:Arial; font-size:6pt;"><line x1="1" y1="180" x2="700" y2="180" style="stroke:#aaaaaa;"/><text x="5" y="178">-5</text></g><g style="stroke:#888888; font-family:Arial; font-size:6pt;"><line x1="1" y1="150" x2="700" y2="150" style="stroke:#aaaaaa;"/><text x="5" y="148">0</text></g><g style="stroke:#888888; font-family:Arial; font-size:6pt;"><line x1="1" y1="120" x2="700" y2="120" style="stroke:#aaaaaa;"/><text x="5" y="118">5</text></g><g style="stroke:#888888; font-family:Arial; font-size:6pt;"><line x1="1" y1="90" x2="700" y2="90" style="stroke:#aaaaaa;"/><text x="5" y="88">10</text></g><g style="stroke:#888888; font-family:Arial; font-size:6pt;"><line x1="1" y1="60" x2="700" y2="60" style="stroke:#aaaaaa;"/><text x="5" y="58">15</text></g><g style="stroke:#888888; font-family:Arial; font-size:6pt;"><line x1="1" y1="30" x2="700" y2="30" style="stroke:#aaaaaa;"/><text x="5" y="28">20</text></g><g style="stroke:#888888; font-family:Arial; font-size:6pt;"><line x1="1" y1="0" x2="700" y2="0" style="stroke:#aaaaaa;"/><text x="5" y="-2">25</text></g><text x="350" y="20" style="text-anchor:middle; font-size: 14pt;">Bowling History - Mick</text>
					
					<rect x="6.730769230769231" y="90" height="60" width="4.730769230769231" style="fill:#00007f;"/><rect x="13.461538461538462" y="144" height="6" width="4.730769230769231" style="fill:#00007f;"/><rect x="20.192307692307693" y="150" height="0" width="4.730769230769231" style="fill:#00007f;"/><rect x="26.923076923076923" y="84" height="66" width="4.730769230769231" style="fill:#00007f;"/><rect x="33.65384615384615" y="150" height="0" width="4.730769230769231" style="fill:#00007f;"/><rect x="40.38461538461539" y="102" height="48" width="4.730769230769231" style="fill:#00007f;"/><rect x="47.11538461538461" y="138" height="12" width="4.730769230769231" style="fill:#00007f;"/><rect x="53.84615384615385" y="54" height="96" width="4.730769230769231" style="fill:#00007f;"/><rect x="60.57692307692308" y="150" height="0" width="4.730769230769231" style="fill:#00007f;"/><rect x="67.3076923076923" y="72" height="78" width="4.730769230769231" style="fill:#00007f;"/><rect x="74.03846153846153" y="150" height="0" width="4.730769230769231" style="fill:#00007f;"/><rect x="80.76923076923077" y="108" height="42" width="4.730769230769231" style="fill:#00007f;"/><rect x="87.5" y="102" height="48" width="4.730769230769231" style="fill:#00007f;"/><rect x="94.23076923076923" y="132" height="18" width="4.730769230769231" style="fill:#00007f;"/><rect x="100.96153846153847" y="150" height="36" width="4.730769230769231" style="fill:#00007f;"/><rect x="107.6923076923077" y="78" height="72" width="4.730769230769231" style="fill:#00007f;"/><rect x="114.42307692307692" y="96" height="54" width="4.730769230769231" style="fill:#00007f;"/><rect x="121.15384615384616" y="114" height="36" width="4.730769230769231" style="fill:#00007f;"/><rect x="127.88461538461539" y="120" height="30" width="4.730769230769231" style="fill:#00007f;"/><rect x="134.6153846153846" y="78" height="72" width="4.730769230769231" style="fill:#00007f;"/><rect x="141.34615384615384" y="150" height="12" width="4.730769230769231" style="fill:#00007f;"/><rect x="148.07692307692307" y="132" height="18" width="4.730769230769231" style="fill:#00007f;"/><rect x="154.80769230769232" y="138" height="12" width="4.730769230769231" style="fill:#00007f;"/><rect x="161.53846153846155" y="150" height="0" width="4.730769230769231" style="fill:#00007f;"/><rect x="168.26923076923077" y="120" height="30" width="4.730769230769231" style="fill:#00007f;"/><rect x="175" y="150" height="42" width="4.730769230769231" style="fill:#00007f;"/><rect x="181.73076923076923" y="84" height="66" width="4.730769230769231" style="fill:#00007f;"/><rect x="188.46153846153845" y="150" height="0" width="4.730769230769231" style="fill:#00007f;"/><rect x="195.1923076923077" y="90" height="60" width="4.730769230769231" style="fill:#00007f;"/><rect x="201.92307692307693" y="150" height="36" width="4.730769230769231" style="fill:#00007f;"/><rect x="208.65384615384616" y="84" height="66" width="4.730769230769231" style="fill:#00007f;"/><rect x="215.3846153846154" y="150" height="24" width="4.730769230769231" style="fill:#00007f;"/><rect x="222.1153846153846" y="150" height="18" width="4.730769230769231" style="fill:#00007f;"/><rect x="228.84615384615384" y="150" height="18" width="4.730769230769231" style="fill:#00007f;"/><rect x="235.57692307692307" y="138" height="12" width="4.730769230769231" style="fill:#00007f;"/><rect x="242.30769230769232" y="78" height="72" width="4.730769230769231" style="fill:#00007f;"/><rect x="249.03846153846155" y="96" height="54" width="4.730769230769231" style="fill:#00007f;"/><rect x="255.76923076923077" y="150" height="48" width="4.730769230769231" style="fill:#00007f;"/><rect x="262.5" y="150" height="0" width="4.730769230769231" style="fill:#00007f;"/><rect x="269.2307692307692" y="102" height="48" width="4.730769230769231" style="fill:#00007f;"/><rect x="275.96153846153845" y="78" height="72" width="4.730769230769231" style="fill:#00007f;"/><rect x="282.6923076923077" y="126" height="24" width="4.730769230769231" style="fill:#00007f;"/><rect x="289.4230769230769" y="0" height="150" width="4.730769230769231" style="fill:#00007f;"/><rect x="296.15384615384613" y="150" height="12" width="4.730769230769231" style="fill:#00007f;"/><rect x="302.8846153846154" y="102" height="48" width="4.730769230769231" style="fill:#00007f;"/><rect x="309.61538461538464" y="150" height="12" width="4.730769230769231" style="fill:#00007f;"/><rect x="316.34615384615387" y="138" height="12" width="4.730769230769231" style="fill:#00007f;"/><rect x="323.0769230769231" y="150" height="6" width="4.730769230769231" style="fill:#00007f;"/><rect x="329.8076923076923" y="114" height="36" width="4.730769230769231" style="fill:#00007f;"/><rect x="336.53846153846155" y="108" height="42" width="4.730769230769231" style="fill:#00007f;"/><rect x="343.2692307692308" y="150" height="36" width="4.730769230769231" style="fill:#00007f;"/><rect x="350" y="60" height="90" width="4.730769230769231" style="fill:#00007f;"/><rect x="356.7307692307692" y="90" height="60" width="4.730769230769231" style="fill:#00007f;"/><rect x="363.46153846153845" y="114" height="36" width="4.730769230769231" style="fill:#00007f;"/><rect x="370.1923076923077" y="150" height="12" width="4.730769230769231" style="fill:#00007f;"/><rect x="376.9230769230769" y="150" height="30" width="4.730769230769231" style="fill:#00007f;"/><rect x="383.65384615384613" y="132" height="18" width="4.730769230769231" style="fill:#00007f;"/><rect x="390.3846153846154" y="78" height="72" width="4.730769230769231" style="fill:#00007f;"/><rect x="397.11538461538464" y="108" height="42" width="4.730769230769231" style="fill:#00007f;"/><rect x="403.84615384615387" y="120" height="30" width="4.730769230769231" style="fill:#00007f;"/><rect x="410.5769230769231" y="90" height="60" width="4.730769230769231" style="fill:#00007f;"/><rect x="417.3076923076923" y="78" height="72" width="4.730769230769231" style="fill:#00007f;"/><rect x="424.03846153846155" y="126" height="24" width="4.730769230769231" style="fill:#00007f;"/><rect x="430.7692307692308" y="84" height="66" width="4.730769230769231" style="fill:#00007f;"/><rect x="437.5" y="114" height="36" width="4.730769230769231" style="fill:#00007f;"/><rect x="444.2307692307692" y="96" height="54" width="4.730769230769231" style="fill:#00007f;"/><rect x="450.96153846153845" y="120" height="30" width="4.730769230769231" style="fill:#00007f;"/><rect x="457.6923076923077" y="90" height="60" width="4.730769230769231" style="fill:#00007f;"/><rect x="464.4230769230769" y="150" height="0" width="4.730769230769231" style="fill:#00007f;"/><rect x="471.15384615384613" y="120" height="30" width="4.730769230769231" style="fill:#00007f;"/><rect x="477.8846153846154" y="114" height="36" width="4.730769230769231" style="fill:#00007f;"/><rect x="484.61538461538464" y="90" height="60" width="4.730769230769231" style="fill:#00007f;"/><rect x="491.34615384615387" y="150" height="0" width="4.730769230769231" style="fill:#00007f;"/><rect x="498.0769230769231" y="84" height="66" width="4.730769230769231" style="fill:#00007f;"/><rect x="504.8076923076923" y="150" height="42" width="4.730769230769231" style="fill:#00007f;"/><rect x="511.53846153846155" y="66" height="84" width="4.730769230769231" style="fill:#00007f;"/><rect x="518.2692307692308" y="120" height="30" width="4.730769230769231" style="fill:#00007f;"/><rect x="525" y="84" height="66" width="4.730769230769231" style="fill:#00007f;"/><rect x="531.7307692307693" y="78" height="72" width="4.730769230769231" style="fill:#00007f;"/><rect x="538.4615384615385" y="150" height="12" width="4.730769230769231" style="fill:#00007f;"/><rect x="545.1923076923077" y="138" height="12" width="4.730769230769231" style="fill:#00007f;"/><rect x="551.9230769230769" y="114" height="36" width="4.730769230769231" style="fill:#00007f;"/><rect x="558.6538461538462" y="150" height="54" width="4.730769230769231" style="fill:#00007f;"/><rect x="565.3846153846154" y="96" height="54" width="4.730769230769231" style="fill:#00007f;"/><rect x="572.1153846153846" y="102" height="48" width="4.730769230769231" style="fill:#00007f;"/><rect x="578.8461538461538" y="120" height="30" width="4.730769230769231" style="fill:#00007f;"/><rect x="585.5769230769231" y="90" height="60" width="4.730769230769231" style="fill:#00007f;"/><rect x="592.3076923076923" y="144" height="6" width="4.730769230769231" style="fill:#00007f;"/><rect x="599.0384615384615" y="132" height="18" width="4.730769230769231" style="fill:#00007f;"/><rect x="605.7692307692308" y="102" height="48" width="4.730769230769231" style="fill:#00007f;"/><rect x="612.5" y="138" height="12" width="4.730769230769231" style="fill:#00007f;"/><rect x="619.2307692307693" y="120" height="30" width="4.730769230769231" style="fill:#00007f;"/><rect x="625.9615384615385" y="72" height="78" width="4.730769230769231" style="fill:#00007f;"/><rect x="632.6923076923077" y="84" height="66" width="4.730769230769231" style="fill:#00007f;"/><rect x="639.4230769230769" y="132" height="18" width="4.730769230769231" style="fill:#00007f;"/><rect x="646.1538461538462" y="144" height="6" width="4.730769230769231" style="fill:#00007f;"/><rect x="652.8846153846154" y="102" height="48" width="4.730769230769231" style="fill:#00007f;"/><rect x="659.6153846153846" y="102" height="48" width="4.730769230769231" style="fill:#00007f;"/><rect x="666.3461538461538" y="66" height="84" width="4.730769230769231" style="fill:#00007f;"/><rect x="673.0769230769231" y="138" height="12" width="4.730769230769231" style="fill:#00007f;"/><rect x="679.8076923076923" y="150" height="0" width="4.730769230769231" style="fill:#00007f;"/><rect x="686.5384615384615" y="102" height="48" width="4.730769230769231" style="fill:#00007f;"/><rect x="693.2692307692308" y="150" height="18" width="4.730769230769231" style="fill:#00007f;"/>
					
					<path d="M9.096153846153847 90 L15.826923076923077 117 L22.55769230769231 128 L29.28846153846154 117 L36.01923076923077 123.6 L42.75 120 L49.480769230769226 122.57142857142857 L56.21153846153846 114 L62.94230769230769 118 L69.67307692307692 113.4 L76.40384615384615 116.72727272727272 L83.13461538461539 116 L89.86538461538461 114.92307692307693 L96.59615384615384 116.14285714285714 L103.32692307692308 120.80000000000001 L110.0576923076923 118.125 L116.78846153846153 116.82352941176471 L123.51923076923077 116.66666666666667 L130.25 116.84210526315789 L136.98076923076923 114.9 L143.71153846153845 117.14285714285714 L150.44230769230768 117.81818181818181 L157.17307692307693 118.69565217391305 L163.90384615384616 120 L170.6346153846154 120 L177.3653846153846 122.76923076923077 L184.09615384615384 121.33333333333334 L190.82692307692307 122.35714285714286 L197.55769230769232 121.24137931034483 L204.28846153846155 123.4 L211.01923076923077 122.12903225806451 L217.75 123.75 L224.48076923076923 125.0909090909091 L231.21153846153845 126.35294117647058 L237.94230769230768 126.68571428571428 L244.67307692307693 125.33333333333334 L251.40384615384616 124.54054054054055 L258.1346153846154 126.47368421052632 L264.86538461538464 127.07692307692308 L271.59615384615387 126.45 L278.3269230769231 125.26829268292683 L285.0576923076923 125.28571428571429 L291.78846153846155 122.37209302325581 L298.5192307692308 123.27272727272728 L305.25000000000006 122.8 L311.9807692307693 123.65217391304347 L318.7115384615385 123.95744680851064 L325.44230769230774 124.625 L332.17307692307696 124.40816326530611 L338.9038461538462 124.08 L345.6346153846154 125.29411764705883 L352.36538461538464 124.03846153846155 L359.09615384615387 123.39622641509433 L365.8269230769231 123.22222222222223 L372.5576923076923 123.92727272727272 L379.28846153846155 124.92857142857143 L386.0192307692308 125.05263157894737 L392.75000000000006 124.24137931034483 L399.4807692307693 123.96610169491525 L406.2115384615385 123.9 L412.94230769230774 123.34426229508196 L419.67307692307696 122.61290322580645 L426.4038461538462 122.66666666666667 L433.1346153846154 122.0625 L439.86538461538464 121.93846153846154 L446.59615384615387 121.54545454545455 L453.3269230769231 121.52238805970148 L460.0576923076923 121.05882352941177 L466.78846153846155 121.47826086956522 L473.5192307692308 121.45714285714286 L480.25000000000006 121.35211267605634 L486.9807692307693 120.91666666666666 L493.7115384615385 121.31506849315068 L500.44230769230774 120.8108108108108 L507.17307692307696 121.75999999999999 L513.9038461538462 121.02631578947368 L520.6346153846155 121.01298701298701 L527.3653846153846 120.53846153846153 L534.0961538461539 120 L540.8269230769231 120.525 L547.5576923076924 120.74074074074073 L554.2884615384615 120.65853658536585 L561.0192307692308 121.66265060240964 L567.75 121.35714285714286 L574.4807692307693 121.12941176470588 L581.2115384615385 121.11627906976744 L587.9423076923077 120.75862068965517 L594.6730769230769 121.02272727272728 L601.4038461538462 121.14606741573033 L608.1346153846155 120.93333333333334 L614.8653846153846 121.12087912087912 L621.5961538461539 121.1086956521739 L628.3269230769231 120.58064516129032 L635.0576923076924 120.19148936170214 L641.7884615384615 120.3157894736842 L648.5192307692308 120.5625 L655.25 120.37113402061856 L661.9807692307693 120.18367346938776 L668.7115384615385 119.63636363636364 L675.4423076923077 119.82 L682.1730769230769 120.11881188118812 L688.9038461538462 119.94117647058823 L695.6346153846155 120.40776699029126 " style="fill:none; stroke:red; stroke-width:1"/>
				</g>
			</svg>