<?xml version="1.0" encoding="UTF-8"?><svg xml:space="preserve" width="700" height="300">
				<desc>Bowling History</desc>
				<g style="stroke:#000000; stroke-width:0.5; font-family:Arial; font-size:7pt;">
					<rect x="1" y="1" width="698" height="298" style="fill:#dddddd;"/><g style="stroke:#888888; font-family:Arial; font-size:6pt;"><line x1="1" y1="300" x2="700" y2="300" style="stroke:#aaaaaa;"/><text x="5" y="298">-25</text></g><g style="stroke:#888888; font-family:Arial; font-size:6pt;"><line x1="1" y1="270" x2="700" y2="270" style="stroke:#aaaaaa;"/><text x="5" y="268">-20</text></g><g style="stroke:#888888; font-family:Arial; font-size:6pt;"><line x1="1" y1="240" x2="700" y2="240" style="stroke:#aaaaaa;"/><text x="5" y="238">-15</text></g><g style="stroke:#888888; font-family:Arial; font-size:6pt;"><line x1="1" y1="210" x2="700" y2="210" style="stroke:#aaaaaa;"/><text x="5" y="208">-10</text></g><g style="stroke:#888888; font-family:Arial; font-size:6pt;"><line x1="1" y1="180" x2="700" y2="180" style="stroke:#aaaaaa;"/><text x="5" y="178">-5</text></g><g style="stroke:#888888; font-family:Arial; font-size:6pt;"><line x1="1" y1="150" x2="700" y2="150" style="stroke:#aaaaaa;"/><text x="5" y="148">0</text></g><g style="stroke:#888888; font-family:Arial; font-size:6pt;"><line x1="1" y1="120" x2="700" y2="120" style="stroke:#aaaaaa;"/><text x="5" y="118">5</text></g><g style="stroke:#888888; font-family:Arial; font-size:6pt;"><line x1="1" y1="90" x2="700" y2="90" style="stroke:#aaaaaa;"/><text x="5" y="88">10</text></g><g style="stroke:#888888; font-family:Arial; font-size:6pt;"><line x1="1" y1="60" x2="700" y2="60" style="stroke:#aaaaaa;"/><text x="5" y="58">15</text></g><g style="stroke:#888888; font-family:Arial; font-size:6pt;"><line x1="1" y1="30" x2="700" y2="30" style="stroke:#aaaaaa;"/><text x="5" y="28">20</text></g><g style="stroke:#888888; font-family:Arial; font-size:6pt;"><line x1="1" y1="0" x2="700" y2="0" style="stroke:#aaaaaa;"/><text x="5" y="-2">25</text></g><text x="350" y="20" style="text-anchor:middle; font-size: 14pt;">Bowling History - Jeff</text>
					
					<rect x="6.086956521739131" y="150" height="6" width="4.086956521739131" style="fill:#00007f;"/><rect x="12.173913043478262" y="150" height="6" width="4.086956521739131" style="fill:#00007f;"/><rect x="18.26086956521739" y="126" height="24" width="4.086956521739131" style="fill:#00007f;"/><rect x="24.347826086956523" y="96" height="54" width="4.086956521739131" style="fill:#00007f;"/><rect x="30.434782608695656" y="132" height="18" width="4.086956521739131" style="fill:#00007f;"/><rect x="36.52173913043478" y="84" height="66" width="4.086956521739131" style="fill:#00007f;"/><rect x="42.608695652173914" y="84" height="66" width="4.086956521739131" style="fill:#00007f;"/><rect x="48.69565217391305" y="96" height="54" width="4.086956521739131" style="fill:#00007f;"/><rect x="54.78260869565218" y="114" height="36" width="4.086956521739131" style="fill:#00007f;"/><rect x="60.86956521739131" y="90" height="60" width="4.086956521739131" style="fill:#00007f;"/><rect x="66.95652173913044" y="72" height="78" width="4.086956521739131" style="fill:#00007f;"/><rect x="73.04347826086956" y="114" height="36" width="4.086956521739131" style="fill:#00007f;"/><rect x="79.1304347826087" y="78" height="72" width="4.086956521739131" style="fill:#00007f;"/><rect x="85.21739130434783" y="108" height="42" width="4.086956521739131" style="fill:#00007f;"/><rect x="91.30434782608697" y="126" height="24" width="4.086956521739131" style="fill:#00007f;"/><rect x="97.3913043478261" y="120" height="30" width="4.086956521739131" style="fill:#00007f;"/><rect x="103.47826086956522" y="120" height="30" width="4.086956521739131" style="fill:#00007f;"/><rect x="109.56521739130436" y="132" height="18" width="4.086956521739131" style="fill:#00007f;"/><rect x="115.65217391304348" y="150" height="18" width="4.086956521739131" style="fill:#00007f;"/><rect x="121.73913043478262" y="150" height="12" width="4.086956521739131" style="fill:#00007f;"/><rect x="127.82608695652175" y="108" height="42" width="4.086956521739131" style="fill:#00007f;"/><rect x="133.91304347826087" y="132" height="18" width="4.086956521739131" style="fill:#00007f;"/><rect x="140" y="144" height="6" width="4.086956521739131" style="fill:#00007f;"/><rect x="146.08695652173913" y="126" height="24" width="4.086956521739131" style="fill:#00007f;"/><rect x="152.17391304347828" y="138" height="12" width="4.086956521739131" style="fill:#00007f;"/><rect x="158.2608695652174" y="114" height="36" width="4.086956521739131" style="fill:#00007f;"/><rect x="164.34782608695653" y="102" height="48" width="4.086956521739131" style="fill:#00007f;"/><rect x="170.43478260869566" y="138" height="12" width="4.086956521739131" style="fill:#00007f;"/><rect x="176.52173913043478" y="102" height="48" width="4.086956521739131" style="fill:#00007f;"/><rect x="182.60869565217394" y="102" height="48" width="4.086956521739131" style="fill:#00007f;"/><rect x="188.69565217391306" y="78" height="72" width="4.086956521739131" style="fill:#00007f;"/><rect x="194.7826086956522" y="138" height="12" width="4.086956521739131" style="fill:#00007f;"/><rect x="200.8695652173913" y="138" height="12" width="4.086956521739131" style="fill:#00007f;"/><rect x="206.95652173913044" y="150" height="78" width="4.086956521739131" style="fill:#00007f;"/><rect x="213.0434782608696" y="150" height="12" width="4.086956521739131" style="fill:#00007f;"/><rect x="219.13043478260872" y="150" height="54" width="4.086956521739131" style="fill:#00007f;"/><rect x="225.21739130434784" y="150" height="24" width="4.086956521739131" style="fill:#00007f;"/><rect x="231.30434782608697" y="132" height="18" width="4.086956521739131" style="fill:#00007f;"/><rect x="237.3913043478261" y="114" height="36" width="4.086956521739131" style="fill:#00007f;"/><rect x="243.47826086956525" y="108" height="42" width="4.086956521739131" style="fill:#00007f;"/><rect x="249.56521739130437" y="108" height="42" width="4.086956521739131" style="fill:#00007f;"/><rect x="255.6521739130435" y="120" height="30" width="4.086956521739131" style="fill:#00007f;"/><rect x="261.7391304347826" y="96" height="54" width="4.086956521739131" style="fill:#00007f;"/><rect x="267.82608695652175" y="150" height="0" width="4.086956521739131" style="fill:#00007f;"/><rect x="273.9130434782609" y="150" height="18" width="4.086956521739131" style="fill:#00007f;"/><rect x="280" y="150" height="66" width="4.086956521739131" style="fill:#00007f;"/><rect x="286.0869565217391" y="150" height="84" width="4.086956521739131" style="fill:#00007f;"/><rect x="292.17391304347825" y="96" height="54" width="4.086956521739131" style="fill:#00007f;"/><rect x="298.26086956521743" y="150" height="0" width="4.086956521739131" style="fill:#00007f;"/><rect x="304.34782608695656" y="126" height="24" width="4.086956521739131" style="fill:#00007f;"/><rect x="310.4347826086957" y="126" height="24" width="4.086956521739131" style="fill:#00007f;"/><rect x="316.5217391304348" y="96" height="54" width="4.086956521739131" style="fill:#00007f;"/><rect x="322.60869565217394" y="150" height="42" width="4.086956521739131" style="fill:#00007f;"/><rect x="328.69565217391306" y="120" height="30" width="4.086956521739131" style="fill:#00007f;"/><rect x="334.7826086956522" y="108" height="42" width="4.086956521739131" style="fill:#00007f;"/><rect x="340.8695652173913" y="150" height="24" width="4.086956521739131" style="fill:#00007f;"/><rect x="346.95652173913044" y="144" height="6" width="4.086956521739131" style="fill:#00007f;"/><rect x="353.04347826086956" y="132" height="18" width="4.086956521739131" style="fill:#00007f;"/><rect x="359.13043478260875" y="144" height="6" width="4.086956521739131" style="fill:#00007f;"/><rect x="365.21739130434787" y="144" height="6" width="4.086956521739131" style="fill:#00007f;"/><rect x="371.304347826087" y="132" height="18" width="4.086956521739131" style="fill:#00007f;"/><rect x="377.3913043478261" y="138" height="12" width="4.086956521739131" style="fill:#00007f;"/><rect x="383.47826086956525" y="150" height="24" width="4.086956521739131" style="fill:#00007f;"/><rect x="389.5652173913044" y="102" height="48" width="4.086956521739131" style="fill:#00007f;"/><rect x="395.6521739130435" y="132" height="18" width="4.086956521739131" style="fill:#00007f;"/><rect x="401.7391304347826" y="150" height="0" width="4.086956521739131" style="fill:#00007f;"/><rect x="407.82608695652175" y="150" height="24" width="4.086956521739131" style="fill:#00007f;"/><rect x="413.9130434782609" y="150" height="0" width="4.086956521739131" style="fill:#00007f;"/><rect x="420" y="150" height="96" width="4.086956521739131" style="fill:#00007f;"/><rect x="426.0869565217392" y="78" height="72" width="4.086956521739131" style="fill:#00007f;"/><rect x="432.1739130434783" y="48" height="102" width="4.086956521739131" style="fill:#00007f;"/><rect x="438.26086956521743" y="108" height="42" width="4.086956521739131" style="fill:#00007f;"/><rect x="444.34782608695656" y="150" height="6" width="4.086956521739131" style="fill:#00007f;"/><rect x="450.4347826086957" y="72" height="78" width="4.086956521739131" style="fill:#00007f;"/><rect x="456.5217391304348" y="150" height="54" width="4.086956521739131" style="fill:#00007f;"/><rect x="462.60869565217394" y="84" height="66" width="4.086956521739131" style="fill:#00007f;"/><rect x="468.69565217391306" y="150" height="42" width="4.086956521739131" style="fill:#00007f;"/><rect x="474.7826086956522" y="90" height="60" width="4.086956521739131" style="fill:#00007f;"/><rect x="480.8695652173913" y="84" height="66" width="4.086956521739131" style="fill:#00007f;"/><rect x="486.9565217391305" y="96" height="54" width="4.086956521739131" style="fill:#00007f;"/><rect x="493.0434782608696" y="114" height="36" width="4.086956521739131" style="fill:#00007f;"/><rect x="499.13043478260875" y="150" height="66" width="4.086956521739131" style="fill:#00007f;"/><rect x="505.21739130434787" y="114" height="36" width="4.086956521739131" style="fill:#00007f;"/><rect x="511.304347826087" y="132" height="18" width="4.086956521739131" style="fill:#00007f;"/><rect x="517.3913043478261" y="114" height="36" width="4.086956521739131" style="fill:#00007f;"/><rect x="523.4782608695652" y="60" height="90" width="4.086956521739131" style="fill:#00007f;"/><rect x="529.5652173913044" y="150" height="0" width="4.086956521739131" style="fill:#00007f;"/><rect x="535.6521739130435" y="150" height="30" width="4.086956521739131" style="fill:#00007f;"/><rect x="541.7391304347826" y="102" height="48" width="4.086956521739131" style="fill:#00007f;"/><rect x="547.8260869565217" y="114" height="36" width="4.086956521739131" style="fill:#00007f;"/><rect x="553.9130434782609" y="150" height="0" width="4.086956521739131" style="fill:#00007f;"/><rect x="560" y="150" height="42" width="4.086956521739131" style="fill:#00007f;"/><rect x="566.0869565217391" y="90" height="60" width="4.086956521739131" style="fill:#00007f;"/><rect x="572.1739130434783" y="96" height="54" width="4.086956521739131" style="fill:#00007f;"/><rect x="578.2608695652174" y="120" height="30" width="4.086956521739131" style="fill:#00007f;"/><rect x="584.3478260869565" y="102" height="48" width="4.086956521739131" style="fill:#00007f;"/><rect x="590.4347826086957" y="120" height="30" width="4.086956521739131" style="fill:#00007f;"/><rect x="596.5217391304349" y="108" height="42" width="4.086956521739131" style="fill:#00007f;"/><rect x="602.608695652174" y="96" height="54" width="4.086956521739131" style="fill:#00007f;"/><rect x="608.6956521739131" y="96" height="54" width="4.086956521739131" style="fill:#00007f;"/><rect x="614.7826086956522" y="96" height="54" width="4.086956521739131" style="fill:#00007f;"/><rect x="620.8695652173914" y="144" height="6" width="4.086956521739131" style="fill:#00007f;"/><rect x="626.9565217391305" y="132" height="18" width="4.086956521739131" style="fill:#00007f;"/><rect x="633.0434782608696" y="84" height="66" width="4.086956521739131" style="fill:#00007f;"/><rect x="639.1304347826087" y="126" height="24" width="4.086956521739131" style="fill:#00007f;"/><rect x="645.2173913043479" y="120" height="30" width="4.086956521739131" style="fill:#00007f;"/><rect x="651.304347826087" y="150" height="36" width="4.086956521739131" style="fill:#00007f;"/><rect x="657.3913043478261" y="120" height="30" width="4.086956521739131" style="fill:#00007f;"/><rect x="663.4782608695652" y="102" height="48" width="4.086956521739131" style="fill:#00007f;"/><rect x="669.5652173913044" y="138" height="12" width="4.086956521739131" style="fill:#00007f;"/><rect x="675.6521739130435" y="108" height="42" width="4.086956521739131" style="fill:#00007f;"/><rect x="681.7391304347826" y="126" height="24" width="4.086956521739131" style="fill:#00007f;"/><rect x="687.8260869565217" y="120" height="30" width="4.086956521739131" style="fill:#00007f;"/><rect x="693.9130434782609" y="138" height="12" width="4.086956521739131" style="fill:#00007f;"/>
					
					<path d="M8.130434782608695 156 L14.217391304347828 156 L20.304347826086957 146 L26.39130434782609 133.5 L32.47826086956522 133.2 L38.565217391304344 125 L44.65217391304348 119.14285714285714 L50.73913043478261 116.25 L56.82608695652174 116 L62.913043478260875 113.4 L69 109.63636363636363 L75.08695652173913 110 L81.17391304347827 107.53846153846155 L87.26086956521739 107.57142857142857 L93.34782608695653 108.80000000000001 L99.43478260869566 109.5 L105.52173913043478 110.11764705882354 L111.60869565217392 111.33333333333333 L117.69565217391305 114.3157894736842 L123.78260869565219 116.7 L129.8695652173913 116.28571428571429 L135.95652173913044 117 L142.04347826086956 118.17391304347827 L148.1304347826087 118.5 L154.21739130434784 119.28 L160.30434782608697 119.07692307692307 L166.3913043478261 118.44444444444444 L172.47826086956522 119.14285714285714 L178.56521739130434 118.55172413793103 L184.6521739130435 118 L190.73913043478262 116.70967741935483 L196.82608695652175 117.375 L202.91304347826087 118 L209 121.23529411764706 L215.08695652173915 122.4 L221.17391304347828 124.66666666666666 L227.2608695652174 126 L233.34782608695653 126.15789473684211 L239.43478260869566 125.84615384615384 L245.5217391304348 125.4 L251.60869565217394 124.97560975609755 L257.69565217391306 124.85714285714286 L263.7826086956522 124.18604651162791 L269.8695652173913 124.77272727272728 L275.95652173913044 125.73333333333333 L282.04347826086956 127.69565217391305 L288.1304347826087 129.95744680851064 L294.2173913043478 129.25 L300.304347826087 129.6734693877551 L306.3913043478261 129.6 L312.47826086956525 129.52941176470588 L318.5652173913044 128.8846153846154 L324.6521739130435 130.0754716981132 L330.7391304347826 129.88888888888889 L336.82608695652175 129.4909090909091 L342.9130434782609 130.28571428571428 L349 130.5263157894737 L355.0869565217391 130.55172413793105 L361.1739130434783 130.77966101694915 L367.26086956521743 131 L373.34782608695656 131.01639344262296 L379.4347826086957 131.1290322580645 L385.5217391304348 131.8095238095238 L391.60869565217394 131.34375 L397.69565217391306 131.35384615384615 L403.7826086956522 131.63636363636363 L409.8695652173913 132.26865671641792 L415.95652173913044 132.52941176470588 L422.04347826086956 134.17391304347825 L428.13043478260875 133.37142857142857 L434.21739130434787 132.16901408450704 L440.304347826087 131.83333333333334 L446.3913043478261 132.16438356164383 L452.47826086956525 131.35135135135135 L458.5652173913044 132.32 L464.6521739130435 131.68421052631578 L470.7391304347826 132.46753246753246 L476.82608695652175 131.92307692307693 L482.9130434782609 131.31645569620252 L489.00000000000006 130.875 L495.0869565217392 130.66666666666666 L501.1739130434783 131.70731707317074 L507.26086956521743 131.49397590361446 L513.3478260869566 131.5 L519.4347826086957 131.2941176470588 L525.5217391304349 130.46511627906978 L531.608695652174 130.68965517241378 L537.6956521739131 131.25 L543.7826086956522 130.92134831460675 L549.8695652173914 130.73333333333335 L555.9565217391305 130.94505494505495 L562.0434782608696 131.6086956521739 L568.1304347826087 131.16129032258064 L574.2173913043479 130.7872340425532 L580.304347826087 130.67368421052632 L586.3913043478261 130.375 L592.4782608695654 130.2680412371134 L598.5652173913045 130.0408163265306 L604.6521739130436 129.6969696969697 L610.7391304347827 129.36 L616.8260869565219 129.02970297029702 L622.913043478261 129.1764705882353 L629.0000000000001 129.20388349514565 L635.0869565217392 128.76923076923077 L641.1739130434784 128.74285714285713 L647.2608695652175 128.66037735849056 L653.3478260869566 129.196261682243 L659.4347826086957 129.11111111111111 L665.5217391304349 128.86238532110093 L671.608695652174 128.94545454545454 L677.6956521739131 128.75675675675677 L683.7826086956522 128.73214285714286 L689.8695652173914 128.65486725663717 L695.9565217391305 128.73684210526315 " style="fill:none; stroke:red; stroke-width:1"/>
				</g>
			</svg>