<?xml version="1.0" encoding="UTF-8"?><svg xml:space="preserve" width="700" height="300">
				<desc>Bowling History</desc>
				<g style="stroke:#000000; stroke-width:0.5; font-family:Arial; font-size:7pt;">
					<rect x="1" y="1" width="698" height="298" style="fill:#dddddd;"/><g style="stroke:#888888; font-family:Arial; font-size:6pt;"><line x1="1" y1="300" x2="700" y2="300" style="stroke:#aaaaaa;"/><text x="5" y="298">-25</text></g><g style="stroke:#888888; font-family:Arial; font-size:6pt;"><line x1="1" y1="270" x2="700" y2="270" style="stroke:#aaaaaa;"/><text x="5" y="268">-20</text></g><g style="stroke:#888888; font-family:Arial; font-size:6pt;"><line x1="1" y1="240" x2="700" y2="240" style="stroke:#aaaaaa;"/><text x="5" y="238">-15</text></g><g style="stroke:#888888; font-family:Arial; font-size:6pt;"><line x1="1" y1="210" x2="700" y2="210" style="stroke:#aaaaaa;"/><text x="5" y="208">-10</text></g><g style="stroke:#888888; font-family:Arial; font-size:6pt;"><line x1="1" y1="180" x2="700" y2="180" style="stroke:#aaaaaa;"/><text x="5" y="178">-5</text></g><g style="stroke:#888888; font-family:Arial; font-size:6pt;"><line x1="1" y1="150" x2="700" y2="150" style="stroke:#aaaaaa;"/><text x="5" y="148">0</text></g><g style="stroke:#888888; font-family:Arial; font-size:6pt;"><line x1="1" y1="120" x2="700" y2="120" style="stroke:#aaaaaa;"/><text x="5" y="118">5</text></g><g style="stroke:#888888; font-family:Arial; font-size:6pt;"><line x1="1" y1="90" x2="700" y2="90" style="stroke:#aaaaaa;"/><text x="5" y="88">10</text></g><g style="stroke:#888888; font-family:Arial; font-size:6pt;"><line x1="1" y1="60" x2="700" y2="60" style="stroke:#aaaaaa;"/><text x="5" y="58">15</text></g><g style="stroke:#888888; font-family:Arial; font-size:6pt;"><line x1="1" y1="30" x2="700" y2="30" style="stroke:#aaaaaa;"/><text x="5" y="28">20</text></g><g style="stroke:#888888; font-family:Arial; font-size:6pt;"><line x1="1" y1="0" x2="700" y2="0" style="stroke:#aaaaaa;"/><text x="5" y="-2">25</text></g><text x="350" y="20" style="text-anchor:middle; font-size: 14pt;">Bowling History - Jade Goody</text>
					
					<rect x="53.84615384615385" y="84" height="66" width="51.84615384615385" style="fill:#00007f;"/><rect x="107.6923076923077" y="132" height="18" width="51.84615384615385" style="fill:#00007f;"/><rect x="161.53846153846155" y="144" height="6" width="51.84615384615385" style="fill:#00007f;"/><rect x="215.3846153846154" y="144" height="6" width="51.84615384615385" style="fill:#00007f;"/><rect x="269.2307692307692" y="72" height="78" width="51.84615384615385" style="fill:#00007f;"/><rect x="323.0769230769231" y="126" height="24" width="51.84615384615385" style="fill:#00007f;"/><rect x="376.9230769230769" y="102" height="48" width="51.84615384615385" style="fill:#00007f;"/><rect x="430.7692307692308" y="96" height="54" width="51.84615384615385" style="fill:#00007f;"/><rect x="484.61538461538464" y="150" height="36" width="51.84615384615385" style="fill:#00007f;"/><rect x="538.4615384615385" y="120" height="30" width="51.84615384615385" style="fill:#00007f;"/><rect x="592.3076923076923" y="96" height="54" width="51.84615384615385" style="fill:#00007f;"/><rect x="646.1538461538462" y="90" height="60" width="51.84615384615385" style="fill:#00007f;"/>
					
					<path d="M79.76923076923077 84 L133.6153846153846 108 L187.46153846153848 120 L241.30769230769232 126 L295.15384615384613 115.2 L349 117 L402.8461538461538 114.85714285714286 L456.6923076923077 112.5 L510.53846153846155 120.66666666666666 L564.3846153846154 120.6 L618.2307692307692 118.36363636363637 L672.0769230769231 116 " style="fill:none; stroke:red; stroke-width:1"/>
				</g>
			</svg>