<?xml version="1.0" encoding="UTF-8"?><svg xml:space="preserve" width="700" height="300">
				<desc>Bowling History</desc>
				<g style="stroke:#000000; stroke-width:0.5; font-family:Arial; font-size:7pt;">
					<rect x="1" y="1" width="698" height="298" style="fill:#dddddd;"/><g style="stroke:#888888; font-family:Arial; font-size:6pt;"><line x1="1" y1="300" x2="700" y2="300" style="stroke:#aaaaaa;"/><text x="5" y="298">-25</text></g><g style="stroke:#888888; font-family:Arial; font-size:6pt;"><line x1="1" y1="270" x2="700" y2="270" style="stroke:#aaaaaa;"/><text x="5" y="268">-20</text></g><g style="stroke:#888888; font-family:Arial; font-size:6pt;"><line x1="1" y1="240" x2="700" y2="240" style="stroke:#aaaaaa;"/><text x="5" y="238">-15</text></g><g style="stroke:#888888; font-family:Arial; font-size:6pt;"><line x1="1" y1="210" x2="700" y2="210" style="stroke:#aaaaaa;"/><text x="5" y="208">-10</text></g><g style="stroke:#888888; font-family:Arial; font-size:6pt;"><line x1="1" y1="180" x2="700" y2="180" style="stroke:#aaaaaa;"/><text x="5" y="178">-5</text></g><g style="stroke:#888888; font-family:Arial; font-size:6pt;"><line x1="1" y1="150" x2="700" y2="150" style="stroke:#aaaaaa;"/><text x="5" y="148">0</text></g><g style="stroke:#888888; font-family:Arial; font-size:6pt;"><line x1="1" y1="120" x2="700" y2="120" style="stroke:#aaaaaa;"/><text x="5" y="118">5</text></g><g style="stroke:#888888; font-family:Arial; font-size:6pt;"><line x1="1" y1="90" x2="700" y2="90" style="stroke:#aaaaaa;"/><text x="5" y="88">10</text></g><g style="stroke:#888888; font-family:Arial; font-size:6pt;"><line x1="1" y1="60" x2="700" y2="60" style="stroke:#aaaaaa;"/><text x="5" y="58">15</text></g><g style="stroke:#888888; font-family:Arial; font-size:6pt;"><line x1="1" y1="30" x2="700" y2="30" style="stroke:#aaaaaa;"/><text x="5" y="28">20</text></g><g style="stroke:#888888; font-family:Arial; font-size:6pt;"><line x1="1" y1="0" x2="700" y2="0" style="stroke:#aaaaaa;"/><text x="5" y="-2">25</text></g><text x="350" y="20" style="text-anchor:middle; font-size: 14pt;">Bowling History - Dickie</text>
					
					<rect x="8.333333333333334" y="150" height="36" width="6.333333333333334" style="fill:#00007f;"/><rect x="16.666666666666668" y="126" height="24" width="6.333333333333334" style="fill:#00007f;"/><rect x="25" y="150" height="0" width="6.333333333333334" style="fill:#00007f;"/><rect x="33.333333333333336" y="90" height="60" width="6.333333333333334" style="fill:#00007f;"/><rect x="41.66666666666667" y="66" height="84" width="6.333333333333334" style="fill:#00007f;"/><rect x="50" y="126" height="24" width="6.333333333333334" style="fill:#00007f;"/><rect x="58.333333333333336" y="126" height="24" width="6.333333333333334" style="fill:#00007f;"/><rect x="66.66666666666667" y="96" height="54" width="6.333333333333334" style="fill:#00007f;"/><rect x="75" y="54" height="96" width="6.333333333333334" style="fill:#00007f;"/><rect x="83.33333333333334" y="108" height="42" width="6.333333333333334" style="fill:#00007f;"/><rect x="91.66666666666667" y="72" height="78" width="6.333333333333334" style="fill:#00007f;"/><rect x="100" y="150" height="30" width="6.333333333333334" style="fill:#00007f;"/><rect x="108.33333333333334" y="108" height="42" width="6.333333333333334" style="fill:#00007f;"/><rect x="116.66666666666667" y="60" height="90" width="6.333333333333334" style="fill:#00007f;"/><rect x="125.00000000000001" y="132" height="18" width="6.333333333333334" style="fill:#00007f;"/><rect x="133.33333333333334" y="132" height="18" width="6.333333333333334" style="fill:#00007f;"/><rect x="141.66666666666669" y="150" height="30" width="6.333333333333334" style="fill:#00007f;"/><rect x="150" y="72" height="78" width="6.333333333333334" style="fill:#00007f;"/><rect x="158.33333333333334" y="120" height="30" width="6.333333333333334" style="fill:#00007f;"/><rect x="166.66666666666669" y="132" height="18" width="6.333333333333334" style="fill:#00007f;"/><rect x="175" y="132" height="18" width="6.333333333333334" style="fill:#00007f;"/><rect x="183.33333333333334" y="84" height="66" width="6.333333333333334" style="fill:#00007f;"/><rect x="191.66666666666669" y="132" height="18" width="6.333333333333334" style="fill:#00007f;"/><rect x="200" y="102" height="48" width="6.333333333333334" style="fill:#00007f;"/><rect x="208.33333333333334" y="78" height="72" width="6.333333333333334" style="fill:#00007f;"/><rect x="216.66666666666669" y="96" height="54" width="6.333333333333334" style="fill:#00007f;"/><rect x="225.00000000000003" y="18" height="132" width="6.333333333333334" style="fill:#00007f;"/><rect x="233.33333333333334" y="78" height="72" width="6.333333333333334" style="fill:#00007f;"/><rect x="241.66666666666669" y="144" height="6" width="6.333333333333334" style="fill:#00007f;"/><rect x="250.00000000000003" y="108" height="42" width="6.333333333333334" style="fill:#00007f;"/><rect x="258.33333333333337" y="120" height="30" width="6.333333333333334" style="fill:#00007f;"/><rect x="266.6666666666667" y="144" height="6" width="6.333333333333334" style="fill:#00007f;"/><rect x="275" y="60" height="90" width="6.333333333333334" style="fill:#00007f;"/><rect x="283.33333333333337" y="150" height="66" width="6.333333333333334" style="fill:#00007f;"/><rect x="291.6666666666667" y="90" height="60" width="6.333333333333334" style="fill:#00007f;"/><rect x="300" y="120" height="30" width="6.333333333333334" style="fill:#00007f;"/><rect x="308.33333333333337" y="108" height="42" width="6.333333333333334" style="fill:#00007f;"/><rect x="316.6666666666667" y="66" height="84" width="6.333333333333334" style="fill:#00007f;"/><rect x="325" y="150" height="90" width="6.333333333333334" style="fill:#00007f;"/><rect x="333.33333333333337" y="108" height="42" width="6.333333333333334" style="fill:#00007f;"/><rect x="341.6666666666667" y="150" height="72" width="6.333333333333334" style="fill:#00007f;"/><rect x="350" y="120" height="30" width="6.333333333333334" style="fill:#00007f;"/><rect x="358.33333333333337" y="120" height="30" width="6.333333333333334" style="fill:#00007f;"/><rect x="366.6666666666667" y="150" height="6" width="6.333333333333334" style="fill:#00007f;"/><rect x="375" y="150" height="6" width="6.333333333333334" style="fill:#00007f;"/><rect x="383.33333333333337" y="72" height="78" width="6.333333333333334" style="fill:#00007f;"/><rect x="391.6666666666667" y="150" height="30" width="6.333333333333334" style="fill:#00007f;"/><rect x="400" y="78" height="72" width="6.333333333333334" style="fill:#00007f;"/><rect x="408.33333333333337" y="150" height="0" width="6.333333333333334" style="fill:#00007f;"/><rect x="416.6666666666667" y="126" height="24" width="6.333333333333334" style="fill:#00007f;"/><rect x="425.00000000000006" y="84" height="66" width="6.333333333333334" style="fill:#00007f;"/><rect x="433.33333333333337" y="126" height="24" width="6.333333333333334" style="fill:#00007f;"/><rect x="441.6666666666667" y="132" height="18" width="6.333333333333334" style="fill:#00007f;"/><rect x="450.00000000000006" y="126" height="24" width="6.333333333333334" style="fill:#00007f;"/><rect x="458.33333333333337" y="102" height="48" width="6.333333333333334" style="fill:#00007f;"/><rect x="466.6666666666667" y="150" height="138" width="6.333333333333334" style="fill:#00007f;"/><rect x="475.00000000000006" y="114" height="36" width="6.333333333333334" style="fill:#00007f;"/><rect x="483.33333333333337" y="144" height="6" width="6.333333333333334" style="fill:#00007f;"/><rect x="491.6666666666667" y="60" height="90" width="6.333333333333334" style="fill:#00007f;"/><rect x="500.00000000000006" y="150" height="30" width="6.333333333333334" style="fill:#00007f;"/><rect x="508.33333333333337" y="150" height="54" width="6.333333333333334" style="fill:#00007f;"/><rect x="516.6666666666667" y="102" height="48" width="6.333333333333334" style="fill:#00007f;"/><rect x="525" y="120" height="30" width="6.333333333333334" style="fill:#00007f;"/><rect x="533.3333333333334" y="102" height="48" width="6.333333333333334" style="fill:#00007f;"/><rect x="541.6666666666667" y="144" height="6" width="6.333333333333334" style="fill:#00007f;"/><rect x="550" y="108" height="42" width="6.333333333333334" style="fill:#00007f;"/><rect x="558.3333333333334" y="150" height="42" width="6.333333333333334" style="fill:#00007f;"/><rect x="566.6666666666667" y="120" height="30" width="6.333333333333334" style="fill:#00007f;"/><rect x="575" y="126" height="24" width="6.333333333333334" style="fill:#00007f;"/><rect x="583.3333333333334" y="150" height="24" width="6.333333333333334" style="fill:#00007f;"/><rect x="591.6666666666667" y="84" height="66" width="6.333333333333334" style="fill:#00007f;"/><rect x="600" y="108" height="42" width="6.333333333333334" style="fill:#00007f;"/><rect x="608.3333333333334" y="102" height="48" width="6.333333333333334" style="fill:#00007f;"/><rect x="616.6666666666667" y="102" height="48" width="6.333333333333334" style="fill:#00007f;"/><rect x="625" y="84" height="66" width="6.333333333333334" style="fill:#00007f;"/><rect x="633.3333333333334" y="150" height="18" width="6.333333333333334" style="fill:#00007f;"/><rect x="641.6666666666667" y="132" height="18" width="6.333333333333334" style="fill:#00007f;"/><rect x="650" y="66" height="84" width="6.333333333333334" style="fill:#00007f;"/><rect x="658.3333333333334" y="108" height="42" width="6.333333333333334" style="fill:#00007f;"/><rect x="666.6666666666667" y="96" height="54" width="6.333333333333334" style="fill:#00007f;"/><rect x="675" y="132" height="18" width="6.333333333333334" style="fill:#00007f;"/><rect x="683.3333333333334" y="126" height="24" width="6.333333333333334" style="fill:#00007f;"/><rect x="691.6666666666667" y="90" height="60" width="6.333333333333334" style="fill:#00007f;"/>
					
					<path d="M11.5 186 L19.833333333333336 156 L28.166666666666668 154 L36.5 138 L44.833333333333336 123.6 L53.166666666666664 124 L61.5 124.28571428571428 L69.83333333333334 120.75 L78.16666666666667 113.33333333333334 L86.50000000000001 112.8 L94.83333333333334 109.0909090909091 L103.16666666666667 115 L111.50000000000001 114.46153846153845 L119.83333333333334 110.57142857142857 L128.16666666666669 112 L136.5 113.25 L144.83333333333334 117.17647058823529 L153.16666666666666 114.66666666666666 L161.5 114.94736842105263 L169.83333333333334 115.8 L178.16666666666666 116.57142857142857 L186.5 115.0909090909091 L194.83333333333334 115.82608695652173 L203.16666666666666 115.25 L211.5 113.75999999999999 L219.83333333333334 113.07692307692307 L228.16666666666669 109.55555555555556 L236.5 108.42857142857143 L244.83333333333334 109.65517241379311 L253.16666666666669 109.6 L261.50000000000006 109.93548387096774 L269.83333333333337 111 L278.1666666666667 109.45454545454545 L286.50000000000006 112.58823529411765 L294.83333333333337 111.94285714285715 L303.1666666666667 112.16666666666667 L311.50000000000006 112.05405405405405 L319.83333333333337 110.84210526315789 L328.1666666666667 114.15384615384616 L336.50000000000006 114 L344.83333333333337 116.63414634146342 L353.1666666666667 116.71428571428572 L361.50000000000006 116.7906976744186 L369.83333333333337 117.68181818181819 L378.1666666666667 118.53333333333333 L386.50000000000006 117.52173913043478 L394.83333333333337 118.85106382978724 L403.1666666666667 118 L411.50000000000006 118.65306122448979 L419.83333333333337 118.8 L428.16666666666674 118.11764705882354 L436.50000000000006 118.26923076923077 L444.83333333333337 118.52830188679245 L453.16666666666674 118.66666666666666 L461.50000000000006 118.36363636363637 L469.83333333333337 121.39285714285714 L478.16666666666674 121.26315789473685 L486.50000000000006 121.65517241379311 L494.83333333333337 120.61016949152543 L503.16666666666674 121.6 L511.50000000000006 122.95081967213115 L519.8333333333334 122.61290322580645 L528.1666666666666 122.57142857142857 L536.5 122.25 L544.8333333333334 122.58461538461539 L553.1666666666666 122.36363636363636 L561.5 123.40298507462687 L569.8333333333334 123.35294117647058 L578.1666666666666 123.3913043478261 L586.5 124.11428571428571 L594.8333333333334 123.54929577464789 L603.1666666666666 123.33333333333333 L611.5 123.04109589041096 L619.8333333333334 122.75675675675676 L628.1666666666666 122.24 L636.5 122.84210526315789 L644.8333333333334 122.96103896103895 L653.1666666666666 122.23076923076923 L661.5 122.0506329113924 L669.8333333333334 121.725 L678.1666666666666 121.85185185185185 L686.5 121.90243902439025 L694.8333333333334 121.51807228915662 " style="fill:none; stroke:red; stroke-width:1"/>
				</g>
			</svg>