<?xml version="1.0" encoding="UTF-8"?><svg xml:space="preserve" width="700" height="300">
				<desc>Bowling History</desc>
				<g style="stroke:#000000; stroke-width:0.5; font-family:Arial; font-size:7pt;">
					<rect x="1" y="1" width="698" height="298" style="fill:#dddddd;"/><g style="stroke:#888888; font-family:Arial; font-size:6pt;"><line x1="1" y1="300" x2="700" y2="300" style="stroke:#aaaaaa;"/><text x="5" y="298">-25</text></g><g style="stroke:#888888; font-family:Arial; font-size:6pt;"><line x1="1" y1="270" x2="700" y2="270" style="stroke:#aaaaaa;"/><text x="5" y="268">-20</text></g><g style="stroke:#888888; font-family:Arial; font-size:6pt;"><line x1="1" y1="240" x2="700" y2="240" style="stroke:#aaaaaa;"/><text x="5" y="238">-15</text></g><g style="stroke:#888888; font-family:Arial; font-size:6pt;"><line x1="1" y1="210" x2="700" y2="210" style="stroke:#aaaaaa;"/><text x="5" y="208">-10</text></g><g style="stroke:#888888; font-family:Arial; font-size:6pt;"><line x1="1" y1="180" x2="700" y2="180" style="stroke:#aaaaaa;"/><text x="5" y="178">-5</text></g><g style="stroke:#888888; font-family:Arial; font-size:6pt;"><line x1="1" y1="150" x2="700" y2="150" style="stroke:#aaaaaa;"/><text x="5" y="148">0</text></g><g style="stroke:#888888; font-family:Arial; font-size:6pt;"><line x1="1" y1="120" x2="700" y2="120" style="stroke:#aaaaaa;"/><text x="5" y="118">5</text></g><g style="stroke:#888888; font-family:Arial; font-size:6pt;"><line x1="1" y1="90" x2="700" y2="90" style="stroke:#aaaaaa;"/><text x="5" y="88">10</text></g><g style="stroke:#888888; font-family:Arial; font-size:6pt;"><line x1="1" y1="60" x2="700" y2="60" style="stroke:#aaaaaa;"/><text x="5" y="58">15</text></g><g style="stroke:#888888; font-family:Arial; font-size:6pt;"><line x1="1" y1="30" x2="700" y2="30" style="stroke:#aaaaaa;"/><text x="5" y="28">20</text></g><g style="stroke:#888888; font-family:Arial; font-size:6pt;"><line x1="1" y1="0" x2="700" y2="0" style="stroke:#aaaaaa;"/><text x="5" y="-2">25</text></g><text x="350" y="20" style="text-anchor:middle; font-size: 14pt;">Bowling History - Sandeep</text>
					
					<rect x="140" y="78" height="72" width="138" style="fill:#00007f;"/><rect x="280" y="66" height="84" width="138" style="fill:#00007f;"/><rect x="420" y="138" height="12" width="138" style="fill:#00007f;"/><rect x="560" y="102" height="48" width="138" style="fill:#00007f;"/>
					
					<path d="M209 78 L349 72 L489 94 L629 96 " style="fill:none; stroke:red; stroke-width:1"/>
				</g>
			</svg>