<?xml version="1.0" encoding="UTF-8"?><svg xml:space="preserve" width="700" height="300">
				<desc>Bowling History</desc>
				<g style="stroke:#000000; stroke-width:0.5; font-family:Arial; font-size:7pt;">
					<rect x="1" y="1" width="698" height="298" style="fill:#dddddd;"/><g style="stroke:#888888; font-family:Arial; font-size:6pt;"><line x1="1" y1="300" x2="700" y2="300" style="stroke:#aaaaaa;"/><text x="5" y="298">-25</text></g><g style="stroke:#888888; font-family:Arial; font-size:6pt;"><line x1="1" y1="270" x2="700" y2="270" style="stroke:#aaaaaa;"/><text x="5" y="268">-20</text></g><g style="stroke:#888888; font-family:Arial; font-size:6pt;"><line x1="1" y1="240" x2="700" y2="240" style="stroke:#aaaaaa;"/><text x="5" y="238">-15</text></g><g style="stroke:#888888; font-family:Arial; font-size:6pt;"><line x1="1" y1="210" x2="700" y2="210" style="stroke:#aaaaaa;"/><text x="5" y="208">-10</text></g><g style="stroke:#888888; font-family:Arial; font-size:6pt;"><line x1="1" y1="180" x2="700" y2="180" style="stroke:#aaaaaa;"/><text x="5" y="178">-5</text></g><g style="stroke:#888888; font-family:Arial; font-size:6pt;"><line x1="1" y1="150" x2="700" y2="150" style="stroke:#aaaaaa;"/><text x="5" y="148">0</text></g><g style="stroke:#888888; font-family:Arial; font-size:6pt;"><line x1="1" y1="120" x2="700" y2="120" style="stroke:#aaaaaa;"/><text x="5" y="118">5</text></g><g style="stroke:#888888; font-family:Arial; font-size:6pt;"><line x1="1" y1="90" x2="700" y2="90" style="stroke:#aaaaaa;"/><text x="5" y="88">10</text></g><g style="stroke:#888888; font-family:Arial; font-size:6pt;"><line x1="1" y1="60" x2="700" y2="60" style="stroke:#aaaaaa;"/><text x="5" y="58">15</text></g><g style="stroke:#888888; font-family:Arial; font-size:6pt;"><line x1="1" y1="30" x2="700" y2="30" style="stroke:#aaaaaa;"/><text x="5" y="28">20</text></g><g style="stroke:#888888; font-family:Arial; font-size:6pt;"><line x1="1" y1="0" x2="700" y2="0" style="stroke:#aaaaaa;"/><text x="5" y="-2">25</text></g><text x="350" y="20" style="text-anchor:middle; font-size: 14pt;">Bowling History - Grizzly Adams</text>
					
					<rect x="46.666666666666664" y="150" height="66" width="44.666666666666664" style="fill:#00007f;"/><rect x="93.33333333333333" y="132" height="18" width="44.666666666666664" style="fill:#00007f;"/><rect x="140" y="120" height="30" width="44.666666666666664" style="fill:#00007f;"/><rect x="186.66666666666666" y="60" height="90" width="44.666666666666664" style="fill:#00007f;"/><rect x="233.33333333333331" y="84" height="66" width="44.666666666666664" style="fill:#00007f;"/><rect x="280" y="114" height="36" width="44.666666666666664" style="fill:#00007f;"/><rect x="326.66666666666663" y="108" height="42" width="44.666666666666664" style="fill:#00007f;"/><rect x="373.3333333333333" y="132" height="18" width="44.666666666666664" style="fill:#00007f;"/><rect x="420" y="96" height="54" width="44.666666666666664" style="fill:#00007f;"/><rect x="466.66666666666663" y="150" height="12" width="44.666666666666664" style="fill:#00007f;"/><rect x="513.3333333333333" y="84" height="66" width="44.666666666666664" style="fill:#00007f;"/><rect x="560" y="114" height="36" width="44.666666666666664" style="fill:#00007f;"/><rect x="606.6666666666666" y="150" height="48" width="44.666666666666664" style="fill:#00007f;"/><rect x="653.3333333333333" y="114" height="36" width="44.666666666666664" style="fill:#00007f;"/>
					
					<path d="M69 216 L115.66666666666666 174 L162.33333333333334 156 L209 132 L255.66666666666666 122.4 L302.3333333333333 121 L348.99999999999994 119.14285714285714 L395.66666666666663 120.75 L442.3333333333333 118 L488.99999999999994 122.4 L535.6666666666666 118.9090909090909 L582.3333333333334 118.5 L629 124.61538461538461 L675.6666666666666 123.85714285714286 " style="fill:none; stroke:red; stroke-width:1"/>
				</g>
			</svg>