<?xml version="1.0" encoding="UTF-8"?><svg xml:space="preserve" width="700" height="300">
				<desc>Bowling History</desc>
				<g style="stroke:#000000; stroke-width:0.5; font-family:Arial; font-size:7pt;">
					<rect x="1" y="1" width="698" height="298" style="fill:#dddddd;"/><g style="stroke:#888888; font-family:Arial; font-size:6pt;"><line x1="1" y1="300" x2="700" y2="300" style="stroke:#aaaaaa;"/><text x="5" y="298">-25</text></g><g style="stroke:#888888; font-family:Arial; font-size:6pt;"><line x1="1" y1="270" x2="700" y2="270" style="stroke:#aaaaaa;"/><text x="5" y="268">-20</text></g><g style="stroke:#888888; font-family:Arial; font-size:6pt;"><line x1="1" y1="240" x2="700" y2="240" style="stroke:#aaaaaa;"/><text x="5" y="238">-15</text></g><g style="stroke:#888888; font-family:Arial; font-size:6pt;"><line x1="1" y1="210" x2="700" y2="210" style="stroke:#aaaaaa;"/><text x="5" y="208">-10</text></g><g style="stroke:#888888; font-family:Arial; font-size:6pt;"><line x1="1" y1="180" x2="700" y2="180" style="stroke:#aaaaaa;"/><text x="5" y="178">-5</text></g><g style="stroke:#888888; font-family:Arial; font-size:6pt;"><line x1="1" y1="150" x2="700" y2="150" style="stroke:#aaaaaa;"/><text x="5" y="148">0</text></g><g style="stroke:#888888; font-family:Arial; font-size:6pt;"><line x1="1" y1="120" x2="700" y2="120" style="stroke:#aaaaaa;"/><text x="5" y="118">5</text></g><g style="stroke:#888888; font-family:Arial; font-size:6pt;"><line x1="1" y1="90" x2="700" y2="90" style="stroke:#aaaaaa;"/><text x="5" y="88">10</text></g><g style="stroke:#888888; font-family:Arial; font-size:6pt;"><line x1="1" y1="60" x2="700" y2="60" style="stroke:#aaaaaa;"/><text x="5" y="58">15</text></g><g style="stroke:#888888; font-family:Arial; font-size:6pt;"><line x1="1" y1="30" x2="700" y2="30" style="stroke:#aaaaaa;"/><text x="5" y="28">20</text></g><g style="stroke:#888888; font-family:Arial; font-size:6pt;"><line x1="1" y1="0" x2="700" y2="0" style="stroke:#aaaaaa;"/><text x="5" y="-2">25</text></g><text x="350" y="20" style="text-anchor:middle; font-size: 14pt;">Bowling History - Chuck</text>
					
					<rect x="15.555555555555555" y="150" height="36" width="13.555555555555555" style="fill:#00007f;"/><rect x="31.11111111111111" y="150" height="72" width="13.555555555555555" style="fill:#00007f;"/><rect x="46.666666666666664" y="102" height="48" width="13.555555555555555" style="fill:#00007f;"/><rect x="62.22222222222222" y="18" height="132" width="13.555555555555555" style="fill:#00007f;"/><rect x="77.77777777777777" y="72" height="78" width="13.555555555555555" style="fill:#00007f;"/><rect x="93.33333333333333" y="150" height="30" width="13.555555555555555" style="fill:#00007f;"/><rect x="108.88888888888889" y="108" height="42" width="13.555555555555555" style="fill:#00007f;"/><rect x="124.44444444444444" y="132" height="18" width="13.555555555555555" style="fill:#00007f;"/><rect x="140" y="114" height="36" width="13.555555555555555" style="fill:#00007f;"/><rect x="155.55555555555554" y="150" height="36" width="13.555555555555555" style="fill:#00007f;"/><rect x="171.11111111111111" y="150" height="36" width="13.555555555555555" style="fill:#00007f;"/><rect x="186.66666666666666" y="84" height="66" width="13.555555555555555" style="fill:#00007f;"/><rect x="202.22222222222223" y="150" height="36" width="13.555555555555555" style="fill:#00007f;"/><rect x="217.77777777777777" y="132" height="18" width="13.555555555555555" style="fill:#00007f;"/><rect x="233.33333333333334" y="102" height="48" width="13.555555555555555" style="fill:#00007f;"/><rect x="248.88888888888889" y="126" height="24" width="13.555555555555555" style="fill:#00007f;"/><rect x="264.44444444444446" y="102" height="48" width="13.555555555555555" style="fill:#00007f;"/><rect x="280" y="96" height="54" width="13.555555555555555" style="fill:#00007f;"/><rect x="295.55555555555554" y="150" height="30" width="13.555555555555555" style="fill:#00007f;"/><rect x="311.1111111111111" y="138" height="12" width="13.555555555555555" style="fill:#00007f;"/><rect x="326.6666666666667" y="150" height="0" width="13.555555555555555" style="fill:#00007f;"/><rect x="342.22222222222223" y="96" height="54" width="13.555555555555555" style="fill:#00007f;"/><rect x="357.77777777777777" y="96" height="54" width="13.555555555555555" style="fill:#00007f;"/><rect x="373.3333333333333" y="42" height="108" width="13.555555555555555" style="fill:#00007f;"/><rect x="388.88888888888886" y="120" height="30" width="13.555555555555555" style="fill:#00007f;"/><rect x="404.44444444444446" y="90" height="60" width="13.555555555555555" style="fill:#00007f;"/><rect x="420" y="150" height="0" width="13.555555555555555" style="fill:#00007f;"/><rect x="435.55555555555554" y="150" height="0" width="13.555555555555555" style="fill:#00007f;"/><rect x="451.1111111111111" y="108" height="42" width="13.555555555555555" style="fill:#00007f;"/><rect x="466.6666666666667" y="108" height="42" width="13.555555555555555" style="fill:#00007f;"/><rect x="482.22222222222223" y="132" height="18" width="13.555555555555555" style="fill:#00007f;"/><rect x="497.77777777777777" y="150" height="12" width="13.555555555555555" style="fill:#00007f;"/><rect x="513.3333333333334" y="72" height="78" width="13.555555555555555" style="fill:#00007f;"/><rect x="528.8888888888889" y="126" height="24" width="13.555555555555555" style="fill:#00007f;"/><rect x="544.4444444444445" y="144" height="6" width="13.555555555555555" style="fill:#00007f;"/><rect x="560" y="150" height="72" width="13.555555555555555" style="fill:#00007f;"/><rect x="575.5555555555555" y="96" height="54" width="13.555555555555555" style="fill:#00007f;"/><rect x="591.1111111111111" y="114" height="36" width="13.555555555555555" style="fill:#00007f;"/><rect x="606.6666666666666" y="96" height="54" width="13.555555555555555" style="fill:#00007f;"/><rect x="622.2222222222222" y="150" height="24" width="13.555555555555555" style="fill:#00007f;"/><rect x="637.7777777777777" y="120" height="30" width="13.555555555555555" style="fill:#00007f;"/><rect x="653.3333333333334" y="18" height="132" width="13.555555555555555" style="fill:#00007f;"/><rect x="668.8888888888889" y="66" height="84" width="13.555555555555555" style="fill:#00007f;"/><rect x="684.4444444444445" y="120" height="30" width="13.555555555555555" style="fill:#00007f;"/>
					
					<path d="M22.333333333333332 186 L37.888888888888886 204 L53.44444444444444 170 L69 132 L84.55555555555554 120 L100.1111111111111 130 L115.66666666666666 126.85714285714286 L131.22222222222223 127.5 L146.77777777777777 126 L162.33333333333331 132 L177.88888888888889 136.9090909090909 L193.44444444444443 132.5 L209 136.6153846153846 L224.55555555555554 136.28571428571428 L240.11111111111111 134 L255.66666666666666 133.5 L271.22222222222223 131.64705882352942 L286.77777777777777 129.66666666666666 L302.3333333333333 132.31578947368422 L317.88888888888886 132.6 L333.44444444444446 133.42857142857144 L349 131.72727272727272 L364.55555555555554 130.17391304347825 L380.1111111111111 126.5 L395.66666666666663 126.24000000000001 L411.22222222222223 124.84615384615384 L426.77777777777777 125.77777777777777 L442.3333333333333 126.64285714285714 L457.88888888888886 126 L473.44444444444446 125.4 L489 125.61290322580645 L504.55555555555554 126.75 L520.1111111111112 125.0909090909091 L535.6666666666667 125.11764705882354 L551.2222222222223 125.65714285714286 L566.7777777777778 128.33333333333334 L582.3333333333334 127.45945945945945 L597.8888888888889 127.10526315789474 L613.4444444444445 126.3076923076923 L629 127.5 L644.5555555555555 127.3170731707317 L660.1111111111112 124.71428571428572 L675.6666666666667 123.34883720930233 L691.2222222222223 123.27272727272728 " style="fill:none; stroke:red; stroke-width:1"/>
				</g>
			</svg>