<?xml version="1.0" encoding="UTF-8"?><svg xml:space="preserve" width="700" height="300">
				<desc>Bowling History</desc>
				<g style="stroke:#000000; stroke-width:0.5; font-family:Arial; font-size:7pt;">
					<rect x="1" y="1" width="698" height="298" style="fill:#dddddd;"/><g style="stroke:#888888; font-family:Arial; font-size:6pt;"><line x1="1" y1="300" x2="700" y2="300" style="stroke:#aaaaaa;"/><text x="5" y="298">-25</text></g><g style="stroke:#888888; font-family:Arial; font-size:6pt;"><line x1="1" y1="270" x2="700" y2="270" style="stroke:#aaaaaa;"/><text x="5" y="268">-20</text></g><g style="stroke:#888888; font-family:Arial; font-size:6pt;"><line x1="1" y1="240" x2="700" y2="240" style="stroke:#aaaaaa;"/><text x="5" y="238">-15</text></g><g style="stroke:#888888; font-family:Arial; font-size:6pt;"><line x1="1" y1="210" x2="700" y2="210" style="stroke:#aaaaaa;"/><text x="5" y="208">-10</text></g><g style="stroke:#888888; font-family:Arial; font-size:6pt;"><line x1="1" y1="180" x2="700" y2="180" style="stroke:#aaaaaa;"/><text x="5" y="178">-5</text></g><g style="stroke:#888888; font-family:Arial; font-size:6pt;"><line x1="1" y1="150" x2="700" y2="150" style="stroke:#aaaaaa;"/><text x="5" y="148">0</text></g><g style="stroke:#888888; font-family:Arial; font-size:6pt;"><line x1="1" y1="120" x2="700" y2="120" style="stroke:#aaaaaa;"/><text x="5" y="118">5</text></g><g style="stroke:#888888; font-family:Arial; font-size:6pt;"><line x1="1" y1="90" x2="700" y2="90" style="stroke:#aaaaaa;"/><text x="5" y="88">10</text></g><g style="stroke:#888888; font-family:Arial; font-size:6pt;"><line x1="1" y1="60" x2="700" y2="60" style="stroke:#aaaaaa;"/><text x="5" y="58">15</text></g><g style="stroke:#888888; font-family:Arial; font-size:6pt;"><line x1="1" y1="30" x2="700" y2="30" style="stroke:#aaaaaa;"/><text x="5" y="28">20</text></g><g style="stroke:#888888; font-family:Arial; font-size:6pt;"><line x1="1" y1="0" x2="700" y2="0" style="stroke:#aaaaaa;"/><text x="5" y="-2">25</text></g><text x="350" y="20" style="text-anchor:middle; font-size: 14pt;">Bowling History - Neal (Jnr)</text>
					
					<rect x="38.888888888888886" y="126" height="24" width="36.888888888888886" style="fill:#00007f;"/><rect x="77.77777777777777" y="144" height="6" width="36.888888888888886" style="fill:#00007f;"/><rect x="116.66666666666666" y="78" height="72" width="36.888888888888886" style="fill:#00007f;"/><rect x="155.55555555555554" y="138" height="12" width="36.888888888888886" style="fill:#00007f;"/><rect x="194.44444444444443" y="138" height="12" width="36.888888888888886" style="fill:#00007f;"/><rect x="233.33333333333331" y="150" height="24" width="36.888888888888886" style="fill:#00007f;"/><rect x="272.2222222222222" y="114" height="36" width="36.888888888888886" style="fill:#00007f;"/><rect x="311.1111111111111" y="102" height="48" width="36.888888888888886" style="fill:#00007f;"/><rect x="350" y="138" height="12" width="36.888888888888886" style="fill:#00007f;"/><rect x="388.88888888888886" y="150" height="36" width="36.888888888888886" style="fill:#00007f;"/><rect x="427.7777777777777" y="150" height="24" width="36.888888888888886" style="fill:#00007f;"/><rect x="466.66666666666663" y="150" height="24" width="36.888888888888886" style="fill:#00007f;"/><rect x="505.55555555555554" y="150" height="0" width="36.888888888888886" style="fill:#00007f;"/><rect x="544.4444444444443" y="132" height="18" width="36.888888888888886" style="fill:#00007f;"/><rect x="583.3333333333333" y="150" height="78" width="36.888888888888886" style="fill:#00007f;"/><rect x="622.2222222222222" y="126" height="24" width="36.888888888888886" style="fill:#00007f;"/><rect x="661.1111111111111" y="78" height="72" width="36.888888888888886" style="fill:#00007f;"/>
					
					<path d="M57.33333333333333 126 L96.22222222222221 135 L135.1111111111111 116 L174 121.5 L212.88888888888886 124.8 L251.77777777777777 133 L290.66666666666663 130.28571428571428 L329.55555555555554 126.75 L368.44444444444446 128 L407.3333333333333 133.8 L446.2222222222222 137.45454545454547 L485.1111111111111 140.5 L524 141.23076923076923 L562.8888888888888 140.57142857142858 L601.7777777777777 146.4 L640.6666666666666 145.125 L679.5555555555555 141.1764705882353 " style="fill:none; stroke:red; stroke-width:1"/>
				</g>
			</svg>