<?xml version="1.0" encoding="UTF-8"?><svg xml:space="preserve" width="700" height="300">
				<desc>Bowling History</desc>
				<g style="stroke:#000000; stroke-width:0.5; font-family:Arial; font-size:7pt;">
					<rect x="1" y="1" width="698" height="298" style="fill:#dddddd;"/><g style="stroke:#888888; font-family:Arial; font-size:6pt;"><line x1="1" y1="300" x2="700" y2="300" style="stroke:#aaaaaa;"/><text x="5" y="298">-25</text></g><g style="stroke:#888888; font-family:Arial; font-size:6pt;"><line x1="1" y1="270" x2="700" y2="270" style="stroke:#aaaaaa;"/><text x="5" y="268">-20</text></g><g style="stroke:#888888; font-family:Arial; font-size:6pt;"><line x1="1" y1="240" x2="700" y2="240" style="stroke:#aaaaaa;"/><text x="5" y="238">-15</text></g><g style="stroke:#888888; font-family:Arial; font-size:6pt;"><line x1="1" y1="210" x2="700" y2="210" style="stroke:#aaaaaa;"/><text x="5" y="208">-10</text></g><g style="stroke:#888888; font-family:Arial; font-size:6pt;"><line x1="1" y1="180" x2="700" y2="180" style="stroke:#aaaaaa;"/><text x="5" y="178">-5</text></g><g style="stroke:#888888; font-family:Arial; font-size:6pt;"><line x1="1" y1="150" x2="700" y2="150" style="stroke:#aaaaaa;"/><text x="5" y="148">0</text></g><g style="stroke:#888888; font-family:Arial; font-size:6pt;"><line x1="1" y1="120" x2="700" y2="120" style="stroke:#aaaaaa;"/><text x="5" y="118">5</text></g><g style="stroke:#888888; font-family:Arial; font-size:6pt;"><line x1="1" y1="90" x2="700" y2="90" style="stroke:#aaaaaa;"/><text x="5" y="88">10</text></g><g style="stroke:#888888; font-family:Arial; font-size:6pt;"><line x1="1" y1="60" x2="700" y2="60" style="stroke:#aaaaaa;"/><text x="5" y="58">15</text></g><g style="stroke:#888888; font-family:Arial; font-size:6pt;"><line x1="1" y1="30" x2="700" y2="30" style="stroke:#aaaaaa;"/><text x="5" y="28">20</text></g><g style="stroke:#888888; font-family:Arial; font-size:6pt;"><line x1="1" y1="0" x2="700" y2="0" style="stroke:#aaaaaa;"/><text x="5" y="-2">25</text></g><text x="350" y="20" style="text-anchor:middle; font-size: 14pt;">Bowling History - MG</text>
					
					<rect x="15.217391304347826" y="120" height="30" width="13.217391304347826" style="fill:#00007f;"/><rect x="30.434782608695652" y="150" height="48" width="13.217391304347826" style="fill:#00007f;"/><rect x="45.65217391304348" y="150" height="30" width="13.217391304347826" style="fill:#00007f;"/><rect x="60.869565217391305" y="102" height="48" width="13.217391304347826" style="fill:#00007f;"/><rect x="76.08695652173913" y="150" height="0" width="13.217391304347826" style="fill:#00007f;"/><rect x="91.30434782608695" y="84" height="66" width="13.217391304347826" style="fill:#00007f;"/><rect x="106.52173913043478" y="84" height="66" width="13.217391304347826" style="fill:#00007f;"/><rect x="121.73913043478261" y="78" height="72" width="13.217391304347826" style="fill:#00007f;"/><rect x="136.95652173913044" y="114" height="36" width="13.217391304347826" style="fill:#00007f;"/><rect x="152.17391304347825" y="120" height="30" width="13.217391304347826" style="fill:#00007f;"/><rect x="167.3913043478261" y="84" height="66" width="13.217391304347826" style="fill:#00007f;"/><rect x="182.6086956521739" y="120" height="30" width="13.217391304347826" style="fill:#00007f;"/><rect x="197.82608695652175" y="72" height="78" width="13.217391304347826" style="fill:#00007f;"/><rect x="213.04347826086956" y="66" height="84" width="13.217391304347826" style="fill:#00007f;"/><rect x="228.2608695652174" y="150" height="6" width="13.217391304347826" style="fill:#00007f;"/><rect x="243.47826086956522" y="78" height="72" width="13.217391304347826" style="fill:#00007f;"/><rect x="258.69565217391306" y="150" height="42" width="13.217391304347826" style="fill:#00007f;"/><rect x="273.9130434782609" y="108" height="42" width="13.217391304347826" style="fill:#00007f;"/><rect x="289.1304347826087" y="126" height="24" width="13.217391304347826" style="fill:#00007f;"/><rect x="304.3478260869565" y="90" height="60" width="13.217391304347826" style="fill:#00007f;"/><rect x="319.5652173913044" y="126" height="24" width="13.217391304347826" style="fill:#00007f;"/><rect x="334.7826086956522" y="150" height="36" width="13.217391304347826" style="fill:#00007f;"/><rect x="350" y="150" height="12" width="13.217391304347826" style="fill:#00007f;"/><rect x="365.2173913043478" y="150" height="0" width="13.217391304347826" style="fill:#00007f;"/><rect x="380.4347826086956" y="150" height="30" width="13.217391304347826" style="fill:#00007f;"/><rect x="395.6521739130435" y="150" height="72" width="13.217391304347826" style="fill:#00007f;"/><rect x="410.8695652173913" y="108" height="42" width="13.217391304347826" style="fill:#00007f;"/><rect x="426.0869565217391" y="114" height="36" width="13.217391304347826" style="fill:#00007f;"/><rect x="441.30434782608694" y="144" height="6" width="13.217391304347826" style="fill:#00007f;"/><rect x="456.5217391304348" y="150" height="12" width="13.217391304347826" style="fill:#00007f;"/><rect x="471.7391304347826" y="114" height="36" width="13.217391304347826" style="fill:#00007f;"/><rect x="486.95652173913044" y="108" height="42" width="13.217391304347826" style="fill:#00007f;"/><rect x="502.17391304347825" y="132" height="18" width="13.217391304347826" style="fill:#00007f;"/><rect x="517.3913043478261" y="132" height="18" width="13.217391304347826" style="fill:#00007f;"/><rect x="532.6086956521739" y="120" height="30" width="13.217391304347826" style="fill:#00007f;"/><rect x="547.8260869565217" y="108" height="42" width="13.217391304347826" style="fill:#00007f;"/><rect x="563.0434782608696" y="138" height="12" width="13.217391304347826" style="fill:#00007f;"/><rect x="578.2608695652174" y="108" height="42" width="13.217391304347826" style="fill:#00007f;"/><rect x="593.4782608695652" y="150" height="42" width="13.217391304347826" style="fill:#00007f;"/><rect x="608.695652173913" y="144" height="6" width="13.217391304347826" style="fill:#00007f;"/><rect x="623.9130434782609" y="102" height="48" width="13.217391304347826" style="fill:#00007f;"/><rect x="639.1304347826087" y="84" height="66" width="13.217391304347826" style="fill:#00007f;"/><rect x="654.3478260869565" y="72" height="78" width="13.217391304347826" style="fill:#00007f;"/><rect x="669.5652173913044" y="150" height="0" width="13.217391304347826" style="fill:#00007f;"/><rect x="684.7826086956521" y="150" height="18" width="13.217391304347826" style="fill:#00007f;"/>
					
					<path d="M21.82608695652174 120 L37.04347826086956 159 L52.26086956521739 166 L67.47826086956522 150 L82.69565217391303 150 L97.91304347826086 139 L113.13043478260869 131.14285714285714 L128.34782608695653 124.5 L143.56521739130434 123.33333333333333 L158.78260869565216 123 L174 119.45454545454545 L189.2173913043478 119.5 L204.43478260869566 115.84615384615384 L219.65217391304347 112.28571428571428 L234.8695652173913 115.2 L250.08695652173913 112.875 L265.304347826087 117.52941176470588 L280.5217391304348 117 L295.7391304347826 117.47368421052632 L310.95652173913044 116.1 L326.1739130434783 116.57142857142857 L341.3913043478261 119.72727272727272 L356.60869565217394 121.56521739130434 L371.82608695652175 122.75 L387.04347826086956 125.03999999999999 L402.26086956521743 128.76923076923077 L417.47826086956525 128 L432.69565217391306 127.5 L447.9130434782609 128.06896551724137 L463.13043478260875 129.2 L478.34782608695656 128.70967741935485 L493.5652173913044 128.0625 L508.7826086956522 128.1818181818182 L524 128.2941176470588 L539.2173913043478 128.05714285714285 L554.4347826086956 127.5 L569.6521739130435 127.78378378378378 L584.8695652173913 127.26315789473685 L600.0869565217391 128.92307692307693 L615.3043478260869 129.3 L630.5217391304348 128.6341463414634 L645.7391304347826 127.57142857142857 L660.9565217391304 126.27906976744185 L676.1739130434783 126.81818181818181 L691.391304347826 127.73333333333333 " style="fill:none; stroke:red; stroke-width:1"/>
				</g>
			</svg>