<?xml version="1.0" encoding="UTF-8"?><svg xml:space="preserve" width="700" height="300">
				<desc>Bowling History</desc>
				<g style="stroke:#000000; stroke-width:0.5; font-family:Arial; font-size:7pt;">
					<rect x="1" y="1" width="698" height="298" style="fill:#dddddd;"/><g style="stroke:#888888; font-family:Arial; font-size:6pt;"><line x1="1" y1="300" x2="700" y2="300" style="stroke:#aaaaaa;"/><text x="5" y="298">-25</text></g><g style="stroke:#888888; font-family:Arial; font-size:6pt;"><line x1="1" y1="270" x2="700" y2="270" style="stroke:#aaaaaa;"/><text x="5" y="268">-20</text></g><g style="stroke:#888888; font-family:Arial; font-size:6pt;"><line x1="1" y1="240" x2="700" y2="240" style="stroke:#aaaaaa;"/><text x="5" y="238">-15</text></g><g style="stroke:#888888; font-family:Arial; font-size:6pt;"><line x1="1" y1="210" x2="700" y2="210" style="stroke:#aaaaaa;"/><text x="5" y="208">-10</text></g><g style="stroke:#888888; font-family:Arial; font-size:6pt;"><line x1="1" y1="180" x2="700" y2="180" style="stroke:#aaaaaa;"/><text x="5" y="178">-5</text></g><g style="stroke:#888888; font-family:Arial; font-size:6pt;"><line x1="1" y1="150" x2="700" y2="150" style="stroke:#aaaaaa;"/><text x="5" y="148">0</text></g><g style="stroke:#888888; font-family:Arial; font-size:6pt;"><line x1="1" y1="120" x2="700" y2="120" style="stroke:#aaaaaa;"/><text x="5" y="118">5</text></g><g style="stroke:#888888; font-family:Arial; font-size:6pt;"><line x1="1" y1="90" x2="700" y2="90" style="stroke:#aaaaaa;"/><text x="5" y="88">10</text></g><g style="stroke:#888888; font-family:Arial; font-size:6pt;"><line x1="1" y1="60" x2="700" y2="60" style="stroke:#aaaaaa;"/><text x="5" y="58">15</text></g><g style="stroke:#888888; font-family:Arial; font-size:6pt;"><line x1="1" y1="30" x2="700" y2="30" style="stroke:#aaaaaa;"/><text x="5" y="28">20</text></g><g style="stroke:#888888; font-family:Arial; font-size:6pt;"><line x1="1" y1="0" x2="700" y2="0" style="stroke:#aaaaaa;"/><text x="5" y="-2">25</text></g><text x="350" y="20" style="text-anchor:middle; font-size: 14pt;">Bowling History - Baz</text>
					
					<rect x="18.42105263157895" y="90" height="60" width="16.42105263157895" style="fill:#00007f;"/><rect x="36.8421052631579" y="42" height="108" width="16.42105263157895" style="fill:#00007f;"/><rect x="55.26315789473685" y="132" height="18" width="16.42105263157895" style="fill:#00007f;"/><rect x="73.6842105263158" y="108" height="42" width="16.42105263157895" style="fill:#00007f;"/><rect x="92.10526315789474" y="120" height="30" width="16.42105263157895" style="fill:#00007f;"/><rect x="110.5263157894737" y="150" height="0" width="16.42105263157895" style="fill:#00007f;"/><rect x="128.94736842105263" y="120" height="30" width="16.42105263157895" style="fill:#00007f;"/><rect x="147.3684210526316" y="150" height="66" width="16.42105263157895" style="fill:#00007f;"/><rect x="165.78947368421055" y="96" height="54" width="16.42105263157895" style="fill:#00007f;"/><rect x="184.21052631578948" y="102" height="48" width="16.42105263157895" style="fill:#00007f;"/><rect x="202.63157894736844" y="90" height="60" width="16.42105263157895" style="fill:#00007f;"/><rect x="221.0526315789474" y="150" height="12" width="16.42105263157895" style="fill:#00007f;"/><rect x="239.47368421052633" y="150" height="12" width="16.42105263157895" style="fill:#00007f;"/><rect x="257.89473684210526" y="114" height="36" width="16.42105263157895" style="fill:#00007f;"/><rect x="276.3157894736842" y="90" height="60" width="16.42105263157895" style="fill:#00007f;"/><rect x="294.7368421052632" y="108" height="42" width="16.42105263157895" style="fill:#00007f;"/><rect x="313.15789473684214" y="72" height="78" width="16.42105263157895" style="fill:#00007f;"/><rect x="331.5789473684211" y="150" height="48" width="16.42105263157895" style="fill:#00007f;"/><rect x="350" y="150" height="18" width="16.42105263157895" style="fill:#00007f;"/><rect x="368.42105263157896" y="108" height="42" width="16.42105263157895" style="fill:#00007f;"/><rect x="386.8421052631579" y="120" height="30" width="16.42105263157895" style="fill:#00007f;"/><rect x="405.2631578947369" y="114" height="36" width="16.42105263157895" style="fill:#00007f;"/><rect x="423.68421052631584" y="132" height="18" width="16.42105263157895" style="fill:#00007f;"/><rect x="442.1052631578948" y="114" height="36" width="16.42105263157895" style="fill:#00007f;"/><rect x="460.5263157894737" y="114" height="36" width="16.42105263157895" style="fill:#00007f;"/><rect x="478.94736842105266" y="132" height="18" width="16.42105263157895" style="fill:#00007f;"/><rect x="497.3684210526316" y="126" height="24" width="16.42105263157895" style="fill:#00007f;"/><rect x="515.7894736842105" y="96" height="54" width="16.42105263157895" style="fill:#00007f;"/><rect x="534.2105263157895" y="150" height="12" width="16.42105263157895" style="fill:#00007f;"/><rect x="552.6315789473684" y="144" height="6" width="16.42105263157895" style="fill:#00007f;"/><rect x="571.0526315789474" y="150" height="42" width="16.42105263157895" style="fill:#00007f;"/><rect x="589.4736842105264" y="102" height="48" width="16.42105263157895" style="fill:#00007f;"/><rect x="607.8947368421053" y="150" height="0" width="16.42105263157895" style="fill:#00007f;"/><rect x="626.3157894736843" y="150" height="0" width="16.42105263157895" style="fill:#00007f;"/><rect x="644.7368421052632" y="108" height="42" width="16.42105263157895" style="fill:#00007f;"/><rect x="663.1578947368422" y="60" height="90" width="16.42105263157895" style="fill:#00007f;"/><rect x="681.5789473684212" y="138" height="12" width="16.42105263157895" style="fill:#00007f;"/>
					
					<path d="M26.631578947368425 90 L45.05263157894737 66 L63.47368421052632 88 L81.89473684210527 93 L100.31578947368422 98.4 L118.73684210526318 107 L137.1578947368421 108.85714285714286 L155.57894736842107 122.25 L174.00000000000003 119.33333333333334 L192.42105263157896 117.6 L210.84210526315792 115.0909090909091 L229.26315789473688 119 L247.6842105263158 122.3076923076923 L266.10526315789474 121.71428571428572 L284.5263157894737 119.6 L302.94736842105266 118.875 L321.3684210526316 116.11764705882354 L339.7894736842106 120.66666666666666 L358.2105263157895 123.15789473684211 L376.63157894736844 122.4 L395.0526315789474 122.28571428571429 L413.47368421052636 121.9090909090909 L431.8947368421053 122.34782608695653 L450.3157894736843 122 L468.7368421052632 121.68 L487.15789473684214 122.07692307692307 L505.5789473684211 122.22222222222223 L524 121.28571428571428 L542.421052631579 122.6896551724138 L560.8421052631579 123.4 L579.2631578947369 125.61290322580645 L597.6842105263158 124.875 L616.1052631578948 125.63636363636364 L634.5263157894738 126.35294117647058 L652.9473684210527 125.82857142857142 L671.3684210526317 124 L689.7894736842106 124.37837837837839 " style="fill:none; stroke:red; stroke-width:1"/>
				</g>
			</svg>