<?xml version="1.0" encoding="UTF-8"?><svg xml:space="preserve" width="700" height="300">
				<desc>Bowling History</desc>
				<g style="stroke:#000000; stroke-width:0.5; font-family:Arial; font-size:7pt;">
					<rect x="1" y="1" width="698" height="298" style="fill:#dddddd;"/><g style="stroke:#888888; font-family:Arial; font-size:6pt;"><line x1="1" y1="300" x2="700" y2="300" style="stroke:#aaaaaa;"/><text x="5" y="298">-25</text></g><g style="stroke:#888888; font-family:Arial; font-size:6pt;"><line x1="1" y1="270" x2="700" y2="270" style="stroke:#aaaaaa;"/><text x="5" y="268">-20</text></g><g style="stroke:#888888; font-family:Arial; font-size:6pt;"><line x1="1" y1="240" x2="700" y2="240" style="stroke:#aaaaaa;"/><text x="5" y="238">-15</text></g><g style="stroke:#888888; font-family:Arial; font-size:6pt;"><line x1="1" y1="210" x2="700" y2="210" style="stroke:#aaaaaa;"/><text x="5" y="208">-10</text></g><g style="stroke:#888888; font-family:Arial; font-size:6pt;"><line x1="1" y1="180" x2="700" y2="180" style="stroke:#aaaaaa;"/><text x="5" y="178">-5</text></g><g style="stroke:#888888; font-family:Arial; font-size:6pt;"><line x1="1" y1="150" x2="700" y2="150" style="stroke:#aaaaaa;"/><text x="5" y="148">0</text></g><g style="stroke:#888888; font-family:Arial; font-size:6pt;"><line x1="1" y1="120" x2="700" y2="120" style="stroke:#aaaaaa;"/><text x="5" y="118">5</text></g><g style="stroke:#888888; font-family:Arial; font-size:6pt;"><line x1="1" y1="90" x2="700" y2="90" style="stroke:#aaaaaa;"/><text x="5" y="88">10</text></g><g style="stroke:#888888; font-family:Arial; font-size:6pt;"><line x1="1" y1="60" x2="700" y2="60" style="stroke:#aaaaaa;"/><text x="5" y="58">15</text></g><g style="stroke:#888888; font-family:Arial; font-size:6pt;"><line x1="1" y1="30" x2="700" y2="30" style="stroke:#aaaaaa;"/><text x="5" y="28">20</text></g><g style="stroke:#888888; font-family:Arial; font-size:6pt;"><line x1="1" y1="0" x2="700" y2="0" style="stroke:#aaaaaa;"/><text x="5" y="-2">25</text></g><text x="350" y="20" style="text-anchor:middle; font-size: 14pt;">Bowling History - Craig</text>
					
					<rect x="13.20754716981132" y="84" height="66" width="11.20754716981132" style="fill:#00007f;"/><rect x="26.41509433962264" y="144" height="6" width="11.20754716981132" style="fill:#00007f;"/><rect x="39.62264150943396" y="90" height="60" width="11.20754716981132" style="fill:#00007f;"/><rect x="52.83018867924528" y="144" height="6" width="11.20754716981132" style="fill:#00007f;"/><rect x="66.0377358490566" y="90" height="60" width="11.20754716981132" style="fill:#00007f;"/><rect x="79.24528301886792" y="126" height="24" width="11.20754716981132" style="fill:#00007f;"/><rect x="92.45283018867924" y="120" height="30" width="11.20754716981132" style="fill:#00007f;"/><rect x="105.66037735849056" y="108" height="42" width="11.20754716981132" style="fill:#00007f;"/><rect x="118.86792452830188" y="108" height="42" width="11.20754716981132" style="fill:#00007f;"/><rect x="132.0754716981132" y="60" height="90" width="11.20754716981132" style="fill:#00007f;"/><rect x="145.2830188679245" y="108" height="42" width="11.20754716981132" style="fill:#00007f;"/><rect x="158.49056603773585" y="126" height="24" width="11.20754716981132" style="fill:#00007f;"/><rect x="171.69811320754718" y="78" height="72" width="11.20754716981132" style="fill:#00007f;"/><rect x="184.9056603773585" y="90" height="60" width="11.20754716981132" style="fill:#00007f;"/><rect x="198.1132075471698" y="150" height="78" width="11.20754716981132" style="fill:#00007f;"/><rect x="211.32075471698113" y="138" height="12" width="11.20754716981132" style="fill:#00007f;"/><rect x="224.52830188679246" y="108" height="42" width="11.20754716981132" style="fill:#00007f;"/><rect x="237.73584905660377" y="120" height="30" width="11.20754716981132" style="fill:#00007f;"/><rect x="250.94339622641508" y="132" height="18" width="11.20754716981132" style="fill:#00007f;"/><rect x="264.1509433962264" y="126" height="24" width="11.20754716981132" style="fill:#00007f;"/><rect x="277.35849056603774" y="150" height="30" width="11.20754716981132" style="fill:#00007f;"/><rect x="290.566037735849" y="150" height="24" width="11.20754716981132" style="fill:#00007f;"/><rect x="303.77358490566036" y="150" height="120" width="11.20754716981132" style="fill:#00007f;"/><rect x="316.9811320754717" y="150" height="114" width="11.20754716981132" style="fill:#00007f;"/><rect x="330.188679245283" y="138" height="12" width="11.20754716981132" style="fill:#00007f;"/><rect x="343.39622641509436" y="150" height="0" width="11.20754716981132" style="fill:#00007f;"/><rect x="356.60377358490564" y="132" height="18" width="11.20754716981132" style="fill:#00007f;"/><rect x="369.811320754717" y="84" height="66" width="11.20754716981132" style="fill:#00007f;"/><rect x="383.0188679245283" y="150" height="66" width="11.20754716981132" style="fill:#00007f;"/><rect x="396.2264150943396" y="138" height="12" width="11.20754716981132" style="fill:#00007f;"/><rect x="409.4339622641509" y="126" height="24" width="11.20754716981132" style="fill:#00007f;"/><rect x="422.64150943396226" y="150" height="24" width="11.20754716981132" style="fill:#00007f;"/><rect x="435.8490566037736" y="138" height="12" width="11.20754716981132" style="fill:#00007f;"/><rect x="449.0566037735849" y="150" height="0" width="11.20754716981132" style="fill:#00007f;"/><rect x="462.2641509433962" y="132" height="18" width="11.20754716981132" style="fill:#00007f;"/><rect x="475.47169811320754" y="120" height="30" width="11.20754716981132" style="fill:#00007f;"/><rect x="488.6792452830189" y="150" height="12" width="11.20754716981132" style="fill:#00007f;"/><rect x="501.88679245283015" y="108" height="42" width="11.20754716981132" style="fill:#00007f;"/><rect x="515.0943396226415" y="96" height="54" width="11.20754716981132" style="fill:#00007f;"/><rect x="528.3018867924528" y="132" height="18" width="11.20754716981132" style="fill:#00007f;"/><rect x="541.5094339622641" y="114" height="36" width="11.20754716981132" style="fill:#00007f;"/><rect x="554.7169811320755" y="72" height="78" width="11.20754716981132" style="fill:#00007f;"/><rect x="567.9245283018868" y="96" height="54" width="11.20754716981132" style="fill:#00007f;"/><rect x="581.132075471698" y="96" height="54" width="11.20754716981132" style="fill:#00007f;"/><rect x="594.3396226415094" y="150" height="84" width="11.20754716981132" style="fill:#00007f;"/><rect x="607.5471698113207" y="150" height="54" width="11.20754716981132" style="fill:#00007f;"/><rect x="620.7547169811321" y="150" height="6" width="11.20754716981132" style="fill:#00007f;"/><rect x="633.9622641509434" y="138" height="12" width="11.20754716981132" style="fill:#00007f;"/><rect x="647.1698113207547" y="150" height="0" width="11.20754716981132" style="fill:#00007f;"/><rect x="660.377358490566" y="102" height="48" width="11.20754716981132" style="fill:#00007f;"/><rect x="673.5849056603773" y="144" height="6" width="11.20754716981132" style="fill:#00007f;"/><rect x="686.7924528301887" y="30" height="120" width="11.20754716981132" style="fill:#00007f;"/>
					
					<path d="M18.81132075471698 84 L32.0188679245283 114 L45.22641509433962 106 L58.43396226415094 115.5 L71.64150943396226 110.4 L84.84905660377359 113 L98.0566037735849 114 L111.26415094339623 113.25 L124.47169811320754 112.66666666666666 L137.67924528301887 107.4 L150.88679245283018 107.45454545454545 L164.0943396226415 109 L177.30188679245285 106.61538461538461 L190.50943396226415 105.42857142857143 L203.71698113207546 113.6 L216.9245283018868 115.125 L230.13207547169813 114.70588235294117 L243.33962264150944 115 L256.5471698113207 115.89473684210526 L269.75471698113205 116.4 L282.9622641509434 119.42857142857143 L296.16981132075466 121.9090909090909 L309.377358490566 128.34782608695653 L322.58490566037733 134 L335.79245283018867 134.16 L349 134.76923076923077 L362.2075471698113 134.66666666666666 L375.4150943396226 132.85714285714286 L388.62264150943395 135.72413793103448 L401.8301886792452 135.8 L415.03773584905656 135.48387096774195 L428.2452830188679 136.6875 L441.45283018867923 136.72727272727272 L454.66037735849056 137.11764705882354 L467.86792452830184 136.97142857142856 L481.0754716981132 136.5 L494.2830188679245 137.1891891891892 L507.4905660377358 136.42105263157896 L520.6981132075472 135.3846153846154 L533.9056603773585 135.3 L547.1132075471697 134.78048780487805 L560.3207547169811 133.28571428571428 L573.5283018867924 132.41860465116278 L586.7358490566037 131.5909090909091 L599.9433962264151 133.86666666666667 L613.1509433962264 135.3913043478261 L626.3584905660377 135.82978723404256 L639.566037735849 135.875 L652.7735849056603 136.16326530612244 L665.9811320754717 135.48 L679.188679245283 135.64705882352942 L692.3962264150944 133.6153846153846 " style="fill:none; stroke:red; stroke-width:1"/>
				</g>
			</svg>