<?xml version="1.0" encoding="UTF-8"?><svg xml:space="preserve" width="700" height="300">
				<desc>Bowling History</desc>
				<g style="stroke:#000000; stroke-width:0.5; font-family:Arial; font-size:7pt;">
					<rect x="1" y="1" width="698" height="298" style="fill:#dddddd;"/><g style="stroke:#888888; font-family:Arial; font-size:6pt;"><line x1="1" y1="300" x2="700" y2="300" style="stroke:#aaaaaa;"/><text x="5" y="298">-25</text></g><g style="stroke:#888888; font-family:Arial; font-size:6pt;"><line x1="1" y1="270" x2="700" y2="270" style="stroke:#aaaaaa;"/><text x="5" y="268">-20</text></g><g style="stroke:#888888; font-family:Arial; font-size:6pt;"><line x1="1" y1="240" x2="700" y2="240" style="stroke:#aaaaaa;"/><text x="5" y="238">-15</text></g><g style="stroke:#888888; font-family:Arial; font-size:6pt;"><line x1="1" y1="210" x2="700" y2="210" style="stroke:#aaaaaa;"/><text x="5" y="208">-10</text></g><g style="stroke:#888888; font-family:Arial; font-size:6pt;"><line x1="1" y1="180" x2="700" y2="180" style="stroke:#aaaaaa;"/><text x="5" y="178">-5</text></g><g style="stroke:#888888; font-family:Arial; font-size:6pt;"><line x1="1" y1="150" x2="700" y2="150" style="stroke:#aaaaaa;"/><text x="5" y="148">0</text></g><g style="stroke:#888888; font-family:Arial; font-size:6pt;"><line x1="1" y1="120" x2="700" y2="120" style="stroke:#aaaaaa;"/><text x="5" y="118">5</text></g><g style="stroke:#888888; font-family:Arial; font-size:6pt;"><line x1="1" y1="90" x2="700" y2="90" style="stroke:#aaaaaa;"/><text x="5" y="88">10</text></g><g style="stroke:#888888; font-family:Arial; font-size:6pt;"><line x1="1" y1="60" x2="700" y2="60" style="stroke:#aaaaaa;"/><text x="5" y="58">15</text></g><g style="stroke:#888888; font-family:Arial; font-size:6pt;"><line x1="1" y1="30" x2="700" y2="30" style="stroke:#aaaaaa;"/><text x="5" y="28">20</text></g><g style="stroke:#888888; font-family:Arial; font-size:6pt;"><line x1="1" y1="0" x2="700" y2="0" style="stroke:#aaaaaa;"/><text x="5" y="-2">25</text></g><text x="350" y="20" style="text-anchor:middle; font-size: 14pt;">Bowling History - Dave 2</text>
					
					<rect x="14" y="90" height="60" width="12" style="fill:#00007f;"/><rect x="28" y="150" height="12" width="12" style="fill:#00007f;"/><rect x="42" y="150" height="42" width="12" style="fill:#00007f;"/><rect x="56" y="138" height="12" width="12" style="fill:#00007f;"/><rect x="70" y="60" height="90" width="12" style="fill:#00007f;"/><rect x="84" y="150" height="18" width="12" style="fill:#00007f;"/><rect x="98" y="102" height="48" width="12" style="fill:#00007f;"/><rect x="112" y="138" height="12" width="12" style="fill:#00007f;"/><rect x="126" y="120" height="30" width="12" style="fill:#00007f;"/><rect x="140" y="84" height="66" width="12" style="fill:#00007f;"/><rect x="154" y="144" height="6" width="12" style="fill:#00007f;"/><rect x="168" y="96" height="54" width="12" style="fill:#00007f;"/><rect x="182" y="90" height="60" width="12" style="fill:#00007f;"/><rect x="196" y="114" height="36" width="12" style="fill:#00007f;"/><rect x="210" y="150" height="30" width="12" style="fill:#00007f;"/><rect x="224" y="132" height="18" width="12" style="fill:#00007f;"/><rect x="238" y="138" height="12" width="12" style="fill:#00007f;"/><rect x="252" y="150" height="24" width="12" style="fill:#00007f;"/><rect x="266" y="144" height="6" width="12" style="fill:#00007f;"/><rect x="280" y="150" height="0" width="12" style="fill:#00007f;"/><rect x="294" y="120" height="30" width="12" style="fill:#00007f;"/><rect x="308" y="102" height="48" width="12" style="fill:#00007f;"/><rect x="322" y="84" height="66" width="12" style="fill:#00007f;"/><rect x="336" y="150" height="0" width="12" style="fill:#00007f;"/><rect x="350" y="150" height="0" width="12" style="fill:#00007f;"/><rect x="364" y="96" height="54" width="12" style="fill:#00007f;"/><rect x="378" y="144" height="6" width="12" style="fill:#00007f;"/><rect x="392" y="96" height="54" width="12" style="fill:#00007f;"/><rect x="406" y="150" height="30" width="12" style="fill:#00007f;"/><rect x="420" y="150" height="12" width="12" style="fill:#00007f;"/><rect x="434" y="78" height="72" width="12" style="fill:#00007f;"/><rect x="448" y="108" height="42" width="12" style="fill:#00007f;"/><rect x="462" y="150" height="0" width="12" style="fill:#00007f;"/><rect x="476" y="114" height="36" width="12" style="fill:#00007f;"/><rect x="490" y="84" height="66" width="12" style="fill:#00007f;"/><rect x="504" y="150" height="42" width="12" style="fill:#00007f;"/><rect x="518" y="114" height="36" width="12" style="fill:#00007f;"/><rect x="532" y="150" height="0" width="12" style="fill:#00007f;"/><rect x="546" y="102" height="48" width="12" style="fill:#00007f;"/><rect x="560" y="138" height="12" width="12" style="fill:#00007f;"/><rect x="574" y="90" height="60" width="12" style="fill:#00007f;"/><rect x="588" y="150" height="24" width="12" style="fill:#00007f;"/><rect x="602" y="150" height="12" width="12" style="fill:#00007f;"/><rect x="616" y="150" height="30" width="12" style="fill:#00007f;"/><rect x="630" y="90" height="60" width="12" style="fill:#00007f;"/><rect x="644" y="90" height="60" width="12" style="fill:#00007f;"/><rect x="658" y="72" height="78" width="12" style="fill:#00007f;"/><rect x="672" y="78" height="72" width="12" style="fill:#00007f;"/><rect x="686" y="84" height="66" width="12" style="fill:#00007f;"/>
					
					<path d="M20 90 L34 126 L48 148 L62 145.5 L76 128.4 L90 135 L104 130.28571428571428 L118 131.25 L132 130 L146 125.4 L160 127.0909090909091 L174 124.5 L188 121.84615384615384 L202 121.28571428571428 L216 125.19999999999999 L230 125.625 L244 126.35294117647058 L258 129 L272 129.78947368421052 L286 130.8 L300 130.28571428571428 L314 129 L328 127.04347826086956 L342 128 L356 128.88 L370 127.61538461538461 L384 128.22222222222223 L398 127.07142857142857 L412 128.89655172413794 L426 130 L440 128.32258064516128 L454 127.6875 L468 128.36363636363637 L482 127.94117647058823 L496 126.68571428571428 L510 128.5 L524 128.1081081081081 L538 128.68421052631578 L552 128 L566 128.25 L580 127.3170731707317 L594 128.42857142857142 L608 129.2093023255814 L622 130.36363636363637 L636 129.46666666666667 L650 128.6086956521739 L664 127.40425531914893 L678 126.375 L692 125.51020408163265 " style="fill:none; stroke:red; stroke-width:1"/>
				</g>
			</svg>