<?xml version="1.0" encoding="UTF-8"?><svg xml:space="preserve" width="700" height="300">
				<desc>Net Runs</desc>
				<g style="stroke:#000000; stroke-width:0.5; font-family:Arial; font-size:7pt;">
					<rect x="1" y="1" width="698" height="298" style="fill:#dddddd;"/><g style="stroke:#888888; font-family:Arial; font-size:6pt;"><line x1="1" y1="286.3636363636363" x2="700" y2="286.3636363636363" style="stroke:#aaaaaa;"/><text x="5" y="284.3636363636363">-40</text></g><g style="stroke:#888888; font-family:Arial; font-size:6pt;"><line x1="1" y1="259.09090909090907" x2="700" y2="259.09090909090907" style="stroke:#aaaaaa;"/><text x="5" y="257.09090909090907">-30</text></g><g style="stroke:#888888; font-family:Arial; font-size:6pt;"><line x1="1" y1="231.81818181818178" x2="700" y2="231.81818181818178" style="stroke:#aaaaaa;"/><text x="5" y="229.81818181818178">-20</text></g><g style="stroke:#888888; font-family:Arial; font-size:6pt;"><line x1="1" y1="204.54545454545453" x2="700" y2="204.54545454545453" style="stroke:#aaaaaa;"/><text x="5" y="202.54545454545453">-10</text></g><g style="stroke:#888888; font-family:Arial; font-size:6pt;"><line x1="1" y1="177.27272727272725" x2="700" y2="177.27272727272725" style="stroke:#aaaaaa;"/><text x="5" y="175.27272727272725">0</text></g><g style="stroke:#888888; font-family:Arial; font-size:6pt;"><line x1="1" y1="149.99999999999997" x2="700" y2="149.99999999999997" style="stroke:#aaaaaa;"/><text x="5" y="147.99999999999997">10</text></g><g style="stroke:#888888; font-family:Arial; font-size:6pt;"><line x1="1" y1="122.72727272727272" x2="700" y2="122.72727272727272" style="stroke:#aaaaaa;"/><text x="5" y="120.72727272727272">20</text></g><g style="stroke:#888888; font-family:Arial; font-size:6pt;"><line x1="1" y1="95.45454545454544" x2="700" y2="95.45454545454544" style="stroke:#aaaaaa;"/><text x="5" y="93.45454545454544">30</text></g><g style="stroke:#888888; font-family:Arial; font-size:6pt;"><line x1="1" y1="68.18181818181817" x2="700" y2="68.18181818181817" style="stroke:#aaaaaa;"/><text x="5" y="66.18181818181817">40</text></g><g style="stroke:#888888; font-family:Arial; font-size:6pt;"><line x1="1" y1="40.90909090909091" x2="700" y2="40.90909090909091" style="stroke:#aaaaaa;"/><text x="5" y="38.90909090909091">50</text></g><g style="stroke:#888888; font-family:Arial; font-size:6pt;"><line x1="1" y1="13.636363636363626" x2="700" y2="13.636363636363626" style="stroke:#aaaaaa;"/><text x="5" y="11.636363636363626">60</text></g><text x="350" y="20" style="text-anchor:middle; font-size: 14pt;">Net Runs - MG</text>
					
					<rect x="30.434782608695652" y="119.99999999999999" height="57.272727272727266" width="25.434782608695652" style="fill:#00007f;"/><rect x="60.869565217391305" y="169.09090909090907" height="8.181818181818187" width="25.434782608695652" style="fill:#00007f;"/><rect x="91.30434782608695" y="177.27272727272725" height="2.7272727272727195" width="25.434782608695652" style="fill:#00007f;"/><rect x="121.73913043478261" y="177.27272727272725" height="19.090909090909093" width="25.434782608695652" style="fill:#00007f;"/><rect x="152.17391304347825" y="177.27272727272725" height="90" width="25.434782608695652" style="fill:#00007f;"/><rect x="182.6086956521739" y="160.90909090909088" height="16.363636363636374" width="25.434782608695652" style="fill:#00007f;"/><rect x="213.04347826086956" y="177.27272727272725" height="5.4545454545454675" width="25.434782608695652" style="fill:#00007f;"/><rect x="243.47826086956522" y="149.99999999999997" height="27.27272727272728" width="25.434782608695652" style="fill:#00007f;"/><rect x="273.9130434782609" y="171.81818181818178" height="5.4545454545454675" width="25.434782608695652" style="fill:#00007f;"/><rect x="304.3478260869565" y="177.27272727272725" height="21.818181818181813" width="25.434782608695652" style="fill:#00007f;"/><rect x="334.7826086956522" y="122.72727272727272" height="54.54545454545453" width="25.434782608695652" style="fill:#00007f;"/><rect x="365.2173913043478" y="163.63636363636363" height="13.636363636363626" width="25.434782608695652" style="fill:#00007f;"/><rect x="395.6521739130435" y="119.99999999999999" height="57.272727272727266" width="25.434782608695652" style="fill:#00007f;"/><rect x="426.0869565217391" y="144.54545454545453" height="32.72727272727272" width="25.434782608695652" style="fill:#00007f;"/><rect x="456.5217391304348" y="133.63636363636363" height="43.636363636363626" width="25.434782608695652" style="fill:#00007f;"/><rect x="486.95652173913044" y="177.27272727272725" height="0" width="25.434782608695652" style="fill:#00007f;"/><rect x="517.3913043478261" y="177.27272727272725" height="13.636363636363626" width="25.434782608695652" style="fill:#00007f;"/><rect x="547.8260869565217" y="160.90909090909088" height="16.363636363636374" width="25.434782608695652" style="fill:#00007f;"/><rect x="578.2608695652174" y="119.99999999999999" height="57.272727272727266" width="25.434782608695652" style="fill:#00007f;"/><rect x="608.695652173913" y="177.27272727272725" height="43.636363636363626" width="25.434782608695652" style="fill:#00007f;"/><rect x="639.1304347826087" y="177.27272727272725" height="10.909090909090907" width="25.434782608695652" style="fill:#00007f;"/><rect x="669.5652173913044" y="119.99999999999999" height="57.272727272727266" width="25.434782608695652" style="fill:#00007f;"/>
					
					<path d="M43.15217391304348 119.99999999999999 L73.58695652173913 144.54545454545453 L104.02173913043478 156.36363636363635 L134.45652173913044 166.36363636363635 L164.89130434782606 186.54545454545453 L195.32608695652172 182.27272727272725 L225.76086956521738 182.33766233766232 L256.19565217391306 178.29545454545453 L286.6304347826087 177.57575757575756 L317.0652173913043 179.72727272727272 L347.5 174.54545454545453 L377.9347826086956 173.63636363636363 L408.3695652173913 169.5104895104895 L438.80434782608694 167.72727272727272 L469.2391304347826 165.45454545454544 L499.67391304347825 166.1931818181818 L530.108695652174 167.6470588235294 L560.5434782608696 167.27272727272725 L590.9782608695652 164.7846889952153 L621.4130434782609 167.59090909090907 L651.8478260869566 168.57142857142856 L682.2826086956522 166.36363636363635 " style="fill:none; stroke:red; stroke-width:1"/>
				</g>
			</svg>