<?xml version="1.0" encoding="UTF-8"?><svg xml:space="preserve" width="700" height="300">
				<desc>Net Runs</desc>
				<g style="stroke:#000000; stroke-width:0.5; font-family:Arial; font-size:7pt;">
					<rect x="1" y="1" width="698" height="298" style="fill:#dddddd;"/><g style="stroke:#888888; font-family:Arial; font-size:6pt;"><line x1="1" y1="286.3636363636363" x2="700" y2="286.3636363636363" style="stroke:#aaaaaa;"/><text x="5" y="284.3636363636363">-40</text></g><g style="stroke:#888888; font-family:Arial; font-size:6pt;"><line x1="1" y1="259.09090909090907" x2="700" y2="259.09090909090907" style="stroke:#aaaaaa;"/><text x="5" y="257.09090909090907">-30</text></g><g style="stroke:#888888; font-family:Arial; font-size:6pt;"><line x1="1" y1="231.81818181818178" x2="700" y2="231.81818181818178" style="stroke:#aaaaaa;"/><text x="5" y="229.81818181818178">-20</text></g><g style="stroke:#888888; font-family:Arial; font-size:6pt;"><line x1="1" y1="204.54545454545453" x2="700" y2="204.54545454545453" style="stroke:#aaaaaa;"/><text x="5" y="202.54545454545453">-10</text></g><g style="stroke:#888888; font-family:Arial; font-size:6pt;"><line x1="1" y1="177.27272727272725" x2="700" y2="177.27272727272725" style="stroke:#aaaaaa;"/><text x="5" y="175.27272727272725">0</text></g><g style="stroke:#888888; font-family:Arial; font-size:6pt;"><line x1="1" y1="149.99999999999997" x2="700" y2="149.99999999999997" style="stroke:#aaaaaa;"/><text x="5" y="147.99999999999997">10</text></g><g style="stroke:#888888; font-family:Arial; font-size:6pt;"><line x1="1" y1="122.72727272727272" x2="700" y2="122.72727272727272" style="stroke:#aaaaaa;"/><text x="5" y="120.72727272727272">20</text></g><g style="stroke:#888888; font-family:Arial; font-size:6pt;"><line x1="1" y1="95.45454545454544" x2="700" y2="95.45454545454544" style="stroke:#aaaaaa;"/><text x="5" y="93.45454545454544">30</text></g><g style="stroke:#888888; font-family:Arial; font-size:6pt;"><line x1="1" y1="68.18181818181817" x2="700" y2="68.18181818181817" style="stroke:#aaaaaa;"/><text x="5" y="66.18181818181817">40</text></g><g style="stroke:#888888; font-family:Arial; font-size:6pt;"><line x1="1" y1="40.90909090909091" x2="700" y2="40.90909090909091" style="stroke:#aaaaaa;"/><text x="5" y="38.90909090909091">50</text></g><g style="stroke:#888888; font-family:Arial; font-size:6pt;"><line x1="1" y1="13.636363636363626" x2="700" y2="13.636363636363626" style="stroke:#aaaaaa;"/><text x="5" y="11.636363636363626">60</text></g><text x="350" y="20" style="text-anchor:middle; font-size: 14pt;">Net Runs - Dave 2</text>
					
					<rect x="28" y="177.27272727272725" height="19.090909090909093" width="23" style="fill:#00007f;"/><rect x="56" y="147.27272727272725" height="30" width="23" style="fill:#00007f;"/><rect x="84" y="177.27272727272725" height="19.090909090909093" width="23" style="fill:#00007f;"/><rect x="112" y="177.27272727272725" height="19.090909090909093" width="23" style="fill:#00007f;"/><rect x="140" y="174.54545454545453" height="2.7272727272727195" width="23" style="fill:#00007f;"/><rect x="168" y="177.27272727272725" height="0" width="23" style="fill:#00007f;"/><rect x="196" y="177.27272727272725" height="35.45454545454544" width="23" style="fill:#00007f;"/><rect x="224" y="111.8181818181818" height="65.45454545454545" width="23" style="fill:#00007f;"/><rect x="252" y="177.27272727272725" height="21.818181818181813" width="23" style="fill:#00007f;"/><rect x="280" y="177.27272727272725" height="5.4545454545454675" width="23" style="fill:#00007f;"/><rect x="308" y="177.27272727272725" height="40.90909090909091" width="23" style="fill:#00007f;"/><rect x="336" y="177.27272727272725" height="16.363636363636374" width="23" style="fill:#00007f;"/><rect x="364" y="177.27272727272725" height="10.909090909090907" width="23" style="fill:#00007f;"/><rect x="392" y="177.27272727272725" height="21.818181818181813" width="23" style="fill:#00007f;"/><rect x="420" y="139.09090909090907" height="38.18181818181819" width="23" style="fill:#00007f;"/><rect x="448" y="169.09090909090907" height="8.181818181818187" width="23" style="fill:#00007f;"/><rect x="476" y="177.27272727272725" height="60" width="23" style="fill:#00007f;"/><rect x="504" y="136.36363636363635" height="40.90909090909091" width="23" style="fill:#00007f;"/><rect x="532" y="174.54545454545453" height="2.7272727272727195" width="23" style="fill:#00007f;"/><rect x="560" y="158.18181818181816" height="19.090909090909093" width="23" style="fill:#00007f;"/><rect x="588" y="147.27272727272725" height="30" width="23" style="fill:#00007f;"/><rect x="616" y="158.18181818181816" height="19.090909090909093" width="23" style="fill:#00007f;"/><rect x="644" y="177.27272727272725" height="35.45454545454544" width="23" style="fill:#00007f;"/><rect x="672" y="177.27272727272725" height="62.72727272727272" width="23" style="fill:#00007f;"/>
					
					<path d="M39.5 196.36363636363635 L67.5 171.81818181818178 L95.5 179.99999999999997 L123.5 184.09090909090907 L151.5 182.18181818181816 L179.5 181.36363636363635 L207.5 185.84415584415584 L235.5 176.59090909090907 L263.5 179.09090909090907 L291.5 179.45454545454544 L319.5 182.97520661157023 L347.5 183.86363636363635 L375.5 184.1958041958042 L403.5 185.25974025974023 L431.5 182.18181818181816 L459.5 181.36363636363635 L487.5 184.65240641711227 L515.5 181.96969696969694 L543.5 181.57894736842104 L571.5 180.40909090909088 L599.5 178.8311688311688 L627.5 177.89256198347104 L655.5 179.4071146245059 L683.5 181.93181818181816 " style="fill:none; stroke:red; stroke-width:1"/>
				</g>
			</svg>