<?xml version="1.0" encoding="UTF-8"?><svg xml:space="preserve" width="700" height="300">
				<desc>Net Runs</desc>
				<g style="stroke:#000000; stroke-width:0.5; font-family:Arial; font-size:7pt;">
					<rect x="1" y="1" width="698" height="298" style="fill:#dddddd;"/><g style="stroke:#888888; font-family:Arial; font-size:6pt;"><line x1="1" y1="286.3636363636363" x2="700" y2="286.3636363636363" style="stroke:#aaaaaa;"/><text x="5" y="284.3636363636363">-40</text></g><g style="stroke:#888888; font-family:Arial; font-size:6pt;"><line x1="1" y1="259.09090909090907" x2="700" y2="259.09090909090907" style="stroke:#aaaaaa;"/><text x="5" y="257.09090909090907">-30</text></g><g style="stroke:#888888; font-family:Arial; font-size:6pt;"><line x1="1" y1="231.81818181818178" x2="700" y2="231.81818181818178" style="stroke:#aaaaaa;"/><text x="5" y="229.81818181818178">-20</text></g><g style="stroke:#888888; font-family:Arial; font-size:6pt;"><line x1="1" y1="204.54545454545453" x2="700" y2="204.54545454545453" style="stroke:#aaaaaa;"/><text x="5" y="202.54545454545453">-10</text></g><g style="stroke:#888888; font-family:Arial; font-size:6pt;"><line x1="1" y1="177.27272727272725" x2="700" y2="177.27272727272725" style="stroke:#aaaaaa;"/><text x="5" y="175.27272727272725">0</text></g><g style="stroke:#888888; font-family:Arial; font-size:6pt;"><line x1="1" y1="149.99999999999997" x2="700" y2="149.99999999999997" style="stroke:#aaaaaa;"/><text x="5" y="147.99999999999997">10</text></g><g style="stroke:#888888; font-family:Arial; font-size:6pt;"><line x1="1" y1="122.72727272727272" x2="700" y2="122.72727272727272" style="stroke:#aaaaaa;"/><text x="5" y="120.72727272727272">20</text></g><g style="stroke:#888888; font-family:Arial; font-size:6pt;"><line x1="1" y1="95.45454545454544" x2="700" y2="95.45454545454544" style="stroke:#aaaaaa;"/><text x="5" y="93.45454545454544">30</text></g><g style="stroke:#888888; font-family:Arial; font-size:6pt;"><line x1="1" y1="68.18181818181817" x2="700" y2="68.18181818181817" style="stroke:#aaaaaa;"/><text x="5" y="66.18181818181817">40</text></g><g style="stroke:#888888; font-family:Arial; font-size:6pt;"><line x1="1" y1="40.90909090909091" x2="700" y2="40.90909090909091" style="stroke:#aaaaaa;"/><text x="5" y="38.90909090909091">50</text></g><g style="stroke:#888888; font-family:Arial; font-size:6pt;"><line x1="1" y1="13.636363636363626" x2="700" y2="13.636363636363626" style="stroke:#aaaaaa;"/><text x="5" y="11.636363636363626">60</text></g><text x="350" y="20" style="text-anchor:middle; font-size: 14pt;">Net Runs - Spud</text>
					
					<rect x="35" y="171.81818181818178" height="5.4545454545454675" width="30" style="fill:#00007f;"/><rect x="70" y="155.45454545454544" height="21.818181818181813" width="30" style="fill:#00007f;"/><rect x="105" y="177.27272727272725" height="10.909090909090907" width="30" style="fill:#00007f;"/><rect x="140" y="111.8181818181818" height="65.45454545454545" width="30" style="fill:#00007f;"/><rect x="175" y="136.36363636363635" height="40.90909090909091" width="30" style="fill:#00007f;"/><rect x="210" y="177.27272727272725" height="40.90909090909091" width="30" style="fill:#00007f;"/><rect x="245" y="128.18181818181816" height="49.09090909090909" width="30" style="fill:#00007f;"/><rect x="280" y="122.72727272727272" height="54.54545454545453" width="30" style="fill:#00007f;"/><rect x="315" y="177.27272727272725" height="98.18181818181819" width="30" style="fill:#00007f;"/><rect x="350" y="177.27272727272725" height="27.27272727272728" width="30" style="fill:#00007f;"/><rect x="385" y="177.27272727272725" height="21.818181818181813" width="30" style="fill:#00007f;"/><rect x="420" y="128.18181818181816" height="49.09090909090909" width="30" style="fill:#00007f;"/><rect x="455" y="114.54545454545453" height="62.72727272727272" width="30" style="fill:#00007f;"/><rect x="490" y="177.27272727272725" height="24.545454545454533" width="30" style="fill:#00007f;"/><rect x="525" y="163.63636363636363" height="13.636363636363626" width="30" style="fill:#00007f;"/><rect x="560" y="177.27272727272725" height="40.90909090909091" width="30" style="fill:#00007f;"/><rect x="595" y="177.27272727272725" height="2.7272727272727195" width="30" style="fill:#00007f;"/><rect x="630" y="139.09090909090907" height="38.18181818181819" width="30" style="fill:#00007f;"/><rect x="665" y="177.27272727272725" height="81.81818181818181" width="30" style="fill:#00007f;"/>
					
					<path d="M50 171.81818181818178 L85 163.63636363636363 L120 171.81818181818178 L155 156.8181818181818 L190 152.72727272727272 L225 163.63636363636363 L260 158.57142857142856 L295 154.09090909090907 L330 167.57575757575756 L365 171.27272727272725 L400 173.80165289256198 L435 169.99999999999997 L470 165.7342657342657 L505 168.3116883116883 L540 167.99999999999997 L575 171.13636363636363 L610 171.65775401069516 L645 169.84848484848482 L680 174.54545454545453 " style="fill:none; stroke:red; stroke-width:1"/>
				</g>
			</svg>