<?xml version="1.0" encoding="UTF-8"?><svg xml:space="preserve" width="700" height="300">
				<desc>Net Runs</desc>
				<g style="stroke:#000000; stroke-width:0.5; font-family:Arial; font-size:7pt;">
					<rect x="1" y="1" width="698" height="298" style="fill:#dddddd;"/><g style="stroke:#888888; font-family:Arial; font-size:6pt;"><line x1="1" y1="286.3636363636363" x2="700" y2="286.3636363636363" style="stroke:#aaaaaa;"/><text x="5" y="284.3636363636363">-40</text></g><g style="stroke:#888888; font-family:Arial; font-size:6pt;"><line x1="1" y1="259.09090909090907" x2="700" y2="259.09090909090907" style="stroke:#aaaaaa;"/><text x="5" y="257.09090909090907">-30</text></g><g style="stroke:#888888; font-family:Arial; font-size:6pt;"><line x1="1" y1="231.81818181818178" x2="700" y2="231.81818181818178" style="stroke:#aaaaaa;"/><text x="5" y="229.81818181818178">-20</text></g><g style="stroke:#888888; font-family:Arial; font-size:6pt;"><line x1="1" y1="204.54545454545453" x2="700" y2="204.54545454545453" style="stroke:#aaaaaa;"/><text x="5" y="202.54545454545453">-10</text></g><g style="stroke:#888888; font-family:Arial; font-size:6pt;"><line x1="1" y1="177.27272727272725" x2="700" y2="177.27272727272725" style="stroke:#aaaaaa;"/><text x="5" y="175.27272727272725">0</text></g><g style="stroke:#888888; font-family:Arial; font-size:6pt;"><line x1="1" y1="149.99999999999997" x2="700" y2="149.99999999999997" style="stroke:#aaaaaa;"/><text x="5" y="147.99999999999997">10</text></g><g style="stroke:#888888; font-family:Arial; font-size:6pt;"><line x1="1" y1="122.72727272727272" x2="700" y2="122.72727272727272" style="stroke:#aaaaaa;"/><text x="5" y="120.72727272727272">20</text></g><g style="stroke:#888888; font-family:Arial; font-size:6pt;"><line x1="1" y1="95.45454545454544" x2="700" y2="95.45454545454544" style="stroke:#aaaaaa;"/><text x="5" y="93.45454545454544">30</text></g><g style="stroke:#888888; font-family:Arial; font-size:6pt;"><line x1="1" y1="68.18181818181817" x2="700" y2="68.18181818181817" style="stroke:#aaaaaa;"/><text x="5" y="66.18181818181817">40</text></g><g style="stroke:#888888; font-family:Arial; font-size:6pt;"><line x1="1" y1="40.90909090909091" x2="700" y2="40.90909090909091" style="stroke:#aaaaaa;"/><text x="5" y="38.90909090909091">50</text></g><g style="stroke:#888888; font-family:Arial; font-size:6pt;"><line x1="1" y1="13.636363636363626" x2="700" y2="13.636363636363626" style="stroke:#aaaaaa;"/><text x="5" y="11.636363636363626">60</text></g><text x="350" y="20" style="text-anchor:middle; font-size: 14pt;">Net Runs - Dr Nick</text>
					
					<rect x="25" y="163.63636363636363" height="13.636363636363626" width="20" style="fill:#00007f;"/><rect x="50" y="136.36363636363635" height="40.90909090909091" width="20" style="fill:#00007f;"/><rect x="75" y="177.27272727272725" height="2.7272727272727195" width="20" style="fill:#00007f;"/><rect x="100" y="141.8181818181818" height="35.45454545454544" width="20" style="fill:#00007f;"/><rect x="125" y="149.99999999999997" height="27.27272727272728" width="20" style="fill:#00007f;"/><rect x="150" y="163.63636363636363" height="13.636363636363626" width="20" style="fill:#00007f;"/><rect x="175" y="177.27272727272725" height="10.909090909090907" width="20" style="fill:#00007f;"/><rect x="200" y="177.27272727272725" height="43.636363636363626" width="20" style="fill:#00007f;"/><rect x="225" y="106.36363636363635" height="70.9090909090909" width="20" style="fill:#00007f;"/><rect x="250" y="139.09090909090907" height="38.18181818181819" width="20" style="fill:#00007f;"/><rect x="275" y="177.27272727272725" height="30" width="20" style="fill:#00007f;"/><rect x="300" y="141.8181818181818" height="35.45454545454544" width="20" style="fill:#00007f;"/><rect x="325" y="106.36363636363635" height="70.9090909090909" width="20" style="fill:#00007f;"/><rect x="350" y="177.27272727272725" height="81.81818181818181" width="20" style="fill:#00007f;"/><rect x="375" y="177.27272727272725" height="35.45454545454544" width="20" style="fill:#00007f;"/><rect x="400" y="163.63636363636363" height="13.636363636363626" width="20" style="fill:#00007f;"/><rect x="425" y="177.27272727272725" height="27.27272727272728" width="20" style="fill:#00007f;"/><rect x="450" y="139.09090909090907" height="38.18181818181819" width="20" style="fill:#00007f;"/><rect x="475" y="177.27272727272725" height="5.4545454545454675" width="20" style="fill:#00007f;"/><rect x="500" y="163.63636363636363" height="13.636363636363626" width="20" style="fill:#00007f;"/><rect x="525" y="144.54545454545453" height="32.72727272727272" width="20" style="fill:#00007f;"/><rect x="550" y="177.27272727272725" height="24.545454545454533" width="20" style="fill:#00007f;"/><rect x="575" y="166.36363636363635" height="10.909090909090907" width="20" style="fill:#00007f;"/><rect x="600" y="177.27272727272725" height="35.45454545454544" width="20" style="fill:#00007f;"/><rect x="625" y="177.27272727272725" height="65.45454545454544" width="20" style="fill:#00007f;"/><rect x="650" y="177.27272727272725" height="5.4545454545454675" width="20" style="fill:#00007f;"/><rect x="675" y="158.18181818181816" height="19.090909090909093" width="20" style="fill:#00007f;"/>
					
					<path d="M35 163.63636363636363 L60 149.99999999999997 L85 159.99999999999997 L110 155.45454545454544 L135 154.36363636363635 L160 155.90909090909088 L185 160.5194805194805 L210 168.0681818181818 L235 161.2121212121212 L260 158.99999999999997 L285 163.3884297520661 L310 161.59090909090907 L335 157.34265734265733 L360 164.61038961038957 L385 167.81818181818178 L410 167.55681818181816 L435 169.7326203208556 L460 168.030303030303 L485 168.80382775119614 L510 168.54545454545453 L535 167.4025974025974 L560 168.96694214876032 L585 168.85375494071144 L610 170.68181818181816 L635 173.56363636363633 L660 173.9160839160839 L685 173.33333333333331 " style="fill:none; stroke:red; stroke-width:1"/>
				</g>
			</svg>