<?xml version="1.0" encoding="UTF-8"?><svg xml:space="preserve" width="700" height="300">
				<desc>Net Runs</desc>
				<g style="stroke:#000000; stroke-width:0.5; font-family:Arial; font-size:7pt;">
					<rect x="1" y="1" width="698" height="298" style="fill:#dddddd;"/><g style="stroke:#888888; font-family:Arial; font-size:6pt;"><line x1="1" y1="286.3636363636363" x2="700" y2="286.3636363636363" style="stroke:#aaaaaa;"/><text x="5" y="284.3636363636363">-40</text></g><g style="stroke:#888888; font-family:Arial; font-size:6pt;"><line x1="1" y1="259.09090909090907" x2="700" y2="259.09090909090907" style="stroke:#aaaaaa;"/><text x="5" y="257.09090909090907">-30</text></g><g style="stroke:#888888; font-family:Arial; font-size:6pt;"><line x1="1" y1="231.81818181818178" x2="700" y2="231.81818181818178" style="stroke:#aaaaaa;"/><text x="5" y="229.81818181818178">-20</text></g><g style="stroke:#888888; font-family:Arial; font-size:6pt;"><line x1="1" y1="204.54545454545453" x2="700" y2="204.54545454545453" style="stroke:#aaaaaa;"/><text x="5" y="202.54545454545453">-10</text></g><g style="stroke:#888888; font-family:Arial; font-size:6pt;"><line x1="1" y1="177.27272727272725" x2="700" y2="177.27272727272725" style="stroke:#aaaaaa;"/><text x="5" y="175.27272727272725">0</text></g><g style="stroke:#888888; font-family:Arial; font-size:6pt;"><line x1="1" y1="149.99999999999997" x2="700" y2="149.99999999999997" style="stroke:#aaaaaa;"/><text x="5" y="147.99999999999997">10</text></g><g style="stroke:#888888; font-family:Arial; font-size:6pt;"><line x1="1" y1="122.72727272727272" x2="700" y2="122.72727272727272" style="stroke:#aaaaaa;"/><text x="5" y="120.72727272727272">20</text></g><g style="stroke:#888888; font-family:Arial; font-size:6pt;"><line x1="1" y1="95.45454545454544" x2="700" y2="95.45454545454544" style="stroke:#aaaaaa;"/><text x="5" y="93.45454545454544">30</text></g><g style="stroke:#888888; font-family:Arial; font-size:6pt;"><line x1="1" y1="68.18181818181817" x2="700" y2="68.18181818181817" style="stroke:#aaaaaa;"/><text x="5" y="66.18181818181817">40</text></g><g style="stroke:#888888; font-family:Arial; font-size:6pt;"><line x1="1" y1="40.90909090909091" x2="700" y2="40.90909090909091" style="stroke:#aaaaaa;"/><text x="5" y="38.90909090909091">50</text></g><g style="stroke:#888888; font-family:Arial; font-size:6pt;"><line x1="1" y1="13.636363636363626" x2="700" y2="13.636363636363626" style="stroke:#aaaaaa;"/><text x="5" y="11.636363636363626">60</text></g><text x="350" y="20" style="text-anchor:middle; font-size: 14pt;">Net Runs - Mick</text>
					
					<rect x="13.72549019607843" y="141.8181818181818" height="35.45454545454544" width="8.72549019607843" style="fill:#00007f;"/><rect x="27.45098039215686" y="158.18181818181816" height="19.090909090909093" width="8.72549019607843" style="fill:#00007f;"/><rect x="41.17647058823529" y="177.27272727272725" height="21.818181818181813" width="8.72549019607843" style="fill:#00007f;"/><rect x="54.90196078431372" y="177.27272727272725" height="43.636363636363626" width="8.72549019607843" style="fill:#00007f;"/><rect x="68.62745098039215" y="177.27272727272725" height="10.909090909090907" width="8.72549019607843" style="fill:#00007f;"/><rect x="82.35294117647058" y="177.27272727272725" height="13.636363636363626" width="8.72549019607843" style="fill:#00007f;"/><rect x="96.07843137254902" y="141.8181818181818" height="35.45454545454544" width="8.72549019607843" style="fill:#00007f;"/><rect x="109.80392156862744" y="177.27272727272725" height="10.909090909090907" width="8.72549019607843" style="fill:#00007f;"/><rect x="123.52941176470587" y="152.72727272727272" height="24.545454545454533" width="8.72549019607843" style="fill:#00007f;"/><rect x="137.2549019607843" y="155.45454545454544" height="21.818181818181813" width="8.72549019607843" style="fill:#00007f;"/><rect x="150.98039215686273" y="147.27272727272725" height="30" width="8.72549019607843" style="fill:#00007f;"/><rect x="164.70588235294116" y="155.45454545454544" height="21.818181818181813" width="8.72549019607843" style="fill:#00007f;"/><rect x="178.43137254901958" y="177.27272727272725" height="2.7272727272727195" width="8.72549019607843" style="fill:#00007f;"/><rect x="192.15686274509804" y="141.8181818181818" height="35.45454545454544" width="8.72549019607843" style="fill:#00007f;"/><rect x="205.88235294117646" y="158.18181818181816" height="19.090909090909093" width="8.72549019607843" style="fill:#00007f;"/><rect x="219.6078431372549" y="119.99999999999999" height="57.272727272727266" width="8.72549019607843" style="fill:#00007f;"/><rect x="233.33333333333331" y="139.09090909090907" height="38.18181818181819" width="8.72549019607843" style="fill:#00007f;"/><rect x="247.05882352941174" y="177.27272727272725" height="10.909090909090907" width="8.72549019607843" style="fill:#00007f;"/><rect x="260.78431372549016" y="139.09090909090907" height="38.18181818181819" width="8.72549019607843" style="fill:#00007f;"/><rect x="274.5098039215686" y="177.27272727272725" height="5.4545454545454675" width="8.72549019607843" style="fill:#00007f;"/><rect x="288.235294117647" y="160.90909090909088" height="16.363636363636374" width="8.72549019607843" style="fill:#00007f;"/><rect x="301.96078431372547" y="166.36363636363635" height="10.909090909090907" width="8.72549019607843" style="fill:#00007f;"/><rect x="315.6862745098039" y="125.45454545454544" height="51.81818181818181" width="8.72549019607843" style="fill:#00007f;"/><rect x="329.4117647058823" y="136.36363636363635" height="40.90909090909091" width="8.72549019607843" style="fill:#00007f;"/><rect x="343.1372549019608" y="149.99999999999997" height="27.27272727272728" width="8.72549019607843" style="fill:#00007f;"/><rect x="356.86274509803917" y="177.27272727272725" height="24.545454545454533" width="8.72549019607843" style="fill:#00007f;"/><rect x="370.5882352941176" y="163.63636363636363" height="13.636363636363626" width="8.72549019607843" style="fill:#00007f;"/><rect x="384.3137254901961" y="147.27272727272725" height="30" width="8.72549019607843" style="fill:#00007f;"/><rect x="398.0392156862745" y="177.27272727272725" height="32.72727272727272" width="8.72549019607843" style="fill:#00007f;"/><rect x="411.7647058823529" y="177.27272727272725" height="10.909090909090907" width="8.72549019607843" style="fill:#00007f;"/><rect x="425.4901960784313" y="174.54545454545453" height="2.7272727272727195" width="8.72549019607843" style="fill:#00007f;"/><rect x="439.2156862745098" y="177.27272727272725" height="5.4545454545454675" width="8.72549019607843" style="fill:#00007f;"/><rect x="452.94117647058823" y="133.63636363636363" height="43.636363636363626" width="8.72549019607843" style="fill:#00007f;"/><rect x="466.66666666666663" y="160.90909090909088" height="16.363636363636374" width="8.72549019607843" style="fill:#00007f;"/><rect x="480.3921568627451" y="147.27272727272725" height="30" width="8.72549019607843" style="fill:#00007f;"/><rect x="494.1176470588235" y="152.72727272727272" height="24.545454545454533" width="8.72549019607843" style="fill:#00007f;"/><rect x="507.84313725490193" y="177.27272727272725" height="43.636363636363626" width="8.72549019607843" style="fill:#00007f;"/><rect x="521.5686274509803" y="177.27272727272725" height="51.81818181818181" width="8.72549019607843" style="fill:#00007f;"/><rect x="535.2941176470588" y="177.27272727272725" height="5.4545454545454675" width="8.72549019607843" style="fill:#00007f;"/><rect x="549.0196078431372" y="133.63636363636363" height="43.636363636363626" width="8.72549019607843" style="fill:#00007f;"/><rect x="562.7450980392157" y="166.36363636363635" height="10.909090909090907" width="8.72549019607843" style="fill:#00007f;"/><rect x="576.470588235294" y="169.09090909090907" height="8.181818181818187" width="8.72549019607843" style="fill:#00007f;"/><rect x="590.1960784313725" y="95.45454545454544" height="81.81818181818181" width="8.72549019607843" style="fill:#00007f;"/><rect x="603.9215686274509" y="149.99999999999997" height="27.27272727272728" width="8.72549019607843" style="fill:#00007f;"/><rect x="617.6470588235294" y="171.81818181818178" height="5.4545454545454675" width="8.72549019607843" style="fill:#00007f;"/><rect x="631.3725490196078" y="177.27272727272725" height="10.909090909090907" width="8.72549019607843" style="fill:#00007f;"/><rect x="645.0980392156862" y="139.09090909090907" height="38.18181818181819" width="8.72549019607843" style="fill:#00007f;"/><rect x="658.8235294117646" y="177.27272727272725" height="13.636363636363626" width="8.72549019607843" style="fill:#00007f;"/><rect x="672.5490196078431" y="106.36363636363635" height="70.9090909090909" width="8.72549019607843" style="fill:#00007f;"/><rect x="686.2745098039215" y="166.36363636363635" height="10.909090909090907" width="8.72549019607843" style="fill:#00007f;"/>
					
					<path d="M18.088235294117645 141.8181818181818 L31.813725490196077 149.99999999999997 L45.5392156862745 166.36363636363635 L59.264705882352935 179.99999999999997 L72.99019607843137 181.63636363636363 L86.71568627450979 183.18181818181816 L100.44117647058823 177.27272727272725 L114.16666666666666 178.63636363636363 L127.89215686274508 175.75757575757575 L141.61764705882354 173.72727272727272 L155.34313725490196 171.32231404958677 L169.0686274509804 169.99999999999997 L182.7941176470588 170.76923076923075 L196.51960784313727 168.70129870129867 L210.2450980392157 167.99999999999997 L223.97058823529412 164.99999999999997 L237.69607843137254 163.475935828877 L251.42156862745097 164.84848484848482 L265.1470588235294 163.49282296650716 L278.87254901960785 164.45454545454544 L292.59803921568624 164.28571428571428 L306.3235294117647 164.38016528925618 L320.04901960784315 162.6877470355731 L333.77450980392155 161.59090909090907 L347.5 161.1272727272727 L361.2254901960784 162.69230769230768 L374.95098039215685 162.72727272727272 L388.6764705882353 162.17532467532465 L402.4019607843137 163.8244514106583 L416.12745098039215 164.63636363636363 L429.85294117647055 164.95601173020526 L443.578431372549 165.51136363636363 L457.30392156862746 164.54545454545453 L471.02941176470586 164.43850267379676 L484.7549019607843 163.94805194805193 L498.4803921568627 163.63636363636363 L512.2058823529411 165.18427518427518 L525.9313725490196 166.86602870813394 L539.656862745098 167.27272727272725 L553.3823529411765 166.43181818181816 L567.1078431372549 166.430155210643 L580.8333333333333 166.49350649350646 L594.5588235294117 164.8414376321353 L608.2843137254902 164.50413223140495 L622.0098039215686 164.66666666666666 L635.7352941176471 165.1778656126482 L649.4607843137254 164.6228239845261 L663.1862745098039 165.17045454545453 L676.9117647058823 163.9703153988868 L690.6372549019608 164.0181818181818 " style="fill:none; stroke:red; stroke-width:1"/>
				</g>
			</svg>