<?xml version="1.0" encoding="UTF-8"?><svg xml:space="preserve" width="700" height="300">
				<desc>Net Runs</desc>
				<g style="stroke:#000000; stroke-width:0.5; font-family:Arial; font-size:7pt;">
					<rect x="1" y="1" width="698" height="298" style="fill:#dddddd;"/><g style="stroke:#888888; font-family:Arial; font-size:6pt;"><line x1="1" y1="286.3636363636363" x2="700" y2="286.3636363636363" style="stroke:#aaaaaa;"/><text x="5" y="284.3636363636363">-40</text></g><g style="stroke:#888888; font-family:Arial; font-size:6pt;"><line x1="1" y1="259.09090909090907" x2="700" y2="259.09090909090907" style="stroke:#aaaaaa;"/><text x="5" y="257.09090909090907">-30</text></g><g style="stroke:#888888; font-family:Arial; font-size:6pt;"><line x1="1" y1="231.81818181818178" x2="700" y2="231.81818181818178" style="stroke:#aaaaaa;"/><text x="5" y="229.81818181818178">-20</text></g><g style="stroke:#888888; font-family:Arial; font-size:6pt;"><line x1="1" y1="204.54545454545453" x2="700" y2="204.54545454545453" style="stroke:#aaaaaa;"/><text x="5" y="202.54545454545453">-10</text></g><g style="stroke:#888888; font-family:Arial; font-size:6pt;"><line x1="1" y1="177.27272727272725" x2="700" y2="177.27272727272725" style="stroke:#aaaaaa;"/><text x="5" y="175.27272727272725">0</text></g><g style="stroke:#888888; font-family:Arial; font-size:6pt;"><line x1="1" y1="149.99999999999997" x2="700" y2="149.99999999999997" style="stroke:#aaaaaa;"/><text x="5" y="147.99999999999997">10</text></g><g style="stroke:#888888; font-family:Arial; font-size:6pt;"><line x1="1" y1="122.72727272727272" x2="700" y2="122.72727272727272" style="stroke:#aaaaaa;"/><text x="5" y="120.72727272727272">20</text></g><g style="stroke:#888888; font-family:Arial; font-size:6pt;"><line x1="1" y1="95.45454545454544" x2="700" y2="95.45454545454544" style="stroke:#aaaaaa;"/><text x="5" y="93.45454545454544">30</text></g><g style="stroke:#888888; font-family:Arial; font-size:6pt;"><line x1="1" y1="68.18181818181817" x2="700" y2="68.18181818181817" style="stroke:#aaaaaa;"/><text x="5" y="66.18181818181817">40</text></g><g style="stroke:#888888; font-family:Arial; font-size:6pt;"><line x1="1" y1="40.90909090909091" x2="700" y2="40.90909090909091" style="stroke:#aaaaaa;"/><text x="5" y="38.90909090909091">50</text></g><g style="stroke:#888888; font-family:Arial; font-size:6pt;"><line x1="1" y1="13.636363636363626" x2="700" y2="13.636363636363626" style="stroke:#aaaaaa;"/><text x="5" y="11.636363636363626">60</text></g><text x="350" y="20" style="text-anchor:middle; font-size: 14pt;">Net Runs - Dirty B</text>
					
					<rect x="21.21212121212121" y="177.27272727272725" height="54.54545454545453" width="16.21212121212121" style="fill:#00007f;"/><rect x="42.42424242424242" y="177.27272727272725" height="46.363636363636374" width="16.21212121212121" style="fill:#00007f;"/><rect x="63.63636363636363" y="163.63636363636363" height="13.636363636363626" width="16.21212121212121" style="fill:#00007f;"/><rect x="84.84848484848484" y="177.27272727272725" height="43.636363636363626" width="16.21212121212121" style="fill:#00007f;"/><rect x="106.06060606060606" y="177.27272727272725" height="65.45454545454544" width="16.21212121212121" style="fill:#00007f;"/><rect x="127.27272727272727" y="130.90909090909088" height="46.363636363636374" width="16.21212121212121" style="fill:#00007f;"/><rect x="148.48484848484847" y="171.81818181818178" height="5.4545454545454675" width="16.21212121212121" style="fill:#00007f;"/><rect x="169.6969696969697" y="177.27272727272725" height="90" width="16.21212121212121" style="fill:#00007f;"/><rect x="190.9090909090909" y="177.27272727272725" height="30" width="16.21212121212121" style="fill:#00007f;"/><rect x="212.12121212121212" y="177.27272727272725" height="8.181818181818187" width="16.21212121212121" style="fill:#00007f;"/><rect x="233.33333333333331" y="177.27272727272725" height="13.636363636363626" width="16.21212121212121" style="fill:#00007f;"/><rect x="254.54545454545453" y="163.63636363636363" height="13.636363636363626" width="16.21212121212121" style="fill:#00007f;"/><rect x="275.75757575757575" y="163.63636363636363" height="13.636363636363626" width="16.21212121212121" style="fill:#00007f;"/><rect x="296.96969696969694" y="177.27272727272725" height="13.636363636363626" width="16.21212121212121" style="fill:#00007f;"/><rect x="318.1818181818182" y="125.45454545454544" height="51.81818181818181" width="16.21212121212121" style="fill:#00007f;"/><rect x="339.3939393939394" y="100.90909090909089" height="76.36363636363636" width="16.21212121212121" style="fill:#00007f;"/><rect x="360.60606060606057" y="177.27272727272725" height="76.36363636363637" width="16.21212121212121" style="fill:#00007f;"/><rect x="381.8181818181818" y="174.54545454545453" height="2.7272727272727195" width="16.21212121212121" style="fill:#00007f;"/><rect x="403.030303030303" y="177.27272727272725" height="51.81818181818181" width="16.21212121212121" style="fill:#00007f;"/><rect x="424.24242424242425" y="177.27272727272725" height="35.45454545454544" width="16.21212121212121" style="fill:#00007f;"/><rect x="445.45454545454544" y="177.27272727272725" height="68.18181818181819" width="16.21212121212121" style="fill:#00007f;"/><rect x="466.66666666666663" y="109.09090909090908" height="68.18181818181817" width="16.21212121212121" style="fill:#00007f;"/><rect x="487.8787878787879" y="65.45454545454544" height="111.81818181818181" width="16.21212121212121" style="fill:#00007f;"/><rect x="509.09090909090907" y="177.27272727272725" height="49.09090909090909" width="16.21212121212121" style="fill:#00007f;"/><rect x="530.3030303030303" y="163.63636363636363" height="13.636363636363626" width="16.21212121212121" style="fill:#00007f;"/><rect x="551.5151515151515" y="163.63636363636363" height="13.636363636363626" width="16.21212121212121" style="fill:#00007f;"/><rect x="572.7272727272727" y="177.27272727272725" height="54.54545454545453" width="16.21212121212121" style="fill:#00007f;"/><rect x="593.9393939393939" y="100.90909090909089" height="76.36363636363636" width="16.21212121212121" style="fill:#00007f;"/><rect x="615.1515151515151" y="177.27272727272725" height="21.818181818181813" width="16.21212121212121" style="fill:#00007f;"/><rect x="636.3636363636364" y="122.72727272727272" height="54.54545454545453" width="16.21212121212121" style="fill:#00007f;"/><rect x="657.5757575757575" y="177.27272727272725" height="46.363636363636374" width="16.21212121212121" style="fill:#00007f;"/><rect x="678.7878787878788" y="177.27272727272725" height="57.27272727272725" width="16.21212121212121" style="fill:#00007f;"/>
					
					<path d="M29.318181818181817 231.81818181818178 L50.53030303030303 227.7272727272727 L71.74242424242424 206.36363636363635 L92.95454545454545 209.99999999999997 L114.16666666666667 216.54545454545453 L135.37878787878788 202.27272727272725 L156.59090909090907 197.9220779220779 L177.80303030303028 206.59090909090907 L199.0151515151515 206.66666666666666 L220.22727272727272 204.54545454545453 L241.4393939393939 203.30578512396693 L262.6515151515151 199.99999999999997 L283.8636363636364 197.20279720279717 L305.07575757575756 196.75324675324674 L326.2878787878788 191.99999999999997 L347.5 186.30681818181816 L368.7121212121212 190.26737967914437 L389.92424242424244 189.39393939393938 L411.1363636363636 191.48325358851673 L432.3484848484849 192.54545454545453 L453.56060606060606 195.06493506493504 L474.77272727272725 191.15702479338842 L495.9848484848485 185.69169960474306 L517.1969696969696 187.38636363636363 L538.4090909090909 186.4363636363636 L559.6212121212121 185.55944055944053 L580.8333333333334 187.27272727272725 L602.0454545454545 184.18831168831167 L623.2575757575758 184.70219435736675 L644.469696969697 182.63636363636363 L665.6818181818181 183.9589442815249 L686.8939393939394 185.5397727272727 " style="fill:none; stroke:red; stroke-width:1"/>
				</g>
			</svg>