<?xml version="1.0" encoding="UTF-8"?><svg xml:space="preserve" width="700" height="300">
				<desc>Net Runs</desc>
				<g style="stroke:#000000; stroke-width:0.5; font-family:Arial; font-size:7pt;">
					<rect x="1" y="1" width="698" height="298" style="fill:#dddddd;"/><g style="stroke:#888888; font-family:Arial; font-size:6pt;"><line x1="1" y1="286.3636363636363" x2="700" y2="286.3636363636363" style="stroke:#aaaaaa;"/><text x="5" y="284.3636363636363">-40</text></g><g style="stroke:#888888; font-family:Arial; font-size:6pt;"><line x1="1" y1="259.09090909090907" x2="700" y2="259.09090909090907" style="stroke:#aaaaaa;"/><text x="5" y="257.09090909090907">-30</text></g><g style="stroke:#888888; font-family:Arial; font-size:6pt;"><line x1="1" y1="231.81818181818178" x2="700" y2="231.81818181818178" style="stroke:#aaaaaa;"/><text x="5" y="229.81818181818178">-20</text></g><g style="stroke:#888888; font-family:Arial; font-size:6pt;"><line x1="1" y1="204.54545454545453" x2="700" y2="204.54545454545453" style="stroke:#aaaaaa;"/><text x="5" y="202.54545454545453">-10</text></g><g style="stroke:#888888; font-family:Arial; font-size:6pt;"><line x1="1" y1="177.27272727272725" x2="700" y2="177.27272727272725" style="stroke:#aaaaaa;"/><text x="5" y="175.27272727272725">0</text></g><g style="stroke:#888888; font-family:Arial; font-size:6pt;"><line x1="1" y1="149.99999999999997" x2="700" y2="149.99999999999997" style="stroke:#aaaaaa;"/><text x="5" y="147.99999999999997">10</text></g><g style="stroke:#888888; font-family:Arial; font-size:6pt;"><line x1="1" y1="122.72727272727272" x2="700" y2="122.72727272727272" style="stroke:#aaaaaa;"/><text x="5" y="120.72727272727272">20</text></g><g style="stroke:#888888; font-family:Arial; font-size:6pt;"><line x1="1" y1="95.45454545454544" x2="700" y2="95.45454545454544" style="stroke:#aaaaaa;"/><text x="5" y="93.45454545454544">30</text></g><g style="stroke:#888888; font-family:Arial; font-size:6pt;"><line x1="1" y1="68.18181818181817" x2="700" y2="68.18181818181817" style="stroke:#aaaaaa;"/><text x="5" y="66.18181818181817">40</text></g><g style="stroke:#888888; font-family:Arial; font-size:6pt;"><line x1="1" y1="40.90909090909091" x2="700" y2="40.90909090909091" style="stroke:#aaaaaa;"/><text x="5" y="38.90909090909091">50</text></g><g style="stroke:#888888; font-family:Arial; font-size:6pt;"><line x1="1" y1="13.636363636363626" x2="700" y2="13.636363636363626" style="stroke:#aaaaaa;"/><text x="5" y="11.636363636363626">60</text></g><text x="350" y="20" style="text-anchor:middle; font-size: 14pt;">Net Runs - Carlton</text>
					
					<rect x="70" y="177.27272727272725" height="70.9090909090909" width="65" style="fill:#00007f;"/><rect x="140" y="177.27272727272725" height="5.4545454545454675" width="65" style="fill:#00007f;"/><rect x="210" y="163.63636363636363" height="13.636363636363626" width="65" style="fill:#00007f;"/><rect x="280" y="177.27272727272725" height="35.45454545454544" width="65" style="fill:#00007f;"/><rect x="350" y="177.27272727272725" height="0" width="65" style="fill:#00007f;"/><rect x="420" y="169.09090909090907" height="8.181818181818187" width="65" style="fill:#00007f;"/><rect x="490" y="136.36363636363635" height="40.90909090909091" width="65" style="fill:#00007f;"/><rect x="560" y="177.27272727272725" height="30" width="65" style="fill:#00007f;"/><rect x="630" y="177.27272727272725" height="40.90909090909091" width="65" style="fill:#00007f;"/>
					
					<path d="M102.5 248.18181818181816 L172.5 215.45454545454544 L242.5 198.18181818181816 L312.5 201.81818181818178 L382.5 196.90909090909088 L452.5 192.27272727272725 L522.5 184.28571428571428 L592.5 187.15909090909088 L662.5 190.6060606060606 " style="fill:none; stroke:red; stroke-width:1"/>
				</g>
			</svg>