<?xml version="1.0" encoding="UTF-8"?><svg xml:space="preserve" width="700" height="300">
				<desc>Net Runs</desc>
				<g style="stroke:#000000; stroke-width:0.5; font-family:Arial; font-size:7pt;">
					<rect x="1" y="1" width="698" height="298" style="fill:#dddddd;"/><g style="stroke:#888888; font-family:Arial; font-size:6pt;"><line x1="1" y1="286.3636363636363" x2="700" y2="286.3636363636363" style="stroke:#aaaaaa;"/><text x="5" y="284.3636363636363">-40</text></g><g style="stroke:#888888; font-family:Arial; font-size:6pt;"><line x1="1" y1="259.09090909090907" x2="700" y2="259.09090909090907" style="stroke:#aaaaaa;"/><text x="5" y="257.09090909090907">-30</text></g><g style="stroke:#888888; font-family:Arial; font-size:6pt;"><line x1="1" y1="231.81818181818178" x2="700" y2="231.81818181818178" style="stroke:#aaaaaa;"/><text x="5" y="229.81818181818178">-20</text></g><g style="stroke:#888888; font-family:Arial; font-size:6pt;"><line x1="1" y1="204.54545454545453" x2="700" y2="204.54545454545453" style="stroke:#aaaaaa;"/><text x="5" y="202.54545454545453">-10</text></g><g style="stroke:#888888; font-family:Arial; font-size:6pt;"><line x1="1" y1="177.27272727272725" x2="700" y2="177.27272727272725" style="stroke:#aaaaaa;"/><text x="5" y="175.27272727272725">0</text></g><g style="stroke:#888888; font-family:Arial; font-size:6pt;"><line x1="1" y1="149.99999999999997" x2="700" y2="149.99999999999997" style="stroke:#aaaaaa;"/><text x="5" y="147.99999999999997">10</text></g><g style="stroke:#888888; font-family:Arial; font-size:6pt;"><line x1="1" y1="122.72727272727272" x2="700" y2="122.72727272727272" style="stroke:#aaaaaa;"/><text x="5" y="120.72727272727272">20</text></g><g style="stroke:#888888; font-family:Arial; font-size:6pt;"><line x1="1" y1="95.45454545454544" x2="700" y2="95.45454545454544" style="stroke:#aaaaaa;"/><text x="5" y="93.45454545454544">30</text></g><g style="stroke:#888888; font-family:Arial; font-size:6pt;"><line x1="1" y1="68.18181818181817" x2="700" y2="68.18181818181817" style="stroke:#aaaaaa;"/><text x="5" y="66.18181818181817">40</text></g><g style="stroke:#888888; font-family:Arial; font-size:6pt;"><line x1="1" y1="40.90909090909091" x2="700" y2="40.90909090909091" style="stroke:#aaaaaa;"/><text x="5" y="38.90909090909091">50</text></g><g style="stroke:#888888; font-family:Arial; font-size:6pt;"><line x1="1" y1="13.636363636363626" x2="700" y2="13.636363636363626" style="stroke:#aaaaaa;"/><text x="5" y="11.636363636363626">60</text></g><text x="350" y="20" style="text-anchor:middle; font-size: 14pt;">Net Runs - Kumaran</text>
					
					<rect x="46.666666666666664" y="128.18181818181816" height="49.09090909090909" width="41.666666666666664" style="fill:#00007f;"/><rect x="93.33333333333333" y="177.27272727272725" height="24.545454545454533" width="41.666666666666664" style="fill:#00007f;"/><rect x="140" y="177.27272727272725" height="19.090909090909093" width="41.666666666666664" style="fill:#00007f;"/><rect x="186.66666666666666" y="177.27272727272725" height="76.36363636363637" width="41.666666666666664" style="fill:#00007f;"/><rect x="233.33333333333331" y="177.27272727272725" height="0" width="41.666666666666664" style="fill:#00007f;"/><rect x="280" y="177.27272727272725" height="19.090909090909093" width="41.666666666666664" style="fill:#00007f;"/><rect x="326.66666666666663" y="152.72727272727272" height="24.545454545454533" width="41.666666666666664" style="fill:#00007f;"/><rect x="373.3333333333333" y="177.27272727272725" height="13.636363636363626" width="41.666666666666664" style="fill:#00007f;"/><rect x="420" y="103.63636363636363" height="73.63636363636363" width="41.666666666666664" style="fill:#00007f;"/><rect x="466.66666666666663" y="177.27272727272725" height="8.181818181818187" width="41.666666666666664" style="fill:#00007f;"/><rect x="513.3333333333333" y="163.63636363636363" height="13.636363636363626" width="41.666666666666664" style="fill:#00007f;"/><rect x="560" y="169.09090909090907" height="8.181818181818187" width="41.666666666666664" style="fill:#00007f;"/><rect x="606.6666666666666" y="128.18181818181816" height="49.09090909090909" width="41.666666666666664" style="fill:#00007f;"/><rect x="653.3333333333333" y="177.27272727272725" height="16.363636363636374" width="41.666666666666664" style="fill:#00007f;"/>
					
					<path d="M67.5 128.18181818181816 L114.16666666666666 164.99999999999997 L160.83333333333334 175.45454545454544 L207.5 194.99999999999997 L254.16666666666666 191.45454545454544 L300.8333333333333 192.27272727272725 L347.49999999999994 186.6233766233766 L394.16666666666663 187.15909090909088 L440.8333333333333 177.87878787878785 L487.49999999999994 178.63636363636363 L534.1666666666666 177.27272727272725 L580.8333333333334 176.59090909090907 L627.5 172.86713286713285 L674.1666666666666 174.35064935064932 " style="fill:none; stroke:red; stroke-width:1"/>
				</g>
			</svg>