<?xml version="1.0" encoding="UTF-8"?><svg xml:space="preserve" width="700" height="300">
				<desc>Net Runs</desc>
				<g style="stroke:#000000; stroke-width:0.5; font-family:Arial; font-size:7pt;">
					<rect x="1" y="1" width="698" height="298" style="fill:#dddddd;"/><g style="stroke:#888888; font-family:Arial; font-size:6pt;"><line x1="1" y1="286.3636363636363" x2="700" y2="286.3636363636363" style="stroke:#aaaaaa;"/><text x="5" y="284.3636363636363">-40</text></g><g style="stroke:#888888; font-family:Arial; font-size:6pt;"><line x1="1" y1="259.09090909090907" x2="700" y2="259.09090909090907" style="stroke:#aaaaaa;"/><text x="5" y="257.09090909090907">-30</text></g><g style="stroke:#888888; font-family:Arial; font-size:6pt;"><line x1="1" y1="231.81818181818178" x2="700" y2="231.81818181818178" style="stroke:#aaaaaa;"/><text x="5" y="229.81818181818178">-20</text></g><g style="stroke:#888888; font-family:Arial; font-size:6pt;"><line x1="1" y1="204.54545454545453" x2="700" y2="204.54545454545453" style="stroke:#aaaaaa;"/><text x="5" y="202.54545454545453">-10</text></g><g style="stroke:#888888; font-family:Arial; font-size:6pt;"><line x1="1" y1="177.27272727272725" x2="700" y2="177.27272727272725" style="stroke:#aaaaaa;"/><text x="5" y="175.27272727272725">0</text></g><g style="stroke:#888888; font-family:Arial; font-size:6pt;"><line x1="1" y1="149.99999999999997" x2="700" y2="149.99999999999997" style="stroke:#aaaaaa;"/><text x="5" y="147.99999999999997">10</text></g><g style="stroke:#888888; font-family:Arial; font-size:6pt;"><line x1="1" y1="122.72727272727272" x2="700" y2="122.72727272727272" style="stroke:#aaaaaa;"/><text x="5" y="120.72727272727272">20</text></g><g style="stroke:#888888; font-family:Arial; font-size:6pt;"><line x1="1" y1="95.45454545454544" x2="700" y2="95.45454545454544" style="stroke:#aaaaaa;"/><text x="5" y="93.45454545454544">30</text></g><g style="stroke:#888888; font-family:Arial; font-size:6pt;"><line x1="1" y1="68.18181818181817" x2="700" y2="68.18181818181817" style="stroke:#aaaaaa;"/><text x="5" y="66.18181818181817">40</text></g><g style="stroke:#888888; font-family:Arial; font-size:6pt;"><line x1="1" y1="40.90909090909091" x2="700" y2="40.90909090909091" style="stroke:#aaaaaa;"/><text x="5" y="38.90909090909091">50</text></g><g style="stroke:#888888; font-family:Arial; font-size:6pt;"><line x1="1" y1="13.636363636363626" x2="700" y2="13.636363636363626" style="stroke:#aaaaaa;"/><text x="5" y="11.636363636363626">60</text></g><text x="350" y="20" style="text-anchor:middle; font-size: 14pt;">Net Runs - Baz</text>
					
					<rect x="36.8421052631579" y="177.27272727272725" height="120" width="31.842105263157897" style="fill:#00007f;"/><rect x="73.6842105263158" y="130.90909090909088" height="46.363636363636374" width="31.842105263157897" style="fill:#00007f;"/><rect x="110.5263157894737" y="149.99999999999997" height="27.27272727272728" width="31.842105263157897" style="fill:#00007f;"/><rect x="147.3684210526316" y="141.8181818181818" height="35.45454545454544" width="31.842105263157897" style="fill:#00007f;"/><rect x="184.21052631578948" y="177.27272727272725" height="46.363636363636374" width="31.842105263157897" style="fill:#00007f;"/><rect x="221.0526315789474" y="174.54545454545453" height="2.7272727272727195" width="31.842105263157897" style="fill:#00007f;"/><rect x="257.89473684210526" y="160.90909090909088" height="16.363636363636374" width="31.842105263157897" style="fill:#00007f;"/><rect x="294.7368421052632" y="177.27272727272725" height="49.09090909090909" width="31.842105263157897" style="fill:#00007f;"/><rect x="331.5789473684211" y="139.09090909090907" height="38.18181818181819" width="31.842105263157897" style="fill:#00007f;"/><rect x="368.42105263157896" y="166.36363636363635" height="10.909090909090907" width="31.842105263157897" style="fill:#00007f;"/><rect x="405.2631578947369" y="177.27272727272725" height="0" width="31.842105263157897" style="fill:#00007f;"/><rect x="442.1052631578948" y="166.36363636363635" height="10.909090909090907" width="31.842105263157897" style="fill:#00007f;"/><rect x="478.94736842105266" y="171.81818181818178" height="5.4545454545454675" width="31.842105263157897" style="fill:#00007f;"/><rect x="515.7894736842105" y="139.09090909090907" height="38.18181818181819" width="31.842105263157897" style="fill:#00007f;"/><rect x="552.6315789473684" y="152.72727272727272" height="24.545454545454533" width="31.842105263157897" style="fill:#00007f;"/><rect x="589.4736842105264" y="152.72727272727272" height="24.545454545454533" width="31.842105263157897" style="fill:#00007f;"/><rect x="626.3157894736843" y="169.09090909090907" height="8.181818181818187" width="31.842105263157897" style="fill:#00007f;"/><rect x="663.1578947368422" y="177.27272727272725" height="30" width="31.842105263157897" style="fill:#00007f;"/>
					
					<path d="M52.76315789473685 297.27272727272725 L89.60526315789474 214.09090909090907 L126.44736842105264 192.72727272727272 L163.28947368421055 179.99999999999997 L200.13157894736844 188.72727272727272 L236.97368421052636 186.36363636363635 L273.8157894736842 182.72727272727272 L310.65789473684214 188.18181818181816 L347.50000000000006 182.72727272727272 L384.3421052631579 181.09090909090907 L421.18421052631584 180.74380165289253 L458.02631578947376 179.54545454545453 L494.8684210526316 178.95104895104893 L531.7105263157895 176.1038961038961 L568.5526315789474 174.54545454545453 L605.3947368421053 173.18181818181816 L642.2368421052632 172.9411764705882 L679.0789473684212 174.84848484848482 " style="fill:none; stroke:red; stroke-width:1"/>
				</g>
			</svg>