<?xml version="1.0" encoding="UTF-8"?><svg xml:space="preserve" width="700" height="300">
				<desc>Net Runs</desc>
				<g style="stroke:#000000; stroke-width:0.5; font-family:Arial; font-size:7pt;">
					<rect x="1" y="1" width="698" height="298" style="fill:#dddddd;"/><g style="stroke:#888888; font-family:Arial; font-size:6pt;"><line x1="1" y1="286.3636363636363" x2="700" y2="286.3636363636363" style="stroke:#aaaaaa;"/><text x="5" y="284.3636363636363">-40</text></g><g style="stroke:#888888; font-family:Arial; font-size:6pt;"><line x1="1" y1="259.09090909090907" x2="700" y2="259.09090909090907" style="stroke:#aaaaaa;"/><text x="5" y="257.09090909090907">-30</text></g><g style="stroke:#888888; font-family:Arial; font-size:6pt;"><line x1="1" y1="231.81818181818178" x2="700" y2="231.81818181818178" style="stroke:#aaaaaa;"/><text x="5" y="229.81818181818178">-20</text></g><g style="stroke:#888888; font-family:Arial; font-size:6pt;"><line x1="1" y1="204.54545454545453" x2="700" y2="204.54545454545453" style="stroke:#aaaaaa;"/><text x="5" y="202.54545454545453">-10</text></g><g style="stroke:#888888; font-family:Arial; font-size:6pt;"><line x1="1" y1="177.27272727272725" x2="700" y2="177.27272727272725" style="stroke:#aaaaaa;"/><text x="5" y="175.27272727272725">0</text></g><g style="stroke:#888888; font-family:Arial; font-size:6pt;"><line x1="1" y1="149.99999999999997" x2="700" y2="149.99999999999997" style="stroke:#aaaaaa;"/><text x="5" y="147.99999999999997">10</text></g><g style="stroke:#888888; font-family:Arial; font-size:6pt;"><line x1="1" y1="122.72727272727272" x2="700" y2="122.72727272727272" style="stroke:#aaaaaa;"/><text x="5" y="120.72727272727272">20</text></g><g style="stroke:#888888; font-family:Arial; font-size:6pt;"><line x1="1" y1="95.45454545454544" x2="700" y2="95.45454545454544" style="stroke:#aaaaaa;"/><text x="5" y="93.45454545454544">30</text></g><g style="stroke:#888888; font-family:Arial; font-size:6pt;"><line x1="1" y1="68.18181818181817" x2="700" y2="68.18181818181817" style="stroke:#aaaaaa;"/><text x="5" y="66.18181818181817">40</text></g><g style="stroke:#888888; font-family:Arial; font-size:6pt;"><line x1="1" y1="40.90909090909091" x2="700" y2="40.90909090909091" style="stroke:#aaaaaa;"/><text x="5" y="38.90909090909091">50</text></g><g style="stroke:#888888; font-family:Arial; font-size:6pt;"><line x1="1" y1="13.636363636363626" x2="700" y2="13.636363636363626" style="stroke:#aaaaaa;"/><text x="5" y="11.636363636363626">60</text></g><text x="350" y="20" style="text-anchor:middle; font-size: 14pt;">Net Runs - Sightscreen Bob</text>
					
					<rect x="21.875" y="141.8181818181818" height="35.45454545454544" width="16.875" style="fill:#00007f;"/><rect x="43.75" y="133.63636363636363" height="43.636363636363626" width="16.875" style="fill:#00007f;"/><rect x="65.625" y="177.27272727272725" height="24.545454545454533" width="16.875" style="fill:#00007f;"/><rect x="87.5" y="174.54545454545453" height="2.7272727272727195" width="16.875" style="fill:#00007f;"/><rect x="109.375" y="177.27272727272725" height="46.363636363636374" width="16.875" style="fill:#00007f;"/><rect x="131.25" y="177.27272727272725" height="2.7272727272727195" width="16.875" style="fill:#00007f;"/><rect x="153.125" y="177.27272727272725" height="60" width="16.875" style="fill:#00007f;"/><rect x="175" y="177.27272727272725" height="62.72727272727272" width="16.875" style="fill:#00007f;"/><rect x="196.875" y="76.36363636363635" height="100.9090909090909" width="16.875" style="fill:#00007f;"/><rect x="218.75" y="128.18181818181816" height="49.09090909090909" width="16.875" style="fill:#00007f;"/><rect x="240.625" y="177.27272727272725" height="35.45454545454544" width="16.875" style="fill:#00007f;"/><rect x="262.5" y="177.27272727272725" height="30" width="16.875" style="fill:#00007f;"/><rect x="284.375" y="177.27272727272725" height="43.636363636363626" width="16.875" style="fill:#00007f;"/><rect x="306.25" y="152.72727272727272" height="24.545454545454533" width="16.875" style="fill:#00007f;"/><rect x="328.125" y="177.27272727272725" height="54.54545454545453" width="16.875" style="fill:#00007f;"/><rect x="350" y="177.27272727272725" height="16.363636363636374" width="16.875" style="fill:#00007f;"/><rect x="371.875" y="177.27272727272725" height="54.54545454545453" width="16.875" style="fill:#00007f;"/><rect x="393.75" y="177.27272727272725" height="8.181818181818187" width="16.875" style="fill:#00007f;"/><rect x="415.625" y="177.27272727272725" height="100.90909090909088" width="16.875" style="fill:#00007f;"/><rect x="437.5" y="117.27272727272725" height="60" width="16.875" style="fill:#00007f;"/><rect x="459.375" y="81.8181818181818" height="95.45454545454545" width="16.875" style="fill:#00007f;"/><rect x="481.25" y="177.27272727272725" height="27.27272727272728" width="16.875" style="fill:#00007f;"/><rect x="503.125" y="160.90909090909088" height="16.363636363636374" width="16.875" style="fill:#00007f;"/><rect x="525" y="149.99999999999997" height="27.27272727272728" width="16.875" style="fill:#00007f;"/><rect x="546.875" y="141.8181818181818" height="35.45454545454544" width="16.875" style="fill:#00007f;"/><rect x="568.75" y="177.27272727272725" height="27.27272727272728" width="16.875" style="fill:#00007f;"/><rect x="590.625" y="163.63636363636363" height="13.636363636363626" width="16.875" style="fill:#00007f;"/><rect x="612.5" y="163.63636363636363" height="13.636363636363626" width="16.875" style="fill:#00007f;"/><rect x="634.375" y="177.27272727272725" height="8.181818181818187" width="16.875" style="fill:#00007f;"/><rect x="656.25" y="139.09090909090907" height="38.18181818181819" width="16.875" style="fill:#00007f;"/><rect x="678.125" y="119.99999999999999" height="57.272727272727266" width="16.875" style="fill:#00007f;"/>
					
					<path d="M30.3125 141.8181818181818 L52.1875 137.72727272727272 L74.0625 159.09090909090907 L95.9375 162.95454545454544 L117.8125 175.09090909090907 L139.6875 175.90909090909088 L161.5625 184.67532467532465 L183.4375 191.59090909090907 L205.3125 178.78787878787875 L227.1875 173.72727272727272 L249.0625 177.27272727272725 L270.9375 179.77272727272725 L292.8125 182.9370629370629 L314.6875 180.77922077922076 L336.5625 184.18181818181816 L358.4375 184.77272727272725 L380.3125 187.54010695187162 L402.1875 187.4242424242424 L424.0625 192.20095693779902 L445.9375 188.45454545454544 L467.8125 183.37662337662334 L489.6875 184.3388429752066 L511.5625 183.32015810276678 L533.4375 181.93181818181816 L555.3125 180.3272727272727 L577.1875 181.25874125874122 L599.0625 180.6060606060606 L620.9375 179.99999999999997 L642.8125 180.18808777429464 L664.6875 178.81818181818178 L686.5625 176.9208211143695 " style="fill:none; stroke:red; stroke-width:1"/>
				</g>
			</svg>