<?xml version="1.0" encoding="UTF-8"?><svg xml:space="preserve" width="700" height="300">
				<desc>Net Runs</desc>
				<g style="stroke:#000000; stroke-width:0.5; font-family:Arial; font-size:7pt;">
					<rect x="1" y="1" width="698" height="298" style="fill:#dddddd;"/><g style="stroke:#888888; font-family:Arial; font-size:6pt;"><line x1="1" y1="286.3636363636363" x2="700" y2="286.3636363636363" style="stroke:#aaaaaa;"/><text x="5" y="284.3636363636363">-40</text></g><g style="stroke:#888888; font-family:Arial; font-size:6pt;"><line x1="1" y1="259.09090909090907" x2="700" y2="259.09090909090907" style="stroke:#aaaaaa;"/><text x="5" y="257.09090909090907">-30</text></g><g style="stroke:#888888; font-family:Arial; font-size:6pt;"><line x1="1" y1="231.81818181818178" x2="700" y2="231.81818181818178" style="stroke:#aaaaaa;"/><text x="5" y="229.81818181818178">-20</text></g><g style="stroke:#888888; font-family:Arial; font-size:6pt;"><line x1="1" y1="204.54545454545453" x2="700" y2="204.54545454545453" style="stroke:#aaaaaa;"/><text x="5" y="202.54545454545453">-10</text></g><g style="stroke:#888888; font-family:Arial; font-size:6pt;"><line x1="1" y1="177.27272727272725" x2="700" y2="177.27272727272725" style="stroke:#aaaaaa;"/><text x="5" y="175.27272727272725">0</text></g><g style="stroke:#888888; font-family:Arial; font-size:6pt;"><line x1="1" y1="149.99999999999997" x2="700" y2="149.99999999999997" style="stroke:#aaaaaa;"/><text x="5" y="147.99999999999997">10</text></g><g style="stroke:#888888; font-family:Arial; font-size:6pt;"><line x1="1" y1="122.72727272727272" x2="700" y2="122.72727272727272" style="stroke:#aaaaaa;"/><text x="5" y="120.72727272727272">20</text></g><g style="stroke:#888888; font-family:Arial; font-size:6pt;"><line x1="1" y1="95.45454545454544" x2="700" y2="95.45454545454544" style="stroke:#aaaaaa;"/><text x="5" y="93.45454545454544">30</text></g><g style="stroke:#888888; font-family:Arial; font-size:6pt;"><line x1="1" y1="68.18181818181817" x2="700" y2="68.18181818181817" style="stroke:#aaaaaa;"/><text x="5" y="66.18181818181817">40</text></g><g style="stroke:#888888; font-family:Arial; font-size:6pt;"><line x1="1" y1="40.90909090909091" x2="700" y2="40.90909090909091" style="stroke:#aaaaaa;"/><text x="5" y="38.90909090909091">50</text></g><g style="stroke:#888888; font-family:Arial; font-size:6pt;"><line x1="1" y1="13.636363636363626" x2="700" y2="13.636363636363626" style="stroke:#aaaaaa;"/><text x="5" y="11.636363636363626">60</text></g><text x="350" y="20" style="text-anchor:middle; font-size: 14pt;">Net Runs - Neal (Jnr)</text>
					
					<rect x="77.77777777777777" y="169.09090909090907" height="8.181818181818187" width="72.77777777777777" style="fill:#00007f;"/><rect x="155.55555555555554" y="177.27272727272725" height="19.090909090909093" width="72.77777777777777" style="fill:#00007f;"/><rect x="233.33333333333331" y="152.72727272727272" height="24.545454545454533" width="72.77777777777777" style="fill:#00007f;"/><rect x="311.1111111111111" y="177.27272727272725" height="5.4545454545454675" width="72.77777777777777" style="fill:#00007f;"/><rect x="388.88888888888886" y="163.63636363636363" height="13.636363636363626" width="72.77777777777777" style="fill:#00007f;"/><rect x="466.66666666666663" y="117.27272727272725" height="60" width="72.77777777777777" style="fill:#00007f;"/><rect x="544.4444444444443" y="100.90909090909089" height="76.36363636363636" width="72.77777777777777" style="fill:#00007f;"/><rect x="622.2222222222222" y="177.27272727272725" height="8.181818181818187" width="72.77777777777777" style="fill:#00007f;"/>
					
					<path d="M114.16666666666666 169.09090909090907 L191.94444444444443 182.72727272727272 L269.7222222222222 172.72727272727272 L347.5 175.22727272727272 L425.2777777777777 172.90909090909088 L503.05555555555554 163.63636363636363 L580.8333333333333 154.67532467532465 L658.6111111111111 158.52272727272725 " style="fill:none; stroke:red; stroke-width:1"/>
				</g>
			</svg>