<?xml version="1.0" encoding="UTF-8"?><svg xml:space="preserve" width="700" height="300">
				<desc>Net Runs</desc>
				<g style="stroke:#000000; stroke-width:0.5; font-family:Arial; font-size:7pt;">
					<rect x="1" y="1" width="698" height="298" style="fill:#dddddd;"/><g style="stroke:#888888; font-family:Arial; font-size:6pt;"><line x1="1" y1="286.3636363636363" x2="700" y2="286.3636363636363" style="stroke:#aaaaaa;"/><text x="5" y="284.3636363636363">-40</text></g><g style="stroke:#888888; font-family:Arial; font-size:6pt;"><line x1="1" y1="259.09090909090907" x2="700" y2="259.09090909090907" style="stroke:#aaaaaa;"/><text x="5" y="257.09090909090907">-30</text></g><g style="stroke:#888888; font-family:Arial; font-size:6pt;"><line x1="1" y1="231.81818181818178" x2="700" y2="231.81818181818178" style="stroke:#aaaaaa;"/><text x="5" y="229.81818181818178">-20</text></g><g style="stroke:#888888; font-family:Arial; font-size:6pt;"><line x1="1" y1="204.54545454545453" x2="700" y2="204.54545454545453" style="stroke:#aaaaaa;"/><text x="5" y="202.54545454545453">-10</text></g><g style="stroke:#888888; font-family:Arial; font-size:6pt;"><line x1="1" y1="177.27272727272725" x2="700" y2="177.27272727272725" style="stroke:#aaaaaa;"/><text x="5" y="175.27272727272725">0</text></g><g style="stroke:#888888; font-family:Arial; font-size:6pt;"><line x1="1" y1="149.99999999999997" x2="700" y2="149.99999999999997" style="stroke:#aaaaaa;"/><text x="5" y="147.99999999999997">10</text></g><g style="stroke:#888888; font-family:Arial; font-size:6pt;"><line x1="1" y1="122.72727272727272" x2="700" y2="122.72727272727272" style="stroke:#aaaaaa;"/><text x="5" y="120.72727272727272">20</text></g><g style="stroke:#888888; font-family:Arial; font-size:6pt;"><line x1="1" y1="95.45454545454544" x2="700" y2="95.45454545454544" style="stroke:#aaaaaa;"/><text x="5" y="93.45454545454544">30</text></g><g style="stroke:#888888; font-family:Arial; font-size:6pt;"><line x1="1" y1="68.18181818181817" x2="700" y2="68.18181818181817" style="stroke:#aaaaaa;"/><text x="5" y="66.18181818181817">40</text></g><g style="stroke:#888888; font-family:Arial; font-size:6pt;"><line x1="1" y1="40.90909090909091" x2="700" y2="40.90909090909091" style="stroke:#aaaaaa;"/><text x="5" y="38.90909090909091">50</text></g><g style="stroke:#888888; font-family:Arial; font-size:6pt;"><line x1="1" y1="13.636363636363626" x2="700" y2="13.636363636363626" style="stroke:#aaaaaa;"/><text x="5" y="11.636363636363626">60</text></g><text x="350" y="20" style="text-anchor:middle; font-size: 14pt;">Net Runs - Chuck</text>
					
					<rect x="31.818181818181817" y="125.45454545454544" height="51.81818181818181" width="26.818181818181817" style="fill:#00007f;"/><rect x="63.63636363636363" y="177.27272727272725" height="141.8181818181818" width="26.818181818181817" style="fill:#00007f;"/><rect x="95.45454545454545" y="171.81818181818178" height="5.4545454545454675" width="26.818181818181817" style="fill:#00007f;"/><rect x="127.27272727272727" y="166.36363636363635" height="10.909090909090907" width="26.818181818181817" style="fill:#00007f;"/><rect x="159.0909090909091" y="147.27272727272725" height="30" width="26.818181818181817" style="fill:#00007f;"/><rect x="190.9090909090909" y="106.36363636363635" height="70.9090909090909" width="26.818181818181817" style="fill:#00007f;"/><rect x="222.72727272727272" y="158.18181818181816" height="19.090909090909093" width="26.818181818181817" style="fill:#00007f;"/><rect x="254.54545454545453" y="177.27272727272725" height="32.72727272727272" width="26.818181818181817" style="fill:#00007f;"/><rect x="286.3636363636364" y="103.63636363636363" height="73.63636363636363" width="26.818181818181817" style="fill:#00007f;"/><rect x="318.1818181818182" y="103.63636363636363" height="73.63636363636363" width="26.818181818181817" style="fill:#00007f;"/><rect x="350" y="177.27272727272725" height="38.18181818181819" width="26.818181818181817" style="fill:#00007f;"/><rect x="381.8181818181818" y="171.81818181818178" height="5.4545454545454675" width="26.818181818181817" style="fill:#00007f;"/><rect x="413.6363636363636" y="174.54545454545453" height="2.7272727272727195" width="26.818181818181817" style="fill:#00007f;"/><rect x="445.45454545454544" y="149.99999999999997" height="27.27272727272728" width="26.818181818181817" style="fill:#00007f;"/><rect x="477.27272727272725" y="177.27272727272725" height="5.4545454545454675" width="26.818181818181817" style="fill:#00007f;"/><rect x="509.09090909090907" y="152.72727272727272" height="24.545454545454533" width="26.818181818181817" style="fill:#00007f;"/><rect x="540.9090909090909" y="147.27272727272725" height="30" width="26.818181818181817" style="fill:#00007f;"/><rect x="572.7272727272727" y="128.18181818181816" height="49.09090909090909" width="26.818181818181817" style="fill:#00007f;"/><rect x="604.5454545454545" y="177.27272727272725" height="2.7272727272727195" width="26.818181818181817" style="fill:#00007f;"/><rect x="636.3636363636364" y="177.27272727272725" height="79.09090909090907" width="26.818181818181817" style="fill:#00007f;"/><rect x="668.1818181818181" y="177.27272727272725" height="16.363636363636374" width="26.818181818181817" style="fill:#00007f;"/>
					
					<path d="M45.22727272727273 125.45454545454544 L77.04545454545455 222.27272727272725 L108.86363636363636 205.45454545454544 L140.6818181818182 195.68181818181816 L172.5 185.99999999999997 L204.3181818181818 172.72727272727272 L236.13636363636363 170.64935064935062 L267.95454545454544 175.56818181818178 L299.7727272727273 167.57575757575756 L331.5909090909091 161.18181818181816 L363.40909090909093 166.11570247933884 L395.22727272727275 166.59090909090907 L427.04545454545456 167.20279720279717 L458.8636363636364 165.97402597402595 L490.6818181818182 167.09090909090907 L522.5 166.1931818181818 L554.3181818181818 165.0802139037433 L586.1363636363636 163.030303030303 L617.9545454545454 163.92344497607652 L649.7727272727273 168.54545454545453 L681.590909090909 169.74025974025972 " style="fill:none; stroke:red; stroke-width:1"/>
				</g>
			</svg>