<?xml version="1.0" encoding="UTF-8"?><svg xml:space="preserve" width="700" height="300">
				<desc>Net Runs</desc>
				<g style="stroke:#000000; stroke-width:0.5; font-family:Arial; font-size:7pt;">
					<rect x="1" y="1" width="698" height="298" style="fill:#dddddd;"/><g style="stroke:#888888; font-family:Arial; font-size:6pt;"><line x1="1" y1="286.3636363636363" x2="700" y2="286.3636363636363" style="stroke:#aaaaaa;"/><text x="5" y="284.3636363636363">-40</text></g><g style="stroke:#888888; font-family:Arial; font-size:6pt;"><line x1="1" y1="259.09090909090907" x2="700" y2="259.09090909090907" style="stroke:#aaaaaa;"/><text x="5" y="257.09090909090907">-30</text></g><g style="stroke:#888888; font-family:Arial; font-size:6pt;"><line x1="1" y1="231.81818181818178" x2="700" y2="231.81818181818178" style="stroke:#aaaaaa;"/><text x="5" y="229.81818181818178">-20</text></g><g style="stroke:#888888; font-family:Arial; font-size:6pt;"><line x1="1" y1="204.54545454545453" x2="700" y2="204.54545454545453" style="stroke:#aaaaaa;"/><text x="5" y="202.54545454545453">-10</text></g><g style="stroke:#888888; font-family:Arial; font-size:6pt;"><line x1="1" y1="177.27272727272725" x2="700" y2="177.27272727272725" style="stroke:#aaaaaa;"/><text x="5" y="175.27272727272725">0</text></g><g style="stroke:#888888; font-family:Arial; font-size:6pt;"><line x1="1" y1="149.99999999999997" x2="700" y2="149.99999999999997" style="stroke:#aaaaaa;"/><text x="5" y="147.99999999999997">10</text></g><g style="stroke:#888888; font-family:Arial; font-size:6pt;"><line x1="1" y1="122.72727272727272" x2="700" y2="122.72727272727272" style="stroke:#aaaaaa;"/><text x="5" y="120.72727272727272">20</text></g><g style="stroke:#888888; font-family:Arial; font-size:6pt;"><line x1="1" y1="95.45454545454544" x2="700" y2="95.45454545454544" style="stroke:#aaaaaa;"/><text x="5" y="93.45454545454544">30</text></g><g style="stroke:#888888; font-family:Arial; font-size:6pt;"><line x1="1" y1="68.18181818181817" x2="700" y2="68.18181818181817" style="stroke:#aaaaaa;"/><text x="5" y="66.18181818181817">40</text></g><g style="stroke:#888888; font-family:Arial; font-size:6pt;"><line x1="1" y1="40.90909090909091" x2="700" y2="40.90909090909091" style="stroke:#aaaaaa;"/><text x="5" y="38.90909090909091">50</text></g><g style="stroke:#888888; font-family:Arial; font-size:6pt;"><line x1="1" y1="13.636363636363626" x2="700" y2="13.636363636363626" style="stroke:#aaaaaa;"/><text x="5" y="11.636363636363626">60</text></g><text x="350" y="20" style="text-anchor:middle; font-size: 14pt;">Net Runs - Neil (Snr)</text>
					
					<rect x="12.280701754385966" y="130.90909090909088" height="46.363636363636374" width="7.280701754385966" style="fill:#00007f;"/><rect x="24.56140350877193" y="177.27272727272725" height="43.636363636363626" width="7.280701754385966" style="fill:#00007f;"/><rect x="36.8421052631579" y="177.27272727272725" height="5.4545454545454675" width="7.280701754385966" style="fill:#00007f;"/><rect x="49.12280701754386" y="177.27272727272725" height="40.90909090909091" width="7.280701754385966" style="fill:#00007f;"/><rect x="61.40350877192983" y="149.99999999999997" height="27.27272727272728" width="7.280701754385966" style="fill:#00007f;"/><rect x="73.6842105263158" y="174.54545454545453" height="2.7272727272727195" width="7.280701754385966" style="fill:#00007f;"/><rect x="85.96491228070175" y="177.27272727272725" height="40.90909090909091" width="7.280701754385966" style="fill:#00007f;"/><rect x="98.24561403508773" y="125.45454545454544" height="51.81818181818181" width="7.280701754385966" style="fill:#00007f;"/><rect x="110.5263157894737" y="177.27272727272725" height="5.4545454545454675" width="7.280701754385966" style="fill:#00007f;"/><rect x="122.80701754385966" y="155.45454545454544" height="21.818181818181813" width="7.280701754385966" style="fill:#00007f;"/><rect x="135.08771929824562" y="139.09090909090907" height="38.18181818181819" width="7.280701754385966" style="fill:#00007f;"/><rect x="147.3684210526316" y="177.27272727272725" height="95.45454545454544" width="7.280701754385966" style="fill:#00007f;"/><rect x="159.64912280701756" y="141.8181818181818" height="35.45454545454544" width="7.280701754385966" style="fill:#00007f;"/><rect x="171.9298245614035" y="177.27272727272725" height="13.636363636363626" width="7.280701754385966" style="fill:#00007f;"/><rect x="184.21052631578948" y="166.36363636363635" height="10.909090909090907" width="7.280701754385966" style="fill:#00007f;"/><rect x="196.49122807017545" y="133.63636363636363" height="43.636363636363626" width="7.280701754385966" style="fill:#00007f;"/><rect x="208.77192982456143" y="95.45454545454544" height="81.81818181818181" width="7.280701754385966" style="fill:#00007f;"/><rect x="221.0526315789474" y="166.36363636363635" height="10.909090909090907" width="7.280701754385966" style="fill:#00007f;"/><rect x="233.33333333333334" y="130.90909090909088" height="46.363636363636374" width="7.280701754385966" style="fill:#00007f;"/><rect x="245.61403508771932" y="111.8181818181818" height="65.45454545454545" width="7.280701754385966" style="fill:#00007f;"/><rect x="257.89473684210526" y="92.72727272727272" height="84.54545454545453" width="7.280701754385966" style="fill:#00007f;"/><rect x="270.17543859649123" y="114.54545454545453" height="62.72727272727272" width="7.280701754385966" style="fill:#00007f;"/><rect x="282.4561403508772" y="160.90909090909088" height="16.363636363636374" width="7.280701754385966" style="fill:#00007f;"/><rect x="294.7368421052632" y="133.63636363636363" height="43.636363636363626" width="7.280701754385966" style="fill:#00007f;"/><rect x="307.01754385964915" y="177.27272727272725" height="5.4545454545454675" width="7.280701754385966" style="fill:#00007f;"/><rect x="319.2982456140351" y="163.63636363636363" height="13.636363636363626" width="7.280701754385966" style="fill:#00007f;"/><rect x="331.5789473684211" y="177.27272727272725" height="2.7272727272727195" width="7.280701754385966" style="fill:#00007f;"/><rect x="343.859649122807" y="177.27272727272725" height="73.63636363636363" width="7.280701754385966" style="fill:#00007f;"/><rect x="356.140350877193" y="177.27272727272725" height="21.818181818181813" width="7.280701754385966" style="fill:#00007f;"/><rect x="368.42105263157896" y="177.27272727272725" height="57.27272727272725" width="7.280701754385966" style="fill:#00007f;"/><rect x="380.70175438596493" y="177.27272727272725" height="2.7272727272727195" width="7.280701754385966" style="fill:#00007f;"/><rect x="392.9824561403509" y="100.90909090909089" height="76.36363636363636" width="7.280701754385966" style="fill:#00007f;"/><rect x="405.2631578947369" y="106.36363636363635" height="70.9090909090909" width="7.280701754385966" style="fill:#00007f;"/><rect x="417.54385964912285" y="149.99999999999997" height="27.27272727272728" width="7.280701754385966" style="fill:#00007f;"/><rect x="429.8245614035088" y="144.54545454545453" height="32.72727272727272" width="7.280701754385966" style="fill:#00007f;"/><rect x="442.1052631578948" y="158.18181818181816" height="19.090909090909093" width="7.280701754385966" style="fill:#00007f;"/><rect x="454.3859649122807" y="114.54545454545453" height="62.72727272727272" width="7.280701754385966" style="fill:#00007f;"/><rect x="466.6666666666667" y="177.27272727272725" height="35.45454545454544" width="7.280701754385966" style="fill:#00007f;"/><rect x="478.94736842105266" y="177.27272727272725" height="30" width="7.280701754385966" style="fill:#00007f;"/><rect x="491.22807017543863" y="177.27272727272725" height="2.7272727272727195" width="7.280701754385966" style="fill:#00007f;"/><rect x="503.5087719298246" y="177.27272727272725" height="73.63636363636363" width="7.280701754385966" style="fill:#00007f;"/><rect x="515.7894736842105" y="89.99999999999999" height="87.27272727272727" width="7.280701754385966" style="fill:#00007f;"/><rect x="528.0701754385965" y="177.27272727272725" height="40.90909090909091" width="7.280701754385966" style="fill:#00007f;"/><rect x="540.3508771929825" y="177.27272727272725" height="5.4545454545454675" width="7.280701754385966" style="fill:#00007f;"/><rect x="552.6315789473684" y="171.81818181818178" height="5.4545454545454675" width="7.280701754385966" style="fill:#00007f;"/><rect x="564.9122807017544" y="141.8181818181818" height="35.45454545454544" width="7.280701754385966" style="fill:#00007f;"/><rect x="577.1929824561404" y="177.27272727272725" height="19.090909090909093" width="7.280701754385966" style="fill:#00007f;"/><rect x="589.4736842105264" y="84.54545454545453" height="92.72727272727272" width="7.280701754385966" style="fill:#00007f;"/><rect x="601.7543859649123" y="117.27272727272725" height="60" width="7.280701754385966" style="fill:#00007f;"/><rect x="614.0350877192983" y="177.27272727272725" height="79.09090909090907" width="7.280701754385966" style="fill:#00007f;"/><rect x="626.3157894736843" y="177.27272727272725" height="27.27272727272728" width="7.280701754385966" style="fill:#00007f;"/><rect x="638.5964912280702" y="171.81818181818178" height="5.4545454545454675" width="7.280701754385966" style="fill:#00007f;"/><rect x="650.8771929824562" y="133.63636363636363" height="43.636363636363626" width="7.280701754385966" style="fill:#00007f;"/><rect x="663.1578947368422" y="169.09090909090907" height="8.181818181818187" width="7.280701754385966" style="fill:#00007f;"/><rect x="675.4385964912282" y="155.45454545454544" height="21.818181818181813" width="7.280701754385966" style="fill:#00007f;"/><rect x="687.719298245614" y="177.27272727272725" height="13.636363636363626" width="7.280701754385966" style="fill:#00007f;"/>
					
					<path d="M15.921052631578949 130.90909090909088 L28.201754385964914 175.90909090909088 L40.48245614035088 178.18181818181816 L52.76315789473685 188.18181818181816 L65.04385964912281 180.54545454545453 L77.32456140350878 179.54545454545453 L89.60526315789474 185.06493506493504 L101.88596491228071 177.61363636363635 L114.16666666666669 178.18181818181816 L126.44736842105264 175.90909090909088 L138.7280701754386 172.56198347107437 L151.00877192982458 180.90909090909088 L163.28947368421055 177.9020979020979 L175.5701754385965 178.8311688311688 L187.85087719298247 177.99999999999997 L200.13157894736844 175.22727272727272 L212.4122807017544 170.53475935828874 L224.69298245614038 170.30303030303028 L236.97368421052633 168.2296650717703 L249.2543859649123 165.40909090909088 L261.53508771929825 161.94805194805193 L273.8157894736842 159.79338842975204 L286.0964912280702 159.84189723320156 L298.37719298245617 158.74999999999997 L310.65789473684214 159.7090909090909 L322.9385964912281 159.86013986013984 L335.2192982456141 160.6060606060606 L347.5 163.8311688311688 L359.780701754386 165.04702194357364 L372.06140350877195 167.36363636363635 L384.3421052631579 167.77126099706743 L396.6228070175439 165.68181818181816 L408.90350877192986 163.88429752066114 L421.18421052631584 163.475935828877 L433.4649122807018 162.93506493506493 L445.7456140350878 162.80303030303028 L458.0263157894737 161.49877149877148 L470.3070175438597 162.84688995215308 L482.58771929824564 163.98601398601397 L494.8684210526316 164.38636363636363 L507.1491228070176 166.49667405764964 L519.4298245614035 164.67532467532465 L531.7105263157895 165.91966173361521 L543.9912280701755 166.30165289256198 L556.2719298245614 166.4242424242424 L568.5526315789474 165.8893280632411 L580.8333333333334 166.53771760154737 L593.1140350877193 164.82954545454544 L605.3947368421053 163.85899814471242 L617.6754385964913 165.7090909090909 L629.9561403508773 166.4705882352941 L642.2368421052632 166.57342657342656 L654.5175438596492 165.95197255574612 L666.7982456140352 166.01010101010098 L679.0789473684212 165.81818181818178 L691.359649122807 166.26623376623374 " style="fill:none; stroke:red; stroke-width:1"/>
				</g>
			</svg>