<?xml version="1.0" encoding="UTF-8"?><svg xml:space="preserve" width="700" height="300">
				<desc>Net Runs</desc>
				<g style="stroke:#000000; stroke-width:0.5; font-family:Arial; font-size:7pt;">
					<rect x="1" y="1" width="698" height="298" style="fill:#dddddd;"/><g style="stroke:#888888; font-family:Arial; font-size:6pt;"><line x1="1" y1="286.3636363636363" x2="700" y2="286.3636363636363" style="stroke:#aaaaaa;"/><text x="5" y="284.3636363636363">-40</text></g><g style="stroke:#888888; font-family:Arial; font-size:6pt;"><line x1="1" y1="259.09090909090907" x2="700" y2="259.09090909090907" style="stroke:#aaaaaa;"/><text x="5" y="257.09090909090907">-30</text></g><g style="stroke:#888888; font-family:Arial; font-size:6pt;"><line x1="1" y1="231.81818181818178" x2="700" y2="231.81818181818178" style="stroke:#aaaaaa;"/><text x="5" y="229.81818181818178">-20</text></g><g style="stroke:#888888; font-family:Arial; font-size:6pt;"><line x1="1" y1="204.54545454545453" x2="700" y2="204.54545454545453" style="stroke:#aaaaaa;"/><text x="5" y="202.54545454545453">-10</text></g><g style="stroke:#888888; font-family:Arial; font-size:6pt;"><line x1="1" y1="177.27272727272725" x2="700" y2="177.27272727272725" style="stroke:#aaaaaa;"/><text x="5" y="175.27272727272725">0</text></g><g style="stroke:#888888; font-family:Arial; font-size:6pt;"><line x1="1" y1="149.99999999999997" x2="700" y2="149.99999999999997" style="stroke:#aaaaaa;"/><text x="5" y="147.99999999999997">10</text></g><g style="stroke:#888888; font-family:Arial; font-size:6pt;"><line x1="1" y1="122.72727272727272" x2="700" y2="122.72727272727272" style="stroke:#aaaaaa;"/><text x="5" y="120.72727272727272">20</text></g><g style="stroke:#888888; font-family:Arial; font-size:6pt;"><line x1="1" y1="95.45454545454544" x2="700" y2="95.45454545454544" style="stroke:#aaaaaa;"/><text x="5" y="93.45454545454544">30</text></g><g style="stroke:#888888; font-family:Arial; font-size:6pt;"><line x1="1" y1="68.18181818181817" x2="700" y2="68.18181818181817" style="stroke:#aaaaaa;"/><text x="5" y="66.18181818181817">40</text></g><g style="stroke:#888888; font-family:Arial; font-size:6pt;"><line x1="1" y1="40.90909090909091" x2="700" y2="40.90909090909091" style="stroke:#aaaaaa;"/><text x="5" y="38.90909090909091">50</text></g><g style="stroke:#888888; font-family:Arial; font-size:6pt;"><line x1="1" y1="13.636363636363626" x2="700" y2="13.636363636363626" style="stroke:#aaaaaa;"/><text x="5" y="11.636363636363626">60</text></g><text x="350" y="20" style="text-anchor:middle; font-size: 14pt;">Net Runs - Craig</text>
					
					<rect x="25.925925925925927" y="177.27272727272725" height="13.636363636363626" width="20.925925925925927" style="fill:#00007f;"/><rect x="51.851851851851855" y="139.09090909090907" height="38.18181818181819" width="20.925925925925927" style="fill:#00007f;"/><rect x="77.77777777777779" y="177.27272727272725" height="16.363636363636374" width="20.925925925925927" style="fill:#00007f;"/><rect x="103.70370370370371" y="177.27272727272725" height="13.636363636363626" width="20.925925925925927" style="fill:#00007f;"/><rect x="129.62962962962965" y="177.27272727272725" height="32.72727272727272" width="20.925925925925927" style="fill:#00007f;"/><rect x="155.55555555555557" y="130.90909090909088" height="46.363636363636374" width="20.925925925925927" style="fill:#00007f;"/><rect x="181.4814814814815" y="177.27272727272725" height="21.818181818181813" width="20.925925925925927" style="fill:#00007f;"/><rect x="207.40740740740742" y="103.63636363636363" height="73.63636363636363" width="20.925925925925927" style="fill:#00007f;"/><rect x="233.33333333333334" y="174.54545454545453" height="2.7272727272727195" width="20.925925925925927" style="fill:#00007f;"/><rect x="259.2592592592593" y="169.09090909090907" height="8.181818181818187" width="20.925925925925927" style="fill:#00007f;"/><rect x="285.1851851851852" y="125.45454545454544" height="51.81818181818181" width="20.925925925925927" style="fill:#00007f;"/><rect x="311.11111111111114" y="8.181818181818187" height="169.09090909090907" width="20.925925925925927" style="fill:#00007f;"/><rect x="337.03703703703707" y="76.36363636363635" height="100.9090909090909" width="20.925925925925927" style="fill:#00007f;"/><rect x="362.962962962963" y="177.27272727272725" height="32.72727272727272" width="20.925925925925927" style="fill:#00007f;"/><rect x="388.8888888888889" y="122.72727272727272" height="54.54545454545453" width="20.925925925925927" style="fill:#00007f;"/><rect x="414.81481481481484" y="177.27272727272725" height="27.27272727272728" width="20.925925925925927" style="fill:#00007f;"/><rect x="440.74074074074076" y="125.45454545454544" height="51.81818181818181" width="20.925925925925927" style="fill:#00007f;"/><rect x="466.6666666666667" y="169.09090909090907" height="8.181818181818187" width="20.925925925925927" style="fill:#00007f;"/><rect x="492.5925925925926" y="177.27272727272725" height="49.09090909090909" width="20.925925925925927" style="fill:#00007f;"/><rect x="518.5185185185186" y="171.81818181818178" height="5.4545454545454675" width="20.925925925925927" style="fill:#00007f;"/><rect x="544.4444444444445" y="177.27272727272725" height="32.72727272727272" width="20.925925925925927" style="fill:#00007f;"/><rect x="570.3703703703704" y="160.90909090909088" height="16.363636363636374" width="20.925925925925927" style="fill:#00007f;"/><rect x="596.2962962962963" y="19.090909090909093" height="158.18181818181816" width="20.925925925925927" style="fill:#00007f;"/><rect x="622.2222222222223" y="149.99999999999997" height="27.27272727272728" width="20.925925925925927" style="fill:#00007f;"/><rect x="648.1481481481482" y="119.99999999999999" height="57.272727272727266" width="20.925925925925927" style="fill:#00007f;"/><rect x="674.0740740740741" y="177.27272727272725" height="21.818181818181813" width="20.925925925925927" style="fill:#00007f;"/>
					
					<path d="M36.38888888888889 190.90909090909088 L62.31481481481482 164.99999999999997 L88.24074074074075 174.54545454545453 L114.16666666666667 178.63636363636363 L140.0925925925926 184.90909090909088 L166.01851851851853 175.90909090909088 L191.94444444444446 179.2207792207792 L217.87037037037038 169.77272727272725 L243.7962962962963 170.30303030303028 L269.7222222222223 170.18181818181816 L295.6481481481482 166.11570247933884 L321.57407407407413 152.95454545454544 L347.50000000000006 147.06293706293704 L373.425925925926 151.55844155844153 L399.3518518518519 149.63636363636363 L425.2777777777778 153.0681818181818 L451.20370370370375 151.44385026737967 L477.1296296296297 152.4242424242424 L503.0555555555556 156.3157894736842 L528.9814814814815 157.09090909090907 L554.9074074074074 159.61038961038957 L580.8333333333334 159.6694214876033 L606.7592592592592 153.5573122529644 L632.6851851851852 153.40909090909088 L658.6111111111111 152.07272727272726 L684.5370370370371 153.88111888111885 " style="fill:none; stroke:red; stroke-width:1"/>
				</g>
			</svg>