<?xml version="1.0" encoding="UTF-8"?><svg xml:space="preserve" width="700" height="300">
				<desc>Net Runs</desc>
				<g style="stroke:#000000; stroke-width:0.5; font-family:Arial; font-size:7pt;">
					<rect x="1" y="1" width="698" height="298" style="fill:#dddddd;"/><g style="stroke:#888888; font-family:Arial; font-size:6pt;"><line x1="1" y1="286.3636363636363" x2="700" y2="286.3636363636363" style="stroke:#aaaaaa;"/><text x="5" y="284.3636363636363">-40</text></g><g style="stroke:#888888; font-family:Arial; font-size:6pt;"><line x1="1" y1="259.09090909090907" x2="700" y2="259.09090909090907" style="stroke:#aaaaaa;"/><text x="5" y="257.09090909090907">-30</text></g><g style="stroke:#888888; font-family:Arial; font-size:6pt;"><line x1="1" y1="231.81818181818178" x2="700" y2="231.81818181818178" style="stroke:#aaaaaa;"/><text x="5" y="229.81818181818178">-20</text></g><g style="stroke:#888888; font-family:Arial; font-size:6pt;"><line x1="1" y1="204.54545454545453" x2="700" y2="204.54545454545453" style="stroke:#aaaaaa;"/><text x="5" y="202.54545454545453">-10</text></g><g style="stroke:#888888; font-family:Arial; font-size:6pt;"><line x1="1" y1="177.27272727272725" x2="700" y2="177.27272727272725" style="stroke:#aaaaaa;"/><text x="5" y="175.27272727272725">0</text></g><g style="stroke:#888888; font-family:Arial; font-size:6pt;"><line x1="1" y1="149.99999999999997" x2="700" y2="149.99999999999997" style="stroke:#aaaaaa;"/><text x="5" y="147.99999999999997">10</text></g><g style="stroke:#888888; font-family:Arial; font-size:6pt;"><line x1="1" y1="122.72727272727272" x2="700" y2="122.72727272727272" style="stroke:#aaaaaa;"/><text x="5" y="120.72727272727272">20</text></g><g style="stroke:#888888; font-family:Arial; font-size:6pt;"><line x1="1" y1="95.45454545454544" x2="700" y2="95.45454545454544" style="stroke:#aaaaaa;"/><text x="5" y="93.45454545454544">30</text></g><g style="stroke:#888888; font-family:Arial; font-size:6pt;"><line x1="1" y1="68.18181818181817" x2="700" y2="68.18181818181817" style="stroke:#aaaaaa;"/><text x="5" y="66.18181818181817">40</text></g><g style="stroke:#888888; font-family:Arial; font-size:6pt;"><line x1="1" y1="40.90909090909091" x2="700" y2="40.90909090909091" style="stroke:#aaaaaa;"/><text x="5" y="38.90909090909091">50</text></g><g style="stroke:#888888; font-family:Arial; font-size:6pt;"><line x1="1" y1="13.636363636363626" x2="700" y2="13.636363636363626" style="stroke:#aaaaaa;"/><text x="5" y="11.636363636363626">60</text></g><text x="350" y="20" style="text-anchor:middle; font-size: 14pt;">Net Runs - Chester Molester</text>
					
					<rect x="17.5" y="177.27272727272725" height="27.27272727272728" width="12.5" style="fill:#00007f;"/><rect x="35" y="169.09090909090907" height="8.181818181818187" width="12.5" style="fill:#00007f;"/><rect x="52.5" y="149.99999999999997" height="27.27272727272728" width="12.5" style="fill:#00007f;"/><rect x="70" y="177.27272727272725" height="35.45454545454544" width="12.5" style="fill:#00007f;"/><rect x="87.5" y="177.27272727272725" height="54.54545454545453" width="12.5" style="fill:#00007f;"/><rect x="105" y="177.27272727272725" height="0" width="12.5" style="fill:#00007f;"/><rect x="122.5" y="169.09090909090907" height="8.181818181818187" width="12.5" style="fill:#00007f;"/><rect x="140" y="177.27272727272725" height="40.90909090909091" width="12.5" style="fill:#00007f;"/><rect x="157.5" y="149.99999999999997" height="27.27272727272728" width="12.5" style="fill:#00007f;"/><rect x="175" y="169.09090909090907" height="8.181818181818187" width="12.5" style="fill:#00007f;"/><rect x="192.5" y="166.36363636363635" height="10.909090909090907" width="12.5" style="fill:#00007f;"/><rect x="210" y="171.81818181818178" height="5.4545454545454675" width="12.5" style="fill:#00007f;"/><rect x="227.5" y="177.27272727272725" height="54.54545454545453" width="12.5" style="fill:#00007f;"/><rect x="245" y="139.09090909090907" height="38.18181818181819" width="12.5" style="fill:#00007f;"/><rect x="262.5" y="155.45454545454544" height="21.818181818181813" width="12.5" style="fill:#00007f;"/><rect x="280" y="177.27272727272725" height="5.4545454545454675" width="12.5" style="fill:#00007f;"/><rect x="297.5" y="177.27272727272725" height="49.09090909090909" width="12.5" style="fill:#00007f;"/><rect x="315" y="171.81818181818178" height="5.4545454545454675" width="12.5" style="fill:#00007f;"/><rect x="332.5" y="177.27272727272725" height="2.7272727272727195" width="12.5" style="fill:#00007f;"/><rect x="350" y="169.09090909090907" height="8.181818181818187" width="12.5" style="fill:#00007f;"/><rect x="367.5" y="114.54545454545453" height="62.72727272727272" width="12.5" style="fill:#00007f;"/><rect x="385" y="62.72727272727272" height="114.54545454545453" width="12.5" style="fill:#00007f;"/><rect x="402.5" y="109.09090909090908" height="68.18181818181817" width="12.5" style="fill:#00007f;"/><rect x="420" y="103.63636363636363" height="73.63636363636363" width="12.5" style="fill:#00007f;"/><rect x="437.5" y="177.27272727272725" height="46.363636363636374" width="12.5" style="fill:#00007f;"/><rect x="455" y="177.27272727272725" height="46.363636363636374" width="12.5" style="fill:#00007f;"/><rect x="472.5" y="149.99999999999997" height="27.27272727272728" width="12.5" style="fill:#00007f;"/><rect x="490" y="177.27272727272725" height="27.27272727272728" width="12.5" style="fill:#00007f;"/><rect x="507.5" y="169.09090909090907" height="8.181818181818187" width="12.5" style="fill:#00007f;"/><rect x="525" y="139.09090909090907" height="38.18181818181819" width="12.5" style="fill:#00007f;"/><rect x="542.5" y="177.27272727272725" height="51.81818181818181" width="12.5" style="fill:#00007f;"/><rect x="560" y="177.27272727272725" height="19.090909090909093" width="12.5" style="fill:#00007f;"/><rect x="577.5" y="163.63636363636363" height="13.636363636363626" width="12.5" style="fill:#00007f;"/><rect x="595" y="149.99999999999997" height="27.27272727272728" width="12.5" style="fill:#00007f;"/><rect x="612.5" y="141.8181818181818" height="35.45454545454544" width="12.5" style="fill:#00007f;"/><rect x="630" y="155.45454545454544" height="21.818181818181813" width="12.5" style="fill:#00007f;"/><rect x="647.5" y="177.27272727272725" height="5.4545454545454675" width="12.5" style="fill:#00007f;"/><rect x="665" y="177.27272727272725" height="46.363636363636374" width="12.5" style="fill:#00007f;"/><rect x="682.5" y="177.27272727272725" height="5.4545454545454675" width="12.5" style="fill:#00007f;"/>
					
					<path d="M23.75 204.54545454545453 L41.25 186.81818181818178 L58.75 174.54545454545453 L76.25 184.09090909090907 L93.75 193.63636363636363 L111.25 190.90909090909088 L128.75 187.79220779220776 L146.25 191.59090909090907 L163.75 186.96969696969694 L181.25 185.18181818181816 L198.75 183.47107438016528 L216.25 182.49999999999997 L233.75 186.29370629370626 L251.25 182.9220779220779 L268.75 181.09090909090907 L286.25 181.19318181818178 L303.75 183.8502673796791 L321.25 183.18181818181816 L338.75 183.01435406698562 L356.25 182.31818181818178 L373.75 179.09090909090907 L391.25 173.80165289256198 L408.75 170.9881422924901 L426.25 168.18181818181816 L443.75 170.39999999999998 L461.25 172.44755244755243 L478.75 171.6161616161616 L496.25 172.79220779220776 L513.75 172.6645768025078 L531.25 171.54545454545453 L548.75 173.40175953079176 L566.25 174.11931818181816 L583.75 173.80165289256198 L601.25 173.10160427807486 L618.75 172.20779220779218 L636.25 171.74242424242422 L653.75 172.03931203931202 L671.25 173.39712918660285 L688.75 173.63636363636363 " style="fill:none; stroke:red; stroke-width:1"/>
				</g>
			</svg>