<?xml version="1.0" encoding="UTF-8"?><svg xml:space="preserve" width="700" height="300">
				<desc>Net Runs</desc>
				<g style="stroke:#000000; stroke-width:0.5; font-family:Arial; font-size:7pt;">
					<rect x="1" y="1" width="698" height="298" style="fill:#dddddd;"/><g style="stroke:#888888; font-family:Arial; font-size:6pt;"><line x1="1" y1="286.3636363636363" x2="700" y2="286.3636363636363" style="stroke:#aaaaaa;"/><text x="5" y="284.3636363636363">-40</text></g><g style="stroke:#888888; font-family:Arial; font-size:6pt;"><line x1="1" y1="259.09090909090907" x2="700" y2="259.09090909090907" style="stroke:#aaaaaa;"/><text x="5" y="257.09090909090907">-30</text></g><g style="stroke:#888888; font-family:Arial; font-size:6pt;"><line x1="1" y1="231.81818181818178" x2="700" y2="231.81818181818178" style="stroke:#aaaaaa;"/><text x="5" y="229.81818181818178">-20</text></g><g style="stroke:#888888; font-family:Arial; font-size:6pt;"><line x1="1" y1="204.54545454545453" x2="700" y2="204.54545454545453" style="stroke:#aaaaaa;"/><text x="5" y="202.54545454545453">-10</text></g><g style="stroke:#888888; font-family:Arial; font-size:6pt;"><line x1="1" y1="177.27272727272725" x2="700" y2="177.27272727272725" style="stroke:#aaaaaa;"/><text x="5" y="175.27272727272725">0</text></g><g style="stroke:#888888; font-family:Arial; font-size:6pt;"><line x1="1" y1="149.99999999999997" x2="700" y2="149.99999999999997" style="stroke:#aaaaaa;"/><text x="5" y="147.99999999999997">10</text></g><g style="stroke:#888888; font-family:Arial; font-size:6pt;"><line x1="1" y1="122.72727272727272" x2="700" y2="122.72727272727272" style="stroke:#aaaaaa;"/><text x="5" y="120.72727272727272">20</text></g><g style="stroke:#888888; font-family:Arial; font-size:6pt;"><line x1="1" y1="95.45454545454544" x2="700" y2="95.45454545454544" style="stroke:#aaaaaa;"/><text x="5" y="93.45454545454544">30</text></g><g style="stroke:#888888; font-family:Arial; font-size:6pt;"><line x1="1" y1="68.18181818181817" x2="700" y2="68.18181818181817" style="stroke:#aaaaaa;"/><text x="5" y="66.18181818181817">40</text></g><g style="stroke:#888888; font-family:Arial; font-size:6pt;"><line x1="1" y1="40.90909090909091" x2="700" y2="40.90909090909091" style="stroke:#aaaaaa;"/><text x="5" y="38.90909090909091">50</text></g><g style="stroke:#888888; font-family:Arial; font-size:6pt;"><line x1="1" y1="13.636363636363626" x2="700" y2="13.636363636363626" style="stroke:#aaaaaa;"/><text x="5" y="11.636363636363626">60</text></g><text x="350" y="20" style="text-anchor:middle; font-size: 14pt;">Net Runs - Maxipads</text>
					
					<rect x="14.583333333333334" y="144.54545454545453" height="32.72727272727272" width="9.583333333333334" style="fill:#00007f;"/><rect x="29.166666666666668" y="144.54545454545453" height="32.72727272727272" width="9.583333333333334" style="fill:#00007f;"/><rect x="43.75" y="117.27272727272725" height="60" width="9.583333333333334" style="fill:#00007f;"/><rect x="58.333333333333336" y="177.27272727272725" height="24.545454545454533" width="9.583333333333334" style="fill:#00007f;"/><rect x="72.91666666666667" y="177.27272727272725" height="2.7272727272727195" width="9.583333333333334" style="fill:#00007f;"/><rect x="87.5" y="139.09090909090907" height="38.18181818181819" width="9.583333333333334" style="fill:#00007f;"/><rect x="102.08333333333334" y="169.09090909090907" height="8.181818181818187" width="9.583333333333334" style="fill:#00007f;"/><rect x="116.66666666666667" y="128.18181818181816" height="49.09090909090909" width="9.583333333333334" style="fill:#00007f;"/><rect x="131.25" y="177.27272727272725" height="30" width="9.583333333333334" style="fill:#00007f;"/><rect x="145.83333333333334" y="147.27272727272725" height="30" width="9.583333333333334" style="fill:#00007f;"/><rect x="160.41666666666669" y="149.99999999999997" height="27.27272727272728" width="9.583333333333334" style="fill:#00007f;"/><rect x="175" y="177.27272727272725" height="2.7272727272727195" width="9.583333333333334" style="fill:#00007f;"/><rect x="189.58333333333334" y="92.72727272727272" height="84.54545454545453" width="9.583333333333334" style="fill:#00007f;"/><rect x="204.16666666666669" y="177.27272727272725" height="0" width="9.583333333333334" style="fill:#00007f;"/><rect x="218.75" y="109.09090909090908" height="68.18181818181817" width="9.583333333333334" style="fill:#00007f;"/><rect x="233.33333333333334" y="125.45454545454544" height="51.81818181818181" width="9.583333333333334" style="fill:#00007f;"/><rect x="247.91666666666669" y="117.27272727272725" height="60" width="9.583333333333334" style="fill:#00007f;"/><rect x="262.5" y="177.27272727272725" height="5.4545454545454675" width="9.583333333333334" style="fill:#00007f;"/><rect x="277.08333333333337" y="144.54545454545453" height="32.72727272727272" width="9.583333333333334" style="fill:#00007f;"/><rect x="291.6666666666667" y="136.36363636363635" height="40.90909090909091" width="9.583333333333334" style="fill:#00007f;"/><rect x="306.25" y="106.36363636363635" height="70.9090909090909" width="9.583333333333334" style="fill:#00007f;"/><rect x="320.83333333333337" y="139.09090909090907" height="38.18181818181819" width="9.583333333333334" style="fill:#00007f;"/><rect x="335.4166666666667" y="128.18181818181816" height="49.09090909090909" width="9.583333333333334" style="fill:#00007f;"/><rect x="350" y="119.99999999999999" height="57.272727272727266" width="9.583333333333334" style="fill:#00007f;"/><rect x="364.58333333333337" y="144.54545454545453" height="32.72727272727272" width="9.583333333333334" style="fill:#00007f;"/><rect x="379.1666666666667" y="166.36363636363635" height="10.909090909090907" width="9.583333333333334" style="fill:#00007f;"/><rect x="393.75" y="177.27272727272725" height="32.72727272727272" width="9.583333333333334" style="fill:#00007f;"/><rect x="408.33333333333337" y="177.27272727272725" height="21.818181818181813" width="9.583333333333334" style="fill:#00007f;"/><rect x="422.9166666666667" y="177.27272727272725" height="8.181818181818187" width="9.583333333333334" style="fill:#00007f;"/><rect x="437.5" y="174.54545454545453" height="2.7272727272727195" width="9.583333333333334" style="fill:#00007f;"/><rect x="452.08333333333337" y="84.54545454545453" height="92.72727272727272" width="9.583333333333334" style="fill:#00007f;"/><rect x="466.6666666666667" y="147.27272727272725" height="30" width="9.583333333333334" style="fill:#00007f;"/><rect x="481.25" y="114.54545454545453" height="62.72727272727272" width="9.583333333333334" style="fill:#00007f;"/><rect x="495.83333333333337" y="177.27272727272725" height="35.45454545454544" width="9.583333333333334" style="fill:#00007f;"/><rect x="510.4166666666667" y="111.8181818181818" height="65.45454545454545" width="9.583333333333334" style="fill:#00007f;"/><rect x="525" y="155.45454545454544" height="21.818181818181813" width="9.583333333333334" style="fill:#00007f;"/><rect x="539.5833333333334" y="169.09090909090907" height="8.181818181818187" width="9.583333333333334" style="fill:#00007f;"/><rect x="554.1666666666667" y="160.90909090909088" height="16.363636363636374" width="9.583333333333334" style="fill:#00007f;"/><rect x="568.75" y="177.27272727272725" height="0" width="9.583333333333334" style="fill:#00007f;"/><rect x="583.3333333333334" y="158.18181818181816" height="19.090909090909093" width="9.583333333333334" style="fill:#00007f;"/><rect x="597.9166666666667" y="177.27272727272725" height="19.090909090909093" width="9.583333333333334" style="fill:#00007f;"/><rect x="612.5" y="166.36363636363635" height="10.909090909090907" width="9.583333333333334" style="fill:#00007f;"/><rect x="627.0833333333334" y="177.27272727272725" height="43.636363636363626" width="9.583333333333334" style="fill:#00007f;"/><rect x="641.6666666666667" y="57.272727272727266" height="119.99999999999999" width="9.583333333333334" style="fill:#00007f;"/><rect x="656.25" y="136.36363636363635" height="40.90909090909091" width="9.583333333333334" style="fill:#00007f;"/><rect x="670.8333333333334" y="109.09090909090908" height="68.18181818181817" width="9.583333333333334" style="fill:#00007f;"/><rect x="685.4166666666667" y="141.8181818181818" height="35.45454545454544" width="9.583333333333334" style="fill:#00007f;"/>
					
					<path d="M19.375 144.54545454545453 L33.958333333333336 144.54545454545453 L48.541666666666664 135.45454545454544 L63.125 152.04545454545453 L77.70833333333334 157.63636363636363 L92.29166666666667 154.54545454545453 L106.87500000000001 156.6233766233766 L121.45833333333334 153.0681818181818 L136.04166666666666 159.09090909090907 L150.625 157.90909090909088 L165.20833333333334 157.1900826446281 L179.79166666666666 159.09090909090907 L194.375 153.98601398601397 L208.95833333333334 155.64935064935062 L223.54166666666666 152.54545454545453 L238.125 150.85227272727272 L252.70833333333334 148.87700534759355 L267.2916666666667 150.75757575757575 L281.87500000000006 150.43062200956936 L296.45833333333337 149.72727272727272 L311.0416666666667 147.66233766233765 L325.62500000000006 147.27272727272725 L340.20833333333337 146.44268774703556 L354.7916666666667 145.34090909090907 L369.37500000000006 145.30909090909088 L383.95833333333337 146.1188811188811 L398.5416666666667 148.48484848484847 L413.12500000000006 150.29220779220776 L427.70833333333337 151.50470219435735 L442.2916666666667 152.27272727272725 L456.87500000000006 150.08797653958942 L471.45833333333337 149.99999999999997 L486.0416666666667 148.92561983471072 L500.62500000000006 150.80213903743314 L515.2083333333334 149.68831168831167 L529.7916666666666 149.84848484848482 L544.375 150.36855036855036 L558.9583333333334 150.64593301435406 L573.5416666666666 151.3286713286713 L588.125 151.49999999999997 L602.7083333333334 152.5942350332594 L617.2916666666666 152.9220779220779 L631.875 154.50317124735727 L646.4583333333334 152.29338842975204 L661.0416666666666 151.9393939393939 L675.625 151.0079051383399 L690.2083333333334 150.81237911025144 " style="fill:none; stroke:red; stroke-width:1"/>
				</g>
			</svg>