<?xml version="1.0" encoding="UTF-8"?><svg xml:space="preserve" width="700" height="300">
				<desc>Net Runs</desc>
				<g style="stroke:#000000; stroke-width:0.5; font-family:Arial; font-size:7pt;">
					<rect x="1" y="1" width="698" height="298" style="fill:#dddddd;"/><g style="stroke:#888888; font-family:Arial; font-size:6pt;"><line x1="1" y1="286.3636363636363" x2="700" y2="286.3636363636363" style="stroke:#aaaaaa;"/><text x="5" y="284.3636363636363">-40</text></g><g style="stroke:#888888; font-family:Arial; font-size:6pt;"><line x1="1" y1="259.09090909090907" x2="700" y2="259.09090909090907" style="stroke:#aaaaaa;"/><text x="5" y="257.09090909090907">-30</text></g><g style="stroke:#888888; font-family:Arial; font-size:6pt;"><line x1="1" y1="231.81818181818178" x2="700" y2="231.81818181818178" style="stroke:#aaaaaa;"/><text x="5" y="229.81818181818178">-20</text></g><g style="stroke:#888888; font-family:Arial; font-size:6pt;"><line x1="1" y1="204.54545454545453" x2="700" y2="204.54545454545453" style="stroke:#aaaaaa;"/><text x="5" y="202.54545454545453">-10</text></g><g style="stroke:#888888; font-family:Arial; font-size:6pt;"><line x1="1" y1="177.27272727272725" x2="700" y2="177.27272727272725" style="stroke:#aaaaaa;"/><text x="5" y="175.27272727272725">0</text></g><g style="stroke:#888888; font-family:Arial; font-size:6pt;"><line x1="1" y1="149.99999999999997" x2="700" y2="149.99999999999997" style="stroke:#aaaaaa;"/><text x="5" y="147.99999999999997">10</text></g><g style="stroke:#888888; font-family:Arial; font-size:6pt;"><line x1="1" y1="122.72727272727272" x2="700" y2="122.72727272727272" style="stroke:#aaaaaa;"/><text x="5" y="120.72727272727272">20</text></g><g style="stroke:#888888; font-family:Arial; font-size:6pt;"><line x1="1" y1="95.45454545454544" x2="700" y2="95.45454545454544" style="stroke:#aaaaaa;"/><text x="5" y="93.45454545454544">30</text></g><g style="stroke:#888888; font-family:Arial; font-size:6pt;"><line x1="1" y1="68.18181818181817" x2="700" y2="68.18181818181817" style="stroke:#aaaaaa;"/><text x="5" y="66.18181818181817">40</text></g><g style="stroke:#888888; font-family:Arial; font-size:6pt;"><line x1="1" y1="40.90909090909091" x2="700" y2="40.90909090909091" style="stroke:#aaaaaa;"/><text x="5" y="38.90909090909091">50</text></g><g style="stroke:#888888; font-family:Arial; font-size:6pt;"><line x1="1" y1="13.636363636363626" x2="700" y2="13.636363636363626" style="stroke:#aaaaaa;"/><text x="5" y="11.636363636363626">60</text></g><text x="350" y="20" style="text-anchor:middle; font-size: 14pt;">Net Runs - Dickie</text>
					
					<rect x="17.5" y="114.54545454545453" height="62.72727272727272" width="12.5" style="fill:#00007f;"/><rect x="35" y="174.54545454545453" height="2.7272727272727195" width="12.5" style="fill:#00007f;"/><rect x="52.5" y="177.27272727272725" height="0" width="12.5" style="fill:#00007f;"/><rect x="70" y="177.27272727272725" height="27.27272727272728" width="12.5" style="fill:#00007f;"/><rect x="87.5" y="166.36363636363635" height="10.909090909090907" width="12.5" style="fill:#00007f;"/><rect x="105" y="144.54545454545453" height="32.72727272727272" width="12.5" style="fill:#00007f;"/><rect x="122.5" y="177.27272727272725" height="57.27272727272725" width="12.5" style="fill:#00007f;"/><rect x="140" y="166.36363636363635" height="10.909090909090907" width="12.5" style="fill:#00007f;"/><rect x="157.5" y="177.27272727272725" height="8.181818181818187" width="12.5" style="fill:#00007f;"/><rect x="175" y="177.27272727272725" height="5.4545454545454675" width="12.5" style="fill:#00007f;"/><rect x="192.5" y="177.27272727272725" height="46.363636363636374" width="12.5" style="fill:#00007f;"/><rect x="210" y="177.27272727272725" height="32.72727272727272" width="12.5" style="fill:#00007f;"/><rect x="227.5" y="177.27272727272725" height="62.72727272727272" width="12.5" style="fill:#00007f;"/><rect x="245" y="139.09090909090907" height="38.18181818181819" width="12.5" style="fill:#00007f;"/><rect x="262.5" y="152.72727272727272" height="24.545454545454533" width="12.5" style="fill:#00007f;"/><rect x="280" y="177.27272727272725" height="8.181818181818187" width="12.5" style="fill:#00007f;"/><rect x="297.5" y="169.09090909090907" height="8.181818181818187" width="12.5" style="fill:#00007f;"/><rect x="315" y="117.27272727272725" height="60" width="12.5" style="fill:#00007f;"/><rect x="332.5" y="114.54545454545453" height="62.72727272727272" width="12.5" style="fill:#00007f;"/><rect x="350" y="73.63636363636363" height="103.63636363636363" width="12.5" style="fill:#00007f;"/><rect x="367.5" y="177.27272727272725" height="8.181818181818187" width="12.5" style="fill:#00007f;"/><rect x="385" y="169.09090909090907" height="8.181818181818187" width="12.5" style="fill:#00007f;"/><rect x="402.5" y="177.27272727272725" height="54.54545454545453" width="12.5" style="fill:#00007f;"/><rect x="420" y="177.27272727272725" height="46.363636363636374" width="12.5" style="fill:#00007f;"/><rect x="437.5" y="169.09090909090907" height="8.181818181818187" width="12.5" style="fill:#00007f;"/><rect x="455" y="177.27272727272725" height="27.27272727272728" width="12.5" style="fill:#00007f;"/><rect x="472.5" y="122.72727272727272" height="54.54545454545453" width="12.5" style="fill:#00007f;"/><rect x="490" y="169.09090909090907" height="8.181818181818187" width="12.5" style="fill:#00007f;"/><rect x="507.5" y="87.27272727272725" height="90" width="12.5" style="fill:#00007f;"/><rect x="525" y="169.09090909090907" height="8.181818181818187" width="12.5" style="fill:#00007f;"/><rect x="542.5" y="177.27272727272725" height="8.181818181818187" width="12.5" style="fill:#00007f;"/><rect x="560" y="103.63636363636363" height="73.63636363636363" width="12.5" style="fill:#00007f;"/><rect x="577.5" y="171.81818181818178" height="5.4545454545454675" width="12.5" style="fill:#00007f;"/><rect x="595" y="174.54545454545453" height="2.7272727272727195" width="12.5" style="fill:#00007f;"/><rect x="612.5" y="177.27272727272725" height="57.27272727272725" width="12.5" style="fill:#00007f;"/><rect x="630" y="152.72727272727272" height="24.545454545454533" width="12.5" style="fill:#00007f;"/><rect x="647.5" y="177.27272727272725" height="24.545454545454533" width="12.5" style="fill:#00007f;"/><rect x="665" y="130.90909090909088" height="46.363636363636374" width="12.5" style="fill:#00007f;"/><rect x="682.5" y="177.27272727272725" height="5.4545454545454675" width="12.5" style="fill:#00007f;"/>
					
					<path d="M23.75 114.54545454545453 L41.25 144.54545454545453 L58.75 155.45454545454544 L76.25 167.72727272727272 L93.75 167.45454545454544 L111.25 163.63636363636363 L128.75 173.76623376623374 L146.25 172.84090909090907 L163.75 174.24242424242422 L181.25 175.09090909090907 L198.75 179.50413223140492 L216.25 182.04545454545453 L233.75 186.50349650349648 L251.25 183.1168831168831 L268.75 181.09090909090907 L286.25 181.36363636363635 L303.75 180.6417112299465 L321.25 177.1212121212121 L338.75 173.82775119617222 L356.25 168.81818181818178 L373.75 169.6103896103896 L391.25 169.5867768595041 L408.75 172.29249011857706 L426.25 174.43181818181816 L443.75 174.2181818181818 L461.25 175.38461538461536 L478.75 173.43434343434342 L496.25 173.27922077922076 L513.75 170.31347962382443 L531.25 170.27272727272725 L548.75 170.7624633431085 L566.25 168.66477272727272 L583.75 168.76033057851237 L601.25 168.93048128342244 L618.75 170.8051948051948 L636.25 170.30303030303028 L653.75 171.15479115479113 L671.25 170.09569377990428 L688.75 170.4195804195804 " style="fill:none; stroke:red; stroke-width:1"/>
				</g>
			</svg>